<?xml version="1.0" encoding="UTF-8" standalone="no"?>
<svg
   xmlns:dc="http://purl.org/dc/elements/1.1/"
   xmlns:cc="http://creativecommons.org/ns#"
   xmlns:rdf="http://www.w3.org/1999/02/22-rdf-syntax-ns#"
   xmlns:svg="http://www.w3.org/2000/svg"
   xmlns="http://www.w3.org/2000/svg"
   xmlns:sodipodi="http://sodipodi.sourceforge.net/DTD/sodipodi-0.dtd"
   xmlns:inkscape="http://www.inkscape.org/namespaces/inkscape"
   inkscape:version="1.0 (4035a4fb49, 2020-05-01)"
   sodipodi:docname="abxy.svg"
   xml:space="preserve"
   enable-background="new 0 0 195.574 96.744"
   viewBox="0 0 195.574 96.744"
   height="96.744px"
   width="195.574px"
   y="0px"
   x="0px"
   id="Layer_1"
   version="1.1"><metadata
   id="metadata113"><rdf:RDF><cc:Work
       rdf:about=""><dc:format>image/svg+xml</dc:format><dc:type
         rdf:resource="http://purl.org/dc/dcmitype/StillImage" /><dc:title /></cc:Work></rdf:RDF></metadata><defs
   id="defs111">
	
	
	
	

		
		
	
		
		
	
		
		
	
		
		
	
	
	
	
	

		
		
	
		
		
	
		
		
	
		
		
	</defs><sodipodi:namedview
   inkscape:current-layer="Layer_1"
   inkscape:window-maximized="0"
   inkscape:window-y="0"
   inkscape:window-x="953"
   inkscape:cy="112.35281"
   inkscape:cx="39.756637"
   inkscape:zoom="1.9288937"
   showgrid="false"
   id="namedview109"
   inkscape:window-height="1008"
   inkscape:window-width="958"
   inkscape:pageshadow="2"
   inkscape:pageopacity="0"
   guidetolerance="10"
   gridtolerance="10"
   objecttolerance="10"
   borderopacity="1"
   bordercolor="#666666"
   pagecolor="#ffffff"
   inkscape:document-rotation="0" />
<g
   id="A_1_">
			<path
   id="path2"
   d="m 23.688,0 c 13.1,0 23.705,10.606 23.705,23.682 0,13.077 -10.605,23.682 -23.705,23.682 C 10.606,47.364 0,36.759 0,23.682 0,10.606 10.606,0 23.688,0 Z"
   fill="#141414" />
		</g><g
   style="fill:#64daff;fill-opacity:1"
   id="g7"
   enable-background="new    ">
			<path
   style="fill:#64daff;fill-opacity:1"
   id="path5"
   d="M 32.448,38.835 29.67,31.172 H 17.542 l -2.645,7.663 H 9.416 L 20.883,8.526 h 5.583 l 11.512,30.309 z m -8.79,-25.756 h -0.129 c -0.107,0.847 -0.238,1.577 -0.45,2.174 l -4.137,11.679 h 9.293 L 24.072,15.253 c -0.132,-0.366 -0.283,-1.09 -0.414,-2.174 z"
   fill="#39b54a" />
		</g><g
   id="B_1_">
			<path
   id="path11"
   d="m 73.084,0 c 13.097,0 23.703,10.61 23.703,23.687 0,13.077 -10.606,23.682 -23.703,23.682 -13.085,0 -23.69,-10.606 -23.69,-23.683 C 49.394,10.609 59.999,0 73.084,0 Z"
   fill="#141414" />
		</g><g
   style="fill:#64daff;fill-opacity:1"
   id="g16"
   enable-background="new    ">
			<path
   style="fill:#64daff;fill-opacity:1"
   id="path14"
   d="m 83.288,30.01 c 0,2.628 -0.985,4.783 -2.925,6.385 -1.957,1.633 -4.47,2.437 -7.566,2.437 H 62.889 V 8.53 h 9.572 c 2.898,0 5.194,0.646 6.867,1.884 1.684,1.266 2.523,2.952 2.523,5.089 0,1.646 -0.504,3.096 -1.5,4.348 -1.014,1.28 -2.322,2.15 -3.956,2.67 v 0.091 c 2.164,0.274 3.842,1.075 5.069,2.372 1.199,1.327 1.824,2.983 1.824,5.026 z M 76.519,16.471 c 0,-1.205 -0.454,-2.144 -1.332,-2.795 -0.907,-0.649 -2.224,-0.973 -3.979,-0.973 h -3.277 v 8.383 h 3.232 c 1.693,0 3.021,-0.4 3.955,-1.201 0.926,-0.801 1.401,-1.92 1.401,-3.414 z m 1.434,13.402 c 0,-1.449 -0.508,-2.585 -1.558,-3.409 C 75.344,25.65 73.8,25.258 71.721,25.258 h -3.79 v 9.413 h 4.239 c 1.801,0 3.212,-0.438 4.237,-1.308 1.044,-0.855 1.546,-2.026 1.546,-3.49 z"
   fill="#c1272d" />
		</g><g
   id="Y_1_">
			<path
   id="path20"
   d="m 171.869,0 c 13.1,0 23.705,10.614 23.705,23.69 0,13.077 -10.605,23.682 -23.705,23.682 -13.082,0 -23.688,-10.605 -23.688,-23.682 C 148.181,10.614 158.787,0 171.869,0 Z"
   fill="#141414" />
		</g><g
   style="fill:#64daff;fill-opacity:1"
   id="g25"
   enable-background="new    ">
			<path
   style="fill:#64daff;fill-opacity:1"
   id="path23"
   d="m 174.266,27.847 v 10.987 h -4.997 V 27.97 L 159.422,8.534 h 5.721 l 6.095,12.646 c 0.213,0.411 0.339,0.783 0.438,1.121 0.099,0.336 0.176,0.61 0.256,0.825 h 0.045 c 0.151,-0.642 0.373,-1.275 0.695,-1.903 l 6.323,-12.689 h 5.319 z"
   fill="#fcee21" />
		</g><g
   id="X_1_">
			<path
   id="path29"
   d="m 122.47,0 c 13.105,0 23.711,10.61 23.711,23.687 0,13.077 -10.605,23.683 -23.711,23.683 C 109.394,47.37 98.787,36.764 98.787,23.687 98.787,10.61 109.394,0 122.47,0 Z"
   fill="#141414" />
		</g><g
   style="fill:#64daff;fill-opacity:1"
   id="g34"
   enable-background="new    ">
			<path
   style="fill:#64daff;fill-opacity:1"
   id="path32"
   d="m 129.59,38.831 -6.406,-11.019 c -0.132,-0.288 -0.242,-0.532 -0.309,-0.763 -0.049,-0.258 -0.121,-0.502 -0.212,-0.763 h -0.092 c -0.116,0.275 -0.19,0.523 -0.267,0.775 -0.077,0.222 -0.187,0.462 -0.336,0.75 l -6.523,11.019 h -6.123 L 119.459,23.641 110.2,8.53 h 6.186 l 5.401,9.954 c 0.519,0.885 0.861,1.64 1.048,2.266 h 0.073 c 0.305,-0.793 0.537,-1.311 0.657,-1.56 0.109,-0.237 2.209,-3.797 6.27,-10.66 h 5.674 l -9.459,15.02 9.581,15.281 z"
   fill="#0071bc" />
		</g>
<g
   style="fill:#64daff;fill-opacity:1"
   id="A_2_">
			<path
   style="fill:#64daff;fill-opacity:1"
   id="path40"
   d="m 23.688,49.376 c 13.1,0 23.705,10.606 23.705,23.682 0,13.077 -10.605,23.682 -23.705,23.682 C 10.606,96.74 0,86.135 0,73.058 0,59.982 10.606,49.376 23.688,49.376 Z"
   fill="#ffffff" />
		</g><g
   style="fill:#141414;fill-opacity:1"
   id="g45"
   enable-background="new    ">
			<path
   style="fill:#141414;fill-opacity:1"
   id="path43"
   d="M 32.448,88.211 29.67,80.548 H 17.542 l -2.645,7.663 H 9.416 L 20.883,57.902 h 5.583 l 11.512,30.309 z m -8.79,-25.756 h -0.129 c -0.107,0.847 -0.238,1.577 -0.45,2.174 l -4.137,11.679 h 9.293 L 24.072,64.629 c -0.132,-0.366 -0.283,-1.09 -0.414,-2.174 z"
   fill="#c64ab5" />
		</g><g
   style="fill:#64daff;fill-opacity:1"
   id="B_2_">
			<path
   style="fill:#64daff;fill-opacity:1"
   id="path49"
   d="m 73.084,49.374 c 13.097,0 23.703,10.61 23.703,23.687 0,13.077 -10.606,23.682 -23.703,23.682 -13.085,0 -23.69,-10.606 -23.69,-23.683 0,-13.077 10.605,-23.686 23.69,-23.686 z"
   fill="#ffffff" />
		</g><g
   style="fill:#141414;fill-opacity:1"
   id="g54"
   enable-background="new    ">
			<path
   style="fill:#141414;fill-opacity:1"
   id="path52"
   d="m 83.288,79.383 c 0,2.628 -0.985,4.783 -2.925,6.385 -1.957,1.633 -4.47,2.437 -7.566,2.437 H 62.889 V 57.904 h 9.572 c 2.898,0 5.194,0.646 6.867,1.884 1.684,1.266 2.523,2.952 2.523,5.089 0,1.646 -0.504,3.096 -1.5,4.348 -1.014,1.28 -2.322,2.15 -3.956,2.67 v 0.091 c 2.164,0.274 3.842,1.075 5.069,2.372 1.199,1.326 1.824,2.982 1.824,5.025 z M 76.519,65.844 c 0,-1.205 -0.454,-2.144 -1.332,-2.795 C 74.28,62.4 72.963,62.076 71.208,62.076 h -3.277 v 8.383 h 3.232 c 1.693,0 3.021,-0.4 3.955,-1.201 0.926,-0.8 1.401,-1.92 1.401,-3.414 z m 1.434,13.403 c 0,-1.449 -0.508,-2.585 -1.558,-3.409 -1.051,-0.814 -2.595,-1.206 -4.674,-1.206 h -3.79 v 9.413 h 4.239 c 1.801,0 3.212,-0.438 4.237,-1.308 1.044,-0.856 1.546,-2.027 1.546,-3.49 z"
   fill="#3ed8d2" />
		</g><g
   style="fill:#64daff;fill-opacity:1"
   id="Y_2_">
			<path
   style="fill:#64daff;fill-opacity:1"
   id="path58"
   d="m 171.869,49.372 c 13.1,0 23.705,10.614 23.705,23.69 0,13.077 -10.605,23.682 -23.705,23.682 -13.082,0 -23.688,-10.605 -23.688,-23.682 0,-13.076 10.606,-23.69 23.688,-23.69 z"
   fill="#ffffff" />
		</g><g
   style="fill:#141414;fill-opacity:1"
   id="g63"
   enable-background="new    ">
			<path
   style="fill:#141414;fill-opacity:1"
   id="path61"
   d="m 174.266,77.219 v 10.987 h -4.997 V 77.342 l -9.847,-19.436 h 5.721 l 6.095,12.646 c 0.213,0.411 0.339,0.783 0.438,1.121 0.099,0.336 0.176,0.61 0.256,0.825 h 0.045 c 0.151,-0.642 0.373,-1.275 0.695,-1.903 l 6.323,-12.689 h 5.319 z"
   fill="#0311de" />
		</g><g
   style="fill:#64daff;fill-opacity:1"
   id="X_2_">
			<path
   style="fill:#64daff;fill-opacity:1"
   id="path67"
   d="m 122.47,49.374 c 13.105,0 23.711,10.61 23.711,23.687 0,13.077 -10.605,23.683 -23.711,23.683 -13.076,0 -23.683,-10.606 -23.683,-23.683 0,-13.077 10.607,-23.687 23.683,-23.687 z"
   fill="#ffffff" />
		</g><g
   style="fill:#141414;fill-opacity:1"
   id="g72"
   enable-background="new    ">
			<path
   style="fill:#141414;fill-opacity:1"
   id="path70"
   d="m 129.59,88.205 -6.406,-11.019 c -0.132,-0.288 -0.242,-0.532 -0.309,-0.763 -0.049,-0.258 -0.121,-0.502 -0.212,-0.763 h -0.092 c -0.116,0.275 -0.19,0.523 -0.267,0.775 -0.077,0.222 -0.187,0.462 -0.336,0.75 l -6.523,11.019 h -6.123 l 10.137,-15.189 -9.26,-15.111 h 6.186 l 5.401,9.954 c 0.519,0.885 0.861,1.64 1.048,2.266 h 0.073 c 0.305,-0.793 0.537,-1.311 0.657,-1.56 0.109,-0.237 2.209,-3.797 6.27,-10.66 h 5.674 l -9.459,15.02 9.581,15.281 z"
   fill="#ff8e43" />
		</g>
<g
   id="g78">
</g>
<g
   id="g80">
</g>
<g
   id="g82">
</g>
<g
   id="g84">
</g>
<g
   id="g86">
</g>
<g
   id="g88">
</g>
<g
   id="g90">
</g>
<g
   id="g92">
</g>
<g
   id="g94">
</g>
<g
   id="g96">
</g>
<g
   id="g98">
</g>
<g
   id="g100">
</g>
<g
   id="g102">
</g>
<g
   id="g104">
</g>
<g
   id="g106">
</g>
</svg>
