<?xml version="1.0" encoding="UTF-8" standalone="no"?>
<svg
   xmlns:dc="http://purl.org/dc/elements/1.1/"
   xmlns:cc="http://creativecommons.org/ns#"
   xmlns:rdf="http://www.w3.org/1999/02/22-rdf-syntax-ns#"
   xmlns:svg="http://www.w3.org/2000/svg"
   xmlns="http://www.w3.org/2000/svg"
   xmlns:sodipodi="http://sodipodi.sourceforge.net/DTD/sodipodi-0.dtd"
   xmlns:inkscape="http://www.inkscape.org/namespaces/inkscape"
   version="1.1"
   x="0px"
   y="0px"
   width="750.00073"
   height="630.45514"
   viewBox="0 0 750.00073 630.45512"
   enable-background="new 0 0 750 630.455"
   xml:space="preserve"
   id="svg323"
   sodipodi:docname="base-white-fix.svg"
   inkscape:version="1.0 (4035a4fb49, 2020-05-01)"><metadata
   id="metadata329"><rdf:RDF><cc:Work
       rdf:about=""><dc:format>image/svg+xml</dc:format><dc:type
         rdf:resource="http://purl.org/dc/dcmitype/StillImage" /></cc:Work></rdf:RDF></metadata><defs
   id="defs327"><clipPath
     id="clipPath1753"
     clipPathUnits="userSpaceOnUse"><path
       style="fill:#ff0000;stroke-width:0.795108"
       fill="#e6e6e6"
       d="m 1483.7866,752.17506 c -5.3431,-13.26399 -16.3331,-16.59947 -17.3476,-17.49476 -9.3036,-8.21824 -1.9671,-16.86742 -15.8593,-24.40584 -14.5353,-7.8827 -57.231,-29.41661 -90.8172,-24.94651 -7.3349,0.98195 -22.1334,14.00026 -32.7696,14.00026 -17.385,0 -73.2811,0 -73.2811,0 0,0 -55.8961,0 -73.2811,0 -10.6362,0 -25.4355,-13.0191 -32.7704,-14.00026 -33.5917,-4.4701 -76.2819,17.06381 -90.8172,24.94651 -13.8922,7.53842 -6.5541,16.1876 -15.8553,24.40584 -1.0185,0.8945 -12.0093,4.23077 -17.3516,17.49476 -49.89464,124.05593 -69.47815,202.87498 -68.01833,250.59334 2.29865,75.071 60.88773,80.5652 60.88773,80.5652 29.4453,-6.8515 88.6943,-102.67631 134.0036,-102.67631 24.7755,0 103.2026,0 103.2026,0 0,0 78.4271,0 103.2026,0 45.3093,0 104.5583,95.82481 134.0059,102.67631 0,0 58.582,-5.4942 60.8759,-80.5652 1.4821,-47.71836 -18.1364,-126.53741 -68.0096,-250.59334 z"
       id="path1755" /></clipPath><filter
     inkscape:collect="always"
     style="color-interpolation-filters:sRGB"
     id="filter2545"
     x="-0.19200589"
     width="1.3840117"
     y="-0.19199412"
     height="1.3839881"><feGaussianBlur
       inkscape:collect="always"
       stdDeviation="5.212"
       id="feGaussianBlur2547" /></filter><clipPath
     clipPathUnits="userSpaceOnUse"
     id="clipPath1753-8"><path
       id="path1755-6"
       d="m 1483.7866,752.17506 c -5.3431,-13.26399 -16.3331,-16.59947 -17.3476,-17.49476 -9.3036,-8.21824 -1.9671,-16.86742 -15.8593,-24.40584 -14.5353,-7.8827 -57.231,-29.41661 -90.8172,-24.94651 -7.3349,0.98195 -22.1334,14.00026 -32.7696,14.00026 -17.385,0 -73.2811,0 -73.2811,0 0,0 -55.8961,0 -73.2811,0 -10.6362,0 -25.4355,-13.0191 -32.7704,-14.00026 -33.5917,-4.4701 -76.2819,17.06381 -90.8172,24.94651 -13.8922,7.53842 -6.5541,16.1876 -15.8553,24.40584 -1.0185,0.8945 -12.0093,4.23077 -17.3516,17.49476 -49.89464,124.05593 -69.47815,202.87498 -68.01833,250.59334 2.29865,75.071 60.88773,80.5652 60.88773,80.5652 29.4453,-6.8515 88.6943,-102.67631 134.0036,-102.67631 24.7755,0 103.2026,0 103.2026,0 0,0 78.4271,0 103.2026,0 45.3093,0 104.5583,95.82481 134.0059,102.67631 0,0 58.582,-5.4942 60.8759,-80.5652 1.4821,-47.71836 -18.1364,-126.53741 -68.0096,-250.59334 z"
       fill="#e6e6e6"
       style="fill:#ff0000;stroke-width:0.795108" /></clipPath></defs><sodipodi:namedview
   inkscape:object-paths="true"
   inkscape:snap-smooth-nodes="true"
   inkscape:snap-center="true"
   inkscape:document-rotation="0"
   pagecolor="#ffffff"
   bordercolor="#666666"
   borderopacity="1"
   objecttolerance="10"
   gridtolerance="10"
   guidetolerance="10"
   inkscape:pageopacity="0"
   inkscape:pageshadow="2"
   inkscape:window-width="958"
   inkscape:window-height="1008"
   id="namedview325"
   showgrid="false"
   inkscape:zoom="2"
   inkscape:cx="374.09519"
   inkscape:cy="382.50059"
   inkscape:window-x="-7"
   inkscape:window-y="0"
   inkscape:window-maximized="0"
   inkscape:current-layer="svg323"
   showguides="true" />

<g
   id="Layer_2"
   transform="translate(893.78304,-1015.4052)">
	<g
   id="g292">
	</g>
	<g
   id="g294">
	</g>
	<g
   id="g296">
	</g>
	<g
   id="g298">
	</g>
	<g
   id="g300">
	</g>
	<g
   id="g302">
	</g>
	<g
   id="g304">
	</g>
	<g
   id="g306">
	</g>
	<g
   id="g308">
	</g>
	<g
   id="g310">
	</g>
	<g
   id="g312">
	</g>
	<g
   id="g314">
	</g>
	<g
   id="g316">
	</g>
	<g
   id="g318">
	</g>
	<g
   id="g320">
	</g>
</g>
<g
   clip-path="url(#clipPath1753)"
   transform="matrix(1.2576908,0,0,1.2576908,-1201.7768,-732.04359)"
   id="g3825"><path
     d="M 940.70807,656.52856 H 1566.7081 V 1111.5286 H 940.70807 Z"
     style="opacity:1;fill:#ffffff;stroke:none;stroke-width:3.77953;paint-order:stroke fill markers"
     id="path3691" /><path
     style="opacity:0.7;fill:#cccccc;stroke:none;stroke-width:1px;stroke-linecap:butt;stroke-linejoin:miter;stroke-opacity:1"
     d="m 940.70808,694.55564 79.82382,-38.02707 h 19.4454 l 21.5668,54.11374 -120.83602,-10.25304 z"
     id="path3693" /><path
     style="opacity:0;fill:#cccccc;stroke:none;stroke-width:1px;stroke-linecap:butt;stroke-linejoin:miter;stroke-opacity:1"
     d="m 1061.5441,710.64231 -120.83602,62.88626 v -73.1393 z"
     id="path3695" /><path
     style="opacity:0.7;fill:#cccccc;stroke:none;stroke-width:1px;stroke-linecap:butt;stroke-linejoin:miter;stroke-opacity:1"
     d="m 940.70808,773.52857 v 95.25 L 1061.5441,710.64231 Z"
     id="path3697" /><path
     style="opacity:0.5;fill:#cccccc;stroke:none;stroke-width:1px;stroke-linecap:butt;stroke-linejoin:miter;stroke-opacity:1"
     d="m 1061.5441,710.64231 -21.5668,-54.11374 h 117.2308 z"
     id="path3699" /><path
     style="opacity:0.3;fill:#cccccc;stroke:none;stroke-width:1px;stroke-linecap:butt;stroke-linejoin:miter;stroke-opacity:1"
     d="m 1157.2081,656.52857 h 8.75 l -48.25,137.25 -56.164,-83.13626 z"
     id="path3701" /><path
     style="opacity:0.8;fill:#cccccc;stroke:none;stroke-width:1px;stroke-linecap:butt;stroke-linejoin:miter;stroke-opacity:1"
     d="m 1061.5441,710.64231 -10.836,131.13626 67,-48 z"
     id="path3703" /><path
     style="opacity:0.2;fill:#cccccc;stroke:none;stroke-width:1px;stroke-linecap:butt;stroke-linejoin:miter;stroke-opacity:1"
     d="m 940.70808,880.77857 v -12 l 120.83602,-158.13626 -10.836,131.13626 z"
     id="path3705" /><path
     style="opacity:0.6;fill:#cccccc;stroke:none;stroke-width:1px;stroke-linecap:butt;stroke-linejoin:miter;stroke-opacity:1"
     d="m 1117.7081,793.77857 130.6889,-137.25 h -82.4389 z"
     id="path3707" /><path
     style="opacity:0.8;fill:#cccccc;stroke:none;stroke-width:1px;stroke-linecap:butt;stroke-linejoin:miter;stroke-opacity:1"
     d="m 1248.397,656.52857 h 8.8389 l 33.9411,109.26807 -173.4689,27.98193 z"
     id="path3709" /><path
     style="opacity:0.8;fill:#cccccc;stroke:none;stroke-width:1px;stroke-linecap:butt;stroke-linejoin:miter;stroke-opacity:1"
     d="m 1117.7081,793.77857 -26.2888,141.7237 94.7523,21.56676 z"
     id="path3711" /><path
     style="opacity:0.4;fill:#cccccc;stroke:none;stroke-width:1px;stroke-linecap:butt;stroke-linejoin:miter;stroke-opacity:1"
     d="m 1050.7081,841.77857 40.7112,93.7237 26.2888,-141.7237 z"
     id="path3713" /><path
     style="opacity:0.6;fill:#cccccc;stroke:none;stroke-width:1px;stroke-linecap:butt;stroke-linejoin:miter;stroke-opacity:1"
     d="m 1050.7081,841.77857 -110.00002,39 v 7.7011 l 150.71122,47.0226 z"
     id="path3715" /><path
     style="opacity:0.5;fill:#cccccc;stroke:none;stroke-width:1px;stroke-linecap:butt;stroke-linejoin:miter;stroke-opacity:1"
     d="m 940.70808,888.47967 v 4.06586 l 85.65742,57.09888 65.0538,-14.14214 z"
     id="path3717" /><path
     style="opacity:0.4;fill:#cccccc;stroke:none;stroke-width:1px;stroke-linecap:butt;stroke-linejoin:miter;stroke-opacity:1"
     d="m 940.70808,892.54553 v 10.60804 l 69.62502,106.12503 16.0324,-59.63419 z"
     id="path3719" /><path
     style="opacity:0;fill:#cccccc;stroke:none;stroke-width:1px;stroke-linecap:butt;stroke-linejoin:miter;stroke-opacity:1"
     d="m 940.70808,903.15357 v 16.5 l 28.5,82.00003 41.12502,7.625 z"
     id="path3721" /><path
     style="opacity:0.8;fill:#cccccc;stroke:none;stroke-width:1px;stroke-linecap:butt;stroke-linejoin:miter;stroke-opacity:1"
     d="m 940.70808,919.65357 v 56.75 l 28.5,25.25003 z"
     id="path3723" /><path
     style="opacity:0.7;fill:#cccccc;stroke:none;stroke-width:1px;stroke-linecap:butt;stroke-linejoin:miter;stroke-opacity:1"
     d="m 940.70808,976.40357 v 109.37503 l 28.5,-84.125 z"
     id="path3725" /><path
     style="opacity:0.5;fill:#cccccc;stroke:none;stroke-width:1px;stroke-linecap:butt;stroke-linejoin:miter;stroke-opacity:1"
     d="m 940.70808,1085.7786 v 19.25 l 69.62502,-95.75 -41.12502,-7.625 z"
     id="path3727" /><path
     style="opacity:0.2;fill:#cccccc;stroke:none;stroke-width:1px;stroke-linecap:butt;stroke-linejoin:miter;stroke-opacity:1"
     d="m 940.70808,1105.0286 v 6.5 h 109.00002 l -39.375,-102.25 z"
     id="path3729" /><path
     style="opacity:0.3;fill:#cccccc;stroke:none;stroke-width:1px;stroke-linecap:butt;stroke-linejoin:miter;stroke-opacity:1"
     d="m 1049.7081,1111.5286 h 24.5 l 47.5,-26 -111.375,-76.25 z"
     id="path3731" /><path
     style="opacity:0.6;fill:#cccccc;stroke:none;stroke-width:1px;stroke-linecap:butt;stroke-linejoin:miter;stroke-opacity:1"
     d="m 1026.3655,949.64441 -16.0324,59.63419 111.375,76.25 z"
     id="path3733" /><path
     style="opacity:0.2;fill:#cccccc;stroke:none;stroke-width:1px;stroke-linecap:butt;stroke-linejoin:miter;stroke-opacity:1"
     d="m 1091.4193,935.50227 -65.0538,14.14214 95.3426,135.88419 z"
     id="path3735" /><path
     style="opacity:0.8;fill:#cccccc;stroke:none;stroke-width:1px;stroke-linecap:butt;stroke-linejoin:miter;stroke-opacity:1"
     d="m 1121.7081,1085.5286 64,-54 -94.2888,-96.02633 z"
     id="path3737" /><path
     style="opacity:0.5;fill:#cccccc;stroke:none;stroke-width:1px;stroke-linecap:butt;stroke-linejoin:miter;stroke-opacity:1"
     d="m 1185.7081,1031.5286 0.4635,-74.45957 -94.7523,-21.56676 z"
     id="path3739" /><path
     style="opacity:0.5;fill:#cccccc;stroke:none;stroke-width:1px;stroke-linecap:butt;stroke-linejoin:miter;stroke-opacity:1"
     d="m 1121.7081,1085.5286 16,26 h -63.5 z"
     id="path3741" /><path
     style="opacity:0.2;fill:#cccccc;stroke:none;stroke-width:1px;stroke-linecap:butt;stroke-linejoin:miter;stroke-opacity:1"
     d="m 1147.9581,1111.5286 h -10.25 l -16,-26 64,-54 z"
     id="path3743" /><path
     style="opacity:0.8;fill:#cccccc;stroke:none;stroke-width:1px;stroke-linecap:butt;stroke-linejoin:miter;stroke-opacity:1"
     d="m 1185.7081,1031.5286 60.5,80 h -98.25 z"
     id="path3745" /><path
     style="opacity:0.5;fill:#cccccc;stroke:none;stroke-width:1px;stroke-linecap:butt;stroke-linejoin:miter;stroke-opacity:1"
     d="m 1186.1716,957.06903 18.7865,-124.54046 -87.25,-38.75 z"
     id="path3747" /><path
     style="opacity:0.6;fill:#cccccc;stroke:none;stroke-width:1px;stroke-linecap:butt;stroke-linejoin:miter;stroke-opacity:1"
     d="m 1204.9581,832.52857 86.2189,-66.73193 -173.4689,27.98193 z"
     id="path3749" /><path
     style="opacity:0.2;fill:#cccccc;stroke:none;stroke-width:1px;stroke-linecap:butt;stroke-linejoin:miter;stroke-opacity:1"
     d="m 1291.177,765.79664 -11.4689,112.23193 -74.75,-45.5 z"
     id="path3751" /><path
     style="opacity:0.4;fill:#cccccc;stroke:none;stroke-width:1px;stroke-linecap:butt;stroke-linejoin:miter;stroke-opacity:1"
     d="m 1204.9581,832.52857 -18.7865,124.54046 93.5365,-79.04046 z"
     id="path3753" /><path
     style="opacity:0.7;fill:#cccccc;stroke:none;stroke-width:1px;stroke-linecap:butt;stroke-linejoin:miter;stroke-opacity:1"
     d="m 1186.1716,957.06903 99.0365,73.95957 -99.5,0.5 z"
     id="path3755" /><path
     style="opacity:0.602;fill:#cccccc;stroke:none;stroke-width:1px;stroke-linecap:butt;stroke-linejoin:miter;stroke-opacity:1"
     d="m 1279.7081,878.02857 5.5,153.00003 -99.0365,-73.95957 z"
     id="path3757" /><path
     style="opacity:0.4;fill:#cccccc;stroke:none;stroke-width:1px;stroke-linecap:butt;stroke-linejoin:miter;stroke-opacity:1"
     d="m 1285.2081,1031.0286 -27.9722,80.5 h -11.0278 l -60.5,-80 z"
     id="path3759" /><path
     style="opacity:0.7;fill:#cccccc;stroke:none;stroke-width:1px;stroke-linecap:butt;stroke-linejoin:miter;stroke-opacity:1"
     d="m 1291.177,765.79664 46.669,-109.26807 h -80.6101 z"
     id="path3761" /><path
     style="opacity:0.3;fill:#cccccc;stroke:none;stroke-width:1px;stroke-linecap:butt;stroke-linejoin:miter;stroke-opacity:1"
     d="m 1291.177,765.79664 112.7835,-55.86143 -54.4472,-53.40664 h -11.6673 z"
     id="path3763" /><path
     style="opacity:0.8;fill:#cccccc;stroke:none;stroke-width:1px;stroke-linecap:butt;stroke-linejoin:miter;stroke-opacity:1"
     d="m 1291.177,765.79664 84.1457,146.37111 -95.6146,-34.13918 z"
     id="path3765" /><path
     style="opacity:0.6;fill:#cccccc;stroke:none;stroke-width:1px;stroke-linecap:butt;stroke-linejoin:miter;stroke-opacity:1"
     d="m 1375.3227,912.16775 28.6378,-202.23254 -112.7835,55.86143 z"
     id="path3767" /><path
     style="opacity:0.3;fill:#cccccc;stroke:none;stroke-width:1px;stroke-linecap:butt;stroke-linejoin:miter;stroke-opacity:1"
     d="m 1375.3227,912.16775 -41.7193,65.05382 -53.8953,-99.193 z"
     id="path3769" /><path
     style="opacity:0.5;fill:#cccccc;stroke:none;stroke-width:1px;stroke-linecap:butt;stroke-linejoin:miter;stroke-opacity:1"
     d="m 1333.6034,977.22157 -48.3953,53.80703 -5.5,-153.00003 z"
     id="path3771" /><path
     style="opacity:0.7;fill:#cccccc;stroke:none;stroke-width:1px;stroke-linecap:butt;stroke-linejoin:miter;stroke-opacity:1"
     d="m 1375.3227,912.16775 64.3467,94.39875 -106.066,-29.34493 z"
     id="path3773" /><path
     style="opacity:0.4;fill:#cccccc;stroke:none;stroke-width:1px;stroke-linecap:butt;stroke-linejoin:miter;stroke-opacity:1"
     d="m 1333.6034,977.22157 106.066,29.34493 -154.4613,24.4621 z"
     id="path3775" /><path
     style="opacity:0.3;fill:#cccccc;stroke:none;stroke-width:1px;stroke-linecap:butt;stroke-linejoin:miter;stroke-opacity:1"
     d="m 1285.2081,1031.0286 78.0938,44.4808 -87.3277,36.0192 h -18.7383 z"
     id="path3777" /><path
     style="opacity:0;fill:#cccccc;stroke:none;stroke-width:1px;stroke-linecap:butt;stroke-linejoin:miter;stroke-opacity:1"
     d="m 1363.3019,1075.5094 76.3675,-68.9429 -154.4613,24.4621 z"
     id="path3779" /><path
     style="opacity:0.8;fill:#cccccc;stroke:none;stroke-width:1px;stroke-linecap:butt;stroke-linejoin:miter;stroke-opacity:1"
     d="m 1349.5133,656.52857 54.4472,53.40664 80.2476,-53.40664 z"
     id="path3781" /><path
     style="opacity:0.5;fill:#cccccc;stroke:none;stroke-width:1px;stroke-linecap:butt;stroke-linejoin:miter;stroke-opacity:1"
     d="m 1484.2081,656.52857 h 4.4284 l 1.591,138.25945 -86.267,-84.85281 z"
     id="path3783" /><path
     style="opacity:0.7;fill:#cccccc;stroke:none;stroke-width:1px;stroke-linecap:butt;stroke-linejoin:miter;stroke-opacity:1"
     d="m 1490.2275,794.78802 -63.6396,56.9221 -22.6274,-141.77491 z"
     id="path3785"
     sodipodi:nodetypes="cccc" /><path
     style="opacity:0.3;fill:#cccccc;stroke:none;stroke-width:1px;stroke-linecap:butt;stroke-linejoin:miter;stroke-opacity:1"
     d="m 1403.9605,709.93521 -28.6378,202.23254 51.2652,-60.45763 z"
     id="path3787" /><path
     style="opacity:0.1;fill:#cccccc;stroke:none;stroke-width:1px;stroke-linecap:butt;stroke-linejoin:miter;stroke-opacity:1"
     d="m 1488.6365,656.52857 1.591,138.25945 76.4806,-124.80435 v -13.4551 z"
     id="path3789" /><path
     style="opacity:0.4;fill:#cccccc;stroke:none;stroke-width:1px;stroke-linecap:butt;stroke-linejoin:miter;stroke-opacity:1"
     d="m 1566.7081,669.98367 v 68.94292 l -76.4806,55.86143 z"
     id="path3791" /><path
     style="opacity:0.6;fill:#cccccc;stroke:none;stroke-width:1px;stroke-linecap:butt;stroke-linejoin:miter;stroke-opacity:1"
     d="m 1490.2275,794.78802 43.8407,48.79037 32.6399,-80.61017 v -24.04163 z"
     id="path3793" /><path
     style="opacity:0.3;fill:#cccccc;stroke:none;stroke-width:1px;stroke-linecap:butt;stroke-linejoin:miter;stroke-opacity:1"
     d="m 1490.2275,794.78802 43.8407,48.79037 -107.4803,8.13173 z"
     id="path3795" /><path
     style="opacity:0.2;fill:#cccccc;stroke:none;stroke-width:1px;stroke-linecap:butt;stroke-linejoin:miter;stroke-opacity:1"
     d="m 1534.0682,843.57839 32.6399,6.36396 v -86.97413 z"
     id="path3797" /><path
     style="opacity:0.8;fill:#cccccc;stroke:none;stroke-width:1px;stroke-linecap:butt;stroke-linejoin:miter;stroke-opacity:1"
     d="m 1534.0682,843.57839 32.6399,77.42819 v -71.06423 z"
     id="path3799" /><path
     style="opacity:0.5;fill:#cccccc;stroke:none;stroke-width:1px;stroke-linecap:butt;stroke-linejoin:miter;stroke-opacity:1"
     d="m 1534.0682,843.57839 -33.5876,100.05561 66.2275,4.59619 v -27.22361 z"
     id="path3801" /><path
     style="opacity:0;fill:#cccccc;stroke:none;stroke-width:1px;stroke-linecap:butt;stroke-linejoin:miter;stroke-opacity:1"
     d="m 1500.4806,943.634 -73.8927,-91.92388 107.4803,-8.13173 z"
     id="path3803" /><path
     style="opacity:0.8;fill:#cccccc;stroke:none;stroke-width:1px;stroke-linecap:butt;stroke-linejoin:miter;stroke-opacity:1"
     d="m 1500.4806,943.634 -60.8112,62.9325 -13.0815,-154.85638 z"
     id="path3805" /><path
     style="opacity:0.6;fill:#cccccc;stroke:none;stroke-width:1px;stroke-linecap:butt;stroke-linejoin:miter;stroke-opacity:1"
     d="m 1439.6694,1006.5665 -64.3467,-94.39875 51.2652,-60.45763 z"
     id="path3807" /><path
     style="opacity:0.5;fill:#cccccc;stroke:none;stroke-width:1px;stroke-linecap:butt;stroke-linejoin:miter;stroke-opacity:1"
     d="m 1275.9742,1111.5286 87.3277,-36.0192 79.1959,36.0192 z"
     id="path3809" /><path
     style="opacity:0.6;fill:#cccccc;stroke:none;stroke-width:1px;stroke-linecap:butt;stroke-linejoin:miter;stroke-opacity:1"
     d="m 1461.2081,1111.5286 -21.5387,-104.9621 -76.3675,68.9429 79.1959,36.0192 z"
     id="path3811" /><path
     style="opacity:0.5;fill:#cccccc;stroke:none;stroke-width:1px;stroke-linecap:butt;stroke-linejoin:miter;stroke-opacity:1"
     d="m 1461.2081,1111.5286 h 3.3868 l 35.8857,-167.8946 -60.8112,62.9325 z"
     id="path3813" /><path
     style="opacity:0.4;fill:#cccccc;stroke:none;stroke-width:1px;stroke-linecap:butt;stroke-linejoin:miter;stroke-opacity:1"
     d="m 1500.4806,943.634 18.7275,114.8946 47.5,-84.50003 v -25.79838 z"
     id="path3815" /><path
     style="opacity:0.7;fill:#cccccc;stroke:none;stroke-width:1px;stroke-linecap:butt;stroke-linejoin:miter;stroke-opacity:1"
     d="m 1519.2081,1058.5286 -46.5,53 h -8.1132 l 35.8857,-167.8946 z"
     id="path3817" /><path
     style="opacity:0.5;fill:#cccccc;stroke:none;stroke-width:1px;stroke-linecap:butt;stroke-linejoin:miter;stroke-opacity:1"
     d="m 1519.2081,1058.5286 47.5,48 v 5 h -94 z"
     id="path3819" /><path
     style="opacity:0.2;fill:#cccccc;stroke:none;stroke-width:1px;stroke-linecap:butt;stroke-linejoin:miter;stroke-opacity:1"
     d="m 1519.2081,1058.5286 47.5,-84.50003 v 132.50003 z"
     id="path3821" /><path
     id="path3823"
     d="m 940.70808,694.55564 v -38.02708 l 79.82382,10e-6 z"
     style="opacity:0.3;fill:#cccccc;stroke:none;stroke-width:1px;stroke-linecap:butt;stroke-linejoin:miter;stroke-opacity:1" /></g><g
   id="g3831"
   transform="translate(7e-5,9.4932367e-5)"><path
     fill="none"
     d="m 106.249,192.642 c 0.541,-0.289 0.941,-0.487 1.155,-0.65 -0.39,0.223 -0.771,0.423 -1.155,0.65 z"
     id="path3827" /><path
     fill="none"
     d="m 642.559,191.966 c 0.214,0.177 0.754,0.435 1.527,0.819 -0.491,-0.271 -1.017,-0.542 -1.527,-0.819 z"
     id="path3829" /></g><line
   fill="none"
   x1="107.46407"
   y1="191.95709"
   x2="107.46407"
   y2="193.51909"
   id="line3833" /><line
   fill="none"
   x1="642.55005"
   y1="191.47209"
   x2="642.55005"
   y2="192.42209"
   id="line3835" /><g
   id="g3981"
   transform="translate(7e-5,9.4932367e-5)"><g
     id="g3843"><path
       fill="#ebebeb"
       d="m 277.671,462.114 c -33.437,0 -60.64,-27.197 -60.64,-60.627 0,-33.427 27.203,-60.623 60.64,-60.623 33.428,0 60.624,27.195 60.624,60.623 0,33.43 -27.196,60.627 -60.624,60.627 z"
       id="path3837" /><g
       id="g3841"><path
         fill="#dedede"
         d="m 277.671,341.865 c 32.876,0 59.624,26.747 59.624,59.623 0,32.878 -26.747,59.627 -59.624,59.627 -32.885,0 -59.64,-26.749 -59.64,-59.627 0.001,-32.877 26.755,-59.623 59.64,-59.623 m 0,-2 c -34.036,0 -61.64,27.578 -61.64,61.623 0,34.05 27.604,61.627 61.64,61.627 34.037,0 61.624,-27.577 61.624,-61.627 0,-34.046 -27.587,-61.623 -61.624,-61.623 z"
         id="path3839" /></g></g><g
     display="none"
     id="g3853"><g
       display="inline"
       id="g3847"><path
         fill="#141414"
         d="m 291.234,353.51 v 0 c 0,-4.986 -27.126,-4.986 -27.126,-10e-4 0,23.849 0,95.963 0,95.963 v 0 0 c 0,4.982 27.127,4.982 27.127,0 0,-23.852 0,-95.962 -0.001,-95.962 z"
         id="path3845" /></g><g
       display="inline"
       id="g3851"><path
         fill="#141414"
         d="m 229.688,387.936 v 0 c -4.996,0 -4.996,27.113 -10e-4,27.113 23.866,0 95.967,0 95.967,0 v 0 0 c 4.967,0 4.967,-27.113 0,-27.113 -23.865,0 -95.966,0 -95.966,0 z"
         id="path3849" /></g></g><g
     display="none"
     id="g3883"><g
       display="inline"
       id="g3857"><path
         fill="#ff0000"
         d="m 277.671,349.781 c 6.768,0 13.563,1.227 13.563,3.729 v 0.001 h 0.001 c 0,0 0,15.442 0,34.425 13.806,0 26.66,0 34.419,0 4.967,0 4.967,27.113 0,27.113 v 0 0 c 0,0 -15.461,0 -34.419,0 0,13.826 0,26.679 0,34.424 0,2.498 -6.796,3.726 -13.564,3.726 -6.796,0 -13.563,-1.228 -13.563,-3.726 v 0 0 c 0,0 0,-15.446 0,-34.424 -13.822,0 -26.664,0 -34.42,0 -4.995,0 -4.995,-27.113 0,-27.113 h 0.001 c 0,0 15.454,0 34.419,0 0,-13.83 0,-26.684 0,-34.426 0,-2.502 6.767,-3.729 13.563,-3.729 m 0,-3.604 c -3.846,0 -7.459,0.362 -10.18,1.036 -5.792,1.409 -6.985,4.192 -6.985,6.297 v 30.802 h -30.817 c -2.106,0 -4.9,1.221 -6.309,6.989 -0.664,2.746 -1.032,6.358 -1.032,10.188 0,3.835 0.368,7.447 1.032,10.193 1.409,5.767 4.203,6.989 6.308,6.989 h 30.818 v 30.804 0.846 l 0.093,0.236 c 0.41,1.883 2.061,4.041 6.892,5.212 2.721,0.672 6.333,1.041 10.18,1.041 3.818,0 7.432,-0.369 10.175,-1.041 5.768,-1.408 6.989,-4.191 6.989,-6.294 v -30.804 h 30.819 1.496 l 0.34,-0.345 c 1.675,-0.683 3.424,-2.467 4.473,-6.645 0.664,-2.746 1.032,-6.357 1.032,-10.192 0,-3.831 -0.368,-7.442 -1.032,-10.188 -1.438,-5.768 -4.221,-6.989 -6.308,-6.989 H 294.836 V 353.51 c 0,-2.106 -1.222,-4.889 -6.989,-6.298 -2.743,-0.673 -6.358,-1.035 -10.176,-1.035 z"
         id="path3855" /></g><line
       display="inline"
       fill="none"
       x1="287.63"
       y1="357.121"
       x2="294.836"
       y2="349.89099"
       id="line3859" /><line
       display="inline"
       fill="none"
       x1="267.772"
       y1="356.15201"
       x2="260.91299"
       y2="349.311"
       id="line3861" /><line
       display="inline"
       fill="none"
       x1="322.30301"
       y1="391.26501"
       x2="329.008"
       y2="384.58801"
       id="line3863" /><line
       display="inline"
       fill="none"
       x1="322.806"
       y1="412.207"
       x2="328.48599"
       y2="417.89801"
       id="line3865" /><line
       display="inline"
       fill="none"
       x1="286.673"
       y1="392.474"
       x2="295.767"
       y2="383.379"
       id="line3867" /><line
       display="inline"
       fill="none"
       x1="286.13"
       y1="409.93701"
       x2="296.34"
       y2="420.16501"
       id="line3869" /><line
       display="inline"
       fill="none"
       x1="287.54199"
       y1="445.79099"
       x2="294.92801"
       y2="453.15701"
       id="line3871" /><line
       display="inline"
       fill="none"
       x1="268.53101"
       y1="445.061"
       x2="259.686"
       y2="453.88501"
       id="line3873" /><line
       display="inline"
       fill="none"
       x1="269.578"
       y1="409.56799"
       x2="258.638"
       y2="420.52802"
       id="line3875" /><line
       display="inline"
       fill="none"
       x1="270.332"
       y1="394.15302"
       x2="257.88501"
       y2="381.70599"
       id="line3877" /><line
       display="inline"
       fill="none"
       x1="233.763"
       y1="410.991"
       x2="225.612"
       y2="419.11401"
       id="line3879" /><line
       display="inline"
       fill="none"
       x1="233.39999"
       y1="391.62799"
       x2="225.974"
       y2="384.228"
       id="line3881" /></g><g
     id="g3915"><g
       id="g3889"><path
         fill="#141414"
         d="m 277.671,452.698 c -7.132,0 -12.742,-1.323 -13.049,-3.078 -0.008,-0.049 -0.014,-0.103 -0.014,-0.148 0,-0.138 0,-15.531 0,-34.424 0,-0.276 -0.224,-0.5 -0.5,-0.5 h -34.42 c -1.82,0 -3.246,-5.735 -3.246,-13.057 0,-7.322 1.426,-13.057 3.246,-13.057 h 34.42 c 0.276,0 0.5,-0.224 0.5,-0.5 v -34.426 c 0,-0.043 0.007,-0.093 0.014,-0.142 l 0.06,-0.227 c 0.029,-0.041 0.066,-0.107 0.082,-0.133 0.495,-0.809 2.105,-1.517 4.535,-1.992 0.305,-0.068 0.594,-0.126 0.889,-0.182 0.351,-0.063 0.658,-0.112 0.958,-0.135 0.035,-0.003 0.128,-0.016 0.162,-0.026 0.255,-0.029 0.579,-0.072 0.907,-0.111 0.335,-0.04 0.674,-0.076 1.018,-0.109 0.364,-0.034 0.693,-0.06 1.023,-0.083 l 2.369,-0.077 c 0.353,-0.008 0.701,-0.012 1.047,-0.012 7.325,0 13.063,1.418 13.063,3.229 10e-4,0.173 10e-4,16.047 10e-4,34.426 0,0.276 0.224,0.5 0.5,0.5 h 34.419 c 1.809,0 3.226,5.735 3.226,13.057 0,7.322 -1.417,13.057 -3.226,13.057 h -34.419 c -0.276,0 -0.5,0.224 -0.5,0.5 v 34.424 c 0,0.045 -0.006,0.099 -0.015,0.152 -0.306,1.751 -5.917,3.074 -13.05,3.074 z"
         id="path3885" /><path
         fill="#120B0B"
         d="m 277.671,350.781 c 8.089,0 12.563,1.613 12.563,2.729 0,0.015 0,0.029 0.001,0.044 v 34.382 c 0,0.552 0.448,1 1,1 h 34.419 c 1.138,0 2.726,4.777 2.726,12.556 0,7.78 -1.588,12.557 -2.726,12.557 h -34.419 c -0.552,0 -1,0.448 -1,1 v 34.423 c 0,0.021 -0.004,0.046 -0.006,0.063 -0.195,1.117 -4.668,2.664 -12.558,2.664 -7.889,0 -12.361,-1.547 -12.556,-2.656 -0.004,-0.027 -0.008,-0.054 -0.008,-0.07 v -34.424 c 0,-0.552 -0.448,-1 -1,-1 h -34.42 c -1.146,0 -2.746,-4.776 -2.746,-12.556 0,-7.78 1.6,-12.558 2.747,-12.558 h 34.419 c 0.552,0 1,-0.448 1,-1 v -34.422 c 0,-0.021 0.004,-0.043 0.004,-0.043 v 0 c 0,-0.003 0.001,-0.007 0.002,-0.011 l 10e-4,-0.003 c 0.013,-0.035 0.029,-0.094 0.04,-0.134 0.012,-0.018 0.024,-0.036 0.036,-0.055 0.153,-0.25 0.906,-1.114 4.186,-1.759 0.021,-0.003 0.041,-0.007 0.061,-0.012 0.272,-0.062 0.555,-0.119 0.832,-0.171 l 0.082,-0.014 c 0.333,-0.061 0.599,-0.098 0.795,-0.114 0.048,-10e-4 0.113,-0.006 0.188,-0.02 0.309,-0.042 0.612,-0.082 0.919,-0.119 l 0.024,-0.003 c 0.328,-0.04 0.663,-0.075 1.002,-0.107 v 0 c 0.017,-10e-4 0.031,-0.002 0.04,-0.003 0.319,-0.03 0.645,-0.056 0.965,-0.078 l 0.117,-0.006 c 0.19,-0.008 0.382,-0.013 0.575,-0.017 l 0.395,-0.01 c 0.068,-0.002 0.135,-0.005 0.169,-0.008 0.325,-0.012 0.651,-0.024 0.979,-0.032 l 0.124,-10e-4 c 0.341,-0.008 0.685,-0.012 1.028,-0.012 m 0.79438,-2.44665 c -0.35,0 -0.702,0.004 -1.052,0.012 -0.041,0 -0.76801,-0.0211 -0.81001,-0.0201 -0.333,0.008 -0.664,0.02 -0.994,0.033 -0.055,0.004 -0.11,0.006 -0.166,0.008 -0.327,0.01 -0.654,0.014 -0.977,0.028 -0.046,0.002 -0.092,0.004 -0.138,0.007 -0.335,0.023 -0.668,0.05 -0.996,0.081 -0.014,10e-4 -0.027,0.003 -0.041,0.003 -0.348,0.033 -0.691,0.07 -1.027,0.11 h -0.002 c -0.331,0.04 -0.656,0.083 -0.989,0.128 -0.013,0.004 -0.034,0.006 -0.059,0.007 -0.317,0.024 -0.643,0.076 -0.938,0.13 -0.025,0.004 -0.049,0.008 -0.074,0.012 -0.301,0.057 -0.596,0.116 -0.88,0.181 -0.004,0 -0.008,10e-4 -0.013,0.002 -2.427,0.475 -4.89843,1.78141 -5.51343,2.78841 -0.37717,0.27316 -0.41266,1.28745 -0.27297,1.55697 -4.12157,11.839 -1.07679,22.66504 0.11328,34.03537 -11.33652,-0.95534 -22.33025,-1.18136 -34.01666,0.3125 l -0.10646,-0.3125 c -2.9662,-8.7066 -8.50612,27.00783 -0.038,27.90026 11.24665,1.18526 22.38908,2.57604 34.32056,0.13258 -5.13315,11.47467 -0.0146,22.77949 0.0281,34.25416 v 0 c 0,0 -0.4305,0.4645 0.021,0.234 0.408,2.329 7.16786,4.7436 13.73486,4.7436 6.568,0 13.65428,-2.47677 14.06128,-4.80577 0.014,-0.082 0.0176,-0.16508 0.021,-0.234 0.5574,-11.37332 2.94702,-21.29572 1.06911,-33.11183 11.473,1.25111 21.446,-0.0438 32.919,-1.5 v 0 c 6.73798,0.3542 6.92414,-26.88445 0.25412,-27.79249 -11.28103,-1.53575 -21.58645,-4.36332 -33.54617,-0.46956 0.75299,-11.475 2.51986,-21.77885 -0.44194,-33.25385 h -10e-4 l 0.88388,-0.0231 c 3.17379,-0.0829 -7.56651,-5.17665 -14.33351,-5.17665 z"
         id="path3887"
         sodipodi:nodetypes="cscsssssssscscssssssssscscccccccccccssscccccccccscsccscccccccccccccccssccscscsccsscccsss"
         style="fill:#64daff;fill-opacity:1" /></g><path
       fill="#242424"
       d="m 264.108,387.936 c -0.86171,-1.48211 -1.23336,-3.36003 -3.602,-3.625 h -30.817 c -0.863,0 -1.822,0.226 -2.784,0.846 -0.0209,1.53714 0.98214,2.41482 2.784,2.778 -0.001,10e-4 15.454,10e-4 34.419,10e-4 z"
       id="path3891"
       sodipodi:nodetypes="ccsccc" /><path
       fill="#292929"
       d="m 229.688,387.936 v 0 l -2.783,-2.778 c -1.367,0.93 -2.679,2.74 -3.525,6.143 -0.664,2.746 -1.032,6.358 -1.032,10.188 0,3.835 0.368,7.447 1.032,10.193 0.845,3.402 2.158,5.212 3.525,6.143 1.58177,-0.54841 2.37506,-1.55038 2.783,-2.774 -4.996,-0.002 -4.996,-27.115 0,-27.115 z"
       id="path3893"
       sodipodi:nodetypes="scccscccs" /><path
       fill="#242424"
       d="m 269.202,350.524 c 0.004,0 0.008,-10e-4 0.013,-0.002 0.284,-0.064 0.579,-0.124 0.88,-0.181 0.025,-0.004 0.049,-0.008 0.074,-0.012 0.295,-0.054 0.62,-0.105 0.938,-0.13 0.025,-0.001 0.046,-0.003 0.059,-0.007 0.333,-0.045 0.658,-0.088 0.989,-0.128 h 0.002 c 0.336,-0.041 0.679,-0.077 1.027,-0.11 0.014,0 0.027,-0.002 0.041,-0.003 0.328,-0.031 0.661,-0.057 0.996,-0.081 0.046,-0.003 0.092,-0.005 0.138,-0.007 0.323,-0.014 0.649,-0.018 0.977,-0.028 0.056,-0.002 0.111,-0.004 0.166,-0.008 0.33,-0.013 0.661,-0.025 0.994,-0.033 0.042,-10e-4 0.083,-10e-4 0.125,-0.002 0.35,-0.008 0.702,-0.012 1.052,-0.012 6.768,0 13.563,1.227 13.563,3.729 1.5,-0.23658 2.1547,-1.47214 2.755,-2.772 -0.901,-1.367 -2.713,-2.708 -6.144,-3.524 -2.743,-0.673 -6.357,-1.036 -10.175,-1.036 -3.846,0 -7.459,0.362 -10.18,1.036 -2.939,0.718 -4.715,1.796 -5.725,2.963 0.17721,1.30093 0.77655,2.32585 2.57,2.57 0.616,-1.007 2.438,-1.747 4.865,-2.222 z"
       id="path3895"
       sodipodi:nodetypes="cccccccccccsccscscccscccc" /><path
       fill="#191919"
       d="m 325.655,387.936 c 2.75585,-0.40727 2.62779,-0.71476 2.755,-2.778 -0.933,-0.621 -1.92,-0.846 -2.755,-0.846 h -30.819 c -2.19088,0.39789 -3.24087,1.72923 -3.601,3.625 13.807,-0.001 26.661,-0.001 34.42,-0.001 z"
       id="path3897"
       sodipodi:nodetypes="ccsccc" /><path
       fill="#1C1C1C"
       d="m 291.234,353.51 v 0 c 0.001,0 0.001,15.442 0.001,34.425 l 3.601,-3.625 v 0 -30.8 c 0,-0.852 -0.222,-1.835 -0.846,-2.773 z"
       id="path3899"
       style="fill:#1c1c1c;fill-opacity:1" /><path
       fill="#292929"
       d="m 264.108,353.509 c 0,-0.066 0.008,-0.142 0.02,-0.216 0.006,-0.1104 0.0485,-0.2744 0.095,-0.366 0.003,-0.005 0.006,-0.011 0.009,-0.017 0.03,-0.065 0.066,-0.124 0.106,-0.165 l -2.57,-2.57 c -0.969,1.121 -1.261,2.293 -1.261,3.333 v 30.802 l 3.602,3.625 c -10e-4,-13.83 -10e-4,-26.684 -10e-4,-34.426 z"
       id="path3901"
       sodipodi:nodetypes="ccccccsccc" /><path
       fill="#171717"
       d="m 325.654,415.049 v 0 h -34.419 c 0.74364,1.41634 0.8133,3.14236 3.6,3.62 h 30.819 c 0.81779,0.0135 1.24322,-0.0366 1.836,-0.345 0.308,-0.128 0.617,-0.303 0.925,-0.498 -0.28392,-2.03349 -0.89883,-3.49083 -2.761,-2.777 z"
       id="path3903"
       sodipodi:nodetypes="cccccccc" /><path
       fill="#0F0F0F"
       d="m 291.235,449.473 c 0.45736,1.23356 0.88999,2.48378 2.754,2.77 0.624,-0.945 0.846,-1.92 0.846,-2.77 v -30.804 l -3.6,-3.62 z"
       id="path3905"
       style="fill:#0f0f0f;fill-opacity:1"
       sodipodi:nodetypes="ccsccc" /><path
       fill="#0F0F0F"
       d="m 331.963,391.3 c -0.845,-3.402 -2.181,-5.213 -3.553,-6.143 l -2.755,2.778 c 4.967,0 4.967,27.113 0,27.113 l 2.76,2.777 c 1.369,-0.93 2.705,-2.747 3.548,-6.147 0.664,-2.746 1.032,-6.357 1.032,-10.192 0,-3.829 -0.368,-7.441 -1.032,-10.186 z"
       id="path3907"
       style="fill:#0f0f0f;fill-opacity:1" /><path
       fill="#171717"
       d="m 291.214,449.707 c -0.407,2.329 -6.975,3.491 -13.542,3.491 -6.567,0 -13.134,-1.162 -13.542,-3.491 -0.014,-0.082 -0.021,-0.165 -0.021,-0.234 -2.40375,-0.70983 -2.67297,0.94357 -2.785,2.771 0.929,1.367 2.743,2.702 6.168,3.522 2.721,0.672 6.333,1.041 10.18,1.041 3.818,0 7.432,-0.369 10.175,-1.041 3.43,-0.82 5.243,-2.157 6.143,-3.524 l -2.754,-2.77 c -10e-4,0.07 -0.008,0.153 -0.022,0.235 z"
       id="path3909"
       sodipodi:nodetypes="csccccscccc" /><path
       fill="#1c1c1c"
       d="m 264.108,449.473 v 0 -34.424 c -1.69045,0.78983 -3.27283,1.67163 -3.602,3.62 v 30.804 0.846 l 0.093,0.236 c 0.128,0.545 0.345,1.119 0.724,1.689 z"
       id="path3911"
       sodipodi:nodetypes="ccccccccc" /><path
       fill="#1A1A1A"
       d="m 229.688,415.049 -2.783,2.774 c 0.961,0.62 1.92,0.846 2.783,0.846 h 30.818 l 3.602,-3.62 c -13.822,0 -26.664,0 -34.42,0 z"
       id="path3913"
       style="fill:#1a1a1a;fill-opacity:1" /></g><g
     display="none"
     id="g3979"><polygon
       display="inline"
       fill="#242424"
       points="260.506,384.311 264.108,387.936 "
       id="polygon3917" /><polygon
       display="inline"
       fill="#1c1c1c"
       points="294.836,384.311 294.835,384.311 291.235,387.936 "
       id="polygon3919" /><g
       id="g3933"
       display="inline"><g
         id="g3925"><path
           fill="#ebebeb"
           d="M 264.608,387.729 V 353.51 c 0,-0.043 0.007,-0.093 0.014,-0.142 l 0.06,-0.227 c 0.029,-0.041 0.066,-0.107 0.082,-0.133 0.495,-0.809 2.105,-1.517 4.535,-1.992 0.305,-0.068 0.594,-0.126 0.889,-0.182 0.351,-0.063 0.658,-0.112 0.958,-0.135 0.035,-0.003 0.129,-0.016 0.163,-0.026 0.255,-0.029 0.578,-0.072 0.906,-0.111 0.335,-0.04 0.674,-0.076 1.018,-0.109 0.364,-0.034 0.693,-0.06 1.023,-0.083 l 2.369,-0.077 c 0.353,-0.008 0.701,-0.012 1.047,-0.012 7.325,0 13.063,1.418 13.063,3.229 10e-4,0.172 10e-4,15.928 10e-4,34.219 l -13.064,13.052 z"
           id="path3921" /><path
           fill="#edf4f4"
           d="m 277.671,350.781 c 8.089,0 12.563,1.613 12.563,2.729 0,0.015 0,0.029 0.001,0.044 v 33.968 l -12.564,12.553 -12.563,-12.553 v -34.008 c 0,-0.021 0.004,-0.043 0.004,-0.043 v 0 c 0,-0.003 10e-4,-0.007 0.002,-0.011 l 0.001,-0.003 c 0.013,-0.035 0.029,-0.094 0.039,-0.134 0.012,-0.018 0.024,-0.036 0.036,-0.055 0.153,-0.25 0.906,-1.114 4.186,-1.759 0.02,-0.003 0.041,-0.007 0.061,-0.012 0.272,-0.062 0.555,-0.119 0.833,-0.171 l 0.081,-0.014 c 0.333,-0.061 0.599,-0.098 0.795,-0.114 0.048,-10e-4 0.113,-0.006 0.188,-0.02 0.309,-0.042 0.612,-0.082 0.919,-0.119 0.008,-0.001 0.016,-0.002 0.024,-0.003 0.328,-0.04 0.663,-0.075 1.002,-0.107 v 0 c 0.016,-0.001 0.031,-0.002 0.039,-0.003 0.32,-0.03 0.645,-0.056 0.966,-0.078 l 0.117,-0.006 c 0.19,-0.008 0.382,-0.013 0.574,-0.017 l 0.395,-0.01 c 0.068,-0.002 0.135,-0.005 0.169,-0.008 0.325,-0.012 0.651,-0.024 0.979,-0.032 l 0.124,-0.002 c 0.342,-0.008 0.686,-0.012 1.029,-0.012 m 0,-1 c -0.35,0 -0.702,0.004 -1.052,0.012 -0.041,0 -0.083,10e-4 -0.125,0.002 -0.333,0.008 -0.664,0.02 -0.994,0.033 -0.055,0.004 -0.11,0.006 -0.166,0.008 -0.327,0.01 -0.654,0.014 -0.977,0.028 -0.046,0.002 -0.092,0.004 -0.138,0.007 -0.335,0.023 -0.668,0.05 -0.996,0.081 -0.014,10e-4 -0.027,0.003 -0.041,0.003 -0.348,0.033 -0.691,0.07 -1.027,0.11 0,0 -0.002,0 -0.002,0 -0.331,0.04 -0.656,0.083 -0.989,0.128 -0.013,0.004 -0.034,0.006 -0.059,0.007 -0.317,0.024 -0.643,0.076 -0.938,0.13 -0.025,0.004 -0.049,0.008 -0.074,0.012 -0.301,0.057 -0.596,0.116 -0.88,0.181 -0.004,0 -0.008,10e-4 -0.013,0.002 -2.427,0.475 -4.25,1.215 -4.865,2.222 -0.041,0.041 -0.076,0.1 -0.106,0.165 -0.003,0.006 -0.006,0.011 -0.009,0.017 -0.017,0.061 -0.03,0.121 -0.045,0.183 -0.007,0.019 -0.012,0.027 -0.017,0.041 -0.012,0.045 -0.024,0.093 -0.033,0.142 -0.011,0.075 -0.02,0.15 -0.02,0.216 0,7.742 0,20.596 0,34.426 l 13.563,13.552 13.564,-13.552 c 0,-18.983 0,-34.425 0,-34.425 h -0.001 v -10e-4 c 0.003,-2.503 -6.793,-3.73 -13.56,-3.73 z"
           id="path3923" /></g><path
         fill="#dbdbdb"
         d="m 269.202,350.524 c 0.004,0 0.008,-10e-4 0.013,-0.002 0.284,-0.064 0.579,-0.124 0.88,-0.181 0.025,-0.004 0.049,-0.008 0.074,-0.012 0.295,-0.054 0.62,-0.105 0.938,-0.13 0.025,-0.001 0.046,-0.003 0.059,-0.007 0.333,-0.045 0.658,-0.088 0.989,-0.128 0,0 0.002,0 0.002,0 0.336,-0.041 0.679,-0.077 1.027,-0.11 0.014,0 0.027,-0.002 0.041,-0.003 0.328,-0.031 0.661,-0.057 0.996,-0.081 0.046,-0.003 0.092,-0.005 0.138,-0.007 0.323,-0.014 0.649,-0.018 0.977,-0.028 0.056,-0.002 0.111,-0.004 0.166,-0.008 0.33,-0.013 0.661,-0.025 0.994,-0.033 0.042,-10e-4 0.083,-10e-4 0.125,-0.002 0.35,-0.008 0.702,-0.012 1.052,-0.012 6.768,0 13.563,1.227 13.563,3.729 l 2.755,-2.772 c -0.901,-1.367 -2.713,-2.708 -6.144,-3.524 -2.743,-0.673 -6.357,-1.036 -10.175,-1.036 -3.846,0 -7.459,0.362 -10.18,1.036 -2.939,0.718 -4.715,1.796 -5.725,2.963 l 2.57,2.57 c 0.616,-1.007 2.438,-1.747 4.865,-2.222 z"
         id="path3927" /><path
         fill="#e3e3e3"
         d="m 291.234,353.51 v 0 c 0.001,0 0.001,15.442 0.001,34.425 l 3.6,-3.625 v -30.8 c 0,-0.852 -0.222,-1.835 -0.846,-2.773 z"
         id="path3929" /><path
         fill="#d6d6d6"
         d="m 264.108,353.509 c 0,-0.066 0.008,-0.142 0.02,-0.216 0.009,-0.049 0.021,-0.096 0.033,-0.142 0.005,-0.014 0.01,-0.022 0.017,-0.041 0.015,-0.062 0.028,-0.122 0.045,-0.183 0.003,-0.005 0.006,-0.011 0.009,-0.017 0.03,-0.065 0.066,-0.124 0.106,-0.165 l -2.57,-2.57 c -0.969,1.121 -1.261,2.293 -1.261,3.333 v 30.802 l 3.602,3.625 c -10e-4,-13.83 -10e-4,-26.684 -10e-4,-34.426 z"
         id="path3931" /></g><rect
       x="290.483"
       y="416.85901"
       transform="matrix(-0.7051,-0.7091,0.7091,-0.7051,204.0874,918.5852)"
       display="inline"
       fill="#0f0f0f"
       width="5.105"
       height="0"
       id="rect3935" /><g
       id="g3949"
       display="inline"><g
         id="g3941"><path
           fill="#ebebeb"
           d="m 291.442,414.549 -13.063,-13.062 13.063,-13.052 h 34.212 c 1.809,0 3.226,5.735 3.226,13.057 0,7.322 -1.417,13.057 -3.226,13.057 z"
           id="path3937" /><path
           fill="#edf4f4"
           d="m 325.655,388.936 c 1.138,0 2.726,4.777 2.726,12.556 0,7.78 -1.588,12.557 -2.726,12.557 H 291.65 l -12.563,-12.561 12.563,-12.552 h 34.005 m 0,-1 c -7.759,0 -20.613,0 -34.419,0 l -13.564,13.552 13.564,13.562 c 18.958,0 34.419,0 34.419,0 v 0 c 4.967,-0.001 4.967,-27.114 0,-27.114 z"
           id="path3939" /></g><path
         fill="#e6e6e6"
         d="m 325.655,387.936 2.755,-2.778 c -0.933,-0.621 -1.92,-0.846 -2.755,-0.846 h -30.819 l -3.601,3.625 c 13.807,-0.001 26.661,-0.001 34.42,-0.001 z"
         id="path3943" /><path
         fill="#e8e8e8"
         d="m 325.654,415.049 v 0 c 0,0 -15.461,0 -34.419,0 l 3.6,3.62 h 30.819 1.496 l 0.34,-0.345 c 0.308,-0.128 0.617,-0.303 0.925,-0.498 z"
         id="path3945" /><path
         fill="#f0f0f0"
         d="m 328.41,385.157 -2.755,2.778 c 4.967,0 4.967,27.113 0,27.113 l 2.76,2.777 c 1.369,-0.93 2.705,-2.747 3.548,-6.147 0.664,-2.746 1.032,-6.357 1.032,-10.192 0,-3.831 -0.368,-7.442 -1.032,-10.188 -0.845,-3.401 -2.181,-5.211 -3.553,-6.141 z"
         id="path3947" /></g><g
       id="g3963"
       display="inline"><g
         id="g3955"><path
           fill="#ebebeb"
           d="m 277.671,452.698 c -7.132,0 -12.742,-1.323 -13.049,-3.078 -0.008,-0.049 -0.014,-0.103 -0.014,-0.148 0,-0.137 0,-15.418 0,-34.217 l 13.063,-13.062 13.064,13.062 v 34.217 c 0,0.045 -0.006,0.099 -0.015,0.152 -0.305,1.751 -5.916,3.074 -13.049,3.074 z"
           id="path3951" /><path
           fill="#edf4f4"
           d="m 277.671,402.901 12.564,12.562 v 34.009 c 0,0.021 -0.004,0.046 -0.006,0.063 -0.195,1.117 -4.668,2.664 -12.558,2.664 -7.889,0 -12.361,-1.547 -12.556,-2.656 -0.004,-0.027 -0.008,-0.054 -0.008,-0.07 v -34.01 l 12.564,-12.562 m 0,-1.414 -13.563,13.562 c 0,18.978 0,34.424 0,34.424 v 0 c 0,0.07 0.007,0.152 0.021,0.234 0.408,2.329 6.975,3.491 13.542,3.491 6.568,0 13.135,-1.162 13.542,-3.491 0.014,-0.082 0.021,-0.165 0.021,-0.234 0,-7.745 0,-20.598 0,-34.424 z"
           id="path3953" /></g><path
         fill="#f0f0f0"
         d="m 291.235,449.473 2.754,2.77 c 0.624,-0.945 0.846,-1.92 0.846,-2.77 v -30.804 l -3.6,-3.62 c 0,13.826 0,26.679 0,34.424 z"
         id="path3957" /><path
         fill="#e8e8e8"
         d="m 291.214,449.707 c -0.407,2.329 -6.975,3.491 -13.542,3.491 -6.567,0 -13.134,-1.162 -13.542,-3.491 -0.014,-0.082 -0.021,-0.165 -0.021,-0.234 l -2.785,2.771 c 0.929,1.367 2.743,2.702 6.168,3.522 2.721,0.672 6.333,1.041 10.18,1.041 3.818,0 7.432,-0.369 10.175,-1.041 3.43,-0.82 5.243,-2.157 6.143,-3.524 l -2.754,-2.77 c -10e-4,0.07 -0.008,0.153 -0.022,0.235 z"
         id="path3959" /><path
         fill="#e3e3e3"
         d="m 264.108,449.473 v 0 c 0,0 0,-15.446 0,-34.424 l -3.602,3.62 v 30.804 0.846 l 0.093,0.236 c 0.128,0.545 0.345,1.119 0.724,1.689 z"
         id="path3961" /></g><g
       id="g3977"
       display="inline"><g
         id="g3969"><path
           fill="#ebebeb"
           d="m 229.688,414.549 c -1.82,0 -3.247,-5.735 -3.247,-13.057 0,-7.322 1.426,-13.057 3.247,-13.057 h 34.213 l 13.063,13.052 -13.063,13.062 z"
           id="path3965" /><path
           fill="#edf4f4"
           d="m 263.694,388.936 12.563,12.552 -12.563,12.561 h -34.006 c -1.146,0 -2.746,-4.776 -2.746,-12.556 0,-7.78 1.6,-12.558 2.747,-12.558 h 34.005 m 0.414,-0.999 c -18.965,0 -34.419,0 -34.419,0 h -0.001 c -4.995,0 -4.995,27.113 0,27.113 7.757,0 20.599,0 34.42,0 l 13.563,-13.562 z"
           id="path3967" /></g><path
         fill="#dbdbdb"
         d="m 264.108,387.936 -3.602,-3.625 h -30.817 c -0.863,0 -1.822,0.226 -2.784,0.846 l 2.784,2.778 c -0.001,10e-4 15.454,10e-4 34.419,10e-4 z"
         id="path3971" /><path
         fill="#d6d6d6"
         d="m 229.688,387.936 v 0 l -2.783,-2.778 c -1.367,0.93 -2.679,2.74 -3.525,6.143 -0.664,2.746 -1.032,6.358 -1.032,10.188 0,3.835 0.368,7.447 1.032,10.193 0.845,3.402 2.158,5.212 3.525,6.143 l 2.783,-2.774 c -4.996,-0.002 -4.996,-27.115 0,-27.115 z"
         id="path3973" /><path
         fill="#e5e5e5"
         d="m 229.688,415.049 -2.783,2.774 c 0.961,0.62 1.92,0.846 2.783,0.846 h 30.817 l 3.603,-3.62 c -13.822,0 -26.664,0 -34.42,0 z"
         id="path3975" /></g></g></g><g
   id="g4011"
   transform="translate(7e-5,9.4932367e-5)"><g
     id="g3985"><path
       fill="#1A1615"
       d="m 448.915,280.366 c 0,10.397 -8.42,18.817 -18.789,18.817 -10.398,0 -18.819,-8.42 -18.819,-18.817 0,-10.371 8.421,-18.805 18.819,-18.805 10.369,0.001 18.789,8.434 18.789,18.805 z"
       id="path3983"
       style="fill:#1a1a1a;fill-opacity:1" /></g><g
     id="g3997"><path
       style="stroke:#64daff;stroke-opacity:1"
       fill="#0a0a0a"
       stroke="#000000"
       stroke-miterlimit="10"
       d="m 446.228,280.366 c 0,8.902 -7.229,16.103 -16.102,16.103 -8.902,0 -16.103,-7.201 -16.103,-16.103 0,-8.896 7.201,-16.103 16.103,-16.103 8.873,0.001 16.102,7.208 16.102,16.103 z"
       id="path3987" /><g
       id="g3995"><rect
         style="fill:#64daff;fill-opacity:1"
         x="422.931"
         y="275.741"
         fill="#6d6b6c"
         width="14.361"
         height="1.552"
         id="rect3989" /><rect
         style="fill:#64daff;fill-opacity:1"
         x="422.931"
         y="279.66"
         fill="#6d6b6c"
         width="14.361"
         height="1.552"
         id="rect3991" /><rect
         style="fill:#64daff;fill-opacity:1"
         x="422.931"
         y="283.46899"
         fill="#6d6b6c"
         width="14.361"
         height="1.533"
         id="rect3993" /></g></g><g
     id="g4009"
     display="none"><path
       display="inline"
       fill="#f5f5f5"
       stroke="#ffffff"
       stroke-miterlimit="10"
       d="m 446.228,280.366 c 0,8.902 -7.229,16.103 -16.102,16.103 -8.902,0 -16.103,-7.201 -16.103,-16.103 0,-8.896 7.201,-16.103 16.103,-16.103 8.873,0.001 16.102,7.208 16.102,16.103 z"
       id="path3999" /><g
       display="inline"
       id="g4007"><rect
         x="422.931"
         y="275.741"
         fill="#929493"
         width="14.361"
         height="1.552"
         id="rect4001" /><rect
         x="422.931"
         y="279.66"
         fill="#929493"
         width="14.361"
         height="1.552"
         id="rect4003" /><rect
         x="422.931"
         y="283.46899"
         fill="#929493"
         width="14.361"
         height="1.533"
         id="rect4005" /></g></g></g><g
   id="g4027"
   transform="translate(7e-5,9.4932367e-5)"><g
     id="g4015"><path
       fill="#1A1615"
       d="m 340.937,280.366 c 0,10.397 -8.421,18.817 -18.819,18.817 -10.368,0 -18.789,-8.42 -18.789,-18.817 0,-10.371 8.42,-18.805 18.789,-18.805 10.398,0.001 18.819,8.434 18.819,18.805 z"
       id="path4013"
       style="fill:#1a1a1a;fill-opacity:1" /></g><g
     id="g4025"><path
       style="stroke:#64daff;stroke-opacity:1"
       fill="#0a0a0a"
       stroke="#000000"
       stroke-miterlimit="10"
       d="m 338.221,280.366 c 0,8.902 -7.201,16.103 -16.103,16.103 -8.872,0 -16.103,-7.201 -16.103,-16.103 0,-8.896 7.231,-16.103 16.103,-16.103 8.902,0.001 16.103,7.208 16.103,16.103 z"
       id="path4017" /><g
       id="g4023"><polygon
         style="fill:#64daff;fill-opacity:1"
         fill="#6d6b6c"
         points="314.952,274.743 314.952,282.132 319.602,282.132 319.602,280.266 316.571,280.266 316.571,276.481 322.043,276.481 322.043,277.802 323.843,277.802 323.843,274.743 "
         id="polygon4019" /><path
         style="fill:#64daff;fill-opacity:1"
         fill="#6d6b6c"
         d="m 320.353,278.427 v 7.584 h 8.96 v -7.584 z m 7.16,5.783 h -5.47 v -3.945 h 5.47 z"
         id="path4021" /></g></g></g><g
   id="g4035"
   transform="translate(7e-5,9.4932367e-5)"><g
     id="g4031"><path
       fill="#e6e6e6"
       stroke="#dedede"
       stroke-width="2"
       stroke-miterlimit="10"
       d="m 185.4675,347.541 c -37.328,0 -67.695,-30.365 -67.695,-67.688 0,-37.323 30.366,-67.686 67.695,-67.686 37.336,0 67.707,30.363 67.707,67.686 0,37.323 -30.37,67.688 -67.707,67.688 z"
       id="path4029" /></g><path
     stroke="#120B0B"
     stroke-width="2"
     stroke-miterlimit="10"
     d="m 241.571,279.865 c 0,30.977 -25.106,56.084 -56.103,56.084 -30.981,0 -56.092,-25.107 -56.092,-56.084 0,-31 25.111,-56.106 56.092,-56.106 30.997,0 56.103,25.106 56.103,56.106 z"
     id="path4033"
     style="stroke:#1a1a1a;stroke-opacity:1" /></g><g
   id="g4043"
   transform="translate(7e-5,9.4932367e-5)"><g
     id="g4039"><path
       fill="#e6e6e6"
       stroke="#dedede"
       stroke-width="2"
       stroke-miterlimit="10"
       d="m 473.0455,461.5205 c -37.324,0 -67.688,-30.364 -67.688,-67.686 0,-37.326 30.363,-67.705 67.688,-67.705 37.322,0 67.707,30.378 67.707,67.705 0,37.323 -30.385,67.686 -67.707,67.686 z"
       id="path4037" /></g><path
     stroke="#120B0B"
     stroke-width="2"
     stroke-miterlimit="10"
     d="m 529.151,393.815 c 0,30.999 -25.106,56.105 -56.109,56.105 -30.975,0 -56.083,-25.106 -56.083,-56.105 0,-30.979 25.108,-56.085 56.083,-56.085 31.003,0 56.109,25.106 56.109,56.085 z"
     id="path4041"
     style="fill:#000000;stroke:#1a1a1a;stroke-opacity:1" /></g><g
   id="g4049"
   transform="translate(7e-5,9.4932367e-5)"><path
     id="path4045"
     d="m 566.76,355.27 c -13.889,0 -25.188,-11.304 -25.188,-25.199 0,-13.892 11.299,-25.194 25.188,-25.194 13.898,0 25.205,11.302 25.205,25.194 0,13.894 -11.307,25.199 -25.205,25.199 z"
     fill="#0a0a0a" /><path
     style="fill:#1a1a1a;fill-opacity:1"
     id="path4047"
     d="m 566.76,306.377 c 13.1,0 23.705,10.605 23.705,23.694 0,13.093 -10.605,23.699 -23.705,23.699 -13.082,0 -23.688,-10.605 -23.688,-23.699 -10e-4,-13.089 10.606,-23.694 23.688,-23.694 m 0,-3 c -14.716,0 -26.688,11.975 -26.688,26.694 0,14.722 11.973,26.699 26.688,26.699 14.725,0 26.705,-11.977 26.705,-26.699 0,-14.719 -11.98,-26.694 -26.705,-26.694 z"
     fill="#1A1615" /></g><g
   id="g4055"
   transform="translate(7e-5,9.4932367e-5)"><path
     id="path4051"
     d="m 566.76,254.196 c -13.889,0 -25.188,-11.308 -25.188,-25.207 0,-13.888 11.299,-25.187 25.188,-25.187 13.898,0 25.205,11.299 25.205,25.187 0,13.9 -11.307,25.207 -25.205,25.207 z"
     fill="#0a0a0a" /><path
     style="fill:#1a1a1a;fill-opacity:1"
     id="path4053"
     d="m 566.76,205.303 c 13.1,0 23.705,10.605 23.705,23.687 0,13.101 -10.605,23.707 -23.705,23.707 -13.082,0 -23.688,-10.606 -23.688,-23.707 -10e-4,-13.082 10.606,-23.687 23.688,-23.687 m 0,-3 c -14.716,0 -26.688,11.972 -26.688,26.687 0,14.726 11.973,26.707 26.688,26.707 14.725,0 26.705,-11.981 26.705,-26.707 0,-14.716 -11.98,-26.687 -26.705,-26.687 z"
     fill="#1A1615" /></g><g
   id="g4061"
   transform="translate(7e-5,9.4932367e-5)"><path
     id="path4057"
     d="m 617.3,304.732 c -13.89,0 -25.19,-11.307 -25.19,-25.204 0,-13.89 11.3,-25.189 25.19,-25.189 13.897,0 25.203,11.3 25.203,25.189 0,13.898 -11.306,25.204 -25.203,25.204 z"
     fill="#0a0a0a" /><path
     style="fill:#1a1a1a;fill-opacity:1"
     id="path4059"
     d="m 617.3,255.839 c 13.097,0 23.703,10.605 23.703,23.689 0,13.099 -10.606,23.704 -23.703,23.704 -13.085,0 -23.69,-10.605 -23.69,-23.704 -10e-4,-13.084 10.605,-23.689 23.69,-23.689 m 0,-3 c -14.717,0 -26.69,11.973 -26.69,26.689 0,14.725 11.973,26.704 26.69,26.704 14.724,0 26.703,-11.979 26.703,-26.704 0,-14.716 -11.979,-26.689 -26.703,-26.689 z"
     fill="#1A1615" /></g><g
   id="g4067"
   transform="translate(7e-5,9.4932367e-5)"><path
     id="path4063"
     d="m 516.217,304.732 c -13.886,0 -25.183,-11.307 -25.183,-25.204 0,-13.89 11.297,-25.189 25.183,-25.189 13.901,0 25.211,11.3 25.211,25.189 0,13.898 -11.31,25.204 -25.211,25.204 z"
     fill="#0a0a0a" /><path
     style="fill:#1a1a1a;fill-opacity:1"
     id="path4065"
     d="m 516.217,255.839 c 13.105,0 23.711,10.605 23.711,23.689 0,13.099 -10.605,23.704 -23.711,23.704 -13.076,0 -23.683,-10.605 -23.683,-23.704 0,-13.084 10.607,-23.689 23.683,-23.689 m 0,-3 c -14.713,0 -26.683,11.973 -26.683,26.689 0,14.725 11.97,26.704 26.683,26.704 14.729,0 26.711,-11.979 26.711,-26.704 0,-14.716 -11.983,-26.689 -26.711,-26.689 z"
     fill="#1A1615" /></g><g
   id="g4073"
   transform="translate(7e-5,9.4932367e-5)"><path
     sodipodi:nodetypes="cccscsccc"
     id="path4069"
     d="m 375.09053,150.99207 c 0,0 -90.45519,1.0474 -100.0727,1.96029 -9.43193,6.84915 -11.96416,20.01756 -16.33483,31.11164 20.238,23.271 41.583,53.312 56.441,53.312 h 60.49 60.496 c 14.872,0 36.197,-30.041 56.463,-53.312 -4.34421,-10.64145 -8.32161,-21.68646 -16.15122,-30.88568 -12.67894,-1.01236 -101.33125,-2.18625 -101.33125,-2.18625 z"
     fill="#1a1a1a" /><path
     style="fill:#0d0d0d;fill-opacity:1"
     sodipodi:nodetypes="ccscscccc"
     id="path4071"
     d="m 476.191,153.526 c -0.62684,-2.61083 -1.70299,-4.95207 -3.638,-6.778 -1.856,0.48 -3.653,0.748 -5.384,0.748 h -92.165 -92.165 c -1.392,0 -2.818,-0.189 -4.282,-0.501 -2.46006,1.44759 -2.95685,3.99952 -3.49,6.531 11.631,1.905 100.548,2.973 100.548,2.973 0,0 88.945,-1.068 100.576,-2.973 z"
     fill="#0D0D0D" /></g><g
   id="g4079"
   transform="translate(7e-5,9.4932367e-5)"><path
     sodipodi:nodetypes="ccccccccc"
     id="path4075"
     d="m 642.55,191.957 c -8.98,-7.938 -5.636,-16.16 -11.469,-23.844 0.24,0.326 0.486,0.652 0.698,0.979 -0.0165,-0.0597 -95.19478,-48.54586 -120.96225,-34.87203 -17.38697,2.28558 -27.66835,15.08683 -32.94689,18.42101 4.37874,10.15685 7.66516,20.95466 16.15414,29.78002 11.169,-12.678 21.942,-23.005 31.057,-24.761 20.02,-3.848 83.914,16.298 117.479,34.305 -0.003,-0.001 -0.007,-0.005 -0.01,-0.008 z"
     fill="#1a1a1a"
     style="fill:#1a1a1a;fill-opacity:1" /><path
     sodipodi:nodetypes="cccsccccccccccccccccccccccccccccccc"
     id="path4077"
     d="m 510.979,134.615 c 24.273,-7.582 120.772,34.465 120.8,34.478 -0.212,-0.328 -0.458,-0.654 -0.698,-0.979 -0.029,-0.039 -0.062,-0.078 -0.091,-0.117 -0.101,-0.136 -0.182,-0.242 -0.292,-0.375 -0.044,-0.055 -0.09,-0.109 -0.135,-0.161 -0.085,-0.093 -0.17,-0.212 -0.274,-0.332 -0.055,-0.051 -0.108,-0.097 -0.155,-0.159 -0.083,-0.11 -0.181,-0.22 -0.282,-0.301 -0.064,-0.067 -0.113,-0.136 -0.166,-0.204 -0.1,-0.104 -0.201,-0.18 -0.289,-0.286 -0.057,-0.07 -0.128,-0.141 -0.2,-0.199 -0.104,-0.083 -0.19,-0.185 -0.286,-0.287 -0.077,-0.069 -0.155,-0.117 -0.23,-0.188 -0.083,-0.1 -0.191,-0.199 -0.304,-0.279 -0.076,-0.063 -0.142,-0.137 -0.223,-0.21 -0.113,-0.097 -0.217,-0.168 -0.316,-0.263 -0.089,-0.075 -0.179,-0.148 -0.267,-0.219 -0.094,-0.071 -0.214,-0.167 -0.333,-0.263 -0.074,-0.074 -0.165,-0.133 -0.264,-0.195 -0.124,-0.096 -0.227,-0.19 -0.354,-0.28 -0.097,-0.05 -0.177,-0.125 -0.272,-0.199 -0.134,-0.096 -0.26,-0.181 -0.381,-0.258 -0.106,-0.074 -0.206,-0.147 -0.289,-0.22 -0.143,-0.082 -0.29,-0.165 -0.41,-0.262 -0.107,-0.071 -0.211,-0.142 -0.298,-0.192 -0.154,-0.092 -0.316,-0.193 -0.451,-0.293 -0.108,-0.055 -0.209,-0.104 -0.295,-0.171 -0.182,-0.111 -0.351,-0.22 -0.532,-0.303 -0.095,-0.056 -0.167,-0.112 -0.256,-0.167 -0.277,-0.151 -0.557,-0.302 -0.833,-0.467 -18.281,-9.914 -71.979,-36.997 -114.22,-31.375 -7.609,1.005 -21.634,12.342 -33.82,16.281 -0.99728,3.67096 1.40659,5.09588 3.583,6.671 5.59,-2.895 17.263,-13.357 32.833,-18.226 z"
     fill="#0d0d0d" /></g><g
   id="g4093"
   transform="translate(7e-5,9.4932367e-5)"><path
     sodipodi:nodetypes="ccccccccccccccccccscccccccccccccccccc"
     id="path4081"
     d="m 241.625,129.887 c -42.248,-5.622 -95.939,21.461 -114.22,31.375 -0.274,0.164 -0.557,0.313 -0.828,0.464 -0.083,0.054 -0.157,0.11 -0.25,0.164 -0.183,0.083 -0.351,0.192 -0.533,0.303 -0.084,0.065 -0.184,0.117 -0.29,0.168 -0.142,0.101 -0.297,0.202 -0.452,0.297 -0.084,0.046 -0.183,0.113 -0.288,0.182 -0.131,0.099 -0.273,0.188 -0.419,0.268 -0.082,0.068 -0.17,0.137 -0.269,0.206 -0.134,0.087 -0.259,0.171 -0.397,0.27 -0.091,0.068 -0.163,0.137 -0.251,0.19 -0.137,0.087 -0.257,0.188 -0.377,0.29 -0.088,0.061 -0.173,0.106 -0.244,0.172 -0.119,0.103 -0.25,0.207 -0.362,0.287 -0.067,0.059 -0.147,0.125 -0.226,0.191 -0.116,0.105 -0.224,0.184 -0.348,0.288 -0.072,0.064 -0.134,0.127 -0.193,0.19 -0.118,0.081 -0.24,0.189 -0.341,0.299 -0.056,0.061 -0.121,0.109 -0.186,0.154 -0.12,0.112 -0.214,0.226 -0.326,0.325 -0.057,0.042 -0.114,0.098 -0.167,0.155 -0.095,0.119 -0.209,0.221 -0.323,0.328 -0.045,0.052 -0.087,0.104 -0.125,0.156 -0.113,0.107 -0.227,0.222 -0.325,0.348 -0.031,0.045 -0.068,0.088 -0.107,0.121 -0.118,0.121 -0.225,0.255 -0.315,0.37 -0.032,0.029 -0.064,0.066 -0.095,0.104 -0.118,0.144 -0.219,0.266 -0.315,0.403 -0.022,0.029 -0.045,0.058 -0.068,0.087 -0.119,0.138 -0.216,0.285 -0.321,0.442 -0.012,0.016 -0.023,0.03 -0.036,0.042 -0.124,0.152 -0.227,0.328 -0.333,0.473 0.55717,3.9199 99.30713,-30.00433 121.984,-34.379 9.20663,9.48331 21.40385,20.33513 32.88395,18.92876 1.98351,-1.61841 3.44252,-4.20189 3.34105,-7.04676 -12.411,-3.594 -27.031,-15.578 -34.879,-16.615 z"
     fill="#0d0d0d" /><g
     id="g4089"><path
       id="path4083"
       d="m 273.57,153.096 c 0.156,0.063 0.306,0.123 0.464,0.187 -0.158,-0.064 -0.307,-0.126 -0.464,-0.187 z"
       fill="#1a1a1a" /><path
       style="fill:#1a1a1a;fill-opacity:1"
       sodipodi:nodetypes="ccccccccc"
       id="path4085"
       d="m 273.097,152.847 c -5.579,-2.882 -17.262,-13.358 -32.815,-18.231 -24.208,-7.554 -121.307,34.092 -121.977,34.376 -4.971,7.435 -2.211,15.331 -10.841,22.966 -0.016,0.013 -0.042,0.023 -0.06,0.034 33.159,-17.875 99.165,-38.11 118.749,-34.331 9.123,1.756 19.905,12.083 31.08,24.761 5.4286,-9.74242 11.30077,-19.12191 15.851,-29.583 0.004,0.003 0.008,0.006 0.013,0.008 z"
       fill="#1A1A1A" /><path
       id="path4087"
       d="m 273.097,152.847 c 0.172,0.088 0.313,0.173 0.473,0.249 -0.161,-0.077 -0.301,-0.161 -0.473,-0.249 z" /></g><path
     id="path4091"
     d="m 257.959,183.228 c 0.234,0.296 0.466,0.565 0.725,0.835 l 16.384,-30.538 3.49,-6.531 c -0.344,-0.066 -0.688,-0.131 -1.038,-0.226 -0.335,-0.092 -0.673,-0.19 -1.013,-0.271 l -3.423,6.342 -15.851,29.583 c 0.235,0.268 0.467,0.535 0.726,0.806 v 0" /></g><path
   id="path4095"
   d="m 478.14707,152.83909 -3.583,-6.671 c -0.333,0.093 -0.666,0.207 -0.996,0.311 -0.339,0.089 -0.678,0.176 -1.015,0.27 l 3.638,6.778 16.383,30.538 c 0.232,-0.27 0.492,-0.539 0.723,-0.836 0.232,-0.27 0.494,-0.537 0.726,-0.805 z" /><polygon
   id="polygon4097"
   points="356.943,169.296 356.946,169.294 "
   fill="#1a1a1a"
   transform="translate(7e-5,9.4932367e-5)" /><g
   id="g4101"
   transform="translate(7e-5,9.4932367e-5)"><path
     style="fill:#00c2ff;fill-opacity:1"
     fill="#ffffff"
     d="m 407.579,196.412 c 0,17.993 -14.58,32.577 -32.574,32.577 -17.995,0 -32.574,-14.584 -32.574,-32.577 0,-17.983 14.579,-32.575 32.574,-32.575 17.994,0 32.574,14.592 32.574,32.575 z"
     id="path4099" /></g><path
   style="fill:#99e7ff;fill-opacity:1;filter:url(#filter2545)"
   fill="#ffffff"
   d="m 407.80947,196.41019 c 0,17.993 -14.58,32.577 -32.574,32.577 -17.995,0 -32.574,-14.584 -32.574,-32.577 0,-17.983 14.579,-32.575 32.574,-32.575 17.994,0 32.574,14.592 32.574,32.575 z"
   id="path4103" /><path
   id="path4105"
   d="m 384.00607,182.00909 c 0,0 8.932,-9.444 13.769,-8.876 -0.001,-0.002 -0.004,-0.004 -0.006,-0.006 -0.721,-0.702 -1.475,-1.369 -2.262,-2.018 -0.007,-0.002 -0.016,-0.007 -0.023,-0.012 -0.385,-0.322 -0.779,-0.621 -1.181,-0.909 -0.025,-0.019 -0.05,-0.036 -0.062,-0.054 -0.386,-0.278 -0.77,-0.549 -1.173,-0.835 -10e-4,-0.001 -0.003,-0.002 -0.004,-0.003 -0.379,-0.06 -0.776,-0.125 -1.188,-0.166 -5.25,-0.494 -16.869,4.511 -16.869,4.511 0,0 -11.62,-5.005 -16.869,-4.511 -0.413,0.041 -0.81,0.105 -1.189,0.166 0,0.001 -0.001,0.001 -0.003,0.002 -0.407,0.29 -0.795,0.563 -1.179,0.843 -0.014,0.016 -0.034,0.03 -0.056,0.046 -0.404,0.291 -0.801,0.592 -1.189,0.916 -0.005,0.003 -0.011,0.005 -0.016,0.007 -0.79,0.649 -1.546,1.318 -2.269,2.023 0,0 0,10e-4 0,10e-4 4.836,-0.567 13.768,8.877 13.768,8.877 0,0 -17.733,20.884 -16.965,34.084 1.094,1.44 2.315,2.775 3.618,4.026 -0.44,-11.992 22.349,-30.134 22.349,-30.134 0,0 22.789,18.14 22.349,30.134 1.288,-1.235 2.494,-2.554 3.577,-3.98 0.013,-0.014 0.028,-0.029 0.041,-0.046 0.764,-13.202 -16.968,-34.086 -16.968,-34.086 z"
   fill="#1a1a1a" /><g
   id="g4119"
   transform="translate(7e-5,9.4932367e-5)"><g
     id="g4111"><path
       fill="#1a1a1a"
       d="m 549.08,5.466 c -0.402,-0.319 -0.805,-0.618 -1.211,-0.899 l -2.347,109.995 53.273,7.234 C 586.728,4.974 555.822,10.762 549.08,5.466 Z"
       id="path4107" /><path
       fill="#141414"
       d="M 522.043,0.142 C 511.22,0.545 509.98,11.581 509.861,15.332 v 1.227 c 0,0 2.9,40.716 0,93.094 9.926,2.289 38.535,5.298 38.535,5.298 0,0 0.035,-20.914 0.685,-50.596 C 549.883,26.854 547.87,4.567 547.87,4.567 541.453,0.091 534.302,-0.307 522.043,0.142 Z"
       id="path4109" /></g><g
     id="g4117"><path
       fill="#1a1a1a"
       d="m 200.996,5.466 c 0.401,-0.319 0.805,-0.618 1.211,-0.899 l 2.322,109.995 -53.248,7.234 C 163.348,4.974 194.24,10.762 200.996,5.466 Z"
       id="path4113" /><path
       fill="#141414"
       d="m 228.022,0.142 c 10.833,0.403 12.069,11.439 12.193,15.19 v 1.227 c 0,0 -2.901,40.716 0,93.094 -9.926,2.289 -38.539,5.298 -38.539,5.298 0,0 -0.051,-20.914 -0.68,-50.596 -0.811,-37.501 1.211,-59.788 1.211,-59.788 6.417,-4.476 13.566,-4.874 25.815,-4.425 z"
       id="path4115" /></g></g><path
   id="path2-5"
   d="m 4145.3454,-987.23138 c -30.4182,-16.31882 -85.7464,-34.39372 -110.7539,-34.77542 v 0 c -2.5869,-0.039 -4.8496,0.11 -6.7265,0.4707 -9.115,1.756 -19.8877,12.0838 -31.0567,24.76175 v 0.002 c -0.232,0.268 -0.4945,0.53469 -0.7265,0.80469 -0.231,0.297 -0.4907,0.56594 -0.7227,0.83594 l -0.01,-0.0156 c 0,0.005 0,0.0105 0.01,0.0156 -20.266,23.271 -41.5909,53.3125 -56.4629,53.3125 h -60.4961 -60.4903 c -14.858,0 -36.2014,-30.0415 -56.4394,-53.3125 v -0.002 c -0.259,-0.27 -0.4906,-0.53798 -0.7246,-0.83398 -0.259,-0.271 -0.4916,-0.53865 -0.7266,-0.80665 -11.175,-12.67795 -21.9571,-23.00575 -31.0801,-24.76175 -19.5791,-3.778 -85.5555,16.4467 -118.7226,34.3184 m 0.1055,-0.0918 c -0.026,0.0232 -0.048,0.0471 -0.074,0.0703 0,0.004 -0.017,0.01 -0.021,0.0137 0.01,-0.004 0.016,-0.007 0.021,-0.0117 0.027,-0.0239 0.047,-0.0484 0.074,-0.0723 z"
   sodipodi:nodetypes="csccccccccscscccccccccccc"
   style="fill:none;stroke:#64daff;stroke-opacity:1" /><path
   style="fill:none;stroke:#64daff;stroke-width:3;stroke-linecap:round;stroke-linejoin:round;stroke-miterlimit:4;stroke-dasharray:none;stroke-opacity:1"
   sodipodi:nodetypes="csccccccccscscccccc"
   d="m 642.56007,191.96509 c -30.4182,-16.3188 -85.7471,-34.3929 -110.7546,-34.7745 v 0 c -2.5869,-0.04 -4.8496,0.1099 -6.7265,0.4707 -9.115,1.756 -19.8877,12.0837 -31.0567,24.7617 v 0 c -0.232,0.268 -0.4945,0.5347 -0.7265,0.8047 -0.231,0.297 -0.4907,0.5659 -0.7227,0.8359 l -0.01,-0.016 c 0,0.01 0,0.011 0.01,0.016 -20.266,23.271 -41.5909,53.3125 -56.4629,53.3125 h -60.4961 -60.4903 c -14.858,0 -36.2014,-30.0415 -56.4394,-53.3125 v 0 c -0.259,-0.27 -0.4906,-0.538 -0.7246,-0.834 -0.259,-0.271 -0.4916,-0.5386 -0.7266,-0.8066 -11.175,-12.678 -21.9571,-23.0057 -31.0801,-24.7617 -19.5791,-3.7781 -85.5219,16.4251 -118.689,34.2968"
   id="path2-5-7"
   inkscape:export-xdpi="127.99988"
   inkscape:export-ydpi="127.99988" /></svg>
