<?xml version="1.0" encoding="UTF-8" standalone="no"?>
<svg
   xmlns:dc="http://purl.org/dc/elements/1.1/"
   xmlns:cc="http://creativecommons.org/ns#"
   xmlns:rdf="http://www.w3.org/1999/02/22-rdf-syntax-ns#"
   xmlns:svg="http://www.w3.org/2000/svg"
   xmlns="http://www.w3.org/2000/svg"
   xmlns:sodipodi="http://sodipodi.sourceforge.net/DTD/sodipodi-0.dtd"
   xmlns:inkscape="http://www.inkscape.org/namespaces/inkscape"
   version="1.1"
   id="Layer_1"
   x="0px"
   y="0px"
   width="171.154px"
   height="62.864px"
   viewBox="0 0 171.154 62.864"
   enable-background="new 0 0 171.154 62.864"
   xml:space="preserve"
   sodipodi:docname="bumper.svg"
   inkscape:version="1.0 (4035a4fb49, 2020-05-01)"><metadata
   id="metadata50"><rdf:RDF><cc:Work
       rdf:about=""><dc:format>image/svg+xml</dc:format><dc:type
         rdf:resource="http://purl.org/dc/dcmitype/StillImage" /><dc:title /></cc:Work></rdf:RDF></metadata><defs
   id="defs48">
	
	
	
</defs><sodipodi:namedview
   inkscape:document-rotation="0"
   pagecolor="#ffffff"
   bordercolor="#666666"
   borderopacity="1"
   objecttolerance="10"
   gridtolerance="10"
   guidetolerance="10"
   inkscape:pageopacity="0"
   inkscape:pageshadow="2"
   inkscape:window-width="958"
   inkscape:window-height="1008"
   id="namedview46"
   showgrid="false"
   inkscape:zoom="0.77926893"
   inkscape:cx="223.75889"
   inkscape:cy="22.49584"
   inkscape:window-x="953"
   inkscape:window-y="0"
   inkscape:window-maximized="0"
   inkscape:current-layer="Layer_1" />
<path
   style="fill:#64daff;fill-opacity:1"
   id="path2"
   d="M 134.221,0.76 C 91.974,-4.862 38.282,22.221 20.001,32.135 c -0.274,0.164 -0.557,0.313 -0.828,0.464 -0.083,0.054 -0.157,0.11 -0.25,0.164 -0.183,0.083 -0.351,0.192 -0.533,0.303 -0.084,0.065 -0.184,0.117 -0.29,0.168 -0.142,0.101 -0.297,0.202 -0.452,0.297 -0.084,0.046 -0.183,0.113 -0.288,0.182 -0.131,0.099 -0.273,0.188 -0.419,0.268 -0.082,0.068 -0.17,0.137 -0.269,0.206 -0.134,0.087 -0.259,0.171 -0.397,0.27 -0.091,0.068 -0.163,0.137 -0.251,0.19 -0.137,0.087 -0.257,0.188 -0.377,0.29 -0.088,0.061 -0.173,0.106 -0.244,0.172 -0.119,0.103 -0.25,0.207 -0.362,0.287 -0.067,0.059 -0.147,0.125 -0.226,0.191 -0.116,0.105 -0.224,0.184 -0.348,0.288 -0.072,0.064 -0.134,0.127 -0.193,0.19 -0.118,0.081 -0.24,0.189 -0.341,0.299 -0.056,0.061 -0.121,0.109 -0.186,0.154 -0.12,0.112 -0.214,0.226 -0.326,0.325 -0.057,0.042 -0.114,0.098 -0.167,0.155 -0.095,0.119 -0.209,0.221 -0.323,0.328 -0.045,0.052 -0.087,0.104 -0.125,0.156 -0.113,0.107 -0.227,0.222 -0.325,0.348 -0.031,0.045 -0.068,0.088 -0.107,0.121 -0.118,0.121 -0.225,0.255 -0.315,0.37 -0.032,0.029 -0.064,0.066 -0.095,0.104 -0.118,0.144 -0.219,0.266 -0.315,0.403 -0.022,0.029 -0.045,0.058 -0.068,0.087 -0.119,0.138 -0.216,0.285 -0.321,0.442 -0.012,0.016 -0.023,0.03 -0.036,0.042 -0.124,0.152 -0.227,0.328 -0.333,0.473 0.025,-0.01 97.688,-41.961 121.984,-34.379 15.54,4.869 27.223,15.331 32.802,18.224 L 169.1,17.375 C 156.689,13.781 142.069,1.797 134.221,0.76 Z"
   fill="#f2f2f2" /><g
   style="fill:#4bc4ea;fill-opacity:1"
   id="g10">
		<path
   style="fill:#4bc4ea;fill-opacity:1"
   id="path4"
   d="m 166.167,23.969 c 0.156,0.063 0.306,0.123 0.464,0.187 -0.159,-0.064 -0.308,-0.126 -0.464,-0.187 z"
   fill="#e5e5e5" />
		<path
   style="fill:#4bc4ea;fill-opacity:1"
   id="path6"
   d="M 165.693,23.72 C 160.114,20.838 148.431,10.362 132.878,5.489 108.67,-2.066 11.571,39.581 10.901,39.864 5.931,47.299 8.69,55.195 0.06,62.83 0.044,62.843 0.018,62.854 0,62.864 33.159,44.989 99.165,24.754 118.749,28.533 c 9.123,1.756 19.905,12.083 31.08,24.761 L 165.68,23.711 c 0.005,0.004 0.008,0.007 0.013,0.009 z"
   fill="#e5e5e5" />
		<path
   style="fill:#4bc4ea;fill-opacity:1"
   id="path8"
   d="m 165.693,23.72 c 0.172,0.088 0.313,0.173 0.473,0.249 -0.161,-0.077 -0.301,-0.161 -0.473,-0.249 z"
   fill="#ffffff" />
	</g><path
   style="fill:#64daff;fill-opacity:1"
   id="path12"
   d="m 150.555,54.101 c 0.234,0.296 0.466,0.565 0.725,0.835 l 16.384,-30.538 3.49,-6.531 c -0.344,-0.066 -0.688,-0.131 -1.038,-0.226 -0.335,-0.092 -0.673,-0.19 -1.013,-0.271 l -3.423,6.342 -15.851,29.583 c 0.235,0.268 0.467,0.535 0.726,0.806 v 0"
   fill="#ffffff" />
<g
   id="g15">
</g>
<g
   id="g17">
</g>
<g
   id="g19">
</g>
<g
   id="g21">
</g>
<g
   id="g23">
</g>
<g
   id="g25">
</g>
<g
   id="g27">
</g>
<g
   id="g29">
</g>
<g
   id="g31">
</g>
<g
   id="g33">
</g>
<g
   id="g35">
</g>
<g
   id="g37">
</g>
<g
   id="g39">
</g>
<g
   id="g41">
</g>
<g
   id="g43">
</g>
</svg>
