<?xml version="1.0" encoding="UTF-8" standalone="no"?>
<svg
   xmlns:dc="http://purl.org/dc/elements/1.1/"
   xmlns:cc="http://creativecommons.org/ns#"
   xmlns:rdf="http://www.w3.org/1999/02/22-rdf-syntax-ns#"
   xmlns:svg="http://www.w3.org/2000/svg"
   xmlns="http://www.w3.org/2000/svg"
   xmlns:sodipodi="http://sodipodi.sourceforge.net/DTD/sodipodi-0.dtd"
   xmlns:inkscape="http://www.inkscape.org/namespaces/inkscape"
   version="1.1"
   id="Layer_1"
   x="0px"
   y="0px"
   width="88.934px"
   height="121.795px"
   viewBox="0 0 88.934 121.795"
   enable-background="new 0 0 88.934 121.795"
   xml:space="preserve"
   sodipodi:docname="trigger.svg"
   inkscape:version="1.0 (4035a4fb49, 2020-05-01)"><metadata
   id="metadata44"><rdf:RDF><cc:Work
       rdf:about=""><dc:format>image/svg+xml</dc:format><dc:type
         rdf:resource="http://purl.org/dc/dcmitype/StillImage" /><dc:title /></cc:Work></rdf:RDF></metadata><defs
   id="defs42">
	
	
	
</defs><sodipodi:namedview
   inkscape:document-rotation="0"
   pagecolor="#ffffff"
   bordercolor="#666666"
   borderopacity="1"
   objecttolerance="10"
   gridtolerance="10"
   guidetolerance="10"
   inkscape:pageopacity="0"
   inkscape:pageshadow="2"
   inkscape:window-width="958"
   inkscape:window-height="1008"
   id="namedview40"
   showgrid="false"
   inkscape:zoom="1.7816824"
   inkscape:cx="97.513106"
   inkscape:cy="144.89644"
   inkscape:window-x="953"
   inkscape:window-y="0"
   inkscape:window-maximized="0"
   inkscape:current-layer="Layer_1" />
<path
   id="path2"
   d="m 74.753,56.076 v -0.668 c 0.015,0.413 0,0.668 0,0.668 z"
   fill="#e5e5e5" /><path
   style="fill:#4bc4ea;fill-opacity:1"
   id="path4"
   d="M 49.715,5.466 C 50.116,5.147 50.52,4.848 50.926,4.567 L 53.248,114.562 0,121.795 C 12.067,4.974 42.959,10.762 49.715,5.466 Z"
   fill="#e5e5e5" /><path
   style="fill:#64daff;fill-opacity:1"
   id="path6"
   d="m 76.741,0.142 c 10.833,0.403 12.069,11.439 12.193,15.19 v 1.227 c 0,0 -2.901,40.716 0,93.094 -9.926,2.289 -38.539,5.298 -38.539,5.298 0,0 -0.051,-20.914 -0.68,-50.596 C 48.904,26.854 50.926,4.567 50.926,4.567 57.343,0.091 64.492,-0.307 76.741,0.142 Z"
   fill="#ebebeb" />
<g
   id="g9">
</g>
<g
   id="g11">
</g>
<g
   id="g13">
</g>
<g
   id="g15">
</g>
<g
   id="g17">
</g>
<g
   id="g19">
</g>
<g
   id="g21">
</g>
<g
   id="g23">
</g>
<g
   id="g25">
</g>
<g
   id="g27">
</g>
<g
   id="g29">
</g>
<g
   id="g31">
</g>
<g
   id="g33">
</g>
<g
   id="g35">
</g>
<g
   id="g37">
</g>
</svg>
