<?xml version="1.0" encoding="UTF-8" standalone="no"?>
<svg
   xmlns:dc="http://purl.org/dc/elements/1.1/"
   xmlns:cc="http://creativecommons.org/ns#"
   xmlns:rdf="http://www.w3.org/1999/02/22-rdf-syntax-ns#"
   xmlns:svg="http://www.w3.org/2000/svg"
   xmlns="http://www.w3.org/2000/svg"
   xmlns:sodipodi="http://sodipodi.sourceforge.net/DTD/sodipodi-0.dtd"
   xmlns:inkscape="http://www.inkscape.org/namespaces/inkscape"
   version="1.1"
   id="Layer_1"
   x="0px"
   y="0px"
   width="195.574px"
   height="96.744px"
   viewBox="0 0 195.574 96.744"
   enable-background="new 0 0 195.574 96.744"
   xml:space="preserve"
   sodipodi:docname="abxy.svg"
   inkscape:version="1.0 (4035a4fb49, 2020-05-01)"><metadata
   id="metadata113"><rdf:RDF><cc:Work
       rdf:about=""><dc:format>image/svg+xml</dc:format><dc:type
         rdf:resource="http://purl.org/dc/dcmitype/StillImage" /><dc:title /></cc:Work></rdf:RDF></metadata><defs
   id="defs111" /><sodipodi:namedview
   inkscape:document-rotation="0"
   pagecolor="#ffffff"
   bordercolor="#666666"
   borderopacity="1"
   objecttolerance="10"
   gridtolerance="10"
   guidetolerance="10"
   inkscape:pageopacity="0"
   inkscape:pageshadow="2"
   inkscape:window-width="1920"
   inkscape:window-height="1017"
   id="namedview109"
   showgrid="false"
   inkscape:zoom="5.4557354"
   inkscape:cx="145.64764"
   inkscape:cy="64.040059"
   inkscape:window-x="-8"
   inkscape:window-y="-8"
   inkscape:window-maximized="1"
   inkscape:current-layer="Layer_1" />


<g
   id="g78">
</g>
<g
   id="g80">
</g>
<g
   id="g82">
</g>
<g
   id="g84">
</g>
<g
   id="g86">
</g>
<g
   id="g88">
</g>
<g
   id="g90">
</g>
<g
   id="g92">
</g>
<g
   id="g94">
</g>
<g
   id="g96">
</g>
<g
   id="g98">
</g>
<g
   id="g100">
</g>
<g
   id="g102">
</g>
<g
   id="g104">
</g>
<g
   id="g106">
</g>
<g
   style="fill:#00247e;fill-opacity:1"
   id="A_1_-1"><path
     style="fill:#00247e;fill-opacity:1"
     fill="#141414"
     d="m 23.688,0 c 13.1,0 23.705,10.606 23.705,23.682 0,13.077 -10.605,23.682 -23.705,23.682 C 10.606,47.364 0,36.759 0,23.682 0,10.606 10.606,0 23.688,0 Z"
     id="path2-18" /></g><g
   style="fill:#00247e;fill-opacity:1"
   id="B_1_-5"><path
     style="fill:#00247e;fill-opacity:1"
     fill="#141414"
     d="m 73.084,0 c 13.097,0 23.703,10.61 23.703,23.687 0,13.077 -10.606,23.682 -23.703,23.682 -13.085,0 -23.69,-10.606 -23.69,-23.683 C 49.394,10.609 59.999,0 73.084,0 Z"
     id="path11-6" /></g><g
   style="fill:#00247e;fill-opacity:1"
   id="Y_1_-1"><path
     style="fill:#00247e;fill-opacity:1"
     fill="#141414"
     d="m 171.869,0 c 13.1,0 23.705,10.614 23.705,23.69 0,13.077 -10.605,23.682 -23.705,23.682 -13.082,0 -23.688,-10.605 -23.688,-23.682 C 148.181,10.614 158.787,0 171.869,0 Z"
     id="path20-0" /></g><g
   style="fill:#00247e;fill-opacity:1"
   id="X_1_-9"><path
     style="fill:#00247e;fill-opacity:1"
     fill="#141414"
     d="m 122.47,0 c 13.105,0 23.711,10.61 23.711,23.687 0,13.077 -10.605,23.683 -23.711,23.683 C 109.394,47.37 98.787,36.764 98.787,23.687 98.787,10.61 109.394,0 122.47,0 Z"
     id="path29-8" /></g><text
   xml:space="preserve"
   style="font-style:normal;font-variant:normal;font-weight:bold;font-stretch:normal;font-size:44.1759px;line-height:1.25;font-family:Arial;-inkscape-font-specification:'Arial Bold';letter-spacing:0px;fill:#001c61;fill-opacity:1;stroke-width:3.31321;"
   x="107.78391"
   y="39.495979"
   id="text6464-4"><tspan
     sodipodi:role="line"
     id="tspan6462-0"
     x="107.78391"
     y="39.495979"
     style="font-style:normal;font-variant:normal;font-weight:bold;font-stretch:normal;font-family:Arial;-inkscape-font-specification:'Arial Bold';fill:#001c61;fill-opacity:1;stroke-width:3.31321;">X</tspan></text><text
   id="text6468-9"
   y="39.497017"
   x="157.15584"
   style="font-style:normal;font-variant:normal;font-weight:bold;font-stretch:normal;font-size:44.1759px;line-height:1.25;font-family:Arial;-inkscape-font-specification:'Arial Bold';letter-spacing:0px;fill:#001c61;fill-opacity:1;stroke-width:3.31321;"
   xml:space="preserve"><tspan
     style="font-style:normal;font-variant:normal;font-weight:bold;font-stretch:normal;font-family:Arial;-inkscape-font-specification:'Arial Bold';fill:#001c61;fill-opacity:1;stroke-width:3.31321;"
     y="39.497017"
     x="157.15584"
     id="tspan6466-5"
     sodipodi:role="line">Y</tspan></text><text
   xml:space="preserve"
   style="font-style:normal;font-variant:normal;font-weight:bold;font-stretch:normal;font-size:44.1759px;line-height:1.25;font-family:Arial;-inkscape-font-specification:'Arial Bold';letter-spacing:0px;fill:#001c61;fill-opacity:1;stroke-width:3.31321;"
   x="7.8317332"
   y="39.492981"
   id="text6472-7"><tspan
     sodipodi:role="line"
     id="tspan6470-3"
     x="7.8317332"
     y="39.492981"
     style="font-style:normal;font-variant:normal;font-weight:bold;font-stretch:normal;font-family:Arial;-inkscape-font-specification:'Arial Bold';fill:#001c61;fill-opacity:1;stroke-width:3.31321;">A</tspan></text><text
   id="text6476-5"
   y="39.495518"
   x="56.610802"
   style="font-style:normal;font-variant:normal;font-weight:bold;font-stretch:normal;font-size:44.1759px;line-height:1.25;font-family:Arial;-inkscape-font-specification:'Arial Bold';letter-spacing:0px;fill:#001c61;fill-opacity:1;stroke-width:3.31321;"
   xml:space="preserve"><tspan
     style="font-style:normal;font-variant:normal;font-weight:bold;font-stretch:normal;font-family:Arial;-inkscape-font-specification:'Arial Bold';fill:#001c61;fill-opacity:1;stroke-width:3.31321;"
     y="39.495518"
     x="56.610802"
     id="tspan6474-2"
     sodipodi:role="line">B</tspan></text><g
   style="fill:#f2f2f2;fill-opacity:1"
   id="A_2_-5"><path
     style="fill:#f2f2f2;fill-opacity:1"
     fill="#ffffff"
     d="m 23.688,49.376 c 13.1,0 23.705,10.606 23.705,23.682 0,13.077 -10.605,23.682 -23.705,23.682 C 10.606,96.74 0,86.135 0,73.058 0,59.982 10.606,49.376 23.688,49.376 Z"
     id="path40-3" /></g><g
   style="fill:#f2f2f2;fill-opacity:1"
   id="B_2_-0"><path
     style="fill:#f2f2f2;fill-opacity:1"
     fill="#ffffff"
     d="m 73.084,49.374 c 13.097,0 23.703,10.61 23.703,23.687 0,13.077 -10.606,23.682 -23.703,23.682 -13.085,0 -23.69,-10.606 -23.69,-23.683 0,-13.077 10.605,-23.686 23.69,-23.686 z"
     id="path49-4" /></g><g
   style="fill:#f2f2f2;fill-opacity:1"
   id="Y_2_-8"><path
     style="fill:#f2f2f2;fill-opacity:1"
     fill="#ffffff"
     d="m 171.869,49.372 c 13.1,0 23.705,10.614 23.705,23.69 0,13.077 -10.605,23.682 -23.705,23.682 -13.082,0 -23.688,-10.605 -23.688,-23.682 0,-13.076 10.606,-23.69 23.688,-23.69 z"
     id="path58-5" /></g><g
   style="fill:#f2f2f2;fill-opacity:1"
   id="X_2_-1"><path
     style="fill:#f2f2f2;fill-opacity:1"
     fill="#ffffff"
     d="m 122.47,49.374 c 13.105,0 23.711,10.61 23.711,23.687 0,13.077 -10.605,23.683 -23.711,23.683 -13.076,0 -23.683,-10.606 -23.683,-23.683 0,-13.077 10.607,-23.687 23.683,-23.687 z"
     id="path67-6" /></g><text
   id="text4215"
   y="88.868996"
   x="7.8317332"
   style="font-style:normal;font-variant:normal;font-weight:bold;font-stretch:normal;font-size:44.1759px;line-height:1.25;font-family:Arial;-inkscape-font-specification:'Arial Bold';letter-spacing:0px;fill:#cccccc;fill-opacity:1;stroke-width:3.31321;"
   xml:space="preserve"><tspan
     style="font-style:normal;font-variant:normal;font-weight:bold;font-stretch:normal;font-family:Arial;-inkscape-font-specification:'Arial Bold';fill:#cccccc;fill-opacity:1;stroke-width:3.31321;"
     y="88.868996"
     x="7.8317332"
     id="tspan4213"
     sodipodi:role="line">A</tspan></text><text
   xml:space="preserve"
   style="font-style:normal;font-variant:normal;font-weight:bold;font-stretch:normal;font-size:44.1759px;line-height:1.25;font-family:Arial;-inkscape-font-specification:'Arial Bold';letter-spacing:0px;fill:#cccccc;fill-opacity:1;stroke-width:3.31321;"
   x="56.610802"
   y="88.869514"
   id="text4219"><tspan
     sodipodi:role="line"
     id="tspan4217"
     x="56.610802"
     y="88.869514"
     style="font-style:normal;font-variant:normal;font-weight:bold;font-stretch:normal;font-family:Arial;-inkscape-font-specification:'Arial Bold';fill:#cccccc;fill-opacity:1;stroke-width:3.31321;">B</tspan></text><text
   id="text4223"
   y="88.86998"
   x="107.78391"
   style="font-style:normal;font-variant:normal;font-weight:bold;font-stretch:normal;font-size:44.1759px;line-height:1.25;font-family:Arial;-inkscape-font-specification:'Arial Bold';letter-spacing:0px;fill:#cccccc;fill-opacity:1;stroke-width:3.31321;"
   xml:space="preserve"><tspan
     style="font-style:normal;font-variant:normal;font-weight:bold;font-stretch:normal;font-family:Arial;-inkscape-font-specification:'Arial Bold';fill:#cccccc;fill-opacity:1;stroke-width:3.31321;"
     y="88.86998"
     x="107.78391"
     id="tspan4221"
     sodipodi:role="line">X</tspan></text><text
   xml:space="preserve"
   style="font-style:normal;font-variant:normal;font-weight:bold;font-stretch:normal;font-size:44.1759px;line-height:1.25;font-family:Arial;-inkscape-font-specification:'Arial Bold';letter-spacing:0px;fill:#cccccc;fill-opacity:1;stroke-width:3.31321;"
   x="157.15584"
   y="88.868996"
   id="text4227"><tspan
     sodipodi:role="line"
     id="tspan4225"
     x="157.15584"
     y="88.868996"
     style="font-style:normal;font-variant:normal;font-weight:bold;font-stretch:normal;font-family:Arial;-inkscape-font-specification:'Arial Bold';fill:#cccccc;fill-opacity:1;stroke-width:3.31321;">Y</tspan></text></svg>
