<?xml version="1.0" encoding="UTF-8" standalone="no"?>
<svg
   xmlns:dc="http://purl.org/dc/elements/1.1/"
   xmlns:cc="http://creativecommons.org/ns#"
   xmlns:rdf="http://www.w3.org/1999/02/22-rdf-syntax-ns#"
   xmlns:svg="http://www.w3.org/2000/svg"
   xmlns="http://www.w3.org/2000/svg"
   xmlns:sodipodi="http://sodipodi.sourceforge.net/DTD/sodipodi-0.dtd"
   xmlns:inkscape="http://www.inkscape.org/namespaces/inkscape"
   inkscape:version="1.0 (4035a4fb49, 2020-05-01)"
   sodipodi:docname="disconnected.svg"
   xml:space="preserve"
   enable-background="new 0 0 750 630.455"
   viewBox="0 0 720.94696 616.59599"
   height="616.59601"
   width="720.94696"
   y="0px"
   x="0px"
   id="Layer_1"
   version="1.1"><metadata
   id="metadata71"><rdf:RDF><cc:Work
       rdf:about=""><dc:format>image/svg+xml</dc:format><dc:type
         rdf:resource="http://purl.org/dc/dcmitype/StillImage" /><dc:title /></cc:Work></rdf:RDF></metadata><defs
   id="defs69" /><sodipodi:namedview
   inkscape:current-layer="Layer_1"
   inkscape:window-maximized="1"
   inkscape:window-y="-8"
   inkscape:window-x="-8"
   inkscape:cy="227.92371"
   inkscape:cx="-266.7257"
   inkscape:zoom="0.34419585"
   showgrid="false"
   id="namedview67"
   inkscape:window-height="1017"
   inkscape:window-width="1920"
   inkscape:pageshadow="2"
   inkscape:pageopacity="0"
   guidetolerance="10"
   gridtolerance="10"
   objecttolerance="10"
   borderopacity="1"
   bordercolor="#666666"
   pagecolor="#ffffff"
   inkscape:document-rotation="0" />


<g
   id="g36"
   transform="translate(-2162.2965,217.90559)">
</g>
<g
   id="g38"
   transform="translate(-2162.2965,217.90559)">
</g>
<g
   id="g40"
   transform="translate(-2162.2965,217.90559)">
</g>
<g
   id="g42"
   transform="translate(-2162.2965,217.90559)">
</g>
<g
   id="g44"
   transform="translate(-2162.2965,217.90559)">
</g>
<g
   id="g46"
   transform="translate(-2162.2965,217.90559)">
</g>
<g
   id="g48"
   transform="translate(-2162.2965,217.90559)">
</g>
<g
   id="g50"
   transform="translate(-2162.2965,217.90559)">
</g>
<g
   id="g52"
   transform="translate(-2162.2965,217.90559)">
</g>
<g
   id="g54"
   transform="translate(-2162.2965,217.90559)">
</g>
<g
   id="g56"
   transform="translate(-2162.2965,217.90559)">
</g>
<g
   id="g58"
   transform="translate(-2162.2965,217.90559)">
</g>
<g
   id="g60"
   transform="translate(-2162.2965,217.90559)">
</g>
<g
   id="g62"
   transform="translate(-2162.2965,217.90559)">
</g>
<g
   id="g64"
   transform="translate(-2162.2965,217.90559)">
</g>
<path
   inkscape:export-ydpi="95.870003"
   inkscape:export-xdpi="95.870003"
   inkscape:export-filename="C:\Users\rollr\OneDrive\Documents\Projects\controllers\Daniel_purple\pngs\disconnected.png"
   d="m 218.88832,0.01445807 c -7.479,0.13233 -12.7029,1.19573003 -17.5156,4.55273003 -0.406,0.281 -0.8099,0.58139 -1.2109,0.90039 -6.756,5.2959999 -37.6479,-0.49265 -49.7149,116.3280919 l 50.3945,-6.8437 c 0,0 28.6131,-3.0098 38.5391,-5.2988 -2.901,-52.378012 0,-93.093812 0,-93.093812 v -1.2265 c -0.124,-3.7513 -1.3604,-14.78649993 -12.1934,-15.18949993 -3.0622,-0.11225 -5.8058,-0.17301 -8.2988,-0.1289 z m 283.1719,0 c -2.493,-0.0441 -5.2366,0.0166 -8.2988,0.1289 -10.833,0.403 -12.0694,11.43823993 -12.1934,15.18949993 v 1.2265 c 0,0 2.901,40.7158 0,93.093812 9.926,2.289 38.5391,5.2988 38.5391,5.2988 v 0 l 50.3965,6.8457 C 558.43662,4.9769781 527.54472,10.765578 520.78872,5.4695781 c -0.401,-0.319 -0.8049,-0.61939 -1.2109,-0.90039 -4.8128,-3.357 -10.0386,-4.42040003 -17.5176,-4.55273003 z M 232.87662,133.17267 c -44.483,0.2736 -101.8109,16.2561 -119.4473,54.5449 -0.5662,1.2251 -0.3062,2.4484 0,3.6739 0.01,-6e-4 0.013,0 0.019,0 -3.8884,3.8669 -7.1279,7.8736 -9.5957,11.9648 -0.4726,0.7185 -0.9306,1.4439 -1.3633,2.1817 -49.020502,79.0781 -191.015502,456.6553 -21.984302,406.4863 18.2075,-5.404 37.734002,-30.9003 50.947202,-51.9726 24.4985,-39.0722 49.6665,-66.6691 53.7696,-69.8926 18.8286,-14.7919 70.5343,-13.5217 89.8125,-13.7227 h 82.8925 2.5469 2.5469 82.8926 c 19.2783,0.2011 70.9858,-1.0692 89.8144,13.7227 4.1031,3.2235 29.2683,30.8204 53.7676,69.8926 13.2126,21.0723 32.7397,46.5686 50.9473,51.9726 169.0311,50.169 27.0344,-327.4082 -21.9864,-406.4863 -0.4241,-0.7232 -0.8733,-1.434 -1.3359,-2.1387 -2.4707,-4.1056 -5.7178,-8.1278 -9.6191,-12.0078 0.01,6e-4 0.013,0 0.019,0 0.305,-1.2253 0.5659,-2.4488 0,-3.6739 -17.6364,-38.2888 -74.964,-54.2713 -119.4473,-54.5449 h -44.3887 v 14.3145 c -1.1383,-0.034 -2.2335,-0.061 -3.3574,-0.092 v -14.2227 h -159.707 v 14.2227 c -1.1234,0.031 -2.2177,0.058 -3.3555,0.092 v -14.3145 z"
   style="fill:#ff0000;stroke:none;stroke-width:3.77953;stroke-linecap:round;paint-order:stroke fill markers"
   id="rect4581" /><g
   inkscape:export-ydpi="95.870003"
   inkscape:export-xdpi="95.870003"
   inkscape:export-filename="C:\Users\rollr\OneDrive\Documents\Projects\controllers\Daniel_purple\pngs\disconnected.png"
   id="g891"
   transform="translate(-14.917518,-21.800485)">
	<path
   fill="#ffffff"
   d="m 184.219,353.411 v -44.813 h 12.938 c 16.521,0 24.781,7.281 24.781,21.844 0,6.917 -2.292,12.474 -6.875,16.672 -4.583,4.198 -10.729,6.297 -18.438,6.297 z m 7.406,-38.5 v 32.219 h 5.938 c 5.229,0 9.297,-1.438 12.203,-4.313 2.906,-2.875 4.359,-6.938 4.359,-12.188 0,-10.479 -5.427,-15.719 -16.281,-15.719 h -6.219 z"
   id="path867" />
	<path
   fill="#ffffff"
   d="m 232.969,314.692 c -1.188,0 -2.203,-0.385 -3.047,-1.156 -0.844,-0.771 -1.266,-1.75 -1.266,-2.938 0,-1.188 0.422,-2.177 1.266,-2.969 0.844,-0.792 1.859,-1.188 3.047,-1.188 1.229,0 2.271,0.396 3.125,1.188 0.854,0.792 1.281,1.781 1.281,2.969 0,1.125 -0.427,2.089 -1.281,2.891 -0.855,0.803 -1.896,1.203 -3.125,1.203 z m 3.594,38.719 h -7.25 v -32 h 7.25 z"
   id="path869" />
	<path
   fill="#ffffff"
   d="m 244.031,352.411 v -6.719 c 2.708,2.063 5.698,3.094 8.969,3.094 4.375,0 6.563,-1.292 6.563,-3.875 0,-0.729 -0.188,-1.349 -0.563,-1.859 -0.375,-0.51 -0.88,-0.963 -1.516,-1.359 -0.636,-0.396 -1.386,-0.75 -2.25,-1.063 -0.865,-0.313 -1.828,-0.667 -2.891,-1.063 -1.313,-0.521 -2.495,-1.073 -3.547,-1.656 -1.052,-0.583 -1.927,-1.245 -2.625,-1.984 -0.698,-0.739 -1.224,-1.578 -1.578,-2.516 -0.354,-0.938 -0.531,-2.031 -0.531,-3.281 0,-1.542 0.364,-2.901 1.094,-4.078 0.729,-1.177 1.708,-2.167 2.938,-2.969 1.229,-0.802 2.625,-1.406 4.188,-1.813 1.563,-0.407 3.177,-0.609 4.844,-0.609 2.958,0 5.604,0.448 7.938,1.344 v 6.344 c -2.25,-1.542 -4.833,-2.313 -7.75,-2.313 -0.917,0 -1.745,0.094 -2.484,0.281 -0.74,0.188 -1.37,0.448 -1.891,0.781 -0.521,0.333 -0.927,0.734 -1.219,1.203 -0.292,0.469 -0.438,0.984 -0.438,1.547 0,0.688 0.146,1.271 0.438,1.75 0.292,0.479 0.724,0.901 1.297,1.266 0.573,0.365 1.26,0.698 2.063,1 0.802,0.302 1.724,0.63 2.766,0.984 1.375,0.563 2.609,1.136 3.703,1.719 1.094,0.583 2.026,1.245 2.797,1.984 0.771,0.74 1.364,1.594 1.781,2.563 0.417,0.969 0.625,2.12 0.625,3.453 0,1.625 -0.375,3.042 -1.125,4.25 -0.75,1.208 -1.75,2.208 -3,3 -1.25,0.792 -2.693,1.38 -4.328,1.766 -1.636,0.385 -3.359,0.578 -5.172,0.578 -3.502,0 -6.533,-0.583 -9.096,-1.75 z"
   id="path871" />
	<path
   fill="#ffffff"
   d="m 296.531,351.942 c -2.563,1.479 -5.594,2.219 -9.094,2.219 -4.75,0 -8.583,-1.484 -11.5,-4.453 -2.917,-2.969 -4.375,-6.817 -4.375,-11.547 0,-5.271 1.567,-9.505 4.703,-12.703 3.135,-3.198 7.328,-4.797 12.578,-4.797 2.917,0 5.489,0.511 7.719,1.531 v 6.75 c -2.229,-1.667 -4.604,-2.5 -7.125,-2.5 -3.063,0 -5.573,1.037 -7.531,3.109 -1.958,2.073 -2.938,4.787 -2.938,8.141 0,3.313 0.922,5.927 2.766,7.844 1.844,1.917 4.317,2.875 7.422,2.875 2.604,0 5.063,-0.927 7.375,-2.781 z"
   id="path873" />
	<path
   fill="#ffffff"
   d="m 317.906,354.161 c -4.938,0 -8.88,-1.495 -11.828,-4.484 -2.948,-2.989 -4.422,-6.953 -4.422,-11.891 0,-5.375 1.536,-9.573 4.609,-12.594 3.073,-3.021 7.213,-4.531 12.422,-4.531 5,0 8.896,1.469 11.688,4.406 2.792,2.938 4.188,7.011 4.188,12.219 0,5.104 -1.505,9.193 -4.516,12.266 -3.011,3.073 -7.058,4.609 -12.141,4.609 z m 0.344,-27.719 c -2.833,0 -5.073,0.99 -6.719,2.969 -1.646,1.979 -2.469,4.708 -2.469,8.188 0,3.354 0.833,5.995 2.5,7.922 1.667,1.927 3.896,2.891 6.688,2.891 2.854,0 5.047,-0.948 6.578,-2.844 1.531,-1.896 2.297,-4.594 2.297,-8.094 0,-3.521 -0.766,-6.239 -2.297,-8.156 -1.531,-1.917 -3.724,-2.876 -6.578,-2.876 z"
   id="path875" />
	<path
   fill="#ffffff"
   d="m 370.438,353.411 h -7.25 V 335.38 c 0,-5.979 -2.115,-8.969 -6.344,-8.969 -2.208,0 -4.031,0.828 -5.469,2.484 -1.438,1.656 -2.156,3.745 -2.156,6.266 v 18.25 h -7.281 v -32 h 7.281 v 5.313 h 0.125 c 2.396,-4.042 5.854,-6.063 10.375,-6.063 3.479,0 6.135,1.13 7.969,3.391 1.833,2.261 2.75,5.526 2.75,9.797 z"
   id="path877" />
	<path
   fill="#ffffff"
   d="m 407.781,353.411 h -7.25 V 335.38 c 0,-5.979 -2.115,-8.969 -6.344,-8.969 -2.208,0 -4.031,0.828 -5.469,2.484 -1.438,1.656 -2.156,3.745 -2.156,6.266 v 18.25 h -7.281 v -32 h 7.281 v 5.313 h 0.125 c 2.396,-4.042 5.854,-6.063 10.375,-6.063 3.479,0 6.135,1.13 7.969,3.391 1.833,2.261 2.75,5.526 2.75,9.797 z"
   id="path879" />
	<path
   fill="#ffffff"
   d="m 443.719,339.38 h -21.813 c 0.083,2.958 0.995,5.24 2.734,6.844 1.739,1.604 4.13,2.406 7.172,2.406 3.417,0 6.552,-1.021 9.406,-3.063 v 5.844 c -2.917,1.833 -6.771,2.75 -11.563,2.75 -4.708,0 -8.401,-1.453 -11.078,-4.359 -2.677,-2.906 -4.016,-6.995 -4.016,-12.266 0,-4.979 1.474,-9.036 4.422,-12.172 2.948,-3.135 6.609,-4.703 10.984,-4.703 4.375,0 7.76,1.406 10.156,4.219 2.396,2.813 3.594,6.719 3.594,11.719 v 2.781 z m -7,-5.125 c -0.021,-2.604 -0.636,-4.63 -1.844,-6.078 -1.208,-1.448 -2.875,-2.172 -5,-2.172 -2.083,0 -3.849,0.761 -5.297,2.281 -1.448,1.521 -2.339,3.511 -2.672,5.969 z"
   id="path881" />
	<path
   fill="#ffffff"
   d="m 473.531,351.942 c -2.563,1.479 -5.594,2.219 -9.094,2.219 -4.75,0 -8.583,-1.484 -11.5,-4.453 -2.917,-2.969 -4.375,-6.817 -4.375,-11.547 0,-5.271 1.567,-9.505 4.703,-12.703 3.135,-3.198 7.328,-4.797 12.578,-4.797 2.917,0 5.489,0.511 7.719,1.531 v 6.75 c -2.229,-1.667 -4.604,-2.5 -7.125,-2.5 -3.063,0 -5.573,1.037 -7.531,3.109 -1.958,2.073 -2.938,4.787 -2.938,8.141 0,3.313 0.922,5.927 2.766,7.844 1.844,1.917 4.317,2.875 7.422,2.875 2.604,0 5.063,-0.927 7.375,-2.781 z"
   id="path883" />
	<path
   fill="#ffffff"
   d="m 497.594,353.067 c -1.417,0.708 -3.281,1.063 -5.594,1.063 -6.208,0 -9.313,-2.979 -9.313,-8.938 v -18.094 h -5.344 v -5.688 h 5.344 v -7.406 l 7.25,-2.063 v 9.469 h 7.656 v 5.688 h -7.656 v 16 c 0,1.896 0.344,3.25 1.031,4.063 0.687,0.813 1.833,1.219 3.438,1.219 1.229,0 2.292,-0.354 3.188,-1.063 z"
   id="path885" />
	<path
   fill="#ffffff"
   d="M 530.563,339.38 H 508.75 c 0.083,2.958 0.995,5.24 2.734,6.844 1.739,1.604 4.13,2.406 7.172,2.406 3.417,0 6.552,-1.021 9.406,-3.063 v 5.844 c -2.917,1.833 -6.771,2.75 -11.563,2.75 -4.708,0 -8.401,-1.453 -11.078,-4.359 -2.677,-2.906 -4.016,-6.995 -4.016,-12.266 0,-4.979 1.474,-9.036 4.422,-12.172 2.948,-3.135 6.609,-4.703 10.984,-4.703 4.375,0 7.76,1.406 10.156,4.219 2.396,2.813 3.594,6.719 3.594,11.719 v 2.781 z m -7,-5.125 c -0.021,-2.604 -0.636,-4.63 -1.844,-6.078 -1.208,-1.448 -2.875,-2.172 -5,-2.172 -2.083,0 -3.849,0.761 -5.297,2.281 -1.448,1.521 -2.339,3.511 -2.672,5.969 z"
   id="path887" />
	<path
   fill="#ffffff"
   d="m 566.563,353.411 h -7.25 v -5.438 h -0.125 c -2.333,4.125 -5.927,6.188 -10.781,6.188 -3.938,0 -7.089,-1.432 -9.453,-4.297 -2.365,-2.864 -3.547,-6.766 -3.547,-11.703 0,-5.292 1.307,-9.531 3.922,-12.719 2.614,-3.188 6.099,-4.781 10.453,-4.781 4.313,0 7.448,1.729 9.406,5.188 h 0.125 v -19.813 h 7.25 z m -7.157,-14.625 v -4.188 c 0,-2.271 -0.74,-4.198 -2.219,-5.781 -1.479,-1.583 -3.365,-2.375 -5.656,-2.375 -2.708,0 -4.839,1.011 -6.391,3.031 -1.552,2.021 -2.328,4.823 -2.328,8.406 0,3.25 0.745,5.818 2.234,7.703 1.489,1.886 3.495,2.828 6.016,2.828 2.479,0 4.489,-0.911 6.031,-2.734 1.542,-1.822 2.313,-4.119 2.313,-6.89 z"
   id="path889" />
</g></svg>
