<?xml version="1.0" encoding="UTF-8" standalone="no"?>
<svg
   xmlns:dc="http://purl.org/dc/elements/1.1/"
   xmlns:cc="http://creativecommons.org/ns#"
   xmlns:rdf="http://www.w3.org/1999/02/22-rdf-syntax-ns#"
   xmlns:svg="http://www.w3.org/2000/svg"
   xmlns="http://www.w3.org/2000/svg"
   xmlns:sodipodi="http://sodipodi.sourceforge.net/DTD/sodipodi-0.dtd"
   xmlns:inkscape="http://www.inkscape.org/namespaces/inkscape"
   version="1.1"
   id="Layer_1"
   x="0px"
   y="0px"
   width="88.934px"
   height="121.795px"
   viewBox="0 0 88.934 121.795"
   enable-background="new 0 0 88.934 121.795"
   xml:space="preserve"
   sodipodi:docname="trigger.svg"
   inkscape:version="1.0 (4035a4fb49, 2020-05-01)"><metadata
   id="metadata44"><rdf:RDF><cc:Work
       rdf:about=""><dc:format>image/svg+xml</dc:format><dc:type
         rdf:resource="http://purl.org/dc/dcmitype/StillImage" /><dc:title /></cc:Work></rdf:RDF></metadata><defs
   id="defs42" /><sodipodi:namedview
   inkscape:document-rotation="0"
   pagecolor="#ffffff"
   bordercolor="#666666"
   borderopacity="1"
   objecttolerance="10"
   gridtolerance="10"
   guidetolerance="10"
   inkscape:pageopacity="0"
   inkscape:pageshadow="2"
   inkscape:window-width="1920"
   inkscape:window-height="1017"
   id="namedview40"
   showgrid="false"
   inkscape:zoom="2.5196793"
   inkscape:cx="77.647371"
   inkscape:cy="90.193038"
   inkscape:window-x="-8"
   inkscape:window-y="-8"
   inkscape:window-maximized="1"
   inkscape:current-layer="Layer_1" />
<g
   inkscape:export-ydpi="95.870003"
   inkscape:export-xdpi="95.870003"
   inkscape:export-filename="C:\Users\rollr\OneDrive\Documents\Projects\controllers\Daniel_purple\pngs\LT_Pressed.png"
   id="LT_Pressed">
	<path
   fill="#E5E5E5"
   d="M74.753,56.076v-0.668C74.768,55.821,74.753,56.076,74.753,56.076z"
   id="path2" />
	<path
   fill="#E5E5E5"
   d="M49.715,5.466c0.401-0.319,0.805-0.618,1.211-0.899l2.322,109.995L0,121.795   C12.067,4.974,42.959,10.762,49.715,5.466z"
   id="path4" />
	<path
   fill="#EBEBEB"
   d="M76.741,0.142c10.833,0.403,12.069,11.439,12.193,15.19v1.227c0,0-2.901,40.716,0,93.094   c-9.926,2.289-38.539,5.298-38.539,5.298s-0.051-20.914-0.68-50.596c-0.811-37.501,1.211-59.788,1.211-59.788   C57.343,0.091,64.492-0.307,76.741,0.142z"
   id="path6" />
</g>
<g
   id="g9">
</g>
<g
   id="g11">
</g>
<g
   id="g13">
</g>
<g
   id="g15">
</g>
<g
   id="g17">
</g>
<g
   id="g19">
</g>
<g
   id="g21">
</g>
<g
   id="g23">
</g>
<g
   id="g25">
</g>
<g
   id="g27">
</g>
<g
   id="g29">
</g>
<g
   id="g31">
</g>
<g
   id="g33">
</g>
<g
   id="g35">
</g>
<g
   id="g37">
</g>
</svg>
