<?xml version="1.0" encoding="UTF-8" standalone="no"?>
<svg
   xmlns:dc="http://purl.org/dc/elements/1.1/"
   xmlns:cc="http://creativecommons.org/ns#"
   xmlns:rdf="http://www.w3.org/1999/02/22-rdf-syntax-ns#"
   xmlns:svg="http://www.w3.org/2000/svg"
   xmlns="http://www.w3.org/2000/svg"
   xmlns:sodipodi="http://sodipodi.sourceforge.net/DTD/sodipodi-0.dtd"
   xmlns:inkscape="http://www.inkscape.org/namespaces/inkscape"
   inkscape:version="1.0 (4035a4fb49, 2020-05-01)"
   sodipodi:docname="dpad.svg"
   xml:space="preserve"
   enable-background="new 0 0 70.659 128.036"
   viewBox="0 0 302.63643 74.28889"
   height="74.288887"
   width="302.63641"
   y="0px"
   x="0px"
   id="Layer_1"
   version="1.1"><metadata
   id="metadata93"><rdf:RDF><cc:Work
       rdf:about=""><dc:format>image/svg+xml</dc:format><dc:type
         rdf:resource="http://purl.org/dc/dcmitype/StillImage" /><dc:title /></cc:Work></rdf:RDF></metadata><defs
   id="defs91"><filter
     inkscape:collect="always"
     style="color-interpolation-filters:sRGB"
     id="filter1616-0-1-5-2"
     x="-0.0091029312"
     width="1.0088817"
     y="-0.0091031035"
     height="1.0191987"><feGaussianBlur
       inkscape:collect="always"
       stdDeviation="0.7737416"
       id="feGaussianBlur1618-2-6-0-7" /></filter><filter
     inkscape:collect="always"
     style="color-interpolation-filters:sRGB"
     id="filter1797-8-4-5-8"
     x="-0.046058416"
     width="1.0455883"
     y="-0.022835493"
     height="1.1971831"><feGaussianBlur
       inkscape:collect="always"
       stdDeviation="0.36926669"
       id="feGaussianBlur1799-9-5-8-8" /></filter><filter
     height="1.2169887"
     y="-0.041650772"
     width="1.1055712"
     x="-0.053081989"
     id="filter1793-1-8-6-2-7"
     style="color-interpolation-filters:sRGB"
     inkscape:collect="always"><feGaussianBlur
       id="feGaussianBlur1795-8-0-5-7-2"
       stdDeviation="0.36926669"
       inkscape:collect="always" /></filter></defs><sodipodi:namedview
   inkscape:current-layer="Layer_1"
   inkscape:window-maximized="1"
   inkscape:window-y="-8"
   inkscape:window-x="-8"
   inkscape:cy="115.12942"
   inkscape:cx="-136.29733"
   inkscape:zoom="0.84741795"
   showgrid="false"
   id="namedview89"
   inkscape:window-height="1017"
   inkscape:window-width="1920"
   inkscape:pageshadow="2"
   inkscape:pageopacity="0"
   guidetolerance="10"
   gridtolerance="10"
   objecttolerance="10"
   borderopacity="1"
   bordercolor="#666666"
   pagecolor="#ffffff"
   inkscape:document-rotation="0"
   inkscape:object-paths="true" />


<g
   id="g58"
   transform="translate(-161.90464,-207.24874)">
</g>
<g
   id="g60"
   transform="translate(-161.90464,-207.24874)">
</g>
<g
   id="g62"
   transform="translate(-161.90464,-207.24874)">
</g>
<g
   id="g64"
   transform="translate(-161.90464,-207.24874)">
</g>
<g
   id="g66"
   transform="translate(-161.90464,-207.24874)">
</g>
<g
   id="g68"
   transform="translate(-161.90464,-207.24874)">
</g>
<g
   id="g70"
   transform="translate(-161.90464,-207.24874)">
</g>
<g
   id="g72"
   transform="translate(-161.90464,-207.24874)">
</g>
<g
   id="g74"
   transform="translate(-161.90464,-207.24874)">
</g>
<g
   id="g76"
   transform="translate(-161.90464,-207.24874)">
</g>
<g
   id="g78"
   transform="translate(-161.90464,-207.24874)">
</g>
<g
   id="g80"
   transform="translate(-161.90464,-207.24874)">
</g>
<g
   id="g82"
   transform="translate(-161.90464,-207.24874)">
</g>
<g
   id="g84"
   transform="translate(-161.90464,-207.24874)">
</g>
<g
   id="g86"
   transform="translate(-161.90464,-207.24874)">
</g>
<g
   transform="translate(-40.004355,-213.07451)"
   id="g1004"><path
     style="fill:#40a7d8;fill-opacity:1;stroke:none;stroke-width:3.77953;stroke-linejoin:round;stroke-miterlimit:4;stroke-dasharray:none;paint-order:stroke fill markers"
     d="m 202.12542,215.45429 c -7.23666,0 -13.06242,5.82588 -13.06242,13.0625 v 43.40433 c 0,7.23662 5.82576,13.0625 13.06242,13.0625 h 61.22646 v -69.52933 z"
     id="path3630" /><path
     id="path3632"
     style="fill:#44c3ff;fill-opacity:1;stroke-width:2.89637;stroke-linecap:round;stroke-linejoin:round;filter:url(#filter1616-0-1-5-2)"
     d="m 263.35187,217.70379 h -55.0156 c -6.7685,0 -12.2189,5.44835 -12.2187,12.2168 v 40.59375 c 0,6.76849 5.4502,12.21875 12.2187,12.21875 h 55.0156 v 0.002 z"
     sodipodi:nodetypes="cscssccc" /><path
     transform="matrix(3.6837561,0,0,3.6837561,-2173.4978,1085.9783)"
     d="m 646.73445,-236.18949 c -1.91471,0 -3.45612,1.54143 -3.45612,3.45612 v 1.59835 c 0,-1.91469 1.54141,-3.45612 3.45612,-3.45612 h 14.51304 c 0.55688,-0.34697 -0.0675,-0.93691 0.26473,-1.59835 z"
     style="fill:#bee8fc;fill-opacity:1;stroke:none;stroke-width:1;stroke-linejoin:round;stroke-miterlimit:4;stroke-dasharray:none;paint-order:stroke fill markers;filter:url(#filter1797-8-4-5-8)"
     id="path3634"
     sodipodi:nodetypes="sscsccs" /><path
     d="m 231.36347,241.35097 a 0.89376436,0.89376436 0 0 0 -0.45921,0.11717 l -13.81833,7.97265 a 0.89376436,0.89376436 0 0 0 0,1.55081 l 13.81833,7.97851 a 0.89376436,0.89376436 0 0 0 1.33606,-0.77541 v -15.95119 a 0.89376436,0.89376436 0 0 0 -0.87685,-0.89257 z"
     style="color:#000000;font-style:normal;font-variant:normal;font-weight:normal;font-stretch:normal;font-size:medium;line-height:normal;font-family:sans-serif;font-variant-ligatures:normal;font-variant-position:normal;font-variant-caps:normal;font-variant-numeric:normal;font-variant-alternates:normal;font-variant-east-asian:normal;font-feature-settings:normal;font-variation-settings:normal;text-indent:0;text-align:start;text-decoration:none;text-decoration-line:none;text-decoration-style:solid;text-decoration-color:#000000;letter-spacing:normal;word-spacing:normal;text-transform:none;writing-mode:lr-tb;direction:ltr;text-orientation:mixed;dominant-baseline:auto;baseline-shift:baseline;text-anchor:start;white-space:normal;shape-padding:0;shape-margin:0;inline-size:0;clip-rule:nonzero;display:inline;overflow:visible;visibility:visible;isolation:auto;mix-blend-mode:normal;color-interpolation:sRGB;color-interpolation-filters:linearRGB;solid-color:#000000;solid-opacity:1;vector-effect:none;fill:#2b7ba1;fill-opacity:1;fill-rule:nonzero;stroke:none;stroke-width:1.78735;stroke-linecap:butt;stroke-linejoin:round;stroke-miterlimit:4;stroke-dasharray:none;stroke-dashoffset:0;stroke-opacity:1;color-rendering:auto;image-rendering:auto;shape-rendering:auto;text-rendering:auto;enable-background:accumulate;stop-color:#000000"
     id="path3636" /></g><g
   transform="translate(-7.594989,-213.07451)"
   id="g989"><path
     id="path3648"
     d="m 77.124313,226.13694 c 0,-7.23666 -5.825878,-13.06243 -13.062501,-13.06243 H 20.65749 c -7.236624,0 -13.062501,5.82577 -13.062501,13.06243 v 61.22646 h 69.529324 z"
     style="fill:#b3b3b3;fill-opacity:1;stroke:none;stroke-width:3.77953;stroke-linejoin:round;stroke-miterlimit:4;stroke-dasharray:none;paint-order:stroke fill markers" /><path
     sodipodi:nodetypes="cscssccc"
     d="M 81.288946,83.539131 H 26.273339 c -6.7685,0 -12.2189,5.44835 -12.2187,12.2168 v 40.593749 c 0,6.76849 5.4502,12.21875 12.2187,12.21875 h 55.015607 v 0.002 z"
     style="fill:#cccccc;fill-opacity:1;stroke-width:2.89637;stroke-linecap:round;stroke-linejoin:round;filter:url(#filter1616-0-1-5-2)"
     id="path3650"
     transform="rotate(90,-23.830266,182.24419)" /><path
     id="path3654"
     style="color:#000000;font-style:normal;font-variant:normal;font-weight:normal;font-stretch:normal;font-size:medium;line-height:normal;font-family:sans-serif;font-variant-ligatures:normal;font-variant-position:normal;font-variant-caps:normal;font-variant-numeric:normal;font-variant-alternates:normal;font-variant-east-asian:normal;font-feature-settings:normal;font-variation-settings:normal;text-indent:0;text-align:start;text-decoration:none;text-decoration-line:none;text-decoration-style:solid;text-decoration-color:#000000;letter-spacing:normal;word-spacing:normal;text-transform:none;writing-mode:lr-tb;direction:ltr;text-orientation:mixed;dominant-baseline:auto;baseline-shift:baseline;text-anchor:start;white-space:normal;shape-padding:0;shape-margin:0;inline-size:0;clip-rule:nonzero;display:inline;overflow:visible;visibility:visible;isolation:auto;mix-blend-mode:normal;color-interpolation:sRGB;color-interpolation-filters:linearRGB;solid-color:#000000;solid-opacity:1;vector-effect:none;fill:#929398;fill-opacity:1;fill-rule:nonzero;stroke:none;stroke-width:1.78735;stroke-linecap:butt;stroke-linejoin:round;stroke-miterlimit:4;stroke-dasharray:none;stroke-dashoffset:0;stroke-opacity:1;color-rendering:auto;image-rendering:auto;shape-rendering:auto;text-rendering:auto;enable-background:accumulate;stop-color:#000000"
     d="m 51.227632,255.37499 a 0.89376436,0.89376436 0 0 0 -0.117165,-0.45922 l -7.972649,-13.81833 a 0.89376436,0.89376436 0 0 0 -1.550816,0 l -7.978507,13.81833 a 0.89376436,0.89376436 0 0 0 0.775408,1.33607 h 15.951194 a 0.89376436,0.89376436 0 0 0 0.892573,-0.87685 z" /><path
     transform="matrix(3.6837561,0,0,3.6837561,-2427.3985,1156.6376)"
     d="m 665.4596,-255.92166 c -1.91468,0 -3.45611,1.54143 -3.45611,3.45612 v 1.59835 c 0,-1.91469 1.54143,-3.45612 3.45611,-3.45612 h 9.97204 c 1.91468,0 3.45612,1.54143 3.45612,3.45612 v -1.59835 c 0,-1.91469 -1.54144,-3.45612 -3.45612,-3.45612 z"
     style="fill:#ffffff;fill-opacity:1;stroke:none;stroke-width:1;stroke-linejoin:round;stroke-miterlimit:4;stroke-dasharray:none;paint-order:stroke fill markers;filter:url(#filter1793-1-8-6-2-7)"
     id="path1746-7-1-1-9"
     sodipodi:nodetypes="sscsscsss" /><path
     style="fill:#40a7d8;fill-opacity:1;stroke:none;stroke-width:3.77953;stroke-linejoin:round;stroke-miterlimit:4;stroke-dasharray:none;paint-order:stroke fill markers"
     d="m 77.124313,226.13694 c 0,-7.23666 -5.825878,-13.06243 -13.062501,-13.06243 H 20.65749 c -7.236624,0 -13.062501,5.82577 -13.062501,13.06243 v 61.22646 h 69.529324 z"
     id="path3690" /><path
     transform="rotate(90,-23.830266,182.24419)"
     id="path3692"
     style="fill:#44c3ff;fill-opacity:1;stroke-width:2.89637;stroke-linecap:round;stroke-linejoin:round;filter:url(#filter1616-0-1-5-2)"
     d="M 81.288946,83.539131 H 26.273339 c -6.7685,0 -12.2189,5.44835 -12.2187,12.2168 v 40.593749 c 0,6.76849 5.4502,12.21875 12.2187,12.21875 h 55.015607 v 0.002 z"
     sodipodi:nodetypes="cscssccc" /><path
     d="m 51.227632,255.37499 a 0.89376436,0.89376436 0 0 0 -0.117165,-0.45922 l -7.972649,-13.81833 a 0.89376436,0.89376436 0 0 0 -1.550816,0 l -7.978507,13.81833 a 0.89376436,0.89376436 0 0 0 0.775408,1.33607 h 15.951194 a 0.89376436,0.89376436 0 0 0 0.892573,-0.87685 z"
     style="color:#000000;font-style:normal;font-variant:normal;font-weight:normal;font-stretch:normal;font-size:medium;line-height:normal;font-family:sans-serif;font-variant-ligatures:normal;font-variant-position:normal;font-variant-caps:normal;font-variant-numeric:normal;font-variant-alternates:normal;font-variant-east-asian:normal;font-feature-settings:normal;font-variation-settings:normal;text-indent:0;text-align:start;text-decoration:none;text-decoration-line:none;text-decoration-style:solid;text-decoration-color:#000000;letter-spacing:normal;word-spacing:normal;text-transform:none;writing-mode:lr-tb;direction:ltr;text-orientation:mixed;dominant-baseline:auto;baseline-shift:baseline;text-anchor:start;white-space:normal;shape-padding:0;shape-margin:0;inline-size:0;clip-rule:nonzero;display:inline;overflow:visible;visibility:visible;isolation:auto;mix-blend-mode:normal;color-interpolation:sRGB;color-interpolation-filters:linearRGB;solid-color:#000000;solid-opacity:1;vector-effect:none;fill:#2b7ba1;fill-opacity:1;fill-rule:nonzero;stroke:none;stroke-width:1.78735;stroke-linecap:butt;stroke-linejoin:round;stroke-miterlimit:4;stroke-dasharray:none;stroke-dashoffset:0;stroke-opacity:1;color-rendering:auto;image-rendering:auto;shape-rendering:auto;text-rendering:auto;enable-background:accumulate;stop-color:#000000"
     id="path3694" /><path
     sodipodi:nodetypes="sscsscsss"
     id="path3696"
     style="fill:#bee8fc;fill-opacity:1;stroke:none;stroke-width:1;stroke-linejoin:round;stroke-miterlimit:4;stroke-dasharray:none;paint-order:stroke fill markers;filter:url(#filter1793-1-8-6-2-7)"
     d="m 665.4596,-255.92166 c -1.91468,0 -3.45611,1.54143 -3.45611,3.45612 v 1.59835 c 0,-1.91469 1.54143,-3.45612 3.45611,-3.45612 h 9.97204 c 1.91468,0 3.45612,1.54143 3.45612,3.45612 v -1.59835 c 0,-1.91469 -1.54144,-3.45612 -3.45612,-3.45612 z"
     transform="matrix(3.6837561,0,0,3.6837561,-2427.3985,1156.6376)" /></g><g
   transform="translate(-21.065653,-210.61993)"
   id="g998"><path
     style="fill:#b3b3b3;fill-opacity:1;stroke:none;stroke-width:3.77953;stroke-linejoin:round;stroke-miterlimit:4;stroke-dasharray:none;paint-order:stroke fill markers"
     d="m 165.1243,271.84639 c 0,7.23667 -5.82588,13.06243 -13.0625,13.06243 h -43.40432 c -7.23663,0 -13.062503,-5.82576 -13.062503,-13.06243 V 210.61994 H 165.1243 Z"
     id="path3704" /><path
     transform="matrix(0,-0.99999999,-0.99999999,0,246.41393,291.90886)"
     id="path3706"
     style="fill:#cccccc;fill-opacity:1;stroke-width:2.89637;stroke-linecap:round;stroke-linejoin:round;filter:url(#filter1616-0-1-5-2)"
     d="M 81.288946,83.539131 H 26.273339 c -6.7685,0 -12.2189,5.44835 -12.2187,12.2168 v 40.593749 c 0,6.76849 5.4502,12.21875 12.2187,12.21875 h 55.015607 v 0.002 z"
     sodipodi:nodetypes="cscssccc" /><path
     d="m 139.22762,242.60835 a 0.89376436,0.89376436 0 0 1 -0.11716,0.45921 l -7.97265,13.81833 a 0.89376436,0.89376436 0 0 1 -1.55082,0 l -7.97851,-13.81833 a 0.89376436,0.89376436 0 0 1 0.77541,-1.33606 h 15.9512 a 0.89376436,0.89376436 0 0 1 0.89257,0.87685 z"
     style="color:#000000;font-style:normal;font-variant:normal;font-weight:normal;font-stretch:normal;font-size:medium;line-height:normal;font-family:sans-serif;font-variant-ligatures:normal;font-variant-position:normal;font-variant-caps:normal;font-variant-numeric:normal;font-variant-alternates:normal;font-variant-east-asian:normal;font-feature-settings:normal;font-variation-settings:normal;text-indent:0;text-align:start;text-decoration:none;text-decoration-line:none;text-decoration-style:solid;text-decoration-color:#000000;letter-spacing:normal;word-spacing:normal;text-transform:none;writing-mode:lr-tb;direction:ltr;text-orientation:mixed;dominant-baseline:auto;baseline-shift:baseline;text-anchor:start;white-space:normal;shape-padding:0;shape-margin:0;inline-size:0;clip-rule:nonzero;display:inline;overflow:visible;visibility:visible;isolation:auto;mix-blend-mode:normal;color-interpolation:sRGB;color-interpolation-filters:linearRGB;solid-color:#000000;solid-opacity:1;vector-effect:none;fill:#929398;fill-opacity:1;fill-rule:nonzero;stroke:none;stroke-width:1.78735;stroke-linecap:butt;stroke-linejoin:round;stroke-miterlimit:4;stroke-dasharray:none;stroke-dashoffset:0;stroke-opacity:1;color-rendering:auto;image-rendering:auto;shape-rendering:auto;text-rendering:auto;enable-background:accumulate;stop-color:#000000"
     id="path3708" /><path
     sodipodi:nodetypes="sscsscsss"
     id="path3710"
     style="fill:#ffffff;fill-opacity:1;stroke:none;stroke-width:1;stroke-linejoin:round;stroke-miterlimit:4;stroke-dasharray:none;paint-order:stroke fill markers;filter:url(#filter1793-1-8-6-2-7)"
     d="m 665.4596,-255.92166 c -1.91468,0 -3.45611,1.54143 -3.45611,3.45612 v 1.59835 c 0,-1.91469 1.54143,-3.45612 3.45611,-3.45612 h 9.97204 c 1.91468,0 3.45612,1.54143 3.45612,3.45612 v -1.59835 c 0,-1.91469 -1.54144,-3.45612 -3.45612,-3.45612 z"
     transform="matrix(3.6837561,0,0,-3.6837561,-2339.3986,-658.65424)" /><path
     id="path3712"
     d="m 165.1243,271.84639 c 0,7.23667 -5.82588,13.06243 -13.0625,13.06243 h -43.40432 c -7.23663,0 -13.062503,-5.82576 -13.062503,-13.06243 V 210.61994 H 165.1243 Z"
     style="fill:#40a7d8;fill-opacity:1;stroke:none;stroke-width:3.77953;stroke-linejoin:round;stroke-miterlimit:4;stroke-dasharray:none;paint-order:stroke fill markers" /><path
     sodipodi:nodetypes="cscssccc"
     d="M 81.288946,83.539131 H 26.273339 c -6.7685,0 -12.2189,5.44835 -12.2187,12.2168 v 40.593749 c 0,6.76849 5.4502,12.21875 12.2187,12.21875 h 55.015607 v 0.002 z"
     style="fill:#44c3ff;fill-opacity:1;stroke-width:2.89637;stroke-linecap:round;stroke-linejoin:round;filter:url(#filter1616-0-1-5-2)"
     id="path3714"
     transform="matrix(0,-0.99999999,-0.99999999,0,246.41393,291.90886)" /><path
     id="path3716"
     style="color:#000000;font-style:normal;font-variant:normal;font-weight:normal;font-stretch:normal;font-size:medium;line-height:normal;font-family:sans-serif;font-variant-ligatures:normal;font-variant-position:normal;font-variant-caps:normal;font-variant-numeric:normal;font-variant-alternates:normal;font-variant-east-asian:normal;font-feature-settings:normal;font-variation-settings:normal;text-indent:0;text-align:start;text-decoration:none;text-decoration-line:none;text-decoration-style:solid;text-decoration-color:#000000;letter-spacing:normal;word-spacing:normal;text-transform:none;writing-mode:lr-tb;direction:ltr;text-orientation:mixed;dominant-baseline:auto;baseline-shift:baseline;text-anchor:start;white-space:normal;shape-padding:0;shape-margin:0;inline-size:0;clip-rule:nonzero;display:inline;overflow:visible;visibility:visible;isolation:auto;mix-blend-mode:normal;color-interpolation:sRGB;color-interpolation-filters:linearRGB;solid-color:#000000;solid-opacity:1;vector-effect:none;fill:#2b7ba1;fill-opacity:1;fill-rule:nonzero;stroke:none;stroke-width:1.78735;stroke-linecap:butt;stroke-linejoin:round;stroke-miterlimit:4;stroke-dasharray:none;stroke-dashoffset:0;stroke-opacity:1;color-rendering:auto;image-rendering:auto;shape-rendering:auto;text-rendering:auto;enable-background:accumulate;stop-color:#000000"
     d="m 139.22762,242.60835 a 0.89376436,0.89376436 0 0 1 -0.11716,0.45921 l -7.97265,13.81833 a 0.89376436,0.89376436 0 0 1 -1.55082,0 l -7.97851,-13.81833 a 0.89376436,0.89376436 0 0 1 0.77541,-1.33606 h 15.9512 a 0.89376436,0.89376436 0 0 1 0.89257,0.87685 z" /></g><g
   transform="translate(-60.305945,-213.07451)"
   id="g1010"><path
     id="path3730"
     d="m 349.87993,215.45429 c 7.23666,0 13.06243,5.82588 13.06243,13.0625 v 43.40433 c 0,7.23662 -5.82577,13.0625 -13.06243,13.0625 h -61.22646 v -69.52933 z"
     style="fill:#40a7d8;fill-opacity:1;stroke:none;stroke-width:3.77953;stroke-linejoin:round;stroke-miterlimit:4;stroke-dasharray:none;paint-order:stroke fill markers" /><path
     sodipodi:nodetypes="cscssccc"
     d="m 80.90905,83.531561 -54.635711,0.0076 c -6.7685,9.38e-4 -12.2189,5.44835 -12.2187,12.2168 v 40.593749 c 0,6.76849 5.4502,12.21875 12.2187,12.21875 h 55.015607 v 0.002 z"
     style="fill:#44c3ff;fill-opacity:1;stroke-width:2.89637;stroke-linecap:round;stroke-linejoin:round;filter:url(#filter1616-0-1-5-2)"
     id="path3732"
     transform="matrix(-0.99999999,0,0,0.99999999,369.94243,134.16466)" /><path
     sodipodi:nodetypes="sscsccs"
     id="path3734"
     style="fill:#bee8fc;fill-opacity:1;stroke:none;stroke-width:1;stroke-linejoin:round;stroke-miterlimit:4;stroke-dasharray:none;paint-order:stroke fill markers;filter:url(#filter1797-8-4-5-8)"
     d="m 646.73445,-236.18949 c -1.91471,0 -3.45612,1.54143 -3.45612,3.45612 v 1.59835 c 0,-1.91469 1.54141,-3.45612 3.45612,-3.45612 h 14.51304 c 0.55688,-0.34697 -0.0675,-0.93691 0.26473,-1.59835 z"
     transform="matrix(-3.6837561,0,0,3.6837561,2725.5032,1085.9783)" /><path
     id="path3736"
     style="color:#000000;font-style:normal;font-variant:normal;font-weight:normal;font-stretch:normal;font-size:medium;line-height:normal;font-family:sans-serif;font-variant-ligatures:normal;font-variant-position:normal;font-variant-caps:normal;font-variant-numeric:normal;font-variant-alternates:normal;font-variant-east-asian:normal;font-feature-settings:normal;font-variation-settings:normal;text-indent:0;text-align:start;text-decoration:none;text-decoration-line:none;text-decoration-style:solid;text-decoration-color:#000000;letter-spacing:normal;word-spacing:normal;text-transform:none;writing-mode:lr-tb;direction:ltr;text-orientation:mixed;dominant-baseline:auto;baseline-shift:baseline;text-anchor:start;white-space:normal;shape-padding:0;shape-margin:0;inline-size:0;clip-rule:nonzero;display:inline;overflow:visible;visibility:visible;isolation:auto;mix-blend-mode:normal;color-interpolation:sRGB;color-interpolation-filters:linearRGB;solid-color:#000000;solid-opacity:1;vector-effect:none;fill:#2b7ba1;fill-opacity:1;fill-rule:nonzero;stroke:none;stroke-width:1.78735;stroke-linecap:butt;stroke-linejoin:round;stroke-miterlimit:4;stroke-dasharray:none;stroke-dashoffset:0;stroke-opacity:1;color-rendering:auto;image-rendering:auto;shape-rendering:auto;text-rendering:auto;enable-background:accumulate;stop-color:#000000"
     d="m 320.64188,241.35097 a 0.89376436,0.89376436 0 0 1 0.45922,0.11717 l 13.81833,7.97265 a 0.89376436,0.89376436 0 0 1 0,1.55081 l -13.81833,7.97851 a 0.89376436,0.89376436 0 0 1 -1.33607,-0.77541 v -15.95119 a 0.89376436,0.89376436 0 0 1 0.87685,-0.89257 z" /></g></svg>
