<?xml version="1.0" encoding="UTF-8" standalone="no"?>
<svg
   xmlns:dc="http://purl.org/dc/elements/1.1/"
   xmlns:cc="http://creativecommons.org/ns#"
   xmlns:rdf="http://www.w3.org/1999/02/22-rdf-syntax-ns#"
   xmlns:svg="http://www.w3.org/2000/svg"
   xmlns="http://www.w3.org/2000/svg"
   xmlns:xlink="http://www.w3.org/1999/xlink"
   xmlns:sodipodi="http://sodipodi.sourceforge.net/DTD/sodipodi-0.dtd"
   xmlns:inkscape="http://www.inkscape.org/namespaces/inkscape"
   inkscape:version="1.0 (4035a4fb49, 2020-05-01)"
   sodipodi:docname="Excsluvxe_stick.svg"
   xml:space="preserve"
   enable-background="new 0 0 168.77 83.384"
   viewBox="0 0 168.77 83.384"
   height="83.384px"
   width="168.77px"
   y="0px"
   x="0px"
   id="Layer_1"
   version="1.1"><metadata
   id="metadata80"><rdf:RDF><cc:Work
       rdf:about=""><dc:format>image/svg+xml</dc:format><dc:type
         rdf:resource="http://purl.org/dc/dcmitype/StillImage" /><dc:title></dc:title></cc:Work></rdf:RDF></metadata><defs
   id="defs78"><radialGradient
     gradientTransform="translate(6203.123,405.00568)"
     r="41.69849"
     fy="-446.13049"
     fx="-6049.7129"
     cy="-446.13049"
     cx="-6049.7129"
     gradientUnits="userSpaceOnUse"
     id="radialGradient7602-7"
     xlink:href="#linearGradient7596"
     inkscape:collect="always" /><linearGradient
     id="linearGradient7596"
     inkscape:collect="always"><stop
       id="stop7592"
       offset="0"
       style="stop-color:#ffe142;stop-opacity:1;" /><stop
       id="stop7594"
       offset="1"
       style="stop-color:#ffe142;stop-opacity:0;" /></linearGradient></defs><sodipodi:namedview
   inkscape:snap-center="true"
   inkscape:current-layer="Layer_1"
   inkscape:window-maximized="1"
   inkscape:window-y="-8"
   inkscape:window-x="-8"
   inkscape:cy="7.5815454"
   inkscape:cx="138.88766"
   inkscape:zoom="12.644427"
   showgrid="false"
   id="namedview76"
   inkscape:window-height="1017"
   inkscape:window-width="1920"
   inkscape:pageshadow="2"
   inkscape:pageopacity="0"
   guidetolerance="10"
   gridtolerance="10"
   objecttolerance="10"
   borderopacity="1"
   bordercolor="#666666"
   pagecolor="#ffffff" />

<g
   id="LS_pressed">
	<g
   id="g28">
		<path
   id="path24"
   d="M83.385,41.703c0,23.02-18.664,41.681-41.7,41.681C18.662,83.384,0,64.723,0,41.703    C0,18.663,18.662,0,41.685,0C64.721,0,83.385,18.663,83.385,41.703z"
   fill="#E5E5E5" />
		<path
   id="path26"
   d="M41.685,0c-0.011,0-0.021,0-0.033,0c-0.003,0-0.007,0-0.011,0c-0.007,0-0.015,0-0.021,0    c-0.005,0-0.009,0-0.014,0c-0.005,0-0.013,0-0.019,0c-0.005,0-0.009,0-0.014,0c-0.007,0-0.012,0-0.02,0c-0.004,0-0.009,0-0.013,0    c-0.007,0-0.013,0-0.02,0c-0.004,0-0.009,0-0.013,0c-0.007,0-0.013,0-0.02,0c-0.004,0-0.009,0-0.013,0c-0.006,0-0.014,0-0.02,0    c-0.004,0-0.008,0-0.013,0c-0.007,0-0.012,0-0.019,0c-0.005,0-0.01,0-0.015,0c-0.006,0-0.011,0-0.017,0s-0.011,0-0.016,0    c-0.005,0-0.012,0-0.018,0c-0.005,0-0.01,0-0.015,0s-0.013,0-0.019,0c-0.004,0-0.009,0-0.014,0c-0.005,0-0.014,0-0.02,0    c-0.004,0-0.009,0-0.013,0c-0.008,0-0.015,0-0.023,0c-0.003,0-0.006,0-0.009,0c-0.011,0-0.021,0-0.033,0c-0.003,0-0.006,0-0.009,0    c-0.008,0-0.015,0-0.023,0c-0.005,0-0.011,0-0.016,0c-0.005,0-0.01,0-0.016,0c-0.006,0-0.012,0-0.018,0c-0.005,0-0.009,0-0.015,0    c-0.006,0-0.012,0-0.018,0s-0.009,0-0.014,0c-0.006,0-0.012,0-0.019,0c-0.004,0-0.011,0-0.015,0c-0.006,0-0.012,0-0.018,0    c-0.004,0-0.01,0-0.014,0c-0.006,0-0.012,0-0.019,0c-0.005,0-0.009,0-0.014,0c-0.006,0-0.012,0-0.018,0c-0.004,0-0.01,0-0.014,0    c-0.006,0-0.013,0-0.019,0c-0.004,0-0.01,0-0.014,0c-0.006,0-0.013,0-0.02,0c-0.002,0-0.008,0-0.011,0c-0.007,0-0.015,0-0.022,0    c-0.003,0-0.005,0-0.008,0c-0.008,0-0.016,0-0.024,0c-0.001,0-0.004,0-0.005,0c-0.049,0.001-0.099,0.002-0.148,0.003    c-0.001,0-0.002,0-0.004,0c-0.009,0-0.018,0-0.027,0.001c-0.001,0-0.003,0-0.004,0c-0.009,0-0.019,0-0.028,0    c-0.001,0-0.002,0-0.004,0c-0.009,0-0.019,0-0.028,0.001c-0.001,0-0.002,0-0.003,0c-0.009,0-0.018,0-0.027,0.001    c-0.001,0-0.003,0-0.005,0c-0.009,0-0.019,0-0.028,0h-0.002c-0.01,0-0.02,0.001-0.029,0.001h-0.001    c-0.021,0-0.041,0.001-0.062,0.002l0,0c-0.25,0.007-0.499,0.017-0.747,0.029l0.943,19.978C40.978,20.008,41.333,20,41.685,20V0    L41.685,0L41.685,0z M37.69,0.189c-0.056,0.005-0.113,0.011-0.169,0.017c0,0,0,0,0,0c-0.009,0.001-0.019,0.002-0.029,0.003    c-0.003,0-0.006,0-0.009,0c-0.007,0.001-0.014,0.001-0.021,0.002c-0.004,0-0.009,0.001-0.014,0.001    c-0.004,0-0.011,0.001-0.015,0.002c-0.007,0-0.014,0.001-0.021,0.002c-0.002,0-0.004,0-0.007,0    c-0.008,0.001-0.017,0.002-0.026,0.003h-0.002c-0.561,0.058-1.118,0.126-1.672,0.206l2.844,19.797    c0.342-0.049,0.69-0.091,1.035-0.124L37.69,0.189L37.69,0.189z M33.733,0.758c-0.03,0.006-0.061,0.012-0.091,0.018    c-0.001,0-0.001,0-0.002,0c-0.009,0.001-0.017,0.003-0.026,0.005c-0.002,0-0.003,0-0.006,0.001    c-0.008,0.002-0.016,0.003-0.024,0.005c-0.002,0-0.005,0.001-0.008,0.001c-0.007,0.001-0.015,0.003-0.022,0.004    c-0.002,0-0.006,0.001-0.009,0.002c-0.007,0.001-0.014,0.002-0.021,0.004c-0.003,0-0.008,0.002-0.011,0.002    c-0.006,0.001-0.012,0.002-0.018,0.003c-0.004,0.001-0.011,0.002-0.015,0.003c-0.005,0.001-0.011,0.002-0.016,0.003    c-0.004,0-0.011,0.002-0.015,0.003c-0.005,0.001-0.01,0.002-0.015,0.003c-0.005,0.001-0.011,0.002-0.017,0.003    c-0.005,0.001-0.01,0.002-0.015,0.003c-0.005,0.001-0.012,0.002-0.018,0.003c-0.004,0.001-0.008,0.001-0.012,0.002    c-0.008,0.001-0.013,0.002-0.021,0.004c-0.003,0-0.007,0.001-0.01,0.002c-0.008,0.001-0.014,0.003-0.022,0.004    c-0.003,0-0.006,0.001-0.009,0.002c-0.008,0.001-0.015,0.003-0.023,0.004c-0.003,0.001-0.006,0.001-0.008,0.002    c-0.008,0.001-0.019,0.004-0.027,0.005c-0.001,0-0.002,0-0.003,0c-0.011,0.002-0.02,0.004-0.03,0.006c0,0-0.001,0-0.001,0    c-0.483,0.1-0.964,0.208-1.441,0.324l4.736,19.431c0.333-0.081,0.673-0.155,1.011-0.221L33.733,0.758L33.733,0.758z M29.848,1.705    c-0.27,0.08-0.536,0.161-0.803,0.246c0,0-0.001,0-0.001,0c-0.02,0.006-0.04,0.013-0.061,0.02l0,0    c-0.019,0.006-0.038,0.012-0.057,0.018c-0.001,0-0.003,0.001-0.005,0.001c-0.016,0.005-0.034,0.011-0.05,0.016    c-0.311,0.1-0.62,0.204-0.927,0.312l6.591,18.883c0.324-0.113,0.654-0.22,0.983-0.316L29.848,1.705L29.848,1.705z M26.073,3.022    c-0.619,0.25-1.232,0.516-1.835,0.794l8.381,18.159c0.312-0.144,0.631-0.282,0.95-0.411L26.073,3.022L26.073,3.022z M22.442,4.698    c-0.592,0.309-1.176,0.631-1.75,0.967l10.088,17.27c0.298-0.174,0.604-0.343,0.909-0.502L22.442,4.698L22.442,4.698z M18.99,6.715    c-0.559,0.364-1.109,0.74-1.65,1.13l11.695,16.225c0.281-0.203,0.57-0.4,0.86-0.589L18.99,6.715L18.99,6.715z M15.746,9.053    c-0.522,0.416-1.034,0.843-1.535,1.283L27.401,25.37c0.261-0.229,0.53-0.455,0.802-0.67L15.746,9.053L15.746,9.053z M12.74,11.689    c-0.285,0.275-0.565,0.554-0.842,0.836c-0.001,0.001-0.001,0.002-0.002,0.002c-0.006,0.007-0.013,0.013-0.019,0.02    c-0.002,0.002-0.002,0.002-0.004,0.004c-0.006,0.006-0.011,0.012-0.017,0.018c-0.003,0.003-0.005,0.005-0.007,0.008    c-0.005,0.004-0.009,0.009-0.014,0.014c-0.003,0.004-0.007,0.007-0.011,0.011c-0.003,0.003-0.007,0.007-0.01,0.011    c-0.005,0.004-0.01,0.01-0.015,0.015c-0.002,0.002-0.004,0.005-0.007,0.007c-0.006,0.006-0.011,0.012-0.018,0.018    c-0.001,0.001-0.002,0.002-0.004,0.003c-0.146,0.151-0.291,0.303-0.435,0.455l14.561,13.71c0.238-0.253,0.485-0.503,0.735-0.744    L12.74,11.689L12.74,11.689z M9.999,14.601c-0.002,0.003-0.005,0.006-0.008,0.009c-0.004,0.004-0.008,0.009-0.011,0.014    c-0.003,0.003-0.006,0.007-0.009,0.01c-0.004,0.005-0.008,0.009-0.012,0.014c-0.003,0.004-0.006,0.008-0.01,0.012    s-0.007,0.008-0.01,0.012c-0.003,0.004-0.006,0.007-0.009,0.011c-0.004,0.004-0.008,0.009-0.012,0.014    c-0.002,0.003-0.005,0.006-0.008,0.009c-0.004,0.005-0.008,0.01-0.013,0.015c-0.001,0.002-0.005,0.005-0.006,0.007    c-0.005,0.006-0.009,0.011-0.014,0.017c0,0.001-0.003,0.004-0.004,0.005c-0.005,0.006-0.011,0.013-0.016,0.019l-0.001,0.002    c-0.376,0.444-0.743,0.897-1.101,1.357c-0.006,0.008-0.013,0.016-0.019,0.024l15.801,12.26c0.213-0.274,0.435-0.546,0.66-0.81    L9.999,14.601L9.999,14.601z M7.548,17.76c-0.053,0.075-0.105,0.151-0.158,0.227c-0.001,0.002-0.002,0.003-0.004,0.005    c-0.003,0.005-0.006,0.01-0.01,0.015c-0.002,0.003-0.006,0.009-0.009,0.012c-0.002,0.003-0.004,0.006-0.006,0.009    c-0.317,0.459-0.625,0.924-0.923,1.396l16.9,10.694c0.185-0.292,0.379-0.584,0.579-0.867L7.548,17.76L7.548,17.76z M5.41,21.139    c-0.153,0.27-0.304,0.542-0.451,0.816c-0.001,0.002-0.001,0.002-0.002,0.004c-0.001,0.003-0.003,0.006-0.005,0.009    c-0.166,0.309-0.328,0.62-0.487,0.933l17.849,9.024c0.155-0.308,0.32-0.615,0.491-0.915L5.41,21.139L5.41,21.139z M3.606,24.707    c-0.068,0.151-0.135,0.304-0.2,0.456l-0.001,0.001c-0.008,0.019-0.016,0.038-0.024,0.057v0c-0.008,0.019-0.017,0.038-0.024,0.057    h0c-0.18,0.421-0.354,0.846-0.521,1.273l18.634,7.264c0.125-0.32,0.259-0.641,0.399-0.955L3.606,24.707L3.606,24.707z     M2.154,28.433c-0.09,0.268-0.176,0.534-0.26,0.804c-0.001,0.003-0.002,0.006-0.003,0.009c-0.002,0.008-0.004,0.014-0.007,0.021    c-0.001,0.003-0.002,0.007-0.003,0.01c-0.002,0.007-0.004,0.013-0.006,0.02c-0.001,0.004-0.003,0.008-0.004,0.012    c-0.002,0.005-0.004,0.014-0.006,0.019c-0.001,0.003-0.002,0.006-0.003,0.009c-0.002,0.006-0.004,0.014-0.006,0.021    c-0.001,0.003-0.002,0.006-0.003,0.01c-0.002,0.006-0.004,0.015-0.006,0.021c-0.001,0.003-0.002,0.006-0.002,0.008    c-0.002,0.007-0.005,0.015-0.007,0.021c-0.001,0.003-0.002,0.007-0.003,0.01c-0.002,0.006-0.004,0.014-0.006,0.021    c-0.001,0.003-0.002,0.006-0.003,0.01c-0.002,0.006-0.004,0.014-0.006,0.021c-0.001,0.003-0.002,0.006-0.003,0.009    c-0.002,0.006-0.005,0.016-0.007,0.022c0,0.002-0.001,0.005-0.002,0.008c-0.002,0.008-0.004,0.014-0.006,0.022    c-0.001,0.003-0.002,0.006-0.003,0.009c-0.002,0.006-0.004,0.015-0.006,0.021c-0.001,0.003-0.002,0.005-0.002,0.008    c-0.002,0.007-0.005,0.015-0.007,0.023c0,0.002-0.001,0.004-0.002,0.006c-0.002,0.008-0.005,0.018-0.007,0.025    c0,0.001-0.001,0.003-0.001,0.004c-0.002,0.008-0.005,0.018-0.008,0.025c0,0.002-0.001,0.004-0.001,0.006    c-0.002,0.008-0.005,0.018-0.008,0.025c0,0.001-0.001,0.003-0.001,0.004c-0.002,0.008-0.005,0.019-0.008,0.026    c0,0.001-0.001,0.003-0.001,0.004c-0.003,0.01-0.005,0.017-0.008,0.027c0,0.001,0,0.001-0.001,0.002    c-0.003,0.01-0.005,0.018-0.008,0.028c0,0.001,0,0.001,0,0.002c-0.055,0.185-0.108,0.367-0.16,0.553l19.248,5.432    c0.093-0.33,0.196-0.662,0.305-0.987L2.154,28.433L2.154,28.433z M1.068,32.281c-0.122,0.527-0.233,1.058-0.335,1.593    c-0.023,0.122-0.045,0.244-0.068,0.366l19.682,3.552c0.061-0.338,0.131-0.68,0.208-1.015L1.068,32.281L1.068,32.281z     M0.357,36.215C0.301,36.642,0.252,37.07,0.209,37.5c0,0.002,0,0.004,0,0.006c-0.001,0.008-0.002,0.016-0.002,0.024    c0,0.003-0.001,0.007-0.001,0.01c0,0.005-0.001,0.012-0.001,0.018c0,0.005-0.001,0.011-0.001,0.017    c0,0.003-0.001,0.008-0.001,0.011c0,0.008-0.001,0.016-0.002,0.023l0,0.002c-0.019,0.197-0.037,0.394-0.053,0.592l19.932,1.654    c0.029-0.346,0.066-0.695,0.111-1.039L0.357,36.215L0.357,36.215z M0.026,40.2c-0.011,0.319-0.019,0.639-0.023,0.959    c0,0.003,0,0.005,0,0.008c0,0.01,0,0.02,0,0.029c0,0.001,0,0.003,0,0.004c0,0.019,0,0.038,0,0.056c0,0.003,0,0.007,0,0.011    c0,0.008,0,0.017,0,0.025c0,0.005,0,0.011,0,0.016c0,0.011,0,0.023,0,0.034c0,0.008,0,0.016,0,0.024c0,0.007,0,0.013,0,0.02    c0,0.007,0,0.015,0,0.022c0,0.007,0,0.012,0,0.019c0,0.01,0,0.02,0,0.03c0,0.005,0,0.014,0,0.02c0,0.01,0,0.02,0,0.03    c0,0.004,0,0.012,0,0.017c0,0.01,0,0.019,0,0.029c0,0.004,0,0.008,0,0.012c0,0.014,0,0.027,0,0.041c0,0.004,0,0.007,0,0.011    c0,0.011,0,0.021,0,0.032c0,0.004,0,0.008,0,0.012c0,0.014,0,0.028,0,0.042l0,0l0,0c0,0.011,0,0.021,0,0.032    c0,0.006,0,0.013,0,0.019c0,0.004,0,0.008,0,0.012c0,0.01,0,0.02,0,0.03v0c0,0.135,0.001,0.27,0.003,0.404l19.999-0.234L20,41.703    c0-0.266,0.005-0.532,0.014-0.796L0.026,40.2L0.026,40.2z M20.039,43.021L0.074,44.2c0.033,0.568,0.079,1.136,0.135,1.697    c0,0.002,0,0.004,0,0.005c0,0.008,0.001,0.017,0.002,0.025c0,0.003,0,0.006,0.001,0.009c0,0.007,0.001,0.013,0.002,0.02    c0,0.005,0.001,0.011,0.001,0.016c0,0.004,0.001,0.008,0.001,0.012c0,0.007,0.001,0.015,0.002,0.022c0,0.001,0,0.004,0,0.005    c0.006,0.061,0.013,0.122,0.019,0.182l19.886-2.13C20.088,43.718,20.059,43.368,20.039,43.021L20.039,43.021z M20.261,45.095    L0.5,48.175c0.002,0.012,0.004,0.024,0.005,0.036c0,0.003,0.001,0.005,0.001,0.008c0.001,0.007,0.002,0.016,0.003,0.022    c0.001,0.006,0.002,0.012,0.003,0.018c0,0.003,0.001,0.009,0.002,0.012c0.001,0.008,0.002,0.017,0.004,0.025    c0,0.001,0,0.003,0,0.005c0.083,0.525,0.177,1.046,0.28,1.565c0,0.002,0,0.002,0.001,0.005c0.001,0.007,0.003,0.014,0.004,0.021    c0,0.004,0.002,0.01,0.003,0.014c0,0.005,0.001,0.009,0.002,0.014c0.001,0.007,0.003,0.015,0.004,0.021    c0,0.002,0.001,0.005,0.001,0.007c0.001,0.009,0.003,0.019,0.005,0.028c0,0,0,0,0,0.001c0.011,0.056,0.023,0.111,0.034,0.167    l19.59-4.029C20.376,45.778,20.314,45.435,20.261,45.095L20.261,45.095z M20.678,47.122l-19.373,4.97    c0.166,0.648,0.348,1.29,0.543,1.925l19.11-5.901C20.857,47.788,20.763,47.454,20.678,47.122L20.678,47.122z M21.287,49.095    L2.485,55.913c0.228,0.628,0.47,1.249,0.727,1.863l18.451-7.718C21.53,49.741,21.404,49.417,21.287,49.095L21.287,49.095z     M22.085,51.002L4.028,59.601c0.035,0.073,0.069,0.146,0.104,0.218c0.001,0.002,0.003,0.007,0.004,0.009    c0.002,0.004,0.004,0.007,0.005,0.011c0.003,0.006,0.006,0.013,0.009,0.019c0,0,0.001,0.001,0.001,0.002    c0.179,0.37,0.363,0.734,0.553,1.098v0c0.004,0.008,0.009,0.017,0.013,0.024c0.001,0.002,0.002,0.004,0.003,0.007    c0.003,0.005,0.007,0.012,0.01,0.018c0.002,0.004,0.004,0.009,0.007,0.013c0.001,0.003,0.004,0.009,0.006,0.012    c0.003,0.006,0.006,0.012,0.009,0.018c0.001,0.004,0.002,0.004,0.004,0.008c0.057,0.109,0.115,0.218,0.173,0.327l17.623-9.458    C22.39,51.624,22.233,51.313,22.085,51.002L22.085,51.002z M23.066,52.831L5.918,63.125c0.097,0.161,0.194,0.32,0.293,0.48    l0,0.001c0.004,0.007,0.009,0.014,0.013,0.021c0.001,0.002,0.003,0.005,0.004,0.007c0.002,0.004,0.005,0.008,0.008,0.012    c0.003,0.006,0.007,0.012,0.011,0.018c0,0,0.001,0.001,0.001,0.002c0.24,0.387,0.487,0.77,0.739,1.148L23.623,53.71    C23.431,53.422,23.244,53.126,23.066,52.831L23.066,52.831z M24.223,54.563L8.139,66.45c0.074,0.1,0.149,0.2,0.224,0.3l0,0.001    c0.006,0.008,0.012,0.016,0.018,0.023l0.002,0.002c0.006,0.007,0.011,0.015,0.017,0.021c0.001,0.002,0.002,0.003,0.003,0.005    c0.005,0.007,0.01,0.014,0.015,0.02c0.001,0.002,0.002,0.003,0.004,0.005c0.005,0.006,0.01,0.013,0.015,0.019    c0.001,0.002,0.004,0.005,0.006,0.008c0.004,0.005,0.008,0.011,0.012,0.016c0.002,0.003,0.005,0.006,0.007,0.009    c0.004,0.005,0.007,0.01,0.011,0.015c0.002,0.003,0.006,0.008,0.008,0.011c0.003,0.004,0.007,0.009,0.011,0.014    c0.002,0.003,0.006,0.008,0.008,0.011c0.003,0.005,0.007,0.009,0.01,0.014c0.004,0.005,0.006,0.008,0.01,0.013    c0.003,0.003,0.006,0.007,0.009,0.011c0.004,0.005,0.006,0.009,0.011,0.014c0.002,0.004,0.005,0.007,0.008,0.011    C8.552,67,8.556,67.005,8.56,67.01c0.002,0.003,0.004,0.006,0.006,0.009c0.004,0.005,0.009,0.012,0.013,0.017    c0.002,0.003,0.004,0.005,0.006,0.008c0.004,0.006,0.01,0.013,0.015,0.019c0.001,0.001,0.002,0.003,0.004,0.005    c0.004,0.006,0.01,0.014,0.015,0.02c0.001,0.001,0.002,0.003,0.003,0.005c0.006,0.007,0.011,0.014,0.017,0.021    c0,0.001,0.001,0.001,0.001,0.002c0.006,0.008,0.012,0.015,0.018,0.023c0,0,0,0.001,0.001,0.001    c0.231,0.299,0.466,0.596,0.705,0.889l15.498-12.642C24.644,55.119,24.429,54.842,24.223,54.563L24.223,54.563z M25.543,56.182    L10.666,69.548c0.446,0.496,0.903,0.981,1.372,1.456l14.223-14.061C26.017,56.696,25.775,56.44,25.543,56.182L25.543,56.182z     M27.014,57.669L13.477,72.392c0.25,0.23,0.505,0.459,0.761,0.683c0.001,0.001,0.002,0.001,0.002,0.002    c0.006,0.005,0.011,0.009,0.017,0.014c0.003,0.002,0.006,0.005,0.009,0.008c0.003,0.002,0.007,0.006,0.01,0.009    c0.005,0.004,0.01,0.008,0.015,0.012c0.002,0.002,0.003,0.002,0.005,0.004c0.006,0.006,0.013,0.011,0.02,0.017l0.001,0.001    c0.22,0.191,0.441,0.38,0.665,0.567L27.8,58.359C27.534,58.136,27.27,57.905,27.014,57.669L27.014,57.669z M28.618,59.009    L16.546,74.955c0.307,0.232,0.617,0.461,0.931,0.685c0.229,0.164,0.46,0.325,0.692,0.484l11.295-16.505    C29.179,59.423,28.894,59.218,28.618,59.009L28.618,59.009z M30.338,60.186L19.846,77.213c0.034,0.021,0.069,0.042,0.104,0.063    c0.002,0.001,0.002,0.001,0.004,0.003c0.006,0.004,0.013,0.008,0.019,0.011c0.003,0.002,0.007,0.004,0.01,0.007    c0.004,0.002,0.008,0.005,0.012,0.007c0.005,0.003,0.012,0.007,0.018,0.011c0.002,0.001,0.004,0.002,0.006,0.003    c0.499,0.304,1.006,0.599,1.518,0.882c0.001,0,0.002,0.001,0.003,0.001c0.007,0.004,0.013,0.007,0.02,0.011    c0.003,0.002,0.007,0.004,0.011,0.006c0.001,0,0.002,0.001,0.003,0.002l9.663-17.511C30.934,60.543,30.632,60.367,30.338,60.186    L30.338,60.186z M32.156,61.189l-8.809,17.956c0.112,0.055,0.224,0.109,0.336,0.163l0.002,0.001    c0.008,0.004,0.016,0.008,0.024,0.012c0.002,0.001,0.003,0.001,0.005,0.002c0.007,0.003,0.014,0.007,0.021,0.01    c0.002,0.001,0.007,0.003,0.01,0.004c0.005,0.002,0.011,0.005,0.017,0.008c0.005,0.002,0.009,0.004,0.014,0.007    c0.004,0.002,0.008,0.004,0.013,0.006c0.004,0.002,0.013,0.006,0.018,0.008c0.003,0.002,0.006,0.003,0.01,0.005    c0.006,0.003,0.013,0.006,0.019,0.009c0.003,0.001,0.006,0.003,0.009,0.004c0.007,0.003,0.015,0.007,0.022,0.011    c0.001,0,0.003,0.001,0.004,0.002c0.009,0.004,0.017,0.008,0.026,0.012c0,0,0.001,0,0.001,0.001    c0.418,0.197,0.839,0.388,1.265,0.572l7.933-18.359C32.781,61.487,32.464,61.341,32.156,61.189L32.156,61.189z M34.055,62.01    l-7.038,18.721c0.624,0.234,1.251,0.453,1.889,0.658L35.03,62.35C34.704,62.245,34.376,62.131,34.055,62.01L34.055,62.01z     M36.021,62.643l-5.197,19.313c0.08,0.021,0.16,0.042,0.24,0.063l0.001,0c0.009,0.002,0.019,0.005,0.028,0.007    c0.001,0,0.002,0,0.004,0.001c0.008,0.002,0.016,0.004,0.024,0.006c0.003,0.001,0.006,0.002,0.009,0.002    c0.007,0.001,0.014,0.003,0.021,0.005c0.005,0.001,0.008,0.002,0.013,0.003c0.005,0.001,0.01,0.002,0.015,0.004    c0.006,0.001,0.012,0.003,0.019,0.005c0.003,0.001,0.007,0.002,0.011,0.003c0.008,0.002,0.016,0.004,0.023,0.006    c0.002,0,0.004,0.001,0.005,0.001c0.009,0.002,0.018,0.004,0.027,0.007c0.001,0,0.002,0,0.004,0.001    c0.497,0.128,0.995,0.246,1.499,0.356l4.259-19.542C36.69,62.814,36.352,62.731,36.021,62.643L36.021,62.643z M38.042,63.083    L34.73,82.807c0.501,0.084,1.006,0.16,1.514,0.226c0.155,0.021,0.311,0.04,0.466,0.058l2.362-19.86    C38.729,63.189,38.382,63.14,38.042,63.083L38.042,63.083z M40.112,63.329l-1.411,19.95c0.135,0.009,0.27,0.018,0.405,0.026    c0.005,0,0.01,0.001,0.015,0.001c0.005,0,0.01,0,0.016,0.001c0.008,0,0.016,0.001,0.023,0.001c0.003,0,0.005,0,0.008,0    c0.009,0,0.017,0.001,0.026,0.001c0.001,0,0.003,0,0.005,0c0.319,0.019,0.639,0.034,0.96,0.045c0.004,0,0.005,0,0.009,0    c0.006,0,0.012,0,0.018,0.001c0.006,0,0.011,0,0.017,0c0.004,0,0.008,0,0.013,0c0.007,0,0.015,0,0.022,0c0.002,0,0.005,0,0.007,0    c0.01,0,0.018,0,0.028,0.001c0.001,0,0.002,0,0.003,0c0.141,0.005,0.282,0.009,0.423,0.012l0.464-19.995    C40.813,63.37,40.459,63.354,40.112,63.329L40.112,63.329z M43.274,63.328c-0.348,0.024-0.702,0.042-1.052,0.05l0.477,19.994    c0.188-0.004,0.376-0.01,0.564-0.017c0.019,0,0.038-0.001,0.056-0.002c0.003,0,0.004,0,0.007,0c0.009,0,0.018,0,0.026-0.001    c0.003,0,0.002,0,0.005,0c0.01,0,0.02-0.001,0.03-0.001h0.001c0.396-0.016,0.791-0.037,1.184-0.064c0.001,0,0,0,0.001,0    c0.021-0.001,0.041-0.002,0.061-0.004c0.001,0,0,0,0.001,0c0.01-0.001,0.02-0.001,0.03-0.002h0.002    c0.009,0,0.019-0.001,0.029-0.002l0,0L43.274,63.328L43.274,63.328z M45.345,63.081c-0.34,0.057-0.687,0.107-1.03,0.148    l2.372,19.859c0.616-0.073,1.227-0.16,1.833-0.26c0,0,0,0,0.001,0c0.009-0.002,0.02-0.003,0.029-0.005    c0.002,0,0.005-0.001,0.007-0.001c0.008-0.001,0.016-0.002,0.024-0.004c0.003,0,0.006-0.001,0.009-0.001    c0.008-0.001,0.015-0.002,0.022-0.004c0.003,0,0.007-0.001,0.011-0.001c0.007-0.001,0.014-0.002,0.02-0.003    c0.004-0.001,0.008-0.001,0.012-0.002c0.003,0,0.008-0.001,0.01-0.002L45.345,63.081L45.345,63.081z M47.368,62.639    c-0.332,0.089-0.669,0.172-1.005,0.245l4.268,19.54c0.074-0.016,0.146-0.032,0.22-0.049c0.001,0,0.002,0,0.003,0    c0.009-0.002,0.018-0.004,0.027-0.006c0.003,0,0.006-0.001,0.008-0.002c0.007-0.001,0.014-0.003,0.021-0.004    c0.005-0.001,0.01-0.002,0.015-0.004c0.005-0.001,0.01-0.002,0.015-0.003c0.007-0.002,0.013-0.003,0.02-0.005    c0.003,0,0.006-0.001,0.009-0.002c0.008-0.002,0.016-0.003,0.023-0.005c0.003,0,0.004-0.001,0.007-0.001    c0.009-0.002,0.018-0.004,0.026-0.006c0.001,0,0.002,0,0.003-0.001c0.009-0.002,0.019-0.004,0.028-0.006c0.001,0,0,0,0.002,0    c0.253-0.058,0.506-0.119,0.758-0.182l0.001,0c0.009-0.002,0.018-0.004,0.026-0.006c0.001,0,0.003-0.001,0.005-0.001    c0.008-0.002,0.017-0.004,0.025-0.006c0.002-0.001,0.003-0.001,0.006-0.001c0.008-0.002,0.016-0.004,0.024-0.006    c0.002,0,0.004-0.001,0.007-0.001c0.008-0.002,0.016-0.004,0.023-0.006c0.003-0.001,0.004-0.001,0.007-0.002    c0.007-0.002,0.015-0.004,0.023-0.006c0.001,0,0.006-0.001,0.007-0.002c0.008-0.002,0.016-0.004,0.024-0.006    c0.001,0,0.005-0.001,0.006-0.002c0.008-0.002,0.016-0.004,0.024-0.006c0.002,0,0.004-0.001,0.006-0.001    c0.008-0.002,0.017-0.004,0.024-0.006c0.003-0.001,0.003-0.001,0.006-0.001c0.008-0.002,0.017-0.004,0.025-0.006    c0.001,0,0.004-0.001,0.005-0.001c0.009-0.002,0.018-0.004,0.026-0.007c0.001,0,0.002,0,0.003-0.001    c0.009-0.002,0.018-0.004,0.026-0.007c0.001,0,0.002,0,0.004,0c0.009-0.002,0.019-0.005,0.028-0.007l0.001,0    c0.13-0.034,0.261-0.068,0.391-0.103L47.368,62.639L47.368,62.639z M49.335,62.005c-0.321,0.121-0.649,0.235-0.976,0.34    l6.132,19.037c0.308-0.099,0.615-0.202,0.919-0.308c0.001,0,0,0,0.001,0c0.008-0.003,0.017-0.006,0.026-0.009    c0.001,0,0.005-0.001,0.006-0.002c0.007-0.002,0.015-0.005,0.022-0.008c0.002-0.001,0.006-0.002,0.008-0.003    c0.007-0.002,0.013-0.004,0.02-0.007c0.004-0.001,0.009-0.003,0.013-0.004c0.005-0.002,0.01-0.003,0.015-0.005    c0.005-0.002,0.011-0.004,0.016-0.006c0.004-0.001,0.008-0.002,0.012-0.004c0.008-0.003,0.014-0.005,0.021-0.008    c0.002,0,0.004-0.001,0.007-0.002c0.007-0.003,0.018-0.006,0.025-0.009c0.001,0,0.002,0,0.003-0.001    c0.26-0.092,0.516-0.186,0.773-0.282L49.335,62.005L49.335,62.005z M51.235,61.184c-0.309,0.151-0.625,0.297-0.941,0.434    l7.939,18.356c0.351-0.151,0.699-0.308,1.044-0.469c0.001,0,0.002-0.001,0.003-0.001c0.008-0.004,0.014-0.007,0.022-0.011    c0.002-0.001,0.005-0.002,0.007-0.003c0.006-0.003,0.014-0.006,0.02-0.009c0.003-0.001,0.006-0.003,0.009-0.004    c0.006-0.003,0.012-0.005,0.018-0.008c0.004-0.002,0.008-0.003,0.011-0.005c0.005-0.002,0.011-0.005,0.016-0.007    c0.005-0.002,0.01-0.004,0.014-0.006c0.004-0.002,0.007-0.003,0.01-0.005c0.007-0.003,0.013-0.006,0.02-0.009    c0.001,0,0.003-0.002,0.005-0.002c0.206-0.097,0.411-0.196,0.615-0.296L51.235,61.184L51.235,61.184z M53.053,60.18    c-0.294,0.181-0.596,0.357-0.898,0.524l9.668,17.508c0.06-0.033,0.121-0.067,0.18-0.1c0.001-0.001,0.003-0.001,0.004-0.002    c0.008-0.004,0.015-0.008,0.022-0.012c0.002-0.001,0.003-0.002,0.005-0.003c0.007-0.004,0.013-0.007,0.02-0.011    c0.003-0.002,0.006-0.003,0.009-0.005c0.005-0.003,0.011-0.006,0.016-0.009s0.009-0.005,0.013-0.007    c0.003-0.002,0.008-0.004,0.011-0.006c0.006-0.003,0.012-0.007,0.018-0.01c0.002-0.001,0.004-0.002,0.006-0.004    c0.007-0.004,0.014-0.007,0.021-0.011c0.001-0.001,0.005-0.003,0.006-0.004c0.008-0.004,0.015-0.008,0.023-0.013l0,0    c0.463-0.261,0.92-0.531,1.372-0.81L53.053,60.18L53.053,60.18z M54.773,59.001c-0.276,0.209-0.561,0.415-0.847,0.61l11.3,16.501    c0.253-0.173,0.504-0.349,0.753-0.528c0,0,0,0,0.001-0.001c0.008-0.006,0.016-0.011,0.024-0.017c0.001,0,0.001-0.001,0.002-0.001    c0.007-0.005,0.014-0.01,0.022-0.016c0.001-0.001,0.003-0.002,0.005-0.004c0.006-0.004,0.014-0.01,0.02-0.015    c0.002-0.001,0.004-0.002,0.006-0.004c0.006-0.005,0.012-0.008,0.018-0.013c0.003-0.002,0.006-0.004,0.009-0.007    c0.004-0.003,0.011-0.008,0.015-0.011s0.008-0.005,0.011-0.008c0.004-0.003,0.009-0.006,0.013-0.009    c0.004-0.003,0.009-0.006,0.013-0.01c0.004-0.003,0.007-0.005,0.012-0.008c0.005-0.004,0.01-0.007,0.015-0.011    c0.002-0.001,0.006-0.004,0.009-0.006c0.006-0.004,0.012-0.009,0.018-0.013c0.002-0.001,0.005-0.003,0.007-0.005    c0.007-0.005,0.014-0.01,0.021-0.015c0.001,0,0.002-0.001,0.003-0.002c0.008-0.005,0.015-0.011,0.022-0.017    c0.001,0,0.002-0.001,0.003-0.002c0.202-0.147,0.402-0.296,0.6-0.446L54.773,59.001L54.773,59.001z M56.376,57.662    c-0.255,0.235-0.52,0.467-0.786,0.689l12.823,15.348c0.004-0.003,0.009-0.007,0.013-0.011c0.001-0.001,0.003-0.002,0.004-0.003    c0.006-0.005,0.013-0.011,0.019-0.016c0.002-0.001,0.004-0.003,0.006-0.005c0.006-0.005,0.012-0.01,0.018-0.015    c0.002-0.002,0.004-0.004,0.007-0.006c0.005-0.004,0.011-0.009,0.016-0.014c0.003-0.002,0.005-0.004,0.008-0.007    c0.005-0.004,0.011-0.009,0.016-0.013c0.003-0.002,0.005-0.005,0.008-0.007c0.005-0.004,0.01-0.008,0.015-0.013    c0.003-0.002,0.006-0.005,0.01-0.008c0.005-0.004,0.008-0.007,0.014-0.012c0.003-0.003,0.007-0.006,0.011-0.009    c0.004-0.003,0.008-0.006,0.012-0.01c0.004-0.003,0.009-0.007,0.013-0.011c0.003-0.002,0.008-0.007,0.011-0.009    c0.004-0.004,0.008-0.007,0.013-0.011c0.003-0.002,0.007-0.006,0.01-0.008c0.005-0.004,0.009-0.008,0.014-0.012    c0.003-0.003,0.006-0.006,0.01-0.008c0.005-0.004,0.01-0.008,0.015-0.013c0.002-0.001,0.005-0.005,0.007-0.006    c0.006-0.005,0.011-0.01,0.017-0.014c0.002-0.002,0.004-0.004,0.006-0.006c0.006-0.005,0.012-0.01,0.018-0.015    c0.002-0.001,0.002-0.002,0.004-0.004c0.006-0.005,0.013-0.011,0.02-0.017c0.002-0.001,0.002-0.002,0.004-0.004    c0.007-0.005,0.013-0.011,0.02-0.017l0.002-0.001c0.007-0.006,0.015-0.013,0.022-0.019l0.002-0.002    c0.332-0.284,0.659-0.573,0.981-0.867c0.002-0.002,0.002-0.002,0.004-0.004c0.006-0.005,0.012-0.011,0.019-0.017    c0.002-0.001,0.004-0.004,0.006-0.006c0.005-0.004,0.01-0.009,0.016-0.014c0.003-0.002,0.008-0.007,0.011-0.01    c0.003-0.003,0.007-0.007,0.011-0.01c0.004-0.004,0.009-0.009,0.014-0.013c0.002-0.002,0.005-0.004,0.007-0.007    c0.006-0.005,0.013-0.012,0.019-0.017c0.001-0.001,0.002-0.002,0.003-0.002c0.008-0.007,0.014-0.013,0.022-0.021c0,0,0,0,0,0    c0.002-0.002,0.004-0.004,0.007-0.007L56.376,57.662L56.376,57.662z M57.847,56.174c-0.232,0.258-0.473,0.514-0.717,0.761    l14.227,14.057c0.002-0.002,0.003-0.003,0.005-0.005c0.005-0.005,0.011-0.011,0.016-0.016c0,0,0.002-0.002,0.003-0.003    c0.313-0.318,0.622-0.641,0.926-0.969c0-0.001,0.001-0.002,0.002-0.003c0.006-0.006,0.012-0.013,0.018-0.019    c0.002-0.002,0.004-0.004,0.006-0.006c0.005-0.005,0.01-0.01,0.015-0.016c0.003-0.004,0.006-0.007,0.01-0.011    c0.003-0.003,0.007-0.007,0.01-0.011c0.004-0.004,0.009-0.01,0.014-0.015c0.002-0.002,0.004-0.005,0.006-0.007    c0.006-0.007,0.012-0.014,0.019-0.021c0,0,0.001-0.001,0.001-0.001c0.107-0.117,0.215-0.235,0.321-0.354L57.847,56.174    L57.847,56.174z M59.167,54.555c-0.206,0.278-0.421,0.556-0.641,0.825l15.501,12.637c0.002-0.002,0.003-0.004,0.005-0.006    c0.004-0.005,0.009-0.011,0.013-0.016c0.002-0.003,0.005-0.007,0.008-0.01c0.004-0.005,0.008-0.01,0.012-0.015    c0.003-0.004,0.006-0.007,0.009-0.011c0.003-0.004,0.007-0.009,0.011-0.013c0.003-0.004,0.007-0.009,0.01-0.013    s0.006-0.007,0.009-0.011c0.004-0.005,0.009-0.011,0.013-0.016c0.002-0.002,0.004-0.005,0.006-0.008    c0.005-0.006,0.01-0.012,0.015-0.018c0.001-0.002,0.003-0.004,0.004-0.005c0.006-0.007,0.012-0.014,0.017-0.021    c0.001-0.001,0.001-0.002,0.002-0.003c0.006-0.008,0.011-0.014,0.018-0.022c0,0,0.001-0.001,0.001-0.001    c0.209-0.26,0.415-0.521,0.618-0.787l0,0c0.005-0.007,0.012-0.016,0.018-0.023c0-0.001,0.001-0.001,0.001-0.002    c0.005-0.006,0.01-0.013,0.015-0.019c0.001-0.002,0.003-0.004,0.005-0.006c0.004-0.005,0.007-0.01,0.011-0.016    c0.003-0.003,0.006-0.007,0.008-0.01s0.006-0.008,0.008-0.011c0.003-0.005,0.007-0.01,0.011-0.015    c0.001-0.002,0.004-0.005,0.005-0.007c0.005-0.006,0.01-0.012,0.014-0.019c0.001-0.001,0.001-0.001,0.002-0.002    c0.119-0.157,0.238-0.315,0.355-0.474L59.167,54.555L59.167,54.555z M60.323,52.822c-0.178,0.296-0.365,0.592-0.557,0.879    l16.638,11.1c0.046-0.07,0.093-0.14,0.139-0.21c0.004-0.006,0.009-0.013,0.013-0.02c0-0.001,0.002-0.004,0.003-0.005    c0.308-0.469,0.607-0.945,0.897-1.427l0.001-0.002c0.004-0.007,0.009-0.015,0.013-0.022c0.001-0.001,0.002-0.003,0.002-0.004    L60.323,52.822L60.323,52.822z M61.303,50.994c-0.147,0.311-0.305,0.622-0.468,0.925l17.625,9.453    c0.091-0.17,0.182-0.341,0.271-0.513c0.143-0.274,0.282-0.551,0.418-0.829c0,0,0,0,0-0.001c0.004-0.008,0.008-0.017,0.013-0.025    c0.001-0.003,0.003-0.006,0.004-0.009c0.003-0.006,0.006-0.012,0.009-0.018c0.002-0.005,0.004-0.009,0.007-0.014    c0.001-0.003,0.004-0.008,0.006-0.012c0.003-0.007,0.007-0.014,0.01-0.021c0.001-0.002,0.001-0.004,0.003-0.006    c0.054-0.112,0.108-0.224,0.162-0.337L61.303,50.994L61.303,50.994z M62.101,49.086c-0.117,0.322-0.243,0.646-0.375,0.963    l18.454,7.712c0.096-0.23,0.19-0.46,0.282-0.692c0-0.001,0.002-0.005,0.002-0.006c0.003-0.007,0.006-0.015,0.009-0.022    c0.001-0.004,0.002-0.006,0.004-0.01c0.002-0.006,0.005-0.012,0.007-0.019c0.002-0.005,0.004-0.01,0.006-0.015    c0.002-0.004,0.003-0.009,0.005-0.014c0.003-0.009,0.006-0.017,0.01-0.025c0,0,0-0.001,0.001-0.002    c0.138-0.351,0.271-0.703,0.4-1.059L62.101,49.086L62.101,49.086z M62.709,47.113c-0.085,0.332-0.179,0.667-0.28,0.994    l19.112,5.895c0.042-0.138,0.084-0.276,0.125-0.416l0.001-0.003c0.002-0.008,0.005-0.017,0.008-0.025    c0-0.001,0.001-0.004,0.001-0.005c0.002-0.008,0.004-0.015,0.006-0.023c0.001-0.002,0.002-0.006,0.002-0.008    c0.002-0.007,0.004-0.015,0.007-0.022c0-0.002,0.001-0.004,0.002-0.007c0.002-0.008,0.005-0.016,0.007-0.024    c0.001-0.002,0.001-0.004,0.002-0.006c0.002-0.008,0.005-0.017,0.007-0.024c0-0.001,0.001-0.004,0.001-0.005    c0.002-0.009,0.005-0.017,0.007-0.025c0-0.001,0.001-0.004,0.001-0.005c0.002-0.009,0.005-0.018,0.008-0.026    c0-0.001,0-0.002,0.001-0.003c0.002-0.009,0.005-0.019,0.008-0.028c0-0.001,0,0,0-0.002c0.003-0.009,0.005-0.019,0.008-0.028    l0-0.001c0.002-0.01,0.005-0.019,0.008-0.029l0-0.002c0.115-0.399,0.225-0.802,0.329-1.206L62.709,47.113L62.709,47.113z     M63.125,45.086c-0.053,0.34-0.115,0.683-0.184,1.02l19.591,4.022c0.117-0.57,0.222-1.144,0.316-1.721    c0.013-0.083,0.026-0.165,0.039-0.247L63.125,45.086L63.125,45.086z M63.347,43.012c-0.021,0.347-0.049,0.698-0.086,1.042    l19.887,2.123c0.025-0.235,0.048-0.468,0.069-0.704c0-0.001,0-0.001,0-0.002c0.001-0.01,0.001-0.017,0.002-0.026    c0-0.002,0-0.005,0-0.008c0.001-0.008,0.001-0.013,0.002-0.021c0-0.004,0-0.008,0.001-0.011c0-0.006,0.001-0.008,0.001-0.013    c0.033-0.38,0.061-0.761,0.084-1.144c0.001-0.021,0.002-0.042,0.003-0.063L63.347,43.012L63.347,43.012z M83.358,40.185    l-19.987,0.714c0.009,0.267,0.014,0.535,0.014,0.804l-0.001,0.256l19.999,0.227c0.001-0.13,0.002-0.261,0.003-0.391    c0-0.001,0-0.003,0-0.004c0-0.008,0-0.017,0-0.025c0-0.005,0-0.008,0-0.014c0-0.006,0-0.011,0-0.017c0-0.011,0-0.021,0-0.032l0,0    l0,0c0-0.014,0-0.028,0-0.042c0-0.004,0-0.008,0-0.012c0-0.011,0-0.022,0-0.033c0-0.003,0-0.008,0-0.011c0-0.014,0-0.027,0-0.041    c0-0.004,0-0.009,0-0.014c0-0.009,0-0.019,0-0.028c0-0.005,0-0.011,0-0.017c0-0.011,0-0.022,0-0.034c0-0.005,0-0.013,0-0.019    c0-0.009,0-0.018,0-0.027c0-0.005,0-0.014,0-0.02c0-0.007,0-0.014,0-0.021c0-0.014,0-0.026,0-0.04c0-0.005,0-0.01,0-0.015    c0-0.009,0-0.017,0-0.026c0-0.004,0-0.009,0-0.014c0-0.029,0-0.061-0.001-0.09c0-0.002,0-0.004,0-0.006c0-0.011,0-0.02,0-0.031    c0-0.001,0-0.002,0-0.004c-0.002-0.145-0.004-0.289-0.008-0.433c0,0,0-0.001,0-0.001c0-0.031-0.001-0.061-0.002-0.092    c0-0.004,0-0.008,0-0.012c0-0.008,0-0.016,0-0.024c0-0.006,0-0.012,0-0.018c0-0.008,0-0.018-0.001-0.026    c0-0.011,0-0.022-0.001-0.034c0-0.004,0-0.009,0-0.013c0-0.012-0.001-0.023-0.001-0.035c0-0.001,0-0.005,0-0.006    C83.364,40.373,83.361,40.279,83.358,40.185L83.358,40.185z M83.025,36.2l-19.829,2.611c0.045,0.343,0.083,0.692,0.112,1.039    l19.931-1.662c-0.013-0.156-0.027-0.312-0.042-0.468c0-0.001,0,0,0,0c-0.001-0.01-0.002-0.019-0.003-0.028    c0-0.003,0-0.005,0-0.008c-0.001-0.007-0.001-0.015-0.002-0.022c0-0.004,0-0.008-0.001-0.013c0-0.006-0.001-0.012-0.002-0.018    c0-0.007-0.001-0.014-0.002-0.021c0-0.003,0-0.007-0.001-0.01c-0.001-0.011-0.002-0.02-0.003-0.03c0,0,0,0,0,0    C83.138,37.11,83.085,36.655,83.025,36.2L83.025,36.2z M82.313,32.266L62.827,36.77c0.078,0.335,0.148,0.676,0.209,1.015    l19.681-3.56c-0.058-0.318-0.119-0.635-0.184-0.95l0-0.004c-0.001-0.007-0.003-0.015-0.005-0.022c0-0.004-0.001-0.006-0.002-0.01    c-0.001-0.006-0.002-0.013-0.004-0.019c-0.001-0.005-0.001-0.008-0.002-0.013c-0.001-0.005-0.002-0.01-0.003-0.016    s-0.002-0.011-0.003-0.016c-0.001-0.005-0.002-0.01-0.003-0.015c-0.001-0.007-0.002-0.011-0.004-0.018    c0-0.004-0.001-0.008-0.002-0.012c-0.001-0.006-0.003-0.014-0.004-0.021c-0.001-0.003-0.001-0.007-0.002-0.01    c-0.001-0.008-0.003-0.015-0.004-0.023c-0.001-0.002-0.001-0.005-0.002-0.007c-0.001-0.008-0.003-0.016-0.005-0.024    c0-0.003-0.001-0.005-0.001-0.008c-0.002-0.008-0.004-0.018-0.005-0.025c0-0.001-0.001-0.003-0.001-0.004    c-0.002-0.009-0.004-0.018-0.006-0.027c0-0.001,0-0.003-0.001-0.004c-0.002-0.009-0.004-0.019-0.006-0.028    c0,0,0-0.001-0.001-0.002c-0.002-0.011-0.004-0.019-0.006-0.029c0,0,0-0.001,0-0.002c-0.023-0.105-0.046-0.21-0.069-0.315    c0-0.001,0-0.003-0.001-0.004c-0.002-0.009-0.003-0.017-0.005-0.026c-0.002-0.009-0.004-0.018-0.006-0.026    c0-0.001,0-0.002-0.001-0.003c-0.002-0.009-0.004-0.018-0.006-0.026c0-0.001,0-0.004-0.001-0.005    C82.351,32.427,82.332,32.346,82.313,32.266L82.313,32.266z M81.226,28.418l-18.96,6.363c0.109,0.325,0.212,0.657,0.305,0.987    l19.246-5.44c0-0.002-0.001-0.004-0.002-0.007c-0.001-0.005-0.002-0.01-0.004-0.014c-0.001-0.005-0.003-0.013-0.005-0.018    c-0.001-0.004-0.002-0.007-0.003-0.011c-0.002-0.008-0.004-0.015-0.006-0.022c0-0.002-0.001-0.004-0.001-0.006    c-0.003-0.009-0.005-0.019-0.008-0.028c0,0,0,0,0,0c-0.141-0.492-0.29-0.981-0.448-1.465c-0.001-0.003-0.002-0.006-0.003-0.009    c-0.001-0.004-0.003-0.01-0.004-0.014c-0.002-0.006-0.004-0.012-0.006-0.018c0-0.001-0.001-0.002-0.001-0.004    C81.291,28.613,81.258,28.516,81.226,28.418L81.226,28.418z M79.772,24.693l-18.259,8.162c0.14,0.314,0.275,0.635,0.399,0.955    l18.631-7.271C80.301,25.916,80.043,25.301,79.772,24.693L79.772,24.693z M77.966,21.125l-17.39,9.879    c0.17,0.3,0.335,0.607,0.491,0.915l17.844-9.032c-0.264-0.521-0.538-1.036-0.823-1.544l0-0.001    c-0.005-0.009-0.01-0.017-0.015-0.026c-0.001-0.001,0,0-0.001-0.001c-0.004-0.008-0.009-0.017-0.014-0.025    c0-0.001-0.001-0.003-0.002-0.004c-0.004-0.007-0.009-0.015-0.013-0.023c-0.001-0.002-0.001-0.003-0.003-0.005    c-0.004-0.007-0.008-0.013-0.011-0.02c-0.001-0.002-0.004-0.008-0.006-0.01c-0.003-0.005-0.006-0.011-0.01-0.017    c-0.002-0.004-0.004-0.007-0.006-0.012c-0.003-0.004-0.005-0.009-0.008-0.014c-0.002-0.004-0.006-0.011-0.008-0.015    c-0.002-0.004-0.005-0.008-0.007-0.012c-0.004-0.007-0.007-0.013-0.011-0.02c-0.001-0.002-0.002-0.004-0.003-0.006    C77.969,21.129,77.968,21.128,77.966,21.125L77.966,21.125z M75.827,17.748L59.463,29.247c0.199,0.283,0.394,0.575,0.579,0.867    l16.896-10.702c-0.043-0.068-0.086-0.135-0.129-0.203c-0.003-0.004-0.004-0.007-0.007-0.011c-0.001-0.002-0.003-0.005-0.005-0.008    c-0.004-0.006-0.009-0.013-0.013-0.02c0,0-0.001-0.001-0.001-0.001c-0.214-0.333-0.434-0.663-0.657-0.99    c-0.002-0.003-0.004-0.006-0.006-0.009c-0.004-0.005-0.007-0.01-0.011-0.015c-0.003-0.005-0.007-0.011-0.011-0.017    c-0.001-0.002-0.003-0.004-0.005-0.006C76.005,18.002,75.916,17.875,75.827,17.748L75.827,17.748z M73.375,14.59L58.182,27.597    c0.226,0.264,0.448,0.536,0.661,0.81L74.638,16.14c-0.038-0.049-0.077-0.099-0.115-0.148v0c-0.006-0.008-0.012-0.015-0.019-0.023    c0-0.001-0.001-0.002-0.002-0.003c-0.005-0.007-0.011-0.014-0.016-0.021c-0.001-0.002-0.004-0.005-0.005-0.007    c-0.004-0.005-0.009-0.011-0.013-0.017c-0.002-0.003-0.004-0.006-0.007-0.009c-0.004-0.005-0.008-0.01-0.012-0.015    c-0.003-0.004-0.006-0.008-0.009-0.012c-0.003-0.004-0.006-0.008-0.009-0.012c-0.003-0.004-0.007-0.009-0.011-0.013    c-0.002-0.003-0.005-0.007-0.008-0.011c-0.004-0.005-0.008-0.01-0.012-0.016c-0.002-0.002-0.004-0.005-0.006-0.008    c-0.005-0.006-0.009-0.011-0.014-0.017c-0.002-0.002-0.003-0.005-0.005-0.007c-0.005-0.006-0.01-0.012-0.015-0.019    c-0.001-0.001-0.002-0.003-0.004-0.005c-0.005-0.006-0.011-0.014-0.016-0.02c-0.001-0.001-0.002-0.003-0.003-0.004    c-0.006-0.007-0.012-0.014-0.017-0.021c0,0-0.001-0.001-0.002-0.002c-0.006-0.008-0.011-0.014-0.018-0.022    c0-0.001-0.001-0.002-0.002-0.002c-0.006-0.007-0.011-0.015-0.017-0.021c-0.001-0.001-0.002-0.002-0.003-0.003    c-0.005-0.007-0.011-0.014-0.017-0.021c-0.001-0.001-0.002-0.002-0.002-0.003c-0.007-0.008-0.011-0.014-0.018-0.022    c-0.001,0-0.001-0.001-0.002-0.002c-0.006-0.007-0.012-0.015-0.017-0.022c-0.001-0.001-0.002-0.002-0.003-0.003    c-0.005-0.007-0.011-0.014-0.017-0.021c-0.001-0.001-0.002-0.002-0.003-0.004c-0.005-0.006-0.011-0.014-0.016-0.02    c-0.001-0.002-0.002-0.003-0.004-0.005c-0.005-0.006-0.011-0.014-0.016-0.02c-0.001-0.001-0.002-0.003-0.003-0.004    c-0.005-0.006-0.01-0.013-0.016-0.019c-0.001-0.002-0.003-0.004-0.004-0.006c-0.005-0.006-0.01-0.012-0.015-0.018    c-0.002-0.002-0.003-0.004-0.005-0.007c-0.004-0.005-0.009-0.011-0.014-0.017c-0.002-0.002-0.004-0.005-0.006-0.008    c-0.004-0.005-0.009-0.011-0.013-0.017c-0.002-0.002-0.004-0.005-0.007-0.008c-0.004-0.005-0.008-0.011-0.013-0.016    c-0.002-0.003-0.005-0.006-0.007-0.009c-0.004-0.005-0.008-0.01-0.012-0.015c-0.003-0.003-0.005-0.007-0.008-0.01    c-0.004-0.005-0.007-0.009-0.011-0.014c-0.003-0.004-0.006-0.007-0.009-0.011c-0.004-0.005-0.006-0.008-0.011-0.013    c-0.003-0.004-0.006-0.008-0.009-0.012c-0.002-0.003-0.007-0.009-0.01-0.012c-0.003-0.004-0.007-0.009-0.01-0.013    c-0.002-0.003-0.006-0.007-0.009-0.011c-0.004-0.004-0.008-0.009-0.011-0.014c-0.003-0.003-0.006-0.006-0.008-0.01    c-0.004-0.005-0.008-0.01-0.012-0.015c-0.002-0.003-0.004-0.005-0.007-0.008c-0.004-0.006-0.009-0.011-0.014-0.017    c-0.001-0.002-0.003-0.004-0.005-0.006c-0.005-0.006-0.01-0.013-0.015-0.019c-0.002-0.002-0.003-0.003-0.004-0.005    c-0.005-0.006-0.011-0.013-0.016-0.02c-0.001-0.001-0.002-0.002-0.003-0.003c-0.005-0.007-0.011-0.014-0.017-0.021    c-0.002-0.002-0.002-0.002-0.004-0.004c-0.005-0.006-0.011-0.013-0.016-0.02c-0.002-0.002-0.002-0.002-0.003-0.004    c-0.006-0.006-0.011-0.013-0.017-0.02c-0.001-0.001-0.002-0.002-0.003-0.003c-0.005-0.007-0.011-0.014-0.017-0.021    c-0.001-0.001-0.002-0.002-0.003-0.003c-0.006-0.007-0.012-0.014-0.017-0.021c-0.001-0.002-0.001-0.002-0.003-0.004    c-0.005-0.007-0.011-0.014-0.017-0.021c-0.001-0.001-0.002-0.002-0.003-0.003c-0.006-0.007-0.011-0.014-0.017-0.02    c-0.001-0.002-0.001-0.002-0.003-0.004c-0.005-0.007-0.011-0.013-0.017-0.02c-0.001-0.002-0.001-0.001-0.003-0.004    c-0.006-0.006-0.011-0.013-0.017-0.02c-0.002-0.002-0.003-0.003-0.004-0.005c-0.005-0.006-0.01-0.012-0.015-0.018    c-0.002-0.002-0.004-0.004-0.005-0.006c-0.005-0.006-0.01-0.012-0.015-0.018c-0.002-0.003-0.003-0.004-0.006-0.007    c-0.004-0.005-0.009-0.011-0.014-0.016c-0.001-0.002-0.004-0.005-0.006-0.007c-0.004-0.006-0.009-0.011-0.014-0.017    c-0.002-0.003-0.004-0.005-0.007-0.008c-0.004-0.005-0.009-0.01-0.013-0.015c-0.002-0.003-0.006-0.007-0.008-0.01    c-0.004-0.004-0.007-0.009-0.011-0.013c-0.003-0.004-0.007-0.008-0.01-0.012c-0.003-0.004-0.006-0.007-0.009-0.011    c-0.004-0.005-0.008-0.009-0.012-0.014c-0.003-0.003-0.005-0.006-0.008-0.009c-0.005-0.006-0.01-0.012-0.015-0.018    c-0.001-0.001-0.003-0.003-0.004-0.005c-0.005-0.006-0.012-0.014-0.017-0.02c-0.001-0.001-0.002-0.002-0.003-0.003    C73.459,14.689,73.417,14.64,73.375,14.59L73.375,14.59z M70.632,11.68L56.748,26.075c0.25,0.241,0.498,0.491,0.735,0.744    l14.555-13.717c0-0.001-0.001-0.001-0.002-0.002C71.579,12.615,71.111,12.142,70.632,11.68L70.632,11.68z M67.625,9.044    L55.175,24.697c0.271,0.216,0.542,0.441,0.802,0.67L69.16,10.326c-0.078-0.068-0.156-0.136-0.234-0.204    c-0.003-0.002-0.004-0.003-0.007-0.005c-0.005-0.005-0.01-0.009-0.016-0.014c-0.005-0.004-0.009-0.008-0.014-0.012    c-0.003-0.002-0.005-0.005-0.008-0.007C68.469,9.729,68.05,9.383,67.625,9.044L67.625,9.044z M64.38,6.708L53.483,23.479    c0.29,0.188,0.579,0.386,0.86,0.588L66.03,7.837c-0.151-0.109-0.304-0.217-0.457-0.324c-0.001,0-0.001,0-0.002-0.001    c-0.005-0.003-0.011-0.007-0.016-0.011c-0.003-0.002-0.007-0.005-0.011-0.007c-0.002-0.002-0.005-0.004-0.007-0.005    c-0.006-0.004-0.012-0.009-0.019-0.013c0,0,0,0-0.001,0c-0.171-0.12-0.342-0.237-0.516-0.354C65,7.119,64.999,7.118,64.996,7.116    c-0.006-0.004-0.012-0.008-0.019-0.013c-0.004-0.003-0.008-0.005-0.012-0.008c-0.004-0.003-0.009-0.006-0.013-0.009    c-0.006-0.004-0.012-0.008-0.019-0.013c-0.002-0.001-0.004-0.003-0.007-0.004C64.746,6.948,64.563,6.827,64.38,6.708L64.38,6.708z     M60.926,4.692l-9.239,17.738c0.306,0.159,0.611,0.328,0.909,0.502L62.677,5.659c-0.144-0.084-0.288-0.167-0.433-0.249l0,0    c-0.018-0.01-0.036-0.02-0.054-0.03l0,0c-0.018-0.01-0.036-0.02-0.054-0.03h0C61.736,5.123,61.333,4.905,60.926,4.692    L60.926,4.692z M57.295,3.019l-7.488,18.545c0.318,0.129,0.638,0.267,0.95,0.411l8.374-18.163    c-0.003-0.001-0.009-0.004-0.013-0.006c-0.004-0.002-0.009-0.004-0.013-0.006c-0.004-0.001-0.01-0.004-0.014-0.006    c-0.005-0.002-0.01-0.004-0.016-0.007c-0.003-0.002-0.009-0.004-0.013-0.006c-0.005-0.002-0.01-0.005-0.016-0.007    c-0.005-0.002-0.009-0.004-0.014-0.006c-0.005-0.002-0.009-0.004-0.014-0.006c-0.005-0.002-0.011-0.005-0.016-0.007    C59,3.751,58.995,3.75,58.991,3.748c-0.004-0.002-0.008-0.004-0.013-0.006c-0.005-0.002-0.011-0.005-0.016-0.007    c-0.004-0.002-0.008-0.004-0.011-0.005c-0.006-0.002-0.012-0.005-0.017-0.008c-0.005-0.002-0.01-0.004-0.015-0.006    c-0.005-0.002-0.009-0.004-0.014-0.006c-0.005-0.002-0.009-0.004-0.014-0.006c-0.005-0.002-0.01-0.005-0.015-0.007    c-0.002-0.001-0.004-0.002-0.006-0.003c-0.007-0.003-0.015-0.007-0.022-0.01c-0.004-0.002-0.008-0.003-0.013-0.006    c-0.005-0.002-0.01-0.004-0.015-0.007C58.316,3.443,57.809,3.226,57.295,3.019L57.295,3.019z M53.52,1.702l-5.664,19.181    c0.329,0.097,0.66,0.204,0.983,0.316l6.584-18.885c-0.442-0.154-0.887-0.301-1.336-0.44c-0.001,0-0.002-0.001-0.003-0.001    c-0.009-0.002-0.018-0.005-0.027-0.008c-0.002,0-0.005-0.001-0.007-0.002c-0.007-0.002-0.015-0.005-0.022-0.007    c-0.004-0.001-0.008-0.002-0.013-0.004c-0.005-0.001-0.012-0.003-0.017-0.005c-0.007-0.002-0.015-0.004-0.021-0.006    c-0.003-0.001-0.005-0.001-0.007-0.002c-0.009-0.002-0.018-0.005-0.027-0.008c-0.001,0-0.001,0-0.003,0    C53.8,1.786,53.66,1.744,53.52,1.702L53.52,1.702z M49.635,0.756l-3.788,19.638c0.337,0.065,0.678,0.139,1.011,0.22l4.73-19.433    c-0.001,0-0.003,0-0.004-0.001c-0.006-0.001-0.012-0.003-0.019-0.004c-0.004-0.001-0.009-0.002-0.013-0.003    c-0.006-0.001-0.011-0.003-0.017-0.004c-0.005-0.001-0.011-0.002-0.016-0.004c-0.004-0.001-0.009-0.002-0.013-0.003    c-0.005-0.001-0.014-0.003-0.019-0.004c-0.003-0.001-0.007-0.002-0.011-0.003c-0.008-0.002-0.013-0.003-0.021-0.005    c-0.003-0.001-0.006-0.001-0.009-0.002c-0.008-0.002-0.015-0.003-0.023-0.005c-0.002,0-0.005-0.001-0.007-0.002    c-0.009-0.002-0.018-0.004-0.027-0.006c-0.001,0-0.001,0-0.002,0c-0.011-0.002-0.02-0.005-0.03-0.007c0,0-0.001,0-0.001,0    C51.083,1.062,50.81,1,50.536,0.94c0,0,0,0-0.001,0c-0.021-0.004-0.04-0.009-0.061-0.013c-0.001,0-0.002,0-0.003,0    c-0.01-0.002-0.018-0.004-0.029-0.006c-0.001,0-0.002,0-0.002,0c-0.009-0.002-0.018-0.004-0.027-0.006    c-0.002,0-0.004,0-0.006-0.001c-0.009-0.002-0.016-0.003-0.025-0.005c-0.002,0-0.004-0.001-0.006-0.001    c-0.008-0.001-0.013-0.003-0.021-0.004c-0.004-0.001-0.008-0.001-0.012-0.002s-0.011-0.002-0.016-0.003    c-0.005-0.001-0.011-0.002-0.016-0.003c-0.004,0-0.005-0.001-0.009-0.002C50.081,0.844,49.858,0.799,49.635,0.756L49.635,0.756z     M45.677,0.188l-1.89,19.911c0.345,0.033,0.694,0.074,1.036,0.123l2.84-19.797c-0.168-0.024-0.334-0.047-0.502-0.069h0    c-0.009-0.001-0.02-0.002-0.029-0.004c-0.003,0-0.007-0.001-0.01-0.001C47.114,0.35,47.106,0.349,47.1,0.348    c-0.004,0-0.009-0.001-0.014-0.002c-0.005,0-0.01-0.001-0.016-0.002c-0.006-0.001-0.013-0.001-0.019-0.002    c-0.004,0-0.007-0.001-0.011-0.001c-0.008-0.001-0.015-0.002-0.022-0.003c-0.003,0-0.004,0-0.007,0    c-0.008-0.001-0.017-0.002-0.026-0.003c-0.001,0-0.002,0-0.004,0c-0.01-0.001-0.019-0.002-0.029-0.004h0    c-0.298-0.038-0.597-0.072-0.897-0.103l-0.003,0c-0.007,0-0.013-0.001-0.02-0.002c-0.004,0-0.009-0.001-0.013-0.001    c-0.005,0-0.009-0.001-0.014-0.001c-0.005,0-0.014-0.001-0.019-0.002c-0.003,0-0.006,0-0.01-0.001    c-0.008-0.001-0.016-0.001-0.024-0.002c-0.001,0-0.003,0-0.005,0C45.857,0.206,45.766,0.197,45.677,0.188L45.677,0.188z M41.685,0    v20c0.352,0,0.707,0.008,1.056,0.025l0.941-19.978c-0.403-0.019-0.808-0.032-1.214-0.04l0,0c-0.009,0-0.019,0-0.027,0    c-0.001,0-0.004,0-0.006,0c-0.008,0-0.017,0-0.025,0c-0.003,0-0.004,0-0.007,0c-0.008,0-0.016,0-0.024,0c-0.003,0-0.005,0-0.008,0    c-0.008,0-0.016,0-0.023,0c-0.003,0-0.007,0-0.01,0c-0.007,0-0.015,0-0.022,0c-0.004,0-0.006,0-0.01,0c-0.008,0-0.015,0-0.023,0    c-0.003,0-0.005,0-0.008,0c-0.008,0-0.016,0-0.023,0c-0.002,0-0.006,0-0.009,0c-0.008,0-0.016,0-0.023,0c-0.002,0-0.006,0-0.009,0    c-0.007,0-0.015,0-0.022,0c-0.004,0-0.008,0-0.012,0c-0.007,0-0.014,0-0.02,0c-0.001,0-0.003,0-0.004,0c-0.016,0-0.032,0-0.048,0    c-0.003,0-0.008,0-0.011,0c-0.006,0-0.011,0-0.017,0c-0.004,0-0.012,0-0.016,0c-0.005,0-0.01,0-0.015,0s-0.012,0-0.017,0    s-0.01,0-0.015,0c-0.006,0-0.012,0-0.018,0c-0.005,0-0.01,0-0.015,0c-0.006,0-0.012,0-0.017,0s-0.01,0-0.016,0    c-0.006,0-0.013,0-0.019,0c-0.004,0-0.009,0-0.013,0c-0.005,0-0.014,0-0.019,0c-0.005,0-0.009,0-0.014,0c-0.005,0-0.013,0-0.019,0    c-0.005,0-0.009,0-0.014,0c-0.007,0-0.011,0-0.019,0c-0.004,0-0.009,0-0.014,0c-0.007,0-0.012,0-0.019,0c-0.004,0-0.009,0-0.014,0    c-0.007,0-0.013,0-0.02,0c-0.004,0-0.008,0-0.012,0c-0.008,0-0.015,0-0.023,0c-0.003,0-0.006,0-0.01,0C41.707,0,41.696,0,41.685,0    L41.685,0z"
   fill="#BFBFBF" />
	</g>
	<g
   id="g32">
		<path
   id="path30"
   d="M41.685,2c21.891,0,39.7,17.811,39.7,39.703c0,21.88-17.809,39.681-39.7,39.681    C19.803,81.384,2,63.583,2,41.703C2,19.811,19.803,2,41.685,2 M41.685,0C18.662,0,0,18.663,0,41.703    c0,23.02,18.662,41.681,41.685,41.681c23.036,0,41.7-18.661,41.7-41.681C83.385,18.663,64.721,0,41.685,0L41.685,0z"
   fill="#D9D9D9" />
	</g>
	<g
   id="g36"
   opacity="0.06">
		<path
   id="path34"
   d="M77.707,41.703c0,19.876-16.126,36.003-36.021,36.003c-19.879,0-36.006-16.127-36.006-36.003    c0-19.898,16.127-36.025,36.006-36.025C61.58,5.678,77.707,21.805,77.707,41.703z" />
	</g>
	<g
   id="g42">
		<path
   id="path38"
   d="M41.685,69.832c-15.508,0-28.124-12.618-28.124-28.128c0-15.506,12.616-28.121,28.124-28.121    c15.51,0,28.127,12.615,28.127,28.121C69.813,57.213,57.195,69.832,41.685,69.832z"
   fill="#DEDEDE" />
		<path
   id="path40"
   d="M41.685,16.582c13.855,0,25.127,11.269,25.127,25.121c0,13.856-11.272,25.128-25.127,25.128    c-13.854,0-25.124-11.272-25.124-25.128C16.561,27.851,27.832,16.582,41.685,16.582 M41.685,10.582    c-17.195,0-31.124,13.927-31.124,31.121c0,17.191,13.929,31.128,31.124,31.128c17.198,0,31.127-13.937,31.127-31.128    C72.813,24.509,58.883,10.582,41.685,10.582L41.685,10.582z"
   fill="#E5E5E5" />
	</g>
</g>
<g
   id="g45">
</g>
<g
   id="g47">
</g>
<g
   id="g49">
</g>
<g
   id="g51">
</g>
<g
   id="g53">
</g>
<g
   id="g55">
</g>
<g
   id="g57">
</g>
<g
   id="g59">
</g>
<g
   id="g61">
</g>
<g
   id="g63">
</g>
<g
   id="g65">
</g>
<g
   id="g67">
</g>
<g
   id="g69">
</g>
<g
   id="g71">
</g>
<g
   id="g73">
</g>
<g
   transform="translate(-26.332763,82.816836)"
   id="g15895"><g
     transform="translate(26.330578,-82.81082)"
     id="g7476-4-3-2"
     inkscape:export-xdpi="92.395172"
     inkscape:export-ydpi="92.395172"><g
       id="g7460-1-2-3"><path
         fill="#1a1a1a"
         d="m 168.77,41.703 c 0,23.02 -18.664,41.681 -41.7,41.681 -23.023,0 -41.685,-18.661 -41.685,-41.681 C 85.385,18.663 104.047,0 127.07,0 c 23.035,0 41.7,18.663 41.7,41.703 z"
         id="path7456-5-9-1"
         style="fill:#fdc800;fill-opacity:1" /><path
         fill="#404040"
         d="m 127.07,0 c -0.011,0 -0.021,0 -0.033,0 -0.003,0 -0.007,0 -0.011,0 -0.007,0 -0.015,0 -0.021,0 -0.005,0 -0.009,0 -0.014,0 -0.005,0 -0.013,0 -0.019,0 -0.005,0 -0.009,0 -0.014,0 -0.007,0 -0.012,0 -0.02,0 -0.004,0 -0.009,0 -0.013,0 -0.007,0 -0.013,0 -0.02,0 -0.004,0 -0.009,0 -0.013,0 -0.007,0 -0.013,0 -0.02,0 -0.004,0 -0.009,0 -0.013,0 -0.006,0 -0.014,0 -0.02,0 -0.004,0 -0.008,0 -0.013,0 -0.007,0 -0.012,0 -0.019,0 -0.005,0 -0.01,0 -0.015,0 -0.006,0 -0.011,0 -0.017,0 -0.006,0 -0.011,0 -0.016,0 -0.006,0 -0.012,0 -0.018,0 -0.005,0 -0.01,0 -0.015,0 -0.005,0 -0.013,0 -0.019,0 -0.004,0 -0.009,0 -0.014,0 -0.005,0 -0.014,0 -0.019,0 -0.005,0 -0.009,0 -0.014,0 -0.009,0 -0.015,0 -0.023,0 -0.003,0 -0.006,0 -0.009,0 -0.011,0 -0.021,0 -0.033,0 -0.003,0 -0.006,0 -0.009,0 -0.008,0 -0.015,0 -0.023,0 -0.005,0 -0.011,0 -0.016,0 -0.005,0 -0.01,0 -0.016,0 -0.006,0 -0.012,0 -0.018,0 -0.005,0 -0.009,0 -0.015,0 -0.006,0 -0.012,0 -0.018,0 -0.005,0 -0.008,0 -0.014,0 -0.006,0 -0.012,0 -0.019,0 -0.004,0 -0.011,0 -0.015,0 -0.006,0 -0.012,0 -0.018,0 -0.004,0 -0.01,0 -0.014,0 -0.006,0 -0.012,0 -0.019,0 -0.005,0 -0.009,0 -0.014,0 -0.006,0 -0.012,0 -0.018,0 -0.004,0 -0.01,0 -0.014,0 -0.006,0 -0.013,0 -0.019,0 -0.004,0 -0.01,0 -0.014,0 -0.006,0 -0.013,0 -0.02,0 -0.002,0 -0.008,0 -0.011,0 -0.007,0 -0.015,0 -0.022,0 -0.003,0 -0.005,0 -0.008,0 -0.008,0 -0.017,0 -0.024,0 -0.001,0 -0.004,0 -0.005,0 -0.05,0.001 -0.1,0.002 -0.149,0.003 -0.001,0 -0.002,0 -0.004,0 -0.009,0 -0.018,0 -0.027,0.001 -10e-4,0 -0.002,0 -0.004,0 -0.009,0 -0.019,0 -0.028,0 -0.001,0 -0.002,0 -0.004,0 -0.009,0 -0.019,0 -0.028,0.001 -0.001,0 -0.002,0 -0.003,0 -0.009,0 -0.018,0 -0.027,0.001 -0.001,0 -0.003,0 -0.005,0 -0.009,0 -0.019,0 -0.028,0 h -0.002 c -0.01,0 -0.02,0.001 -0.029,0.001 h -10e-4 c -0.021,0 -0.041,0.001 -0.062,0.002 v 0 c -0.25,0.007 -0.499,0.017 -0.747,0.029 l 0.943,19.978 c 0.349,-0.017 0.705,-0.025 1.056,-0.025 V 0 Z m -3.995,0.189 c -0.056,0.005 -0.113,0.011 -0.169,0.017 0,0 0,0 0,0 -0.009,0.001 -0.019,0.002 -0.029,0.003 -0.003,0 -0.006,0 -0.009,0 -0.007,0.001 -0.014,0.001 -0.021,0.002 -0.004,0 -0.009,0.001 -0.014,0.001 -0.004,0 -0.011,0.001 -0.015,0.002 -0.007,0 -0.014,0.001 -0.021,0.002 -0.002,0 -0.004,0 -0.007,0 -0.008,0.001 -0.017,0.002 -0.026,0.003 h -0.002 c -0.561,0.058 -1.118,0.126 -1.672,0.206 l 2.844,19.797 c 0.342,-0.049 0.69,-0.091 1.035,-0.124 z m -3.957,0.569 c -0.03,0.006 -0.061,0.012 -0.091,0.018 -0.001,0 -0.001,0 -0.002,0 -0.009,0.001 -0.017,0.003 -0.026,0.005 -0.002,0 -0.003,0 -0.006,0.001 -0.008,0.002 -0.016,0.003 -0.023,0.005 -0.002,0 -0.005,0.001 -0.008,0.001 -0.007,0.001 -0.015,0.003 -0.022,0.004 -0.002,0 -0.006,0.001 -0.009,0.002 -0.007,0.001 -0.014,0.002 -0.021,0.004 -0.003,0 -0.008,0.002 -0.011,0.002 -0.006,0.001 -0.012,0.002 -0.018,0.003 -0.004,0.001 -0.011,0.002 -0.015,0.003 -0.005,0.001 -0.011,0.002 -0.016,0.003 -0.004,0 -0.011,0.002 -0.015,0.003 -0.005,10e-4 -0.01,0.002 -0.015,0.003 -0.005,0.001 -0.011,0.002 -0.017,0.003 -0.005,0.001 -0.01,0.002 -0.015,0.003 -0.005,0.001 -0.012,0.002 -0.018,0.003 -0.004,0.001 -0.008,0.001 -0.012,0.002 -0.008,0.001 -0.013,0.002 -0.021,0.004 -0.003,0 -0.007,0.001 -0.01,0.002 -0.008,0.001 -0.014,0.003 -0.022,0.004 -0.003,0 -0.006,0.001 -0.009,0.002 -0.008,0.001 -0.015,0.003 -0.023,0.004 -0.003,0.001 -0.006,0.001 -0.008,0.002 -0.008,0.001 -0.019,0.004 -0.027,0.005 -0.001,0 -0.002,0 -0.003,0 -0.011,0.002 -0.019,0.004 -0.03,0.006 0,0 -0.001,0 -0.001,0 -0.483,0.1 -0.964,0.208 -1.441,0.324 l 4.736,19.431 c 0.333,-0.081 0.673,-0.155 1.011,-0.221 z m -3.885,0.947 c -0.27,0.08 -0.536,0.161 -0.803,0.246 0,0 -0.001,0 -0.001,0 -0.021,0.006 -0.041,0.013 -0.061,0.02 v 0 c -0.019,0.006 -0.038,0.012 -0.057,0.018 -0.001,0 -0.003,10e-4 -0.005,10e-4 -0.016,0.005 -0.034,0.011 -0.05,0.016 -0.311,0.1 -0.62,0.204 -0.927,0.312 l 6.591,18.883 c 0.324,-0.113 0.654,-0.22 0.983,-0.316 z m -3.775,1.317 c -0.619,0.25 -1.232,0.516 -1.835,0.794 l 8.381,18.159 c 0.312,-0.144 0.631,-0.282 0.95,-0.411 z m -3.631,1.676 c -0.592,0.309 -1.176,0.631 -1.75,0.967 l 10.088,17.27 c 0.298,-0.174 0.604,-0.343 0.909,-0.502 z m -3.452,2.017 c -0.559,0.364 -1.109,0.74 -1.65,1.13 L 114.42,24.07 c 0.281,-0.203 0.57,-0.4 0.86,-0.589 z m -3.244,2.338 c -0.522,0.416 -1.034,0.843 -1.535,1.283 l 13.189,15.035 c 0.261,-0.229 0.53,-0.455 0.802,-0.67 z m -3.006,2.636 c -0.285,0.275 -0.565,0.554 -0.842,0.836 -0.001,10e-4 -0.001,0.002 -0.002,0.002 -0.006,0.007 -0.013,0.013 -0.019,0.02 -0.002,0.002 -0.002,0.002 -0.004,0.004 -0.006,0.006 -0.011,0.012 -0.017,0.018 -0.003,0.003 -0.005,0.005 -0.007,0.008 -0.005,0.004 -0.009,0.009 -0.014,0.014 -0.003,0.004 -0.007,0.007 -0.011,0.011 -0.003,0.003 -0.007,0.007 -0.01,0.011 -0.005,0.004 -0.01,0.01 -0.015,0.015 -0.002,0.002 -0.004,0.005 -0.007,0.007 -0.006,0.006 -0.011,0.012 -0.018,0.018 -0.001,10e-4 -0.002,0.002 -0.004,0.003 -0.146,0.151 -0.291,0.303 -0.435,0.455 l 14.561,13.71 c 0.238,-0.253 0.485,-0.503 0.735,-0.744 z m -2.741,2.912 c -0.002,0.003 -0.005,0.006 -0.008,0.009 -0.004,0.004 -0.008,0.009 -0.011,0.014 -0.003,0.003 -0.006,0.007 -0.009,0.01 -0.004,0.005 -0.008,0.009 -0.012,0.014 -0.003,0.004 -0.006,0.008 -0.01,0.012 -0.004,0.004 -0.007,0.008 -0.01,0.012 -0.003,0.004 -0.006,0.007 -0.009,0.011 -0.004,0.004 -0.008,0.009 -0.012,0.014 -0.002,0.003 -0.005,0.006 -0.008,0.009 -0.004,0.005 -0.008,0.01 -0.013,0.015 -10e-4,0.002 -0.005,0.005 -0.006,0.007 -0.005,0.006 -0.009,0.011 -0.014,0.017 0,0.001 -0.003,0.004 -0.004,0.005 -0.005,0.006 -0.011,0.013 -0.016,0.019 l -0.001,0.002 c -0.376,0.444 -0.743,0.897 -1.101,1.357 -0.006,0.008 -0.013,0.016 -0.019,0.024 l 15.801,12.26 c 0.213,-0.274 0.435,-0.546 0.66,-0.81 z m -2.451,3.159 c -0.053,0.075 -0.105,0.151 -0.158,0.227 -0.001,0.002 -0.002,0.003 -0.004,0.005 -0.003,0.005 -0.006,0.01 -0.01,0.015 -0.002,0.003 -0.006,0.009 -0.009,0.012 -0.002,0.003 -0.004,0.006 -0.006,0.009 -0.317,0.459 -0.625,0.924 -0.923,1.396 l 16.9,10.694 c 0.185,-0.292 0.379,-0.584 0.579,-0.867 z m -2.138,3.379 c -0.153,0.27 -0.304,0.542 -0.451,0.816 -10e-4,0.002 -10e-4,0.002 -0.002,0.004 -0.001,0.003 -0.003,0.006 -0.005,0.009 -0.166,0.309 -0.328,0.62 -0.487,0.933 l 17.849,9.024 c 0.155,-0.308 0.32,-0.615 0.491,-0.915 z m -1.804,3.568 c -0.068,0.151 -0.135,0.304 -0.2,0.456 l -10e-4,0.001 c -0.008,0.019 -0.016,0.038 -0.024,0.057 v 0 c -0.008,0.019 -0.017,0.038 -0.024,0.057 v 0 c -0.18,0.421 -0.354,0.846 -0.521,1.273 l 18.634,7.264 c 0.125,-0.32 0.259,-0.641 0.399,-0.955 z m -1.452,3.726 c -0.09,0.268 -0.176,0.534 -0.26,0.804 -10e-4,0.003 -0.002,0.006 -0.003,0.009 -0.002,0.008 -0.004,0.014 -0.007,0.021 -0.001,0.003 -0.002,0.007 -0.003,0.01 -0.002,0.007 -0.004,0.013 -0.006,0.02 -0.001,0.004 -0.003,0.008 -0.004,0.012 -0.002,0.005 -0.004,0.014 -0.006,0.019 -0.001,0.003 -0.002,0.006 -0.003,0.009 -0.002,0.006 -0.004,0.014 -0.006,0.021 -0.001,0.003 -0.002,0.006 -0.003,0.01 -0.002,0.006 -0.004,0.015 -0.006,0.021 -0.001,0.003 -0.002,0.006 -0.002,0.008 -0.002,0.007 -0.005,0.015 -0.007,0.021 -0.001,0.003 -0.002,0.007 -0.003,0.01 -0.002,0.006 -0.004,0.014 -0.006,0.021 -0.001,0.003 -0.002,0.006 -0.003,0.01 -0.002,0.006 -0.004,0.014 -0.006,0.021 -0.001,0.003 -0.002,0.006 -0.003,0.009 -0.002,0.006 -0.005,0.016 -0.007,0.022 0,0.002 -10e-4,0.005 -0.002,0.008 -0.002,0.008 -0.004,0.014 -0.006,0.022 -10e-4,0.003 -0.002,0.006 -0.003,0.009 -0.002,0.006 -0.004,0.015 -0.006,0.021 -10e-4,0.003 -0.002,0.005 -0.002,0.008 -0.002,0.007 -0.005,0.015 -0.007,0.023 0,0.002 -10e-4,0.004 -0.002,0.006 -0.002,0.008 -0.005,0.018 -0.007,0.025 0,0.001 -10e-4,0.003 -10e-4,0.004 -0.002,0.008 -0.005,0.018 -0.008,0.025 0,0.002 -10e-4,0.004 -10e-4,0.006 -0.002,0.008 -0.005,0.018 -0.008,0.025 0,10e-4 -10e-4,0.003 -10e-4,0.004 -0.002,0.008 -0.005,0.019 -0.008,0.026 0,0.001 -10e-4,0.003 -10e-4,0.004 -0.003,0.01 -0.005,0.017 -0.008,0.027 0,10e-4 0,10e-4 -10e-4,0.002 -0.003,0.01 -0.005,0.018 -0.008,0.028 0,0.001 0,0.001 0,0.002 -0.055,0.185 -0.108,0.367 -0.16,0.553 l 19.248,5.432 c 0.093,-0.33 0.196,-0.662 0.305,-0.987 z m -1.086,3.848 c -0.122,0.527 -0.233,1.058 -0.335,1.593 -0.023,0.122 -0.045,0.244 -0.068,0.366 l 19.682,3.552 c 0.061,-0.338 0.131,-0.68 0.208,-1.015 z m -0.711,3.934 c -0.056,0.426 -0.105,0.855 -0.148,1.285 0,0.002 0,0.004 0,0.006 -10e-4,0.008 -0.002,0.016 -0.002,0.024 0,0.003 -0.001,0.007 -0.001,0.01 0,0.005 -10e-4,0.012 -10e-4,0.018 0,0.005 -0.001,0.011 -0.001,0.017 0,0.003 -0.001,0.008 -0.001,0.011 0,0.008 -10e-4,0.016 -0.002,0.023 v 0.002 c -0.019,0.197 -0.037,0.394 -0.053,0.592 l 19.932,1.654 c 0.029,-0.346 0.066,-0.695 0.111,-1.039 z M 85.411,40.2 c -0.011,0.319 -0.019,0.639 -0.023,0.959 0,0.003 0,0.005 0,0.008 0,0.01 0,0.02 0,0.029 0,0.001 0,0.003 0,0.004 0,0.019 0,0.038 0,0.056 0,0.003 0,0.007 0,0.011 0,0.008 0,0.017 0,0.025 0,0.005 0,0.011 0,0.016 0,0.011 0,0.023 0,0.034 0,0.008 0,0.016 0,0.024 0,0.007 0,0.013 0,0.02 0,0.007 0,0.015 0,0.022 0,0.007 0,0.012 0,0.019 0,0.01 0,0.02 0,0.03 0,0.005 0,0.014 0,0.02 0,0.01 0,0.02 0,0.03 0,0.004 0,0.012 0,0.017 0,0.01 0,0.019 0,0.029 0,0.004 0,0.008 0,0.012 0,0.014 0,0.027 0,0.041 0,0.004 0,0.007 0,0.011 0,0.011 0,0.021 0,0.032 0,0.004 0,0.008 0,0.012 0,0.014 0,0.028 0,0.042 v 0 0 c 0,0.011 0,0.021 0,0.032 0,0.006 0,0.013 0,0.019 0,0.004 0,0.008 0,0.012 0,0.01 0,0.02 0,0.03 v 0 c 0,0.135 10e-4,0.27 0.003,0.404 l 19.999,-0.234 -0.001,-0.264 c 0,-0.266 0.005,-0.532 0.014,-0.796 z m 20.012,2.821 -19.965,1.179 c 0.033,0.568 0.079,1.136 0.135,1.697 0,0.002 0,0.004 0,0.005 0,0.008 10e-4,0.017 0.002,0.025 0,0.003 0,0.006 0.001,0.009 0,0.007 10e-4,0.013 0.002,0.02 0,0.005 0.001,0.011 0.001,0.016 0,0.004 10e-4,0.008 10e-4,0.012 0,0.007 0.001,0.015 0.002,0.022 0,10e-4 0,0.004 0,0.005 0.006,0.061 0.013,0.122 0.019,0.182 l 19.886,-2.13 c -0.034,-0.345 -0.063,-0.695 -0.084,-1.042 z m 0.223,2.074 -19.761,3.081 c 0.002,0.012 0.004,0.024 0.005,0.036 0,0.003 0.001,0.005 0.001,0.008 10e-4,0.007 0.002,0.016 0.003,0.022 10e-4,0.006 0.002,0.012 0.003,0.018 0,0.003 10e-4,0.009 0.002,0.012 0.001,0.008 0.002,0.017 0.004,0.025 0,0.001 0,0.003 0,0.005 0.083,0.525 0.177,1.046 0.28,1.565 0,0.002 0,0.002 10e-4,0.005 0.001,0.007 0.003,0.014 0.004,0.021 0,0.004 0.002,0.01 0.003,0.014 0,0.005 10e-4,0.009 0.002,0.014 0.001,0.007 0.003,0.015 0.004,0.021 0,0.002 10e-4,0.005 10e-4,0.007 0.001,0.009 0.003,0.019 0.005,0.028 0,0 0,0 0,0.001 0.011,0.056 0.023,0.111 0.034,0.167 l 19.59,-4.029 c -0.066,-0.338 -0.128,-0.681 -0.181,-1.021 z m 0.417,2.027 -19.373,4.97 c 0.166,0.648 0.348,1.29 0.543,1.925 l 19.11,-5.901 c -0.101,-0.328 -0.196,-0.662 -0.28,-0.994 z m 0.608,1.973 -18.801,6.818 c 0.228,0.628 0.47,1.249 0.727,1.863 l 18.451,-7.718 c -0.133,-0.317 -0.259,-0.641 -0.377,-0.963 z m 0.799,1.907 -18.057,8.599 c 0.035,0.073 0.069,0.146 0.104,0.218 0.001,0.002 0.003,0.007 0.004,0.009 0.002,0.004 0.004,0.007 0.005,0.011 0.003,0.006 0.006,0.013 0.009,0.019 0,0 0.001,0.001 0.001,0.002 0.179,0.37 0.363,0.734 0.553,1.098 v 0 c 0.004,0.008 0.009,0.017 0.013,0.024 10e-4,0.002 0.002,0.004 0.003,0.007 0.003,0.005 0.007,0.012 0.01,0.018 0.002,0.004 0.004,0.009 0.007,0.013 0.001,0.003 0.004,0.009 0.006,0.012 0.003,0.006 0.006,0.012 0.009,0.018 0.001,0.004 0.002,0.004 0.004,0.008 0.057,0.109 0.115,0.218 0.173,0.327 l 17.623,-9.458 c -0.162,-0.303 -0.319,-0.614 -0.467,-0.925 z m 0.981,1.829 -17.148,10.294 c 0.097,0.161 0.194,0.32 0.293,0.48 v 0.001 c 0.004,0.007 0.009,0.014 0.013,0.021 0.001,0.002 0.003,0.005 0.004,0.007 0.002,0.004 0.005,0.008 0.008,0.012 0.003,0.006 0.007,0.012 0.011,0.018 0,0 10e-4,10e-4 10e-4,0.002 0.24,0.387 0.487,0.77 0.739,1.148 L 109.006,53.71 c -0.19,-0.288 -0.378,-0.584 -0.555,-0.879 z m 1.156,1.732 -16.084,11.887 c 0.074,0.1 0.149,0.2 0.224,0.3 v 0.001 c 0.006,0.008 0.012,0.016 0.018,0.023 l 0.002,0.002 c 0.006,0.007 0.011,0.015 0.017,0.021 10e-4,0.002 0.002,0.003 0.003,0.005 0.005,0.007 0.01,0.014 0.015,0.02 10e-4,0.002 0.002,0.003 0.004,0.005 0.005,0.006 0.01,0.013 0.015,0.019 0.001,0.002 0.004,0.005 0.006,0.008 0.004,0.005 0.008,0.011 0.012,0.016 0.002,0.003 0.005,0.006 0.007,0.009 0.004,0.005 0.007,0.01 0.011,0.015 0.002,0.003 0.006,0.008 0.008,0.011 0.003,0.004 0.007,0.009 0.011,0.014 0.002,0.003 0.006,0.008 0.008,0.011 0.003,0.005 0.007,0.009 0.01,0.014 0.004,0.005 0.006,0.008 0.01,0.013 0.003,0.003 0.006,0.007 0.009,0.011 0.004,0.005 0.006,0.009 0.011,0.014 0.002,0.004 0.005,0.007 0.008,0.011 0.004,0.005 0.008,0.011 0.012,0.016 0.002,0.003 0.004,0.006 0.006,0.009 0.004,0.005 0.009,0.012 0.013,0.017 0.002,0.003 0.004,0.005 0.006,0.008 0.004,0.006 0.01,0.013 0.015,0.019 0.001,0.001 0.002,0.003 0.004,0.005 0.004,0.006 0.01,0.014 0.015,0.02 0.001,10e-4 0.002,0.003 0.003,0.005 0.006,0.007 0.011,0.014 0.017,0.021 0,0.001 0.001,0.001 0.001,0.002 0.006,0.008 0.012,0.015 0.018,0.023 0,0 0,10e-4 0.001,10e-4 0.231,0.299 0.466,0.596 0.705,0.889 l 15.498,-12.642 c -0.217,-0.267 -0.433,-0.544 -0.639,-0.823 z m 1.321,1.619 -14.877,13.366 c 0.446,0.496 0.903,0.981 1.372,1.456 l 14.223,-14.061 c -0.245,-0.247 -0.486,-0.503 -0.718,-0.761 z m 1.47,1.487 -13.536,14.723 c 0.25,0.23 0.505,0.459 0.761,0.683 10e-4,10e-4 0.002,10e-4 0.002,0.002 0.006,0.005 0.011,0.009 0.017,0.014 0.003,0.002 0.006,0.005 0.009,0.008 0.003,0.002 0.007,0.006 0.01,0.009 0.005,0.004 0.01,0.008 0.015,0.012 0.002,0.002 0.003,0.002 0.005,0.004 0.006,0.006 0.013,0.011 0.02,0.017 l 0.001,10e-4 c 0.22,0.191 0.441,0.38 0.665,0.567 l 12.819,-15.351 c -0.267,-0.222 -0.532,-0.453 -0.788,-0.689 z m 1.604,1.34 -12.071,15.946 c 0.307,0.232 0.617,0.461 0.931,0.685 0.229,0.164 0.46,0.325 0.692,0.484 l 11.295,-16.505 c -0.285,-0.196 -0.57,-0.401 -0.847,-0.61 z m 1.721,1.177 -10.492,17.027 c 0.034,0.021 0.069,0.042 0.104,0.063 0.002,0.001 0.002,0.001 0.004,0.003 0.006,0.004 0.013,0.008 0.019,0.011 0.003,0.002 0.007,0.004 0.01,0.007 0.004,0.002 0.008,0.005 0.012,0.007 0.005,0.003 0.012,0.007 0.018,0.011 0.002,0.001 0.004,0.002 0.006,0.003 0.499,0.304 1.006,0.599 1.518,0.882 0.001,0 0.002,10e-4 0.003,10e-4 0.007,0.004 0.013,0.007 0.02,0.011 0.003,0.002 0.007,0.004 0.011,0.006 10e-4,0 0.002,10e-4 0.003,0.002 l 9.663,-17.511 c -0.303,-0.166 -0.605,-0.342 -0.899,-0.523 z m 1.818,1.003 -8.809,17.956 c 0.112,0.055 0.224,0.109 0.336,0.163 l 0.002,10e-4 c 0.008,0.004 0.016,0.008 0.024,0.012 0.002,0.001 0.003,0.001 0.005,0.002 0.007,0.003 0.014,0.007 0.021,0.01 0.002,0.001 0.007,0.003 0.01,0.004 0.005,0.002 0.011,0.005 0.017,0.008 0.005,0.002 0.009,0.004 0.014,0.007 0.004,0.002 0.008,0.004 0.013,0.006 0.004,0.002 0.013,0.006 0.018,0.008 0.003,0.002 0.006,0.003 0.01,0.005 0.006,0.003 0.013,0.006 0.019,0.009 0.003,0.001 0.006,0.003 0.009,0.004 0.007,0.003 0.015,0.007 0.022,0.011 0.001,0 0.003,0.001 0.004,0.002 0.009,0.004 0.017,0.008 0.026,0.012 0,0 0.001,0 0.001,10e-4 0.418,0.197 0.839,0.388 1.265,0.572 l 7.933,-18.359 c -0.315,-0.136 -0.632,-0.282 -0.94,-0.434 z m 1.898,0.821 -7.038,18.721 c 0.624,0.234 1.251,0.453 1.889,0.658 l 6.125,-19.039 c -0.326,-0.105 -0.654,-0.219 -0.976,-0.34 z m 1.967,0.633 -5.197,19.313 c 0.08,0.021 0.16,0.042 0.24,0.063 h 0.001 c 0.009,0.002 0.019,0.005 0.028,0.007 0.001,0 0.002,0 0.004,0.001 0.008,0.002 0.016,0.004 0.024,0.006 0.003,0.001 0.006,0.002 0.009,0.002 0.007,0.001 0.014,0.003 0.021,0.005 0.005,10e-4 0.008,0.002 0.013,0.003 0.005,10e-4 0.01,0.002 0.015,0.004 0.006,0.001 0.012,0.003 0.019,0.005 0.003,10e-4 0.007,0.002 0.011,0.003 0.008,0.002 0.016,0.004 0.023,0.006 0.002,0 0.004,10e-4 0.006,10e-4 0.009,0.002 0.017,0.004 0.026,0.007 0.001,0 0.002,0 0.004,10e-4 0.497,0.128 0.995,0.246 1.499,0.356 l 4.259,-19.542 c -0.336,-0.07 -0.674,-0.153 -1.005,-0.241 z m 2.021,0.44 -3.312,19.724 c 0.501,0.084 1.006,0.16 1.514,0.226 0.155,0.021 0.311,0.04 0.466,0.058 l 2.362,-19.86 c -0.344,-0.042 -0.69,-0.091 -1.03,-0.148 z m 2.07,0.246 -1.411,19.95 c 0.135,0.009 0.27,0.018 0.405,0.026 0.005,0 0.01,10e-4 0.015,10e-4 0.005,0 0.01,0 0.016,0.001 0.008,0 0.016,0.001 0.023,0.001 0.003,0 0.005,0 0.008,0 0.009,0 0.017,10e-4 0.026,10e-4 0.001,0 0.003,0 0.005,0 0.319,0.019 0.639,0.034 0.96,0.045 0.004,0 0.005,0 0.009,0 0.006,0 0.012,0 0.018,0.001 0.006,0 0.011,0 0.017,0 0.004,0 0.008,0 0.013,0 0.007,0 0.015,0 0.022,0 0.002,0 0.005,0 0.007,0 0.01,0 0.018,0 0.028,10e-4 0.001,0 0.002,0 0.003,0 0.141,0.005 0.282,0.009 0.423,0.012 l 0.464,-19.995 c -0.35,-0.003 -0.704,-0.019 -1.051,-0.044 z m 3.162,-10e-4 c -0.348,0.024 -0.702,0.042 -1.052,0.05 l 0.477,19.994 c 0.188,-0.004 0.376,-0.01 0.564,-0.017 0.019,0 0.038,-0.001 0.056,-0.002 0.003,0 0.004,0 0.007,0 0.009,0 0.018,0 0.026,-10e-4 0.003,0 0.002,0 0.005,0 0.01,0 0.02,-0.001 0.03,-0.001 h 0.001 c 0.396,-0.016 0.791,-0.037 1.184,-0.064 0.001,0 0,0 0.001,0 0.021,-0.001 0.041,-0.002 0.061,-0.004 0.001,0 0,0 0.001,0 0.01,-0.001 0.02,-0.001 0.03,-0.002 h 0.002 c 0.009,0 0.019,-0.001 0.029,-0.002 v 0 z m 2.071,-0.247 c -0.34,0.057 -0.687,0.107 -1.03,0.148 l 2.372,19.859 c 0.616,-0.073 1.227,-0.16 1.833,-0.26 0,0 0,0 0.001,0 0.009,-0.002 0.02,-0.003 0.029,-0.005 0.002,0 0.005,-10e-4 0.007,-10e-4 0.008,-0.001 0.016,-0.002 0.024,-0.004 0.003,0 0.006,-0.001 0.009,-0.001 0.008,-10e-4 0.015,-0.002 0.022,-0.004 0.003,0 0.007,-0.001 0.011,-0.001 0.007,-10e-4 0.014,-0.002 0.02,-0.003 0.004,-10e-4 0.008,-10e-4 0.012,-0.002 0.003,0 0.008,-0.001 0.01,-0.002 z m 2.023,-0.442 c -0.332,0.089 -0.669,0.172 -1.005,0.245 l 4.268,19.54 c 0.074,-0.016 0.146,-0.032 0.22,-0.049 0.001,0 0.002,0 0.003,0 0.009,-0.002 0.018,-0.004 0.027,-0.006 0.003,0 0.006,-0.001 0.008,-0.002 0.007,-0.001 0.014,-0.003 0.021,-0.004 0.005,-0.001 0.01,-0.002 0.015,-0.004 0.005,-10e-4 0.01,-0.002 0.015,-0.003 0.007,-0.002 0.013,-0.003 0.02,-0.005 0.003,0 0.006,-0.001 0.009,-0.002 0.008,-0.002 0.016,-0.003 0.023,-0.005 0.003,0 0.004,-10e-4 0.007,-10e-4 0.009,-0.002 0.018,-0.004 0.026,-0.006 0.001,0 0.002,0 0.003,-0.001 0.009,-0.002 0.019,-0.004 0.028,-0.006 0.001,0 0,0 0.002,0 0.253,-0.058 0.506,-0.119 0.758,-0.182 h 0.001 c 0.009,-0.002 0.018,-0.004 0.026,-0.006 0.001,0 0.003,-10e-4 0.005,-10e-4 0.008,-0.002 0.017,-0.004 0.025,-0.006 0.002,-0.001 0.003,-0.001 0.006,-0.001 0.008,-0.002 0.016,-0.004 0.024,-0.006 0.002,0 0.004,-0.001 0.007,-0.001 0.008,-0.002 0.016,-0.004 0.023,-0.006 0.003,-10e-4 0.004,-10e-4 0.007,-0.002 0.007,-0.002 0.015,-0.004 0.023,-0.006 10e-4,0 0.006,-0.001 0.007,-0.002 0.008,-0.002 0.016,-0.004 0.024,-0.006 0.001,0 0.005,-0.001 0.006,-0.002 0.008,-0.002 0.016,-0.004 0.024,-0.006 0.002,0 0.004,-10e-4 0.006,-10e-4 0.008,-0.002 0.017,-0.004 0.024,-0.006 0.003,-0.001 0.003,-0.001 0.006,-0.001 0.008,-0.002 0.017,-0.004 0.025,-0.006 0.001,0 0.004,-0.001 0.005,-0.001 0.009,-0.002 0.018,-0.004 0.026,-0.007 0.001,0 0.002,0 0.003,-0.001 0.009,-0.002 0.018,-0.004 0.026,-0.007 0.001,0 0.002,0 0.004,0 0.009,-0.002 0.019,-0.005 0.028,-0.007 h 10e-4 c 0.13,-0.034 0.261,-0.068 0.391,-0.103 z m 1.967,-0.634 c -0.321,0.121 -0.649,0.235 -0.976,0.34 l 6.132,19.037 c 0.308,-0.099 0.615,-0.202 0.919,-0.308 0.001,0 0,0 0.001,0 0.008,-0.003 0.017,-0.006 0.026,-0.009 0.001,0 0.005,-0.001 0.006,-0.002 0.007,-0.002 0.015,-0.005 0.022,-0.008 0.002,-0.001 0.006,-0.002 0.008,-0.003 0.007,-0.002 0.013,-0.004 0.02,-0.007 0.004,-0.001 0.009,-0.003 0.013,-0.004 0.005,-0.002 0.01,-0.003 0.015,-0.005 0.005,-0.002 0.011,-0.004 0.016,-0.006 0.004,-0.001 0.008,-0.002 0.012,-0.004 0.008,-0.003 0.014,-0.005 0.021,-0.008 0.002,0 0.004,-0.001 0.007,-0.002 0.007,-0.003 0.018,-0.006 0.025,-0.009 0.001,0 0.002,0 0.003,-0.001 0.26,-0.092 0.517,-0.186 0.773,-0.282 z m 1.9,-0.821 c -0.309,0.151 -0.625,0.297 -0.941,0.434 l 7.939,18.356 c 0.351,-0.151 0.699,-0.308 1.044,-0.469 0.001,0 0.002,-10e-4 0.003,-10e-4 0.008,-0.004 0.014,-0.007 0.022,-0.011 0.002,-10e-4 0.005,-0.002 0.007,-0.003 0.006,-0.003 0.014,-0.006 0.02,-0.009 0.003,-10e-4 0.006,-0.003 0.009,-0.004 0.006,-0.003 0.012,-0.005 0.018,-0.008 0.004,-0.002 0.008,-0.003 0.011,-0.005 0.005,-0.002 0.011,-0.005 0.016,-0.007 0.005,-0.002 0.01,-0.004 0.014,-0.006 0.004,-0.002 0.007,-0.003 0.01,-0.005 0.007,-0.003 0.013,-0.006 0.02,-0.009 10e-4,0 0.003,-0.002 0.005,-0.002 0.206,-0.097 0.411,-0.196 0.615,-0.296 z m 1.818,-1.004 c -0.294,0.181 -0.596,0.357 -0.898,0.524 l 9.668,17.508 c 0.06,-0.033 0.121,-0.067 0.18,-0.1 0.001,-10e-4 0.003,-10e-4 0.004,-0.002 0.008,-0.004 0.015,-0.008 0.022,-0.012 0.002,-0.001 0.003,-0.002 0.005,-0.003 0.007,-0.004 0.013,-0.007 0.02,-0.011 0.003,-0.002 0.006,-0.003 0.009,-0.005 0.005,-0.003 0.011,-0.006 0.016,-0.009 0.005,-0.003 0.009,-0.005 0.013,-0.007 0.003,-0.002 0.008,-0.004 0.011,-0.006 0.006,-0.003 0.012,-0.007 0.018,-0.01 0.002,-10e-4 0.004,-0.002 0.007,-0.004 0.006,-0.004 0.013,-0.007 0.02,-0.011 0.001,-10e-4 0.005,-0.003 0.006,-0.004 0.008,-0.004 0.015,-0.008 0.023,-0.013 v 0 c 0.463,-0.261 0.92,-0.531 1.372,-0.81 z m 1.72,-1.179 c -0.276,0.209 -0.561,0.415 -0.847,0.61 l 11.3,16.501 c 0.253,-0.173 0.504,-0.349 0.753,-0.528 0,0 0,0 0.001,-0.001 0.008,-0.006 0.016,-0.011 0.024,-0.017 10e-4,0 10e-4,-0.001 0.002,-0.001 0.007,-0.005 0.014,-0.01 0.022,-0.016 10e-4,-0.001 0.003,-0.002 0.005,-0.004 0.006,-0.004 0.014,-0.01 0.02,-0.015 0.002,-0.001 0.004,-0.002 0.006,-0.004 0.006,-0.005 0.012,-0.008 0.018,-0.013 0.003,-0.002 0.006,-0.004 0.009,-0.007 0.004,-0.003 0.011,-0.008 0.015,-0.011 0.004,-0.003 0.008,-0.005 0.011,-0.008 0.004,-0.003 0.009,-0.006 0.013,-0.009 0.004,-0.003 0.009,-0.006 0.013,-0.01 0.004,-0.003 0.007,-0.005 0.012,-0.008 0.005,-0.004 0.01,-0.007 0.015,-0.011 0.002,-0.001 0.006,-0.004 0.009,-0.006 0.006,-0.004 0.012,-0.009 0.018,-0.013 0.002,-0.001 0.005,-0.003 0.007,-0.005 0.007,-0.005 0.014,-0.01 0.021,-0.015 0.001,0 0.002,-10e-4 0.003,-0.002 0.008,-0.005 0.015,-0.011 0.022,-0.017 0.001,0 0.002,-0.001 0.003,-0.002 0.202,-0.147 0.401,-0.296 0.6,-0.446 z m 1.603,-1.339 c -0.255,0.235 -0.52,0.467 -0.786,0.689 l 12.823,15.348 c 0.004,-0.003 0.009,-0.007 0.013,-0.011 0.001,-0.001 0.003,-0.002 0.004,-0.003 0.006,-0.005 0.013,-0.011 0.019,-0.016 0.002,-10e-4 0.004,-0.003 0.006,-0.005 0.006,-0.005 0.012,-0.01 0.018,-0.015 0.002,-0.002 0.004,-0.004 0.007,-0.006 0.005,-0.004 0.011,-0.009 0.016,-0.014 0.003,-0.002 0.005,-0.004 0.008,-0.007 0.005,-0.004 0.011,-0.009 0.016,-0.013 0.003,-0.002 0.005,-0.005 0.008,-0.007 0.005,-0.004 0.01,-0.008 0.015,-0.013 0.003,-0.002 0.006,-0.005 0.01,-0.008 0.005,-0.004 0.009,-0.007 0.014,-0.012 0.003,-0.003 0.007,-0.006 0.011,-0.009 0.004,-0.003 0.008,-0.006 0.012,-0.01 0.004,-0.003 0.009,-0.007 0.013,-0.011 0.003,-0.002 0.008,-0.007 0.011,-0.009 0.004,-0.004 0.008,-0.007 0.013,-0.011 0.003,-0.002 0.007,-0.006 0.01,-0.008 0.005,-0.004 0.009,-0.008 0.014,-0.012 0.003,-0.003 0.006,-0.006 0.01,-0.008 0.004,-0.004 0.01,-0.008 0.015,-0.013 0.002,-10e-4 0.005,-0.005 0.007,-0.006 0.006,-0.005 0.011,-0.01 0.017,-0.014 0.002,-0.002 0.004,-0.004 0.006,-0.006 0.006,-0.005 0.012,-0.01 0.018,-0.015 0.002,-10e-4 0.002,-0.002 0.004,-0.004 0.006,-0.005 0.013,-0.011 0.02,-0.017 0.002,-10e-4 0.002,-0.002 0.004,-0.004 0.007,-0.005 0.013,-0.011 0.02,-0.017 l 0.002,-10e-4 c 0.007,-0.006 0.015,-0.013 0.022,-0.019 l 0.002,-0.002 c 0.332,-0.284 0.659,-0.573 0.981,-0.867 0.002,-0.002 0.002,-0.002 0.004,-0.004 0.006,-0.005 0.012,-0.011 0.019,-0.017 0.002,-0.001 0.004,-0.004 0.006,-0.006 0.005,-0.004 0.01,-0.009 0.016,-0.014 0.003,-0.002 0.008,-0.007 0.011,-0.01 0.003,-0.003 0.007,-0.007 0.011,-0.01 0.004,-0.004 0.009,-0.009 0.014,-0.013 0.002,-0.002 0.005,-0.004 0.007,-0.007 0.006,-0.005 0.013,-0.012 0.019,-0.017 0.001,-0.001 0.002,-0.002 0.003,-0.002 0.008,-0.007 0.014,-0.013 0.022,-0.021 0,0 0,0 0,0 0.002,-0.002 0.004,-0.004 0.007,-0.007 z m 1.47,-1.488 c -0.232,0.258 -0.473,0.514 -0.717,0.761 l 14.227,14.057 c 0.002,-0.002 0.003,-0.003 0.005,-0.005 0.005,-0.005 0.011,-0.011 0.016,-0.016 0,0 0.002,-0.002 0.003,-0.003 0.313,-0.318 0.622,-0.641 0.926,-0.969 0,-10e-4 0.001,-0.002 0.002,-0.003 0.006,-0.006 0.012,-0.013 0.018,-0.019 0.002,-0.002 0.004,-0.004 0.006,-0.006 0.005,-0.005 0.01,-0.01 0.015,-0.016 0.003,-0.004 0.006,-0.007 0.01,-0.011 0.003,-0.003 0.007,-0.007 0.01,-0.011 0.004,-0.004 0.009,-0.01 0.014,-0.015 0.002,-0.002 0.004,-0.005 0.006,-0.007 0.006,-0.007 0.012,-0.014 0.019,-0.021 0,0 0.001,-0.001 0.001,-0.001 0.107,-0.117 0.215,-0.235 0.321,-0.354 z m 1.321,-1.619 c -0.206,0.278 -0.421,0.556 -0.641,0.825 l 15.501,12.637 c 0.002,-0.002 0.003,-0.004 0.005,-0.006 0.004,-0.005 0.009,-0.011 0.013,-0.016 0.002,-0.003 0.005,-0.007 0.008,-0.01 0.004,-0.005 0.008,-0.01 0.012,-0.015 0.003,-0.004 0.006,-0.007 0.009,-0.011 0.003,-0.004 0.007,-0.009 0.011,-0.013 0.003,-0.004 0.007,-0.009 0.01,-0.013 0.003,-0.004 0.006,-0.007 0.009,-0.011 0.004,-0.005 0.009,-0.011 0.013,-0.016 0.002,-0.002 0.004,-0.005 0.006,-0.008 0.005,-0.006 0.01,-0.012 0.015,-0.018 0.001,-0.002 0.003,-0.004 0.004,-0.005 0.006,-0.007 0.012,-0.014 0.017,-0.021 10e-4,-0.001 10e-4,-0.002 0.002,-0.003 0.006,-0.008 0.011,-0.014 0.018,-0.022 0,0 0.001,-10e-4 0.001,-10e-4 0.209,-0.26 0.415,-0.521 0.618,-0.787 v 0 c 0.005,-0.007 0.012,-0.016 0.018,-0.023 0,-0.001 0.001,-0.001 0.001,-0.002 0.005,-0.006 0.01,-0.013 0.015,-0.019 10e-4,-0.002 0.003,-0.004 0.005,-0.006 0.004,-0.005 0.007,-0.01 0.011,-0.016 0.003,-0.003 0.006,-0.007 0.008,-0.01 0.002,-0.003 0.006,-0.008 0.008,-0.011 0.003,-0.005 0.007,-0.01 0.011,-0.015 0.001,-0.002 0.004,-0.005 0.005,-0.007 0.005,-0.006 0.01,-0.012 0.014,-0.019 0.001,-10e-4 0.001,-10e-4 0.002,-0.002 0.119,-0.157 0.238,-0.315 0.355,-0.474 z m 1.156,-1.733 c -0.178,0.296 -0.365,0.592 -0.557,0.879 l 16.638,11.1 c 0.046,-0.07 0.093,-0.14 0.139,-0.21 0.004,-0.006 0.009,-0.013 0.013,-0.02 0,-0.001 0.002,-0.004 0.003,-0.005 0.308,-0.469 0.607,-0.945 0.897,-1.427 l 0.001,-0.002 c 0.004,-0.007 0.009,-0.015 0.013,-0.022 0.001,-0.001 0.002,-0.003 0.002,-0.004 z m 0.98,-1.828 c -0.147,0.311 -0.305,0.622 -0.468,0.925 l 17.625,9.453 c 0.091,-0.17 0.182,-0.341 0.271,-0.513 0.143,-0.274 0.282,-0.551 0.418,-0.829 0,0 0,0 0,-10e-4 0.004,-0.008 0.008,-0.017 0.013,-0.025 0.001,-0.003 0.003,-0.006 0.004,-0.009 0.003,-0.006 0.006,-0.012 0.009,-0.018 0.002,-0.005 0.004,-0.009 0.007,-0.014 0.001,-0.003 0.004,-0.008 0.006,-0.012 0.003,-0.007 0.007,-0.014 0.01,-0.021 0.001,-0.002 0.001,-0.004 0.003,-0.006 0.054,-0.112 0.108,-0.224 0.162,-0.337 z m 0.797,-1.908 c -0.117,0.322 -0.243,0.646 -0.375,0.963 l 18.454,7.712 c 0.096,-0.23 0.19,-0.46 0.282,-0.692 0,-0.001 0.002,-0.005 0.002,-0.006 0.003,-0.007 0.006,-0.015 0.009,-0.022 0.001,-0.004 0.002,-0.006 0.004,-0.01 0.002,-0.006 0.005,-0.012 0.007,-0.019 0.002,-0.005 0.004,-0.01 0.006,-0.015 0.002,-0.004 0.003,-0.009 0.005,-0.014 0.003,-0.009 0.006,-0.017 0.01,-0.025 0,0 0,-10e-4 10e-4,-0.002 0.138,-0.351 0.271,-0.703 0.4,-1.059 z m 0.609,-1.973 c -0.085,0.332 -0.179,0.667 -0.28,0.994 l 19.112,5.895 c 0.042,-0.138 0.084,-0.276 0.125,-0.416 l 0.001,-0.003 c 0.002,-0.008 0.005,-0.017 0.008,-0.025 0,-10e-4 0.001,-0.004 0.001,-0.005 0.002,-0.008 0.004,-0.015 0.006,-0.023 0.001,-0.002 0.002,-0.006 0.002,-0.008 0.002,-0.007 0.004,-0.015 0.007,-0.022 0,-0.002 0.001,-0.004 0.002,-0.007 0.002,-0.008 0.005,-0.016 0.007,-0.024 0.001,-0.002 0.001,-0.004 0.002,-0.006 0.002,-0.008 0.005,-0.017 0.007,-0.024 0,-10e-4 0.001,-0.004 0.001,-0.005 0.002,-0.009 0.005,-0.017 0.007,-0.025 0,-10e-4 0.001,-0.004 0.001,-0.005 0.002,-0.009 0.005,-0.018 0.008,-0.026 0,-10e-4 0,-0.002 0.001,-0.003 0.002,-0.009 0.005,-0.019 0.008,-0.028 0,-0.001 0,0 0,-0.002 0.003,-0.009 0.005,-0.019 0.008,-0.028 v -10e-4 c 0.002,-0.01 0.005,-0.019 0.008,-0.029 v -0.002 c 0.115,-0.399 0.225,-0.802 0.329,-1.206 z m 0.416,-2.027 c -0.053,0.34 -0.115,0.683 -0.184,1.02 l 19.591,4.022 c 0.117,-0.57 0.222,-1.144 0.316,-1.721 0.013,-0.083 0.026,-0.165 0.039,-0.247 z m 0.221,-2.074 c -0.021,0.347 -0.049,0.698 -0.086,1.042 l 19.887,2.123 c 0.025,-0.235 0.048,-0.468 0.069,-0.704 0,-10e-4 0,-10e-4 0,-0.002 0.001,-0.01 0.001,-0.017 0.002,-0.026 0,-0.002 0,-0.005 0,-0.008 0.001,-0.008 0.001,-0.013 0.002,-0.021 0,-0.004 0,-0.008 0.001,-0.011 0,-0.006 0.001,-0.008 0.001,-0.013 0.033,-0.38 0.061,-0.761 0.084,-1.144 0.001,-0.021 0.002,-0.042 0.003,-0.063 z m 20.012,-2.827 -19.987,0.714 c 0.009,0.267 0.014,0.535 0.014,0.804 l -0.001,0.256 19.999,0.227 c 0.001,-0.13 0.002,-0.261 0.003,-0.391 0,-0.001 0,-0.003 0,-0.004 0,-0.008 0,-0.017 0,-0.025 0,-0.005 0,-0.008 0,-0.014 0,-0.006 0,-0.011 0,-0.017 0,-0.011 0,-0.021 0,-0.032 v 0 0 c 0,-0.014 0,-0.028 0,-0.042 0,-0.004 0,-0.008 0,-0.012 0,-0.011 0,-0.022 0,-0.033 0,-0.003 0,-0.008 0,-0.011 0,-0.014 0,-0.027 0,-0.041 0,-0.004 0,-0.009 0,-0.014 0,-0.009 0,-0.019 0,-0.028 0,-0.005 0,-0.011 0,-0.017 0,-0.011 0,-0.022 0,-0.034 0,-0.005 0,-0.013 0,-0.019 0,-0.009 0,-0.018 0,-0.027 0,-0.005 0,-0.014 0,-0.02 0,-0.007 0,-0.014 0,-0.021 0,-0.014 0,-0.026 0,-0.04 0,-0.005 0,-0.01 0,-0.015 0,-0.009 0,-0.017 0,-0.026 0,-0.004 0,-0.009 0,-0.014 0,-0.029 0,-0.061 -10e-4,-0.09 0,-0.002 0,-0.004 0,-0.006 0,-0.011 0,-0.02 0,-0.031 0,-10e-4 0,-0.002 0,-0.004 -0.002,-0.145 -0.004,-0.289 -0.008,-0.433 0,0 0,-0.001 0,-0.001 0,-0.031 -0.001,-0.061 -0.002,-0.092 0,-0.004 0,-0.008 0,-0.012 0,-0.008 0,-0.016 0,-0.024 0,-0.006 0,-0.012 0,-0.018 0,-0.008 0,-0.018 -0.001,-0.026 0,-0.011 0,-0.022 -10e-4,-0.034 0,-0.004 0,-0.009 0,-0.013 0,-0.012 -0.001,-0.023 -0.001,-0.035 0,-10e-4 0,-0.005 0,-0.006 -0.008,-0.091 -0.011,-0.185 -0.014,-0.279 z M 168.41,36.2 148.581,38.811 c 0.045,0.343 0.083,0.692 0.112,1.039 l 19.931,-1.662 c -0.013,-0.156 -0.027,-0.312 -0.042,-0.468 0,-10e-4 0,0 0,0 -0.001,-0.01 -0.002,-0.019 -0.003,-0.028 0,-0.003 0,-0.005 0,-0.008 -0.001,-0.007 -0.001,-0.015 -0.002,-0.022 0,-0.004 0,-0.008 -0.001,-0.013 0,-0.006 -0.001,-0.012 -0.002,-0.018 0,-0.007 -0.001,-0.014 -0.002,-0.021 0,-0.003 0,-0.007 -0.001,-0.01 -0.001,-0.011 -0.002,-0.02 -0.003,-0.03 0,0 0,0 0,0 -0.046,-0.46 -0.098,-0.915 -0.158,-1.37 z m -0.712,-3.934 -19.486,4.504 c 0.078,0.335 0.148,0.676 0.209,1.015 l 19.681,-3.56 c -0.058,-0.318 -0.119,-0.635 -0.184,-0.95 v -0.004 c -0.001,-0.007 -0.003,-0.015 -0.005,-0.022 0,-0.004 -0.001,-0.006 -0.002,-0.01 -0.001,-0.006 -0.002,-0.013 -0.004,-0.019 -0.001,-0.005 -0.001,-0.008 -0.003,-0.013 -0.001,-0.005 -0.002,-0.01 -0.003,-0.016 -0.001,-0.006 -0.002,-0.011 -0.003,-0.016 -0.001,-0.005 -0.002,-0.01 -0.003,-0.015 -0.001,-0.007 -0.002,-0.011 -0.004,-0.018 0,-0.004 -0.001,-0.008 -0.002,-0.012 -0.001,-0.006 -0.003,-0.014 -0.004,-0.021 -0.001,-0.003 -0.001,-0.007 -0.002,-0.01 -0.001,-0.008 -0.003,-0.015 -0.004,-0.023 -0.001,-0.002 -0.001,-0.005 -0.002,-0.007 -0.001,-0.008 -0.003,-0.016 -0.005,-0.024 0,-0.003 -0.001,-0.005 -0.001,-0.008 -0.002,-0.008 -0.004,-0.018 -0.005,-0.025 0,-10e-4 -0.001,-0.003 -0.001,-0.004 -0.002,-0.009 -0.004,-0.018 -0.006,-0.027 0,-0.001 -0.001,-0.003 -0.001,-0.004 -0.002,-0.009 -0.004,-0.019 -0.006,-0.028 0,0 0,-10e-4 -0.001,-0.002 -0.002,-0.011 -0.004,-0.019 -0.006,-0.029 0,0 0,-10e-4 0,-0.002 -0.023,-0.105 -0.046,-0.21 -0.069,-0.315 0,-10e-4 0,-0.003 -0.001,-0.004 -0.002,-0.009 -0.003,-0.017 -0.005,-0.026 -0.002,-0.009 -0.004,-0.018 -0.006,-0.026 0,-0.001 0,-0.002 -0.001,-0.003 -0.002,-0.009 -0.004,-0.018 -0.006,-0.026 0,-10e-4 0,-0.004 -0.001,-0.005 -0.021,-0.084 -0.039,-0.165 -0.058,-0.245 z m -1.088,-3.848 -18.96,6.363 c 0.109,0.325 0.212,0.657 0.305,0.987 l 19.246,-5.44 c 0,-0.002 -0.001,-0.004 -0.002,-0.007 -0.001,-0.005 -0.002,-0.01 -0.004,-0.014 -0.001,-0.005 -0.003,-0.013 -0.005,-0.018 -0.001,-0.004 -0.002,-0.007 -0.003,-0.011 -0.002,-0.008 -0.004,-0.015 -0.006,-0.022 0,-0.002 -0.001,-0.004 -0.001,-0.006 -0.002,-0.009 -0.005,-0.019 -0.008,-0.028 0,0 0,0 0,0 -0.141,-0.492 -0.29,-0.981 -0.448,-1.465 -10e-4,-0.003 -0.002,-0.006 -0.003,-0.009 -0.001,-0.004 -0.003,-0.01 -0.004,-0.014 -0.002,-0.006 -0.004,-0.012 -0.006,-0.018 0,-0.001 -0.001,-0.002 -0.001,-0.004 -0.034,-0.099 -0.067,-0.196 -0.1,-0.294 z m -1.453,-3.725 -18.259,8.162 c 0.14,0.314 0.275,0.635 0.399,0.955 l 18.631,-7.271 c -0.242,-0.623 -0.5,-1.238 -0.771,-1.846 z m -1.806,-3.568 -17.39,9.879 c 0.17,0.3 0.335,0.607 0.491,0.915 l 17.844,-9.032 c -0.264,-0.521 -0.538,-1.036 -0.823,-1.544 v -0.001 c -0.005,-0.009 -0.01,-0.017 -0.015,-0.026 -0.001,-10e-4 0,0 -0.001,-10e-4 -0.004,-0.008 -0.009,-0.017 -0.014,-0.025 0,-10e-4 -0.001,-0.003 -0.002,-0.004 -0.004,-0.007 -0.009,-0.015 -0.013,-0.023 -0.001,-0.002 -0.001,-0.003 -0.003,-0.005 -0.004,-0.007 -0.008,-0.013 -0.011,-0.02 -10e-4,-0.002 -0.004,-0.008 -0.006,-0.01 -0.003,-0.005 -0.006,-0.011 -0.01,-0.017 -0.002,-0.004 -0.004,-0.007 -0.006,-0.012 -0.003,-0.004 -0.005,-0.009 -0.008,-0.014 -0.002,-0.004 -0.006,-0.011 -0.008,-0.015 -0.002,-0.004 -0.005,-0.008 -0.007,-0.012 -0.004,-0.007 -0.007,-0.013 -0.011,-0.02 -0.001,-0.002 -0.002,-0.004 -0.003,-0.006 -10e-4,-0.003 -0.002,-0.004 -0.004,-0.007 z m -2.14,-3.377 -16.364,11.499 c 0.199,0.283 0.394,0.575 0.579,0.867 l 16.896,-10.702 c -0.043,-0.068 -0.086,-0.135 -0.129,-0.203 -0.003,-0.004 -0.004,-0.007 -0.007,-0.011 -0.001,-0.002 -0.003,-0.005 -0.005,-0.008 -0.004,-0.006 -0.009,-0.013 -0.013,-0.02 0,0 -0.001,-0.001 -0.001,-0.001 -0.214,-0.333 -0.434,-0.663 -0.657,-0.99 -0.002,-0.003 -0.004,-0.006 -0.006,-0.009 -0.004,-0.005 -0.007,-0.01 -0.011,-0.015 -0.003,-0.005 -0.007,-0.011 -0.011,-0.017 -0.001,-0.002 -0.003,-0.004 -0.005,-0.006 -0.087,-0.13 -0.176,-0.257 -0.266,-0.384 z m -2.452,-3.158 -15.192,13.007 c 0.226,0.264 0.448,0.536 0.661,0.81 l 15.795,-12.268 c -0.038,-0.049 -0.077,-0.099 -0.115,-0.148 v 0 c -0.006,-0.008 -0.012,-0.015 -0.019,-0.023 0,-10e-4 -0.001,-0.002 -0.002,-0.003 -0.005,-0.007 -0.011,-0.014 -0.016,-0.021 -0.001,-0.002 -0.004,-0.005 -0.005,-0.007 -0.004,-0.005 -0.009,-0.011 -0.013,-0.017 -0.002,-0.003 -0.004,-0.006 -0.007,-0.009 -0.004,-0.005 -0.008,-0.01 -0.012,-0.015 -0.003,-0.004 -0.006,-0.008 -0.009,-0.012 -0.003,-0.004 -0.006,-0.008 -0.009,-0.012 -0.003,-0.004 -0.007,-0.009 -0.011,-0.013 -0.002,-0.003 -0.005,-0.007 -0.008,-0.011 -0.004,-0.005 -0.008,-0.01 -0.012,-0.016 -0.002,-0.002 -0.004,-0.005 -0.006,-0.008 -0.005,-0.006 -0.009,-0.011 -0.014,-0.017 -0.002,-0.002 -0.003,-0.005 -0.005,-0.007 -0.005,-0.006 -0.01,-0.012 -0.015,-0.019 -0.001,-0.001 -0.002,-0.003 -0.004,-0.005 -0.005,-0.006 -0.011,-0.014 -0.016,-0.02 -0.001,-10e-4 -0.002,-0.003 -0.003,-0.004 -0.006,-0.007 -0.012,-0.014 -0.017,-0.021 0,0 -0.001,-10e-4 -0.002,-0.002 -0.006,-0.008 -0.011,-0.014 -0.018,-0.022 0,-0.001 -0.001,-0.002 -0.002,-0.002 -0.006,-0.007 -0.011,-0.015 -0.017,-0.021 -0.001,-10e-4 -0.002,-0.002 -0.003,-0.003 -0.005,-0.007 -0.011,-0.014 -0.017,-0.021 -10e-4,-10e-4 -0.002,-0.002 -0.002,-0.003 -0.007,-0.008 -0.011,-0.014 -0.018,-0.022 -0.001,0 -0.001,-10e-4 -0.002,-0.002 -0.006,-0.007 -0.012,-0.015 -0.017,-0.022 -0.001,-0.001 -0.002,-0.002 -0.003,-0.003 -0.005,-0.007 -0.011,-0.014 -0.017,-0.021 -10e-4,-10e-4 -0.002,-0.002 -0.003,-0.004 -0.005,-0.006 -0.011,-0.014 -0.016,-0.02 -0.001,-0.002 -0.002,-0.003 -0.004,-0.005 -0.005,-0.006 -0.011,-0.014 -0.016,-0.02 -0.001,-10e-4 -0.002,-0.003 -0.003,-0.004 -0.005,-0.006 -0.011,-0.013 -0.016,-0.019 -0.001,-0.002 -0.003,-0.004 -0.004,-0.006 -0.005,-0.006 -0.01,-0.012 -0.015,-0.018 -0.002,-0.002 -0.003,-0.004 -0.005,-0.007 -0.004,-0.005 -0.009,-0.011 -0.014,-0.017 -0.002,-0.002 -0.004,-0.005 -0.006,-0.008 -0.004,-0.005 -0.009,-0.011 -0.013,-0.017 -0.002,-0.002 -0.004,-0.005 -0.007,-0.008 -0.004,-0.005 -0.008,-0.011 -0.013,-0.016 -0.002,-0.003 -0.005,-0.006 -0.007,-0.009 -0.004,-0.005 -0.008,-0.01 -0.012,-0.015 -0.003,-0.003 -0.005,-0.007 -0.008,-0.01 -0.004,-0.005 -0.007,-0.009 -0.011,-0.014 -0.003,-0.004 -0.006,-0.007 -0.009,-0.011 -0.004,-0.005 -0.006,-0.008 -0.011,-0.013 -0.003,-0.004 -0.006,-0.008 -0.009,-0.012 -0.002,-0.003 -0.007,-0.009 -0.01,-0.012 -0.003,-0.004 -0.007,-0.009 -0.01,-0.013 -0.002,-0.003 -0.006,-0.007 -0.009,-0.011 -0.004,-0.004 -0.008,-0.009 -0.011,-0.014 -0.003,-0.003 -0.006,-0.006 -0.008,-0.01 -0.004,-0.005 -0.008,-0.01 -0.012,-0.015 -0.002,-0.003 -0.004,-0.005 -0.007,-0.008 -0.004,-0.006 -0.009,-0.011 -0.014,-0.017 -0.001,-0.002 -0.003,-0.004 -0.005,-0.006 -0.005,-0.006 -0.01,-0.013 -0.016,-0.019 -10e-4,-0.002 -0.002,-0.003 -0.004,-0.005 -0.005,-0.006 -0.011,-0.013 -0.016,-0.02 -0.001,-10e-4 -0.002,-0.002 -0.003,-0.003 -0.005,-0.007 -0.011,-0.014 -0.017,-0.021 -0.001,-0.002 -0.002,-0.002 -0.003,-0.004 -0.005,-0.006 -0.011,-0.013 -0.016,-0.02 -0.002,-0.002 -0.002,-0.002 -0.003,-0.004 -0.006,-0.006 -0.011,-0.013 -0.017,-0.02 -0.001,-10e-4 -0.002,-0.002 -0.003,-0.003 -0.005,-0.007 -0.011,-0.014 -0.017,-0.021 -0.001,-10e-4 -0.002,-0.002 -0.003,-0.003 -0.006,-0.007 -0.012,-0.014 -0.017,-0.021 -10e-4,-0.002 -10e-4,-0.002 -0.003,-0.004 -0.005,-0.007 -0.011,-0.014 -0.017,-0.021 -0.001,-10e-4 -0.002,-0.002 -0.003,-0.003 -0.006,-0.007 -0.011,-0.014 -0.017,-0.02 -0.001,-0.002 -0.001,-0.002 -0.003,-0.004 -0.005,-0.007 -0.011,-0.013 -0.017,-0.02 -0.001,-0.002 -0.001,-0.001 -0.003,-0.004 -0.006,-0.006 -0.011,-0.013 -0.017,-0.02 -0.002,-0.002 -0.003,-0.003 -0.004,-0.005 -0.005,-0.006 -0.01,-0.012 -0.015,-0.018 -0.002,-0.002 -0.004,-0.004 -0.005,-0.006 -0.005,-0.006 -0.01,-0.012 -0.015,-0.018 -0.002,-0.003 -0.003,-0.004 -0.006,-0.007 -0.004,-0.005 -0.009,-0.011 -0.014,-0.016 -0.001,-0.002 -0.004,-0.005 -0.006,-0.007 -0.004,-0.006 -0.009,-0.011 -0.014,-0.017 -0.002,-0.003 -0.004,-0.005 -0.007,-0.008 -0.004,-0.005 -0.009,-0.01 -0.013,-0.015 -0.002,-0.003 -0.006,-0.007 -0.008,-0.01 -0.004,-0.004 -0.007,-0.009 -0.011,-0.013 -0.003,-0.004 -0.007,-0.008 -0.01,-0.012 -0.003,-0.004 -0.006,-0.007 -0.009,-0.011 -0.004,-0.005 -0.008,-0.009 -0.012,-0.014 -0.003,-0.003 -0.005,-0.006 -0.008,-0.009 -0.005,-0.006 -0.01,-0.012 -0.015,-0.018 -0.001,-10e-4 -0.003,-0.003 -0.004,-0.005 -0.005,-0.006 -0.012,-0.014 -0.017,-0.02 -0.001,-0.001 -0.002,-0.002 -0.003,-0.003 -0.044,-0.047 -0.086,-0.096 -0.129,-0.146 z m -2.742,-2.91 -13.884,14.396 c 0.25,0.241 0.498,0.491 0.735,0.744 l 14.555,-13.717 c 0,-10e-4 -0.001,-10e-4 -0.002,-0.002 -0.458,-0.486 -0.925,-0.959 -1.404,-1.421 z M 153.009,9.044 140.56,24.697 c 0.271,0.216 0.542,0.441 0.802,0.67 l 13.182,-15.041 c -0.078,-0.068 -0.156,-0.136 -0.234,-0.204 -0.003,-0.002 -0.004,-0.003 -0.007,-0.005 -0.005,-0.005 -0.01,-0.009 -0.016,-0.014 -0.005,-0.004 -0.009,-0.008 -0.014,-0.012 -0.003,-0.002 -0.005,-0.005 -0.008,-0.007 -0.411,-0.355 -0.83,-0.701 -1.256,-1.04 z m -3.244,-2.336 -10.897,16.771 c 0.29,0.188 0.579,0.386 0.86,0.588 L 151.416,7.838 c -0.151,-0.109 -0.304,-0.217 -0.457,-0.324 -0.001,0 -0.001,0 -0.002,-0.001 C 150.952,7.51 150.946,7.506 150.941,7.502 150.938,7.5 150.934,7.497 150.93,7.495 150.928,7.493 150.925,7.491 150.923,7.49 c -0.006,-0.004 -0.012,-0.009 -0.019,-0.013 0,0 0,0 -0.001,0 C 150.732,7.357 150.561,7.24 150.387,7.123 150.385,7.122 150.383,7.12 150.381,7.119 150.374,7.115 150.368,7.111 150.362,7.106 150.358,7.103 150.354,7.101 150.35,7.098 150.346,7.095 150.341,7.092 150.337,7.089 150.331,7.085 150.325,7.081 150.318,7.076 150.316,7.075 150.314,7.073 150.311,7.072 150.13,6.948 149.948,6.827 149.765,6.708 Z m -3.454,-2.016 -9.239,17.738 c 0.306,0.159 0.611,0.328 0.909,0.502 L 148.062,5.658 c -0.144,-0.084 -0.288,-0.167 -0.433,-0.249 v 0 c -0.018,-0.01 -0.036,-0.02 -0.054,-0.03 v 0 c -0.018,-0.01 -0.036,-0.02 -0.054,-0.03 v 0 c -0.4,-0.226 -0.803,-0.444 -1.21,-0.657 z m -3.631,-1.673 -7.488,18.545 c 0.318,0.129 0.638,0.267 0.95,0.411 L 144.516,3.812 C 144.513,3.811 144.507,3.808 144.503,3.806 144.499,3.804 144.494,3.802 144.49,3.8 144.486,3.799 144.48,3.796 144.476,3.794 144.471,3.792 144.466,3.79 144.46,3.787 144.457,3.785 144.451,3.783 144.447,3.781 144.442,3.779 144.437,3.776 144.431,3.774 144.426,3.772 144.422,3.77 144.417,3.768 144.412,3.766 144.408,3.764 144.403,3.762 144.398,3.76 144.392,3.757 144.387,3.755 144.383,3.753 144.378,3.751 144.374,3.749 144.37,3.747 144.366,3.745 144.361,3.743 144.356,3.741 144.35,3.738 144.345,3.736 c -0.004,-0.002 -0.008,-0.004 -0.011,-0.005 -0.006,-0.002 -0.012,-0.005 -0.017,-0.008 -0.005,-0.002 -0.01,-0.004 -0.015,-0.006 -0.005,-0.002 -0.009,-0.004 -0.014,-0.006 -0.005,-0.002 -0.009,-0.004 -0.014,-0.006 -0.005,-0.002 -0.01,-0.005 -0.015,-0.007 -0.002,-10e-4 -0.004,-0.002 -0.006,-0.003 -0.007,-0.003 -0.015,-0.007 -0.022,-0.01 -0.004,-0.002 -0.008,-0.003 -0.013,-0.006 -0.005,-0.002 -0.01,-0.004 -0.015,-0.007 -0.502,-0.229 -1.01,-0.446 -1.523,-0.653 z m -3.776,-1.317 -5.664,19.181 c 0.329,0.097 0.66,0.204 0.983,0.316 l 6.584,-18.885 c -0.442,-0.154 -0.887,-0.301 -1.336,-0.44 -0.001,0 -0.002,-0.001 -0.003,-0.001 -0.009,-0.002 -0.018,-0.005 -0.027,-0.008 -0.002,0 -0.005,-10e-4 -0.007,-0.002 -0.007,-0.002 -0.015,-0.005 -0.022,-0.007 -0.004,-0.001 -0.008,-0.002 -0.013,-0.004 -0.005,-0.001 -0.012,-0.003 -0.017,-0.005 -0.007,-0.002 -0.015,-0.004 -0.021,-0.006 -0.003,-10e-4 -0.005,-10e-4 -0.007,-0.002 -0.009,-0.002 -0.018,-0.005 -0.027,-0.008 -0.001,0 -0.001,0 -0.003,0 -0.139,-0.045 -0.28,-0.087 -0.42,-0.129 z m -3.884,-0.946 -3.788,19.638 c 0.337,0.065 0.678,0.139 1.011,0.22 l 4.73,-19.433 c -0.001,0 -0.003,0 -0.004,-0.001 C 136.963,1.179 136.957,1.177 136.95,1.176 136.946,1.175 136.941,1.174 136.937,1.173 136.931,1.172 136.926,1.17 136.92,1.169 136.915,1.168 136.909,1.167 136.904,1.165 136.9,1.164 136.895,1.163 136.891,1.162 136.886,1.161 136.877,1.159 136.872,1.158 136.869,1.157 136.865,1.156 136.861,1.155 136.853,1.153 136.848,1.152 136.84,1.15 c -0.003,-10e-4 -0.006,-10e-4 -0.009,-0.002 -0.008,-0.002 -0.015,-0.003 -0.023,-0.005 -0.002,0 -0.005,-0.001 -0.007,-0.002 -0.009,-0.002 -0.018,-0.004 -0.027,-0.006 -0.001,0 -0.002,0 -0.002,0 -0.011,-0.002 -0.02,-0.005 -0.03,-0.007 0,0 -10e-4,0 -10e-4,0 -0.273,-0.065 -0.546,-0.126 -0.82,-0.186 0,0 0,0 -0.001,0 -0.021,-0.004 -0.04,-0.009 -0.061,-0.013 -0.001,0 -0.002,0 -0.003,0 -0.01,-0.002 -0.018,-0.004 -0.029,-0.006 -0.001,0 -0.002,0 -0.002,0 -0.009,-0.002 -0.018,-0.004 -0.027,-0.006 -0.002,0 -0.004,0 -0.006,-0.001 -0.009,-0.002 -0.016,-0.003 -0.025,-0.005 -0.002,0 -0.004,-0.001 -0.006,-0.001 -0.008,-0.001 -0.013,-0.003 -0.021,-0.004 -0.004,-0.001 -0.008,-0.001 -0.012,-0.002 -0.004,-0.001 -0.011,-0.002 -0.016,-0.003 -0.005,-0.001 -0.011,-0.002 -0.016,-0.003 -0.004,0 -0.005,-0.001 -0.009,-0.002 -0.222,-0.052 -0.444,-0.097 -0.667,-0.14 z m -3.958,-0.568 -1.89,19.911 c 0.345,0.033 0.694,0.074 1.036,0.123 l 2.84,-19.797 C 132.88,0.401 132.714,0.378 132.546,0.356 v 0 c -0.01,-0.001 -0.02,-0.002 -0.029,-0.004 -0.003,0 -0.007,-0.001 -0.01,-0.001 -0.007,-0.001 -0.015,-0.002 -0.021,-0.003 -0.004,0 -0.009,-0.001 -0.014,-0.002 -0.005,0 -0.01,-0.001 -0.016,-0.002 -0.006,-10e-4 -0.013,-10e-4 -0.019,-0.002 -0.004,0 -0.007,-0.001 -0.011,-0.001 -0.008,-0.001 -0.015,-0.002 -0.022,-0.003 -0.003,0 -0.004,0 -0.006,0 -0.009,-0.001 -0.018,-0.002 -0.026,-0.003 -0.001,0 -0.002,0 -0.004,0 -0.01,-0.001 -0.019,-0.002 -0.029,-0.004 v 0 c -0.298,-0.038 -0.597,-0.072 -0.897,-0.103 h -0.003 c -0.007,0 -0.013,-0.001 -0.02,-0.002 -0.004,0 -0.009,-0.001 -0.013,-0.001 -0.005,0 -0.009,-0.001 -0.014,-0.001 -0.005,0 -0.014,-0.001 -0.019,-0.002 -0.003,0 -0.006,0 -0.01,-0.001 -0.008,-0.001 -0.016,-0.001 -0.024,-0.002 -0.001,0 -0.003,0 -0.005,0 -0.092,-0.013 -0.184,-0.022 -0.272,-0.031 z M 127.07,0 v 20 c 0.352,0 0.707,0.008 1.056,0.025 l 0.941,-19.978 c -0.403,-0.019 -0.808,-0.032 -1.214,-0.04 v 0 c -0.009,0 -0.019,0 -0.027,0 -10e-4,0 -0.004,0 -0.006,0 -0.008,0 -0.017,0 -0.025,0 -0.003,0 -0.004,0 -0.007,0 -0.008,0 -0.016,0 -0.024,0 -0.003,0 -0.005,0 -0.008,0 -0.008,0 -0.016,0 -0.023,0 -0.003,0 -0.007,0 -0.01,0 -0.007,0 -0.015,0 -0.022,0 -0.004,0 -0.006,0 -0.01,0 -0.008,0 -0.015,0 -0.023,0 -0.003,0 -0.005,0 -0.008,0 -0.008,0 -0.016,0 -0.023,0 -0.002,0 -0.006,0 -0.009,0 -0.008,0 -0.016,0 -0.023,0 -0.002,0 -0.006,0 -0.009,0 -0.007,0 -0.015,0 -0.022,0 -0.004,0 -0.008,0 -0.012,0 -0.007,0 -0.014,0 -0.02,0 -0.001,0 -0.003,0 -0.004,0 -0.016,0 -0.032,0 -0.048,0 -0.003,0 -0.008,0 -0.011,0 -0.006,0 -0.011,0 -0.017,0 -0.004,0 -0.012,0 -0.016,0 -0.005,0 -0.01,0 -0.015,0 -0.005,0 -0.012,0 -0.017,0 -0.005,0 -0.01,0 -0.015,0 -0.006,0 -0.012,0 -0.018,0 -0.005,0 -0.01,0 -0.015,0 -0.005,0 -0.011,0 -0.017,0 -0.006,0 -0.011,0 -0.016,0 -0.006,0 -0.013,0 -0.019,0 -0.004,0 -0.009,0 -0.013,0 -0.005,0 -0.013,0 -0.019,0 -0.005,0 -0.009,0 -0.014,0 -0.005,0 -0.013,0 -0.019,0 -0.005,0 -0.009,0 -0.014,0 -0.007,0 -0.011,0 -0.019,0 -0.004,0 -0.009,0 -0.014,0 -0.007,0 -0.012,0 -0.019,0 -0.004,0 -0.009,0 -0.014,0 -0.007,0 -0.013,0 -0.02,0 -0.004,0 -0.008,0 -0.012,0 -0.008,0 -0.015,0 -0.023,0 -0.003,0 -0.006,0 -0.01,0 C 127.091,0 127.081,0 127.07,0 Z"
         id="path7458-5-5-5"
         style="fill:#fdbb00;fill-opacity:1" /></g><g
       id="g7464-9-1-6"><path
         fill="#262626"
         d="m 127.07,2 c 21.891,0 39.7,17.811 39.7,39.703 0,21.88 -17.809,39.681 -39.7,39.681 -21.882,0 -39.685,-17.801 -39.685,-39.681 C 87.385,19.811 105.188,2 127.07,2 m 0,-2 c -23.023,0 -41.685,18.663 -41.685,41.703 0,23.02 18.662,41.681 41.685,41.681 23.036,0 41.7,-18.661 41.7,-41.681 C 168.77,18.663 150.105,0 127.07,0 Z"
         id="path7462-2-1-0"
         style="fill:#fdbb00;fill-opacity:1" /></g><g
       opacity="0.06"
       id="g7468-0-5-7"><path
         fill="#ffffff"
         d="m 163.091,41.703 c 0,19.876 -16.126,36.003 -36.021,36.003 -19.879,0 -36.006,-16.127 -36.006,-36.003 0,-19.898 16.127,-36.025 36.006,-36.025 19.895,0 36.021,16.127 36.021,36.025 z"
         id="path7466-9-7-6"
         style="fill:#715c00;fill-opacity:1" /></g><g
       id="g7474-1-0-8"><path
         fill="#212121"
         d="m 127.07,69.832 c -15.508,0 -28.124,-12.618 -28.124,-28.128 0,-15.506 12.616,-28.121 28.124,-28.121 15.51,0 28.127,12.615 28.127,28.121 0,15.509 -12.617,28.128 -28.127,28.128 z"
         id="path7470-4-9-5"
         style="fill:#fdc500;fill-opacity:1" /><path
         fill="#1a1a1a"
         d="m 127.07,16.582 c 13.855,0 25.127,11.269 25.127,25.121 0,13.856 -11.272,25.128 -25.127,25.128 -13.854,0 -25.124,-11.272 -25.124,-25.128 0,-13.852 11.27,-25.121 25.124,-25.121 m 0,-6 c -17.195,0 -31.124,13.927 -31.124,31.121 0,17.191 13.929,31.128 31.124,31.128 17.198,0 31.127,-13.937 31.127,-31.128 0,-17.194 -13.929,-31.121 -31.127,-31.121 z"
         id="path7472-6-3-3"
         style="fill:#fdbb00;fill-opacity:1" /></g></g><circle
     r="41.69849"
     cy="-41.124836"
     cx="153.41026"
     id="circle7600-5"
     style="opacity:0.764516;fill:url(#radialGradient7602-7);fill-opacity:1;stroke:none;stroke-width:23.3682;stroke-linecap:round;stroke-linejoin:round;paint-order:stroke fill markers"
     inkscape:export-xdpi="92.395172"
     inkscape:export-ydpi="92.395172" /></g></svg>
