<?xml version="1.0" encoding="UTF-8" standalone="no"?>
<svg
   xmlns:dc="http://purl.org/dc/elements/1.1/"
   xmlns:cc="http://creativecommons.org/ns#"
   xmlns:rdf="http://www.w3.org/1999/02/22-rdf-syntax-ns#"
   xmlns:svg="http://www.w3.org/2000/svg"
   xmlns="http://www.w3.org/2000/svg"
   xmlns:xlink="http://www.w3.org/1999/xlink"
   xmlns:sodipodi="http://sodipodi.sourceforge.net/DTD/sodipodi-0.dtd"
   xmlns:inkscape="http://www.inkscape.org/namespaces/inkscape"
   version="1.1"
   id="Layer_1"
   x="0px"
   y="0px"
   width="806px"
   height="598.9px"
   viewBox="97 97.1 806 598.9"
   enable-background="new 97 97.1 806 598.9"
   xml:space="preserve"
   sodipodi:docname="disconnected.svg"
   inkscape:version="1.0 (4035a4fb49, 2020-05-01)"><metadata
   id="metadata41"><rdf:RDF><cc:Work
       rdf:about=""><dc:format>image/svg+xml</dc:format><dc:type
         rdf:resource="http://purl.org/dc/dcmitype/StillImage" /><dc:title /></cc:Work></rdf:RDF></metadata><defs
   id="defs39"><linearGradient
     id="linearGradient1068"
     inkscape:collect="always"><stop
       id="stop1064"
       offset="0"
       style="stop-color:#19c4e9;stop-opacity:1" /><stop
       id="stop1066"
       offset="1"
       style="stop-color:#e657a3;stop-opacity:1" /></linearGradient><pattern
     id="SVGID_4_"
     xlink:href="#SVGID_1_"
     patternTransform="matrix(0.3298 9.457588e-002 9.457588e-002 -0.3298 -10180.4512 -7431.5161)" /><pattern
     x="97"
     y="696"
     width="40"
     height="103"
     patternUnits="userSpaceOnUse"
     id="SVGID_1_"
     viewBox="0 -231.7 40 103"
     overflow="visible"><g
       id="g38"><polygon
         fill="none"
         points="0,-128.7 40,-128.7 40,-231.7 0,-231.7   "
         id="polygon2" /><g
         id="g36"><polygon
           fill="none"
           points="0,-128.7 40,-128.7 40,-231.7 0,-231.7    "
           id="polygon4" /><polygon
           points="34.5,-360.5 37.5,-360.5 37.5,-206 34.5,-206    "
           id="polygon6" /><polygon
           points="26.5,-360.5 29.5,-360.5 29.5,-206 26.5,-206    "
           id="polygon8" /><polygon
           points="18.5,-360.5 21.5,-360.5 21.5,-206 18.5,-206    "
           id="polygon10" /><polygon
           points="10.5,-360.5 13.5,-360.5 13.5,-206 10.5,-206    "
           id="polygon12" /><polygon
           points="2.5,-360.5 5.5,-360.5 5.5,-206 2.5,-206    "
           id="polygon14" /><polygon
           points="34.5,-257.5 37.5,-257.5 37.5,-103 34.5,-103    "
           id="polygon16" /><polygon
           points="26.5,-257.5 29.5,-257.5 29.5,-103 26.5,-103    "
           id="polygon18" /><polygon
           points="18.5,-257.5 21.5,-257.5 21.5,-103 18.5,-103    "
           id="polygon20" /><polygon
           points="10.5,-257.5 13.5,-257.5 13.5,-103 10.5,-103    "
           id="polygon22" /><polygon
           points="2.5,-257.5 5.5,-257.5 5.5,-103 2.5,-103    "
           id="polygon24" /><polygon
           points="34.5,-154.5 37.5,-154.5 37.5,0 34.5,0    "
           id="polygon26" /><polygon
           points="26.5,-154.5 29.5,-154.5 29.5,0 26.5,0    "
           id="polygon28" /><polygon
           points="18.5,-154.5 21.5,-154.5 21.5,0 18.5,0    "
           id="polygon30" /><polygon
           points="10.5,-154.5 13.5,-154.5 13.5,0 10.5,0    "
           id="polygon32" /><polygon
           points="2.5,-154.5 5.5,-154.5 5.5,0 2.5,0    "
           id="polygon34" /></g></g></pattern><pattern
     id="SVGID_5_"
     xlink:href="#SVGID_2_"
     patternTransform="matrix(-0.3298 9.457588e-002 -9.457588e-002 -0.3298 -21159.9766 -7429.6616)" /><pattern
     x="97"
     y="696"
     width="40"
     height="103"
     patternUnits="userSpaceOnUse"
     id="SVGID_2_"
     viewBox="0 -231.7 40 103"
     overflow="visible"><g
       id="g77"><polygon
         fill="none"
         points="0,-128.7 40,-128.7 40,-231.7 0,-231.7   "
         id="polygon41" /><g
         id="g75"><polygon
           fill="none"
           points="0,-128.7 40,-128.7 40,-231.7 0,-231.7    "
           id="polygon43" /><polygon
           points="34.5,-360.5 37.5,-360.5 37.5,-206 34.5,-206    "
           id="polygon45" /><polygon
           points="26.5,-360.5 29.5,-360.5 29.5,-206 26.5,-206    "
           id="polygon47" /><polygon
           points="18.5,-360.5 21.5,-360.5 21.5,-206 18.5,-206    "
           id="polygon49" /><polygon
           points="10.5,-360.5 13.5,-360.5 13.5,-206 10.5,-206    "
           id="polygon51" /><polygon
           points="2.5,-360.5 5.5,-360.5 5.5,-206 2.5,-206    "
           id="polygon53" /><polygon
           points="34.5,-257.5 37.5,-257.5 37.5,-103 34.5,-103    "
           id="polygon55" /><polygon
           points="26.5,-257.5 29.5,-257.5 29.5,-103 26.5,-103    "
           id="polygon57" /><polygon
           points="18.5,-257.5 21.5,-257.5 21.5,-103 18.5,-103    "
           id="polygon59" /><polygon
           points="10.5,-257.5 13.5,-257.5 13.5,-103 10.5,-103    "
           id="polygon61" /><polygon
           points="2.5,-257.5 5.5,-257.5 5.5,-103 2.5,-103    "
           id="polygon63" /><polygon
           points="34.5,-154.5 37.5,-154.5 37.5,0 34.5,0    "
           id="polygon65" /><polygon
           points="26.5,-154.5 29.5,-154.5 29.5,0 26.5,0    "
           id="polygon67" /><polygon
           points="18.5,-154.5 21.5,-154.5 21.5,0 18.5,0    "
           id="polygon69" /><polygon
           points="10.5,-154.5 13.5,-154.5 13.5,0 10.5,0    "
           id="polygon71" /><polygon
           points="2.5,-154.5 5.5,-154.5 5.5,0 2.5,0    "
           id="polygon73" /></g></g></pattern><pattern
     id="SVGID_6_"
     xlink:href="#SVGID_3_"
     patternTransform="matrix(0.1017 0 0 -0.1017 -13979.8896 -2289.7598)"
     opacity="0.12" /><pattern
     x="97"
     y="696"
     width="71"
     height="71"
     patternUnits="userSpaceOnUse"
     id="SVGID_3_"
     viewBox="0 -71 71 71"
     overflow="visible"><g
       id="g88"><polygon
         fill="none"
         points="0,0 71,0 71,-71 0,-71   "
         id="polygon80" /><g
         id="g86"><polygon
           fill="none"
           points="0,0 71,0 71,-71 0,-71    "
           id="polygon82" /><path
           fill="#B3B3B3"
           d="M41.8-35.5c0-3.5-2.8-6.3-6.3-6.3s-6.3,2.8-6.3,6.3s2.8,6.3,6.3,6.3S41.8-32,41.8-35.5z"
           id="path84" /></g></g></pattern><linearGradient
     gradientUnits="userSpaceOnUse"
     y2="346.58255"
     x2="606.22229"
     y1="346.58255"
     x1="196.50073"
     id="linearGradient1277"
     xlink:href="#linearGradient1068"
     inkscape:collect="always" /><linearGradient
     gradientUnits="userSpaceOnUse"
     y2="45.400391"
     x2="604.9422"
     y1="45.400391"
     x1="194.25934"
     id="linearGradient1298"
     xlink:href="#linearGradient1068"
     inkscape:collect="always" /></defs><sodipodi:namedview
   inkscape:document-rotation="0"
   pagecolor="#ffffff"
   bordercolor="#666666"
   borderopacity="1"
   objecttolerance="10"
   gridtolerance="10"
   guidetolerance="10"
   inkscape:pageopacity="0"
   inkscape:pageshadow="2"
   inkscape:window-width="1920"
   inkscape:window-height="1017"
   id="namedview37"
   showgrid="false"
   inkscape:zoom="0.23402075"
   inkscape:cx="980.69572"
   inkscape:cy="214.96174"
   inkscape:window-x="-8"
   inkscape:window-y="-8"
   inkscape:window-maximized="1"
   inkscape:current-layer="Layer_1" />
<g
   id="g8">
	<path
   style="fill-opacity:1;fill:url(#linearGradient1277)"
   transform="translate(97,97.1)"
   d="M 161.5 94.400391 C 133.3 94.400391 114.5 105.1 110 108 C 109.3 108.4 108.90039 109.10039 108.90039 109.90039 L 108.90039 116.59375 C 103.83836 117.54812 101.5 118.29883 101.5 118.29883 C 101.5 118.29883 97.398828 123.59844 96.798828 126.89844 C 96.198828 130.19844 86.699219 143.19922 86.699219 143.19922 C 86.699219 143.19922 65.699219 173.19844 53.699219 208.89844 C 49.699219 220.79844 45.999219 246.09883 36.699219 273.79883 C 22.399219 315.89883 7.5992188 402.89844 4.6992188 418.39844 C 3.7497442 423.52118 3.0035324 430.83608 2.4042969 439.03711 C 2.3964672 439.14338 2.388637 439.24888 2.3808594 439.35547 C 2.2475947 441.19707 2.12211 443.06516 2.0039062 444.98633 C 1.9742561 445.46364 1.9467225 445.94453 1.9179688 446.42578 C 1.8192163 448.09477 1.7231176 449.76413 1.6347656 451.46875 C 1.581205 452.49106 1.5323979 453.52037 1.4824219 454.55078 C 1.4307665 455.62782 1.3760097 456.69386 1.328125 457.77539 C 1.1697687 461.30975 1.0430153 464.79104 0.921875 468.2793 C 0.85714827 470.1668 0.79911376 471.9801 0.74414062 473.82031 C 0.30667837 488.25857 0.14155017 500.99856 0.099609375 506.19922 L 0.099609375 506.30078 L 0.099609375 507.69922 L 0.099609375 508 L 0.099609375 508.40039 L 0.099609375 508.5 L 0.099609375 508.59961 L 0.099609375 508.69922 L 0.099609375 508.80078 C 0.29960938 511.30078 3.7003906 544.50078 20.900391 568.30078 C 21.400391 569.00078 22 569.70039 22.5 570.40039 C 22.5 570.40039 22.499609 570.5 22.599609 570.5 C 23.099609 571.2 23.699219 571.9 24.199219 572.5 C 24.799219 573.2 25.300391 573.80039 25.900391 574.40039 L 26.099609 574.59961 C 26.699609 575.19961 27.200781 575.80039 27.800781 576.40039 L 27.900391 576.5 C 27.947931 576.54754 27.995428 576.59313 28.042969 576.64062 C 28.10972 576.70733 28.177077 576.77344 28.244141 576.83984 C 28.479041 577.07331 28.714318 577.29988 28.949219 577.52148 C 29.815739 578.35246 30.706881 579.15715 31.625 579.93555 C 31.683649 579.99238 31.742133 580.04096 31.800781 580.09961 L 31.900391 580.19922 C 32.285021 580.51974 32.705009 580.83963 33.119141 581.16016 C 33.257961 581.2699 33.395191 581.38175 33.535156 581.49023 C 33.62227 581.56003 33.717021 581.62942 33.800781 581.69922 C 33.826614 581.71213 33.842308 581.72537 33.865234 581.73828 C 34.659561 582.34446 35.467496 582.93421 36.298828 583.49805 C 67.998828 604.99805 93 597.49805 93 597.49805 C 93 597.49805 126.09883 589.29961 150.79883 555.59961 C 154.19006 550.9727 157.71776 545.15326 161.2793 538.60352 C 161.31996 538.5357 161.3597 538.46821 161.40039 538.40039 L 163.19922 535.09961 L 163.19922 535.01953 C 164.38669 532.75524 165.57434 530.41056 166.76172 528.00977 C 166.98327 527.56333 167.20636 527.12439 167.42773 526.67383 C 167.6651 526.18912 167.90154 525.69626 168.13867 525.20703 C 168.76548 523.918 169.38941 522.61633 170.01367 521.29883 C 170.03008 521.26419 170.04805 521.22996 170.06445 521.19531 C 170.08479 521.15223 170.10467 521.10756 170.125 521.06445 C 170.81958 519.59638 171.50734 518.1008 172.19727 516.60352 C 172.63196 515.65761 173.06368 514.70163 173.49609 513.74609 C 191.48022 474.10491 207.25443 426.93534 207.45703 426.32812 C 207.60507 426.1292 209.72258 423.3188 213.09961 421.09961 C 216.59961 418.79961 219.40039 418.49805 219.40039 418.49805 L 221.61328 418.5 C 235.39482 431.87985 254.20512 440.09961 274.90039 440.09961 C 295.61672 440.09961 314.34636 431.86377 328.13086 418.55859 L 364.20117 418.57812 L 364.20117 418.59961 C 364.20117 421.39961 366.00078 420.79883 368.80078 420.79883 L 436.70117 420.79883 C 438.84676 420.79883 440.9288 421.08719 441.74219 420.00977 C 442.06327 419.69911 442.2585 419.24112 442.28906 418.57812 L 478.36914 418.55859 C 492.15364 431.86377 510.88328 440.09961 531.59961 440.09961 C 552.29488 440.09961 571.10518 431.87985 584.88672 418.5 L 586.80273 418.49805 C 586.80273 418.49805 589.60352 418.79961 593.10352 421.09961 C 596.60352 423.39961 598.80273 426.39844 598.80273 426.39844 C 598.80273 426.39844 630.7043 521.79961 655.4043 555.59961 C 680.1043 589.39961 713.20312 597.49805 713.20312 597.49805 C 713.20312 597.49805 727.2979 601.72475 747.73828 594.73242 C 754.60084 592.41422 762.18425 588.83641 770.19922 583.40039 C 770.89922 582.90039 771.49922 582.5 772.19922 582 C 772.39922 581.9 772.49922 581.79922 772.69922 581.69922 C 773.29922 581.19922 773.99961 580.69922 774.59961 580.19922 L 774.69922 580.09961 C 775.29922 579.59961 775.9 579.1 776.5 578.5 L 776.80078 578.19922 C 777.40078 577.59922 777.99961 577.1 778.59961 576.5 L 778.69922 576.40039 C 779.29922 575.80039 779.80039 575.19961 780.40039 574.59961 L 780.59961 574.40039 C 781.19961 573.80039 781.70078 573.1 782.30078 572.5 C 782.90078 571.8 783.40039 571.2 783.90039 570.5 C 783.90039 570.5 783.9 570.40039 784 570.40039 C 784.5 569.70039 785.09961 569.00078 785.59961 568.30078 C 802.79961 544.50078 806.20039 511.30078 806.40039 508.80078 L 806.40039 508.69922 C 806.40039 508.69922 806.21381 508.69873 806.0957 508.66602 C 806.09582 508.66467 806.10352 508.59961 806.10352 508.59961 C 806.10352 508.59961 805.8043 441.59844 801.4043 418.39844 C 798.5043 402.89844 783.7043 315.89883 769.4043 273.79883 C 760.0043 246.09883 756.3043 220.79844 752.4043 208.89844 C 740.4043 173.19844 719.4043 143.19922 719.4043 143.19922 C 719.4043 143.19922 709.90273 130.09844 709.30273 126.89844 C 708.70273 123.59844 704.60352 118.29883 704.60352 118.29883 C 704.60352 118.29883 702.27155 117.5451 697.19922 116.58789 L 697.19922 109.90039 C 697.19922 109.10039 696.79961 108.4 696.09961 108 C 691.59961 105.1 672.69961 94.400391 644.59961 94.400391 C 617.69961 94.400391 603.5 100.30039 599.5 102.40039 C 598.7 102.80039 598.30078 103.60039 598.30078 104.40039 L 598.30078 115.1543 C 590.76533 116.38564 588.60352 117.59961 588.60352 117.59961 C 588.60352 117.59961 586.20312 120.49844 582.70312 122.39844 C 579.20312 124.19844 571.00391 124.09961 571.00391 124.09961 L 537.60352 124.09961 C 537.60352 124.09961 537.00313 123.99844 536.70312 124.39844 C 536.30313 124.79844 536.10352 126.39844 536.10352 126.39844 L 534.50391 126.39844 C 533.55554 124.20999 531.42153 122.69393 528.90039 122.5 L 528.69922 122.5 L 528.40039 122.5 L 403 122.5 L 277.69922 122.5 L 277.40039 122.5 L 277.19922 122.5 C 274.77519 122.69392 272.55173 124.21021 271.59766 126.39844 L 270.00391 126.39844 C 270.00391 126.39844 269.7043 124.69844 269.4043 124.39844 C 269.0043 123.99844 268.50391 124.09961 268.50391 124.09961 L 235.10352 124.09961 C 235.10352 124.09961 226.9043 124.29844 223.4043 122.39844 C 219.9043 120.59844 217.50391 117.59961 217.50391 117.59961 C 217.50391 117.59961 215.34163 116.38599 207.80078 115.1543 L 207.80078 104.40039 C 207.80078 103.50039 207.29961 102.80039 206.59961 102.40039 C 202.59961 100.40039 188.4 94.400391 161.5 94.400391 z "
   id="path2" />
	<path
   style="fill-opacity:1;fill:url(#linearGradient1298)"
   transform="translate(97,97.1)"
   d="M 163.40039 0 C 152.60039 0 138.00078 6.4003906 128.80078 21.400391 C 120.80078 34.400391 111.70039 77.199219 109.40039 88.199219 L 109.40039 88.300781 C 109.40039 88.500781 109.30078 88.599219 109.30078 88.699219 L 109.30078 88.800781 C 109.20078 89.100781 109.19961 89.399609 109.09961 89.599609 L 109.09961 89.699219 L 109.09961 89.900391 C 109.09961 90.000391 109.1 90.099219 109 90.199219 L 109 90.400391 L 109 90.5 C 109 90.6 109.00039 90.700781 108.90039 90.800781 C 108.90039 90.800781 141.6 87.599609 159.5 87.599609 C 177.4 87.599609 207.80078 90 207.80078 90 C 207.80078 89.7 207.69922 89.099609 207.69922 88.099609 L 207.69922 87.599609 C 207.69922 87.099609 207.59961 86.6 207.59961 86 L 207.59961 85.400391 L 207.59961 85.300781 L 207.59961 85 L 207.59961 84.599609 L 207.59961 84.199219 L 207.59961 83.800781 L 207.59961 83.599609 L 207.59961 83.300781 C 206.59961 70.500781 204.50078 43.599609 203.30078 38.099609 C 201.70078 30.799609 195.60039 16.799219 186.40039 10.199219 C 177.20039 3.5992188 174.20039 0 163.40039 0 z M 642.59961 0 C 631.69961 0 629.00039 3.3996094 619.90039 10.099609 C 610.80039 16.799609 604.6 30.7 603 38 C 601.8 43.5 599.69922 70.399219 598.69922 83.199219 L 598.69922 83.599609 L 598.69922 83.800781 L 598.69922 84.199219 L 598.69922 84.599609 L 598.69922 85 L 598.69922 85.300781 L 598.69922 85.400391 L 598.69922 86 C 598.69922 86.6 598.59961 87.099609 598.59961 87.599609 L 598.59961 88.099609 C 598.49961 89.099609 598.5 89.700391 598.5 89.900391 L 598.5 90 C 598.5 90 600.4 89.899609 603.5 89.599609 C 604.8 89.499609 606.70078 89.400781 608.80078 89.300781 C 609.30078 89.300781 609.90039 89.199219 610.40039 89.199219 C 614.80039 88.899219 620.00039 88.600781 625.40039 88.300781 C 626.70039 88.200781 628.10039 88.199609 629.40039 88.099609 C 632.10039 87.999609 634.80039 87.900781 637.40039 87.800781 C 638.70039 87.800781 639.99922 87.699219 641.19922 87.699219 C 642.39922 87.699219 643.60078 87.699609 644.80078 87.599609 L 646.5 87.599609 C 664.4 87.599609 697.09961 90.800781 697.09961 90.800781 C 697.09961 90.800781 697.1 90.7 697 90.5 L 697 90.400391 L 697 90.199219 C 697 90.099219 697.00039 90.000391 696.90039 89.900391 L 696.90039 89.699219 L 696.90039 89.599609 C 696.90039 89.399609 696.79922 89.100781 696.69922 88.800781 L 696.69922 88.699219 C 696.69922 88.599219 696.59961 88.400781 696.59961 88.300781 L 696.59961 88.199219 C 694.29961 77.199219 685.19922 34.400391 677.19922 21.400391 C 668.09922 6.4003906 653.49961 0 642.59961 0 z "
   id="path4" />
	
</g>
<g
   id="g34">
	<path
   fill="#F2F2F2"
   d="M268.5,348.8c4.3-0.7,9.8-1.1,15.7-1.1c10.1,0,17,2.1,22,6.2c5.2,4.2,8.4,10.6,8.4,19.8   c0,9.6-3.3,16.8-8.4,21.4c-5.4,4.9-13.9,7.4-24.4,7.4c-5.8,0-10.1-0.3-13.3-0.7V348.8z M278.4,394.5c1.4,0.2,3.4,0.2,5.4,0.2   c12.8,0.1,20.4-7,20.4-20.6c0.1-11.9-6.8-18.7-19.1-18.7c-3.1,0-5.4,0.2-6.7,0.6L278.4,394.5L278.4,394.5z"
   id="path10" />
	<path
   fill="#F2F2F2"
   d="M333.5,352.2c0,3-2.2,5.3-5.6,5.3c-3.3,0-5.4-2.3-5.4-5.3c0-3,2.2-5.4,5.5-5.4S333.4,349.2,333.5,352.2z    M323,402v-39h9.9v39H323z"
   id="path12" />
	<path
   fill="#F2F2F2"
   d="M343,393c2.2,1.4,6.5,2.8,10,2.8c4.3,0,6.2-1.8,6.2-4.3c0-2.6-1.6-4-6.4-5.7c-7.6-2.6-10.8-6.8-10.7-11.4   c0-6.9,5.7-12.2,14.7-12.2c4.3,0,8.1,1.1,10.3,2.3l-1.9,7c-1.7-1-4.8-2.2-8.2-2.2c-3.5,0-5.4,1.7-5.4,4.1c0,2.5,1.8,3.7,6.8,5.4   c7,2.6,10.3,6.2,10.4,11.9c0,7-5.5,12.2-15.8,12.2c-4.7,0-9-1.1-11.8-2.7L343,393z"
   id="path14" />
	<path
   fill="#F2F2F2"
   d="M405.5,400.8c-2.1,1-6.2,2-11,2c-12.2,0-20.1-7.8-20.1-19.8c0-11.7,8-20.8,21.7-20.8c3.6,0,7.3,0.8,9.5,1.8   l-1.8,7.4c-1.6-0.7-3.9-1.5-7.4-1.5c-7.5,0-12,5.5-11.9,12.6c0,8,5.2,12.6,11.9,12.6c3.4,0,5.8-0.7,7.8-1.5L405.5,400.8z"
   id="path16" />
	<path
   fill="#F2F2F2"
   d="M449.1,382.2c0,14.3-10.1,20.7-20,20.7c-11,0-19.5-7.6-19.5-20.1c0-12.8,8.4-20.6,20.2-20.6   C441.3,362.2,449.1,370.4,449.1,382.2z M419.7,382.6c0,7.5,3.7,13.2,9.7,13.2c5.6,0,9.5-5.5,9.5-13.4c0-6.1-2.7-13-9.4-13   C422.5,369.4,419.7,376.1,419.7,382.6z"
   id="path18" />
	<path
   fill="#F2F2F2"
   d="M457.2,374.7c0-4.5-0.1-8.2-0.3-11.6h8.6l0.5,5.8h0.2c1.7-3,5.9-6.7,12.4-6.7c6.8,0,13.8,4.4,13.8,16.7V402   h-9.8v-22c0-5.6-2.1-9.8-7.4-9.8c-3.9,0-6.6,2.8-7.7,5.8c-0.3,0.9-0.4,2.1-0.4,3.2v22.9h-9.9L457.2,374.7L457.2,374.7z"
   id="path20" />
	<path
   fill="#F2F2F2"
   d="M502.9,374.7c0-4.5-0.1-8.2-0.3-11.6h8.6l0.5,5.8h0.2c1.7-3,5.9-6.7,12.4-6.7c6.8,0,13.8,4.4,13.8,16.7V402   h-9.8v-22c0-5.6-2.1-9.8-7.4-9.8c-3.9,0-6.6,2.8-7.7,5.8c-0.3,0.9-0.4,2.1-0.4,3.2v22.9h-9.9L502.9,374.7L502.9,374.7z"
   id="path22" />
	<path
   fill="#F2F2F2"
   d="M555.6,385.3c0.2,7,5.8,10.1,12,10.1c4.6,0,7.8-0.6,10.8-1.8l1.4,6.8c-3.4,1.4-8,2.4-13.6,2.4   c-12.6,0-20.1-7.8-20.1-19.7c0-10.8,6.6-21,19-21c12.6,0,16.8,10.4,16.8,19c0,1.8-0.2,3.3-0.3,4.2H555.6z M572.8,378.4   c0.1-3.6-1.5-9.5-8.1-9.5c-6.1,0-8.6,5.5-9,9.5H572.8z"
   id="path24" />
	<path
   fill="#F2F2F2"
   d="M618.6,400.8c-2.1,1-6.2,2-11,2c-12.2,0-20.1-7.8-20.1-19.8c0-11.7,8-20.8,21.7-20.8c3.6,0,7.3,0.8,9.5,1.8   l-1.8,7.4c-1.6-0.7-3.9-1.5-7.4-1.5c-7.5,0-12,5.5-11.9,12.6c0,8,5.2,12.6,11.9,12.6c3.4,0,5.8-0.7,7.8-1.5L618.6,400.8z"
   id="path26" />
	<path
   fill="#F2F2F2"
   d="M638.4,352v11.1h9.4v7.4h-9.4v17.2c0,4.7,1.3,7.2,5,7.2c1.7,0,3-0.2,3.8-0.5l0.2,7.5c-1.4,0.6-4,1-7.1,1   c-3.6,0-6.6-1.2-8.5-3.2c-2.1-2.2-3-5.8-3-10.9v-18.3h-5.6v-7.4h5.6v-8.8L638.4,352z"
   id="path28" />
	<path
   fill="#F2F2F2"
   d="M661.6,385.3c0.2,7,5.8,10.1,12,10.1c4.6,0,7.8-0.6,10.8-1.8l1.4,6.8c-3.4,1.4-8,2.4-13.6,2.4   c-12.6,0-20.1-7.8-20.1-19.7c0-10.8,6.6-21,19-21c12.6,0,16.8,10.4,16.8,19c0,1.8-0.2,3.3-0.3,4.2H661.6z M678.8,378.4   c0.1-3.6-1.5-9.5-8.1-9.5c-6.1,0-8.6,5.5-9,9.5H678.8z"
   id="path30" />
	<path
   fill="#F2F2F2"
   d="M731.9,345.2v45.9c0,4,0.2,8.3,0.3,11h-8.8l-0.4-6.2h-0.2c-2.3,4.3-7,7-12.7,7c-9.3,0-16.6-7.9-16.6-19.9   c-0.1-13,8.1-20.8,17.4-20.8c5.4,0,9.2,2.2,11,5.1h0.2v-22.1H731.9z M722,379.3c0-0.8-0.1-1.8-0.2-2.6c-0.9-3.8-4-7-8.5-7   c-6.3,0-9.8,5.6-9.8,12.9c0,7.1,3.5,12.3,9.8,12.3c4,0,7.5-2.7,8.5-7c0.2-0.9,0.3-1.8,0.3-2.9L722,379.3L722,379.3z"
   id="path32" />
</g>
</svg>
