<?xml version="1.0" encoding="UTF-8" standalone="no"?>
<svg
   xmlns:dc="http://purl.org/dc/elements/1.1/"
   xmlns:cc="http://creativecommons.org/ns#"
   xmlns:rdf="http://www.w3.org/1999/02/22-rdf-syntax-ns#"
   xmlns:svg="http://www.w3.org/2000/svg"
   xmlns="http://www.w3.org/2000/svg"
   xmlns:sodipodi="http://sodipodi.sourceforge.net/DTD/sodipodi-0.dtd"
   xmlns:inkscape="http://www.inkscape.org/namespaces/inkscape"
   inkscape:version="1.0 (4035a4fb49, 2020-05-01)"
   sodipodi:docname="triggers.svg"
   xml:space="preserve"
   enable-background="new -205 351.2 199.9 90.8"
   viewBox="-205 351.2 199.9 90.8"
   height="90.8px"
   width="199.9px"
   y="0px"
   x="0px"
   id="Layer_1"
   version="1.1"><metadata
   id="metadata39"><rdf:RDF><cc:Work
       rdf:about=""><dc:format>image/svg+xml</dc:format><dc:type
         rdf:resource="http://purl.org/dc/dcmitype/StillImage" /><dc:title /></cc:Work></rdf:RDF></metadata><defs
   id="defs37" /><sodipodi:namedview
   inkscape:current-layer="Layer_1"
   inkscape:window-maximized="1"
   inkscape:window-y="-8"
   inkscape:window-x="-8"
   inkscape:cy="-85.258344"
   inkscape:cx="224.70473"
   inkscape:zoom="1.887151"
   showgrid="false"
   id="namedview35"
   inkscape:window-height="1017"
   inkscape:window-width="1920"
   inkscape:pageshadow="2"
   inkscape:pageopacity="0"
   guidetolerance="10"
   gridtolerance="10"
   objecttolerance="10"
   borderopacity="1"
   bordercolor="#666666"
   pagecolor="#ffffff"
   inkscape:document-rotation="0" />
<g
   id="g16">
	<g
   id="g6">
		<path
   style="fill:#ffffff"
   id="path2"
   d="M-5.1,442c0,0-32.7-3.2-50.6-3.2s-48.4,2.4-48.4,2.4s3.1-44.7,4.8-52s7.7-21.3,16.9-27.9    s12-10.1,22.8-10.1c10.8,0,25.4,6.4,34.6,21.4S-5.1,442-5.1,442z"
   fill="#EDEDED" />
		<path
   style="fill:#f9f9f9"
   id="path4"
   d="M-103.6,434.4c0,0,26.1-4.4,49-4.4c22.8,0,47.9,4.4,47.9,4.4c1,4.7,1.6,7.6,1.6,7.6s-32.7-3.2-50.6-3.2    s-48.4,2.4-48.4,2.4S-103.9,438.5-103.6,434.4z"
   fill="#F5F5F5" />
	</g>
	<g
   id="g14"
   opacity="8.000000e-002">
		<g
   id="g10">
			
		</g>
		
	</g>
</g>
<g
   id="g32">
	<g
   id="g22">
		<path
   style="fill:#ffffff"
   id="path18"
   d="M-205,442c0,0,32.7-3.2,50.6-3.2s48.3,2.4,48.3,2.4s-3.1-44.7-4.8-52s-7.7-21.3-16.9-27.9    s-11.9-10.1-22.7-10.1s-25.4,6.4-34.6,21.4C-194.3,387.6-205,442-205,442z"
   fill="#EDEDED" />
		<path
   style="fill:#f9f9f9"
   id="path20"
   d="M-106.6,434.4c0,0-26.1-4.4-49-4.4c-22.8,0-47.9,4.4-47.9,4.4c-1,4.7-1.6,7.6-1.6,7.6s32.7-3.2,50.6-3.2    s48.4,2.4,48.4,2.4S-106.2,438.5-106.6,434.4z"
   fill="#F5F5F5" />
	</g>
	<g
   id="g30"
   opacity="8.000000e-002">
		<g
   id="g26">
			
		</g>
		
	</g>
</g>
<path
   d="m -53.600003,416.9 c -2.1,1.7 -3.2,2.6 -3.2,2.6 -1.2,1.2 -1.9,2.7 -2,4.5 h 9.8 v -2.6 h -6.2 c 0.3,-0.5 1,-1.2 2.1,-1.9 1.4,-0.9 2.3,-1.6 2.7,-2.1 0.9,-1 1.3,-2.1 1.3,-3.3 0,-1.4 -0.5,-2.5 -1.4,-3.3 -0.9,-0.8 -2.1,-1.2 -3.5,-1.2 -3.1,0 -4.7,1.7 -4.7,5 h 2.7 c 0,-1.8 0.7,-2.7 2.1,-2.7 1.3,0 2,0.7 2,2.1 0.1,1.1 -0.5,2 -1.7,2.9 z"
   id="path8-9"
   style="fill:#f9f9f9" /><path
   d="m -71.1,418.4 h 2.999997 c 1.5,0 2.3,0.6 2.4,1.9 0.1,1.2 0.2,2.5 0.3,3.8 h 3.3 v -0.4 c -0.5,-0.2 -0.7,-0.7 -0.7,-1.5 0,-0.2 0,-0.4 0.1,-0.8 v -0.7 c 0,-1.7 -0.6,-2.9 -1.8,-3.5 1.4,-0.5 2.2,-1.6 2.2,-3.4 0,-1.3 -0.4,-2.3 -1.3,-3 -0.8,-0.7 -1.9,-1 -3.2,-1 H -74.1 v 14.3 h 3 z m 0,-6.2 h 3.699997 c 1.4,0 2.1,0.6 2.1,1.9 0,1.3 -0.8,1.9 -2.3,1.9 H -71.1 Z"
   id="path12-7"
   style="fill:#f9f9f9" /><path
   d="m -140.5,416.9 c -2.1,1.7 -3.2,2.6 -3.2,2.6 -1.2,1.2 -1.9,2.7 -2,4.5 h 9.7 v -2.6 h -6.2 c 0.3,-0.5 1,-1.2 2.1,-1.9 1.4,-0.9 2.3,-1.6 2.7,-2.1 0.9,-1 1.3,-2.1 1.3,-3.3 0,-1.4 -0.5,-2.5 -1.4,-3.3 -0.9,-0.8 -2.1,-1.2 -3.5,-1.2 -3.1,0 -4.7,1.7 -4.7,5 h 2.7 c 0,-1.8 0.7,-2.7 2.1,-2.7 1.3,0 2,0.7 2,2.1 0.1,1.1 -0.4,2 -1.6,2.9 z"
   id="path24-3"
   style="fill:#f9f9f9" /><polygon
   points="-149,424 -149,421.4 -156.1,421.4 -156.1,409.7 -159.1,409.7 -159.1,424 "
   id="polygon28-4"
   style="fill:#f9f9f9" /></svg>
