<?xml version="1.0" encoding="UTF-8" standalone="no"?>
<svg
   xmlns:dc="http://purl.org/dc/elements/1.1/"
   xmlns:cc="http://creativecommons.org/ns#"
   xmlns:rdf="http://www.w3.org/1999/02/22-rdf-syntax-ns#"
   xmlns:svg="http://www.w3.org/2000/svg"
   xmlns="http://www.w3.org/2000/svg"
   xmlns:sodipodi="http://sodipodi.sourceforge.net/DTD/sodipodi-0.dtd"
   xmlns:inkscape="http://www.inkscape.org/namespaces/inkscape"
   inkscape:version="1.0 (4035a4fb49, 2020-05-01)"
   sodipodi:docname="bumper.svg"
   xml:space="preserve"
   enable-background="new 0 0 171.154 62.864"
   viewBox="0 0 166.6329 48.60756"
   height="48.607559"
   width="166.6329"
   y="0px"
   x="0px"
   id="Layer_1"
   version="1.1"><metadata
   id="metadata50"><rdf:RDF><cc:Work
       rdf:about=""><dc:format>image/svg+xml</dc:format><dc:type
         rdf:resource="http://purl.org/dc/dcmitype/StillImage" /><dc:title></dc:title></cc:Work></rdf:RDF></metadata><defs
   id="defs48" /><sodipodi:namedview
   inkscape:current-layer="Layer_1"
   inkscape:window-maximized="1"
   inkscape:window-y="-8"
   inkscape:window-x="-8"
   inkscape:cy="97.628026"
   inkscape:cx="386.21851"
   inkscape:zoom="0.70710678"
   showgrid="false"
   id="namedview46"
   inkscape:window-height="1017"
   inkscape:window-width="1920"
   inkscape:pageshadow="2"
   inkscape:pageopacity="0"
   guidetolerance="10"
   gridtolerance="10"
   objecttolerance="10"
   borderopacity="1"
   bordercolor="#666666"
   pagecolor="#ffffff" />

<g
   transform="translate(0.974,71.805258)"
   id="g15">
</g>
<g
   transform="translate(0.974,71.805258)"
   id="g17">
</g>
<g
   transform="translate(0.974,71.805258)"
   id="g19">
</g>
<g
   transform="translate(0.974,71.805258)"
   id="g21">
</g>
<g
   transform="translate(0.974,71.805258)"
   id="g23">
</g>
<g
   transform="translate(0.974,71.805258)"
   id="g25">
</g>
<g
   transform="translate(0.974,71.805258)"
   id="g27">
</g>
<g
   transform="translate(0.974,71.805258)"
   id="g29">
</g>
<g
   transform="translate(0.974,71.805258)"
   id="g31">
</g>
<g
   transform="translate(0.974,71.805258)"
   id="g33">
</g>
<g
   transform="translate(0.974,71.805258)"
   id="g35">
</g>
<g
   transform="translate(0.974,71.805258)"
   id="g37">
</g>
<g
   transform="translate(0.974,71.805258)"
   id="g39">
</g>
<g
   transform="translate(0.974,71.805258)"
   id="g41">
</g>
<g
   transform="translate(0.974,71.805258)"
   id="g43">
</g>
<g
   transform="translate(-1242.4336,115.49428)"
   id="g1382"><path
     id="path2956-1"
     style="opacity:1;fill:#e5e5e5;fill-opacity:1;stroke:none;stroke-width:1.00146px;stroke-linecap:butt;stroke-linejoin:miter;stroke-opacity:1"
     d="m 1360.9961,-112.93422 c -31.8916,-0.38692 -114.4976,37.087819 -115.1895,37.381486 -1.8935,2.835233 -2.6656,5.737001 -3.373,8.666015 37.3854,-17.34978 74.9193,-27.641718 112.1562,-32.136719 12.731,-0.035 24.4678,15.738604 44.2227,15.371094 h 10.2305 v -6.939453 c -1.4831,-1.868399 -4.8011,-1.2493 -6.035,-1.45145 -7.7431,-2.03658 -14.4162,-6.209978 -22.8191,-13.251873 -5.072,-4.25031 -11.6799,-7.6321 -19.1928,-7.6391 z"
     sodipodi:nodetypes="ccccccccsc" /><path
     id="path2960-2-3"
     d="m 1409.0659,-90.543064 v -6.64062 c -0.9077,-0.082 -1.8294,-0.22581 -2.7675,-0.42578 l -2.0723,-0.480473 c -12.4276,-3.599723 -27.0672,-15.603923 -34.9257,-16.642573 -3.966,-0.52791 -8.0314,-0.76652 -12.1602,-0.75977 v -0.002 c -39.9115,0.0652 -85.6236,23.188606 -102.2128,32.187496 -0.2744,0.16426 -0.5588,0.31361 -0.8301,0.46485 -0.083,0.0541 -0.1568,0.10997 -0.25,0.16406 -0.1832,0.0831 -0.3489,0.19155 -0.5313,0.30273 -0.084,0.0651 -0.1848,0.11883 -0.291,0.16992 -0.1421,0.10115 -0.2979,0.20173 -0.4531,0.29688 -0.084,0.0461 -0.184,0.11253 -0.2891,0.18164 -0.1312,0.0992 -0.2717,0.18745 -0.4179,0.26758 -0.082,0.0681 -0.1704,0.13792 -0.2696,0.20703 -0.1341,0.0871 -0.2602,0.17232 -0.3984,0.27148 -0.091,0.0681 -0.1639,0.13638 -0.252,0.18946 -0.1372,0.0871 -0.2568,0.18885 -0.3769,0.29101 -0.088,0.0611 -0.1731,0.10577 -0.2442,0.17188 -0.1191,0.10316 -0.2492,0.20698 -0.3613,0.28711 -0.067,0.0591 -0.1494,0.12726 -0.2285,0.19336 -0.1162,0.10517 -0.2235,0.18294 -0.3477,0.28711 -0.072,0.0641 -0.1342,0.12635 -0.1933,0.18945 -0.1181,0.0811 -0.2388,0.18865 -0.3399,0.29883 -0.056,0.0611 -0.1224,0.10922 -0.1875,0.15429 -0.1201,0.11218 -0.2159,0.22897 -0.3281,0.32813 -0.057,0.0421 -0.1129,0.0973 -0.166,0.1543 -0.095,0.11919 -0.2082,0.22096 -0.3223,0.32812 -0.045,0.0521 -0.087,0.10418 -0.125,0.15625 -0.1132,0.10717 -0.2279,0.22146 -0.3261,0.34766 -0.031,0.0451 -0.068,0.088 -0.1075,0.12109 -0.1182,0.1212 -0.2263,0.2559 -0.3164,0.37109 -0.032,0.0291 -0.065,0.0675 -0.096,0.10547 -0.1182,0.14423 -0.2182,0.26514 -0.3144,0.40235 -0.022,0.0291 -0.045,0.0589 -0.068,0.0879 -0.1191,0.13822 -0.2151,0.28612 -0.3203,0.44336 -0.012,0.016 -0.022,0.029 -0.035,0.041 -0.1241,0.15224 -0.2275,0.32743 -0.3339,0.47266 5e-4,0.002 0,0.004 0,0.006 0,-0.004 -5e-4,-0.008 0.01,-0.0117 0.6186,-0.26223 83.2973,-35.732796 115.2032,-35.345696 7.5129,0.007 12.9866,3.04851 18.0586,7.29882 8.4029,7.041896 15.9832,10.506386 23.7264,12.542966 1.2339,0.20215 3.4884,0.37254 6.2617,0.52539 z"
     style="opacity:1;fill:#f2f2f2;fill-opacity:1;stroke:none;stroke-width:1.00146px;stroke-linecap:butt;stroke-linejoin:miter;stroke-opacity:1" /></g></svg>
