<?xml version="1.0" encoding="UTF-8" standalone="no"?>
<svg
   xmlns:dc="http://purl.org/dc/elements/1.1/"
   xmlns:cc="http://creativecommons.org/ns#"
   xmlns:rdf="http://www.w3.org/1999/02/22-rdf-syntax-ns#"
   xmlns:svg="http://www.w3.org/2000/svg"
   xmlns="http://www.w3.org/2000/svg"
   xmlns:sodipodi="http://sodipodi.sourceforge.net/DTD/sodipodi-0.dtd"
   xmlns:inkscape="http://www.inkscape.org/namespaces/inkscape"
   version="1.1"
   id="Layer_1"
   x="0px"
   y="0px"
   width="168.77px"
   height="83.384px"
   viewBox="0 0 168.77 83.384"
   enable-background="new 0 0 168.77 83.384"
   xml:space="preserve"
   sodipodi:docname="stick.svg"
   inkscape:version="1.0 (4035a4fb49, 2020-05-01)"><metadata
   id="metadata80"><rdf:RDF><cc:Work
       rdf:about=""><dc:format>image/svg+xml</dc:format><dc:type
         rdf:resource="http://purl.org/dc/dcmitype/StillImage" /><dc:title /></cc:Work></rdf:RDF></metadata><defs
   id="defs78">
	
	
	
	

		
		
	
		
		
	
		
	
		
	
	
	
	
	

		
		
	
		
	
		
	
		
		
	</defs><sodipodi:namedview
   inkscape:document-rotation="0"
   pagecolor="#ffffff"
   bordercolor="#666666"
   borderopacity="1"
   objecttolerance="10"
   gridtolerance="10"
   guidetolerance="10"
   inkscape:pageopacity="0"
   inkscape:pageshadow="2"
   inkscape:window-width="1920"
   inkscape:window-height="1017"
   id="namedview76"
   showgrid="false"
   inkscape:zoom="0.098784586"
   inkscape:cx="4330.1492"
   inkscape:cy="-1321.0981"
   inkscape:window-x="-8"
   inkscape:window-y="-8"
   inkscape:window-maximized="1"
   inkscape:current-layer="Layer_1" />
<path
   style="fill:#11be9e;fill-opacity:1;stroke-width:1.43305"
   fill="#212121"
   d="m 41.67835,82.02678 c -22.223719,0 -40.3030615,-18.082209 -40.3030615,-40.308794 0,-22.220854 18.0793425,-40.2987647 40.3030615,-40.2987647 22.226586,0 40.307361,18.0779107 40.307361,40.2987647 0,22.225152 -18.080775,40.308794 -40.307361,40.308794 z"
   id="path1266" /><path
   style="fill:#9f013f;fill-opacity:1"
   fill="#1a1a1a"
   d="m 168.77,41.703 c 0,23.02 -18.664,41.681 -41.7,41.681 -23.023,0 -41.685,-18.661 -41.685,-41.681 C 85.385,18.663 104.047,0 127.07,0 c 23.035,0 41.7,18.663 41.7,41.703 z"
   id="path2" /><path
   style="fill:#f30057;fill-opacity:1"
   fill="#262626"
   d="m 127.07,2 c 21.891,0 39.7,17.811 39.7,39.703 0,21.88 -17.809,39.681 -39.7,39.681 -21.882,0 -39.685,-17.801 -39.685,-39.681 C 87.385,19.811 105.188,2 127.07,2 m 0,-2 c -23.023,0 -41.685,18.663 -41.685,41.703 0,23.02 18.662,41.681 41.685,41.681 23.036,0 41.7,-18.661 41.7,-41.681 C 168.77,18.663 150.105,0 127.07,0 Z"
   id="path8" /><path
   id="path1242"
   d="m 127.06936,81.799395 c -22.10688,0 -40.09118,-17.987148 -40.09118,-40.096884 0,-22.104035 17.9843,-40.0869059 40.09118,-40.0869059 22.10974,0 40.09546,17.9828709 40.09546,40.0869059 0,22.108311 -17.98572,40.096884 -40.09546,40.096884 z"
   fill="#212121"
   style="fill:#f30057;fill-opacity:1;stroke-width:1.42551" /><path
   style="fill:#9f013f;fill-opacity:1"
   fill="#1a1a1a"
   d="m 127.07,16.582 c 13.855,0 25.127,11.269 25.127,25.121 0,13.856 -11.272,25.128 -25.127,25.128 -13.854,0 -25.124,-11.272 -25.124,-25.128 0,-13.852 11.27,-25.121 25.124,-25.121 m 0,-6 c -17.195,0 -31.124,13.927 -31.124,31.121 0,17.191 13.929,31.128 31.124,31.128 17.198,0 31.127,-13.937 31.127,-31.128 0,-17.194 -13.929,-31.121 -31.127,-31.121 z"
   id="path18" />

<g
   id="g45">
</g>
<g
   id="g47">
</g>
<g
   id="g49">
</g>
<g
   id="g51">
</g>
<g
   id="g53">
</g>
<g
   id="g55">
</g>
<g
   id="g57">
</g>
<g
   id="g59">
</g>
<g
   id="g61">
</g>
<g
   id="g63">
</g>
<g
   id="g65">
</g>
<g
   id="g67">
</g>
<g
   id="g69">
</g>
<g
   id="g71">
</g>
<g
   id="g73">
</g>
<path
   style="fill:#f30057;fill-opacity:1"
   fill="#212121"
   d="m 127.07,69.832 c -15.508,0 -28.124,-12.618 -28.124,-28.128 0,-15.506 12.616,-28.121 28.124,-28.121 15.51,0 28.127,12.615 28.127,28.121 0,15.509 -12.617,28.128 -28.127,28.128 z"
   id="path16" /><path
   id="path1246"
   d="m 41.679,2.0155 c 21.891,0 39.7,17.811 39.7,39.703001 0,21.88 -17.809,39.681 -39.7,39.681 -21.882,0 -39.6850002,-17.801 -39.6850002,-39.681 C 1.9939998,19.8265 19.797,2.0155 41.679,2.0155 m 0,-2 c -23.023,0 -41.6850002,18.663 -41.6850002,41.703001 0,23.02 18.6620002,41.681 41.6850002,41.681 23.036,0 41.7,-18.661 41.7,-41.681 C 83.379,18.6785 64.714,0.0155 41.679,0.0155 Z"
   fill="#262626"
   style="fill:#11be9e;fill-opacity:1;stroke:none;stroke-opacity:1" /><path
   id="path1250"
   d="m 41.679,16.5975 c 13.855,0 25.127,11.269001 25.127,25.121001 0,13.856 -11.272,25.128 -25.127,25.128 -13.854,0 -25.124,-11.272 -25.124,-25.128 0,-13.852 11.27,-25.121001 25.124,-25.121001 m 0,-6 c -17.195,0 -31.124,13.927001 -31.124,31.121001 0,17.191 13.929,31.128 31.124,31.128 17.198,0 31.127,-13.937 31.127,-31.128 0,-17.194 -13.929,-31.121001 -31.127,-31.121001 z"
   fill="#1a1a1a"
   style="fill:#1e8370;fill-opacity:1" /><path
   id="path1252"
   d="m 41.679,69.847501 c -15.508,0 -28.124,-12.618 -28.124,-28.128 0,-15.506 12.616,-28.121001 28.124,-28.121001 15.51,0 28.127,12.615001 28.127,28.121001 0,15.509 -12.617,28.128 -28.127,28.128 z"
   fill="#212121"
   style="fill:#11be9e;fill-opacity:1" /></svg>
