<?xml version="1.0" encoding="UTF-8" standalone="no"?>
<svg
   version="1.1"
   id="Layer_1"
   x="0px"
   y="0px"
   width="195.574px"
   height="96.744px"
   viewBox="0 0 195.574 96.744"
   enable-background="new 0 0 195.574 96.744"
   xml:space="preserve"
   sodipodi:docname="abxy.svg"
   inkscape:version="1.1 (c68e22c387, 2021-05-23)"
   xmlns:inkscape="http://www.inkscape.org/namespaces/inkscape"
   xmlns:sodipodi="http://sodipodi.sourceforge.net/DTD/sodipodi-0.dtd"
   xmlns="http://www.w3.org/2000/svg"
   xmlns:svg="http://www.w3.org/2000/svg"
   xmlns:rdf="http://www.w3.org/1999/02/22-rdf-syntax-ns#"
   xmlns:cc="http://creativecommons.org/ns#"
   xmlns:dc="http://purl.org/dc/elements/1.1/"><metadata
   id="metadata113"><rdf:RDF><cc:Work
       rdf:about=""><dc:format>image/svg+xml</dc:format><dc:type
         rdf:resource="http://purl.org/dc/dcmitype/StillImage" /><dc:title /></cc:Work></rdf:RDF></metadata><defs
   id="defs111">
	
	
	
	

		
		
	
		
		
	
		
		
	
		
		
	
			
		
			
		
			
		
			
		
			
		
			
		
			
		
			
		</defs><sodipodi:namedview
   inkscape:document-rotation="0"
   pagecolor="#ffffff"
   bordercolor="#666666"
   borderopacity="1"
   objecttolerance="10"
   gridtolerance="10"
   guidetolerance="10"
   inkscape:pageopacity="0"
   inkscape:pageshadow="2"
   inkscape:window-width="1920"
   inkscape:window-height="1017"
   id="namedview109"
   showgrid="false"
   inkscape:zoom="1.9288937"
   inkscape:cx="243.9222"
   inkscape:cy="-21.514923"
   inkscape:window-x="-8"
   inkscape:window-y="-8"
   inkscape:window-maximized="1"
   inkscape:current-layer="Layer_1"
   inkscape:pagecheckerboard="0" />


<g
   id="g78">
</g>
<g
   id="g80">
</g>
<g
   id="g82">
</g>
<g
   id="g84">
</g>
<g
   id="g86">
</g>
<g
   id="g88">
</g>
<g
   id="g90">
</g>
<g
   id="g92">
</g>
<g
   id="g94">
</g>
<g
   id="g96">
</g>
<g
   id="g98">
</g>
<g
   id="g100">
</g>
<g
   id="g102">
</g>
<g
   id="g104">
</g>
<g
   id="g106">
</g>
<path
   fill="#141414"
   d="m 23.687979,-4.5350323e-5 c 13.099994,0 23.705009,10.605997350323 23.705009,23.681990350323 0,13.077015 -10.605015,23.681991 -23.705009,23.681991 C 10.605976,47.363936 -2.0780188e-5,36.75896 -2.0780188e-5,23.681945 -2.0780188e-5,10.605952 10.605976,-4.5350323e-5 23.687979,-4.5350323e-5 Z"
   id="path2-7"
   style="fill:#ff1652;fill-opacity:1;stroke-width:0.999999" /><path
   fill="#ffffff"
   d="m 23.688017,49.376006 c 13.099994,0 23.704971,10.605997 23.704971,23.68199 0,13.077015 -10.604977,23.681991 -23.704971,23.681991 C 10.606014,96.739987 1.7015088e-5,86.135011 1.7015088e-5,73.057996 1.7015088e-5,59.982003 10.606014,49.376006 23.688017,49.376006 Z"
   id="path40-7"
   style="fill:#ffffff;stroke-width:0.999999" /><path
   fill="#ffffff"
   d="m 73.083986,49.374002 c 13.097008,0 23.703005,10.610004 23.703005,23.68698 0,13.077015 -10.605997,23.682029 -23.703005,23.682029 -13.084989,0 -23.690003,-10.605997 -23.690003,-23.683011 0,-13.077015 10.605014,-23.685998 23.690003,-23.685998 z"
   id="path49-4"
   style="fill:#ffffff;stroke-width:0.999999" /><path
   fill="#ffffff"
   d="m 171.86901,49.371999 c 13.09999,0 23.70501,10.61401 23.70501,23.690004 0,13.076976 -10.60502,23.68199 -23.70501,23.68199 -13.08201,0 -23.688,-10.605014 -23.688,-23.68199 0,-13.075994 10.60599,-23.690004 23.688,-23.690004 z"
   id="path58-2"
   style="fill:#ffffff;stroke-width:0.999999" /><path
   fill="#ffffff"
   d="m 122.47002,49.374002 c 13.10498,0 23.71097,10.610004 23.71097,23.68698 0,13.077015 -10.60501,23.683011 -23.71097,23.683011 -13.07604,0 -23.683016,-10.605996 -23.683016,-23.683011 0,-13.076976 10.606976,-23.68698 23.683016,-23.68698 z"
   id="path67-3"
   style="fill:#ffffff;stroke-width:0.999999" /><path
   d="m 18.498612,36.848572 c 0,0 5.208341,-21.499994 5.208341,-21.499994 0,0 3.375004,14.249991 3.375004,14.249991 0,0 -4.687521,0 -4.687521,0 0,0 -1.541669,7.250003 -1.541669,7.250003 0,0 15.541682,0 15.541682,0 0,0 -7.270829,-29.8333606 -7.270829,-29.8333606 0,0 -10.875023,0 -10.875023,0 0,0 -7.250003,29.8333606 -7.250003,29.8333606 0,0 7.500018,0 7.500018,0 z"
   id="path1250"
   style="font-weight:bold;font-size:11.2889px;line-height:1.25;font-family:'RC Font';-inkscape-font-specification:'RC Font Bold';letter-spacing:0px;word-spacing:0px;fill:#ffffff;stroke-width:0.999999" /><path
   fill="#141414"
   d="m 23.687979,-4.5350323e-5 c 13.099994,0 23.705009,10.605997350323 23.705009,23.681990350323 0,13.077015 -10.605015,23.681991 -23.705009,23.681991 C 10.605976,47.363936 -2.0780188e-5,36.75896 -2.0780188e-5,23.681945 -2.0780188e-5,10.605952 10.605976,-4.5350323e-5 23.687979,-4.5350323e-5 Z"
   id="path34149"
   style="fill:#ff1652;fill-opacity:1;stroke-width:0.999999" /><path
   d="m 18.498612,36.848572 c 0,0 5.208341,-21.499994 5.208341,-21.499994 0,0 3.375004,14.249991 3.375004,14.249991 0,0 -4.687521,0 -4.687521,0 0,0 -1.541669,7.250003 -1.541669,7.250003 0,0 15.541682,0 15.541682,0 0,0 -7.270829,-29.8333606 -7.270829,-29.8333606 0,0 -10.875023,0 -10.875023,0 0,0 -7.250003,29.8333606 -7.250003,29.8333606 0,0 7.500018,0 7.500018,0 z"
   id="path1253"
   style="font-weight:bold;font-size:11.2889px;line-height:1.25;font-family:'RC Font';-inkscape-font-specification:'RC Font Bold';letter-spacing:0px;word-spacing:0px;fill:#ffffff;stroke-width:0.999999" /><path
   fill="#141414"
   d="M 73.084024,-7.5550474e-6 C 86.181032,-7.5550474e-6 96.787029,10.609996 96.787029,23.68701 c 0,13.076977 -10.605997,23.681991 -23.703005,23.681991 -13.084989,0 -23.690003,-10.605997 -23.690003,-23.683011 0,-13.077015 10.605014,-23.6859975550474 23.690003,-23.6859975550474 z"
   id="path11-3"
   style="fill:#ff1652;fill-opacity:1;stroke-width:0.999999" /><path
   d="m 70.507104,38.601102 c 0,0 0,-22.520883 0,-22.520883 0,0 4.520845,0 4.520845,0 0,0 0,0 0,0 0.520818,0 0.979162,0.187465 1.354166,0.562507 0.37493,0.37493 0.562508,0.833349 0.562508,1.354167 0,0 0,0 0,0 0,0.604158 -0.187465,1.083326 -0.541682,1.395856 -0.354142,0.312566 -0.812485,0.479168 -1.374992,0.479168 0,0 -3.062514,0 -3.062514,0 0,0 0,6.145814 0,6.145814 0,0 6.312529,0 6.312529,0 0,0 0,0 0,0 0.729147,0 1.354167,0.249827 1.874986,0.770835 0.520857,0.520857 0.770835,1.145839 0.770835,1.875024 0,0 0,0 0,0 0,0.749971 -0.249827,1.374992 -0.770835,1.874985 -0.520819,0.520857 -1.145839,0.770835 -1.874986,0.770835 0,0 -6.312529,0 -6.312529,0 0,0 0,7.291692 0,7.291692 0,0 5.791673,0 5.791673,0 0,0 0,0 0,0 1.437505,0 2.729197,-0.208252 3.916686,-0.645846 1.18749,-0.416655 2.145827,-0.958337 2.916662,-1.645833 0.750009,-0.666671 1.395855,-1.437506 1.916674,-2.291679 0.520819,-0.854173 0.895823,-1.708346 1.125014,-2.562482 0.229039,-0.854173 0.333354,-1.687521 0.333354,-2.500006 0,0 0,0 0,0 0,-1.833336 -0.479168,-3.479169 -1.41668,-4.958363 -0.937474,-1.45833 -2.187477,-2.458318 -3.749972,-3.020825 0,0 0,0 0,0 0.854136,-1.312516 1.270829,-2.64582 1.270829,-3.999987 0,0 0,0 0,0 0,-1.562532 -0.499994,-2.979175 -1.500019,-4.250003 C 81.548843,11.455211 80.277977,10.476049 78.715482,9.7885532 77.152988,9.1010571 75.52798,8.7677406 73.840497,8.7677406 c 0,0 -10.625008,0 -10.625008,0 0,0 0,29.8333614 0,29.8333614 0,0 7.291653,0 7.291653,0 z"
   id="path1271"
   style="font-weight:bold;font-size:11.2889px;line-height:1.25;font-family:'RC Font';-inkscape-font-specification:'RC Font Bold';letter-spacing:0px;word-spacing:0px;fill:#ffffff;stroke-width:0.999999" /><path
   fill="#141414"
   d="M 73.084024,-7.5550474e-6 C 86.181032,-7.5550474e-6 96.787029,10.609996 96.787029,23.68701 c 0,13.076977 -10.605997,23.681991 -23.703005,23.681991 -13.084989,0 -23.690003,-10.605997 -23.690003,-23.683011 0,-13.077015 10.605014,-23.6859975550474 23.690003,-23.6859975550474 z"
   id="path34153"
   style="fill:#ff1652;fill-opacity:1;stroke-width:0.999999" /><path
   d="m 70.507104,38.601102 c 0,0 0,-22.520883 0,-22.520883 0,0 4.520845,0 4.520845,0 0,0 0,0 0,0 0.520818,0 0.979162,0.187465 1.354166,0.562507 0.37493,0.37493 0.562508,0.833349 0.562508,1.354167 0,0 0,0 0,0 0,0.604158 -0.187465,1.083326 -0.541682,1.395856 -0.354142,0.312566 -0.812485,0.479168 -1.374992,0.479168 0,0 -3.062514,0 -3.062514,0 0,0 0,6.145814 0,6.145814 0,0 6.312529,0 6.312529,0 0,0 0,0 0,0 0.729147,0 1.354167,0.249827 1.874986,0.770835 0.520857,0.520857 0.770835,1.145839 0.770835,1.875024 0,0 0,0 0,0 0,0.749971 -0.249827,1.374992 -0.770835,1.874985 -0.520819,0.520857 -1.145839,0.770835 -1.874986,0.770835 0,0 -6.312529,0 -6.312529,0 0,0 0,7.291692 0,7.291692 0,0 5.791673,0 5.791673,0 0,0 0,0 0,0 1.437505,0 2.729197,-0.208252 3.916686,-0.645846 1.18749,-0.416655 2.145827,-0.958337 2.916662,-1.645833 0.750009,-0.666671 1.395855,-1.437506 1.916674,-2.291679 0.520819,-0.854173 0.895823,-1.708346 1.125014,-2.562482 0.229039,-0.854173 0.333354,-1.687521 0.333354,-2.500006 0,0 0,0 0,0 0,-1.833336 -0.479168,-3.479169 -1.41668,-4.958363 -0.937474,-1.45833 -2.187477,-2.458318 -3.749972,-3.020825 0,0 0,0 0,0 0.854136,-1.312516 1.270829,-2.64582 1.270829,-3.999987 0,0 0,0 0,0 0,-1.562532 -0.499994,-2.979175 -1.500019,-4.250003 C 81.548843,11.455211 80.277977,10.476049 78.715482,9.7885532 77.152988,9.1010571 75.52798,8.7677406 73.840497,8.7677406 c 0,0 -10.625008,0 -10.625008,0 0,0 0,29.8333614 0,29.8333614 0,0 7.291653,0 7.291653,0 z"
   id="path1268"
   style="font-weight:bold;font-size:11.2889px;line-height:1.25;font-family:'RC Font';-inkscape-font-specification:'RC Font Bold';letter-spacing:0px;word-spacing:0px;fill:#ffffff;stroke-width:0.999999" /><path
   fill="#141414"
   d="m 122.47002,-7.5550474e-6 c 13.10498,0 23.71101,10.6100035550474 23.71101,23.6870175550474 0,13.076977 -10.60501,23.682974 -23.71101,23.682974 -13.076,0 -23.683016,-10.605997 -23.683016,-23.682974 0,-13.077014 10.607016,-23.6870175550474 23.683016,-23.6870175550474 z"
   id="path29-5"
   style="fill:#ff1652;fill-opacity:1;stroke-width:0.999999" /><path
   d="m 117.96308,38.601782 c 0,0 4.52084,-8.020838 4.52084,-8.020838 0,0 4.52085,8.020838 4.52085,8.020838 0,0 7.81251,0 7.81251,0 0,0 -8.45836,-14.937525 -8.45836,-14.937525 0,0 8.45836,-14.8958361 8.45836,-14.8958361 0,0 -7.81251,0 -7.81251,0 0,0 -4.52085,7.9791871 -4.52085,7.9791871 0,0 -4.52084,-7.9791871 -4.52084,-7.9791871 0,0 -7.81251,0 -7.81251,0 0,0 8.39584,14.8958361 8.39584,14.8958361 0,0 -8.39584,14.937525 -8.39584,14.937525 0,0 7.81251,0 7.81251,0 z"
   id="path1265"
   style="font-weight:bold;font-size:11.2889px;line-height:1.25;font-family:'RC Font';-inkscape-font-specification:'RC Font Bold';letter-spacing:0px;word-spacing:0px;fill:#ffffff;stroke-width:0.999999" /><path
   fill="#141414"
   d="m 122.47002,-7.5550474e-6 c 13.10498,0 23.71101,10.6100035550474 23.71101,23.6870175550474 0,13.076977 -10.60501,23.682974 -23.71101,23.682974 -13.076,0 -23.683016,-10.605997 -23.683016,-23.682974 0,-13.077014 10.607016,-23.6870175550474 23.683016,-23.6870175550474 z"
   id="path34161"
   style="fill:#ff1652;fill-opacity:1;stroke-width:0.999999" /><path
   d="m 117.96308,38.601782 c 0,0 4.52084,-8.020838 4.52084,-8.020838 0,0 4.52085,8.020838 4.52085,8.020838 0,0 7.81251,0 7.81251,0 0,0 -8.45836,-14.937525 -8.45836,-14.937525 0,0 8.45836,-14.8958361 8.45836,-14.8958361 0,0 -7.81251,0 -7.81251,0 0,0 -4.52085,7.9791871 -4.52085,7.9791871 0,0 -4.52084,-7.9791871 -4.52084,-7.9791871 0,0 -7.81251,0 -7.81251,0 0,0 8.39584,14.8958361 8.39584,14.8958361 0,0 -8.39584,14.937525 -8.39584,14.937525 0,0 7.81251,0 7.81251,0 z"
   id="path1262"
   style="font-weight:bold;font-size:11.2889px;line-height:1.25;font-family:'RC Font';-inkscape-font-specification:'RC Font Bold';letter-spacing:0px;word-spacing:0px;fill:#ffffff;stroke-width:0.999999" /><path
   fill="#141414"
   d="m 171.86901,-7.5550474e-6 c 13.09999,0 23.70501,10.6140095550474 23.70501,23.6900035550474 0,13.077014 -10.60502,23.681991 -23.70501,23.681991 -13.08201,0 -23.688,-10.604977 -23.688,-23.681991 0,-13.075994 10.60599,-23.6900035550474 23.688,-23.6900035550474 z"
   id="path20-6"
   style="fill:#ff1652;fill-opacity:1;stroke-width:0.999999" /><path
   d="m 168.23174,27.686015 c 0,0 0,10.916674 0,10.916674 0,0 7.29169,0 7.29169,0 0,0 0,-10.916674 0,-10.916674 0,0 10.70835,-18.916687 10.70835,-18.916687 0,0 -7.79169,0 -7.79169,0 0,0 -6.54168,11.56252 -6.54168,11.56252 0,0 -6.5625,-11.56252 -6.5625,-11.56252 0,0 -7.81251,0 -7.81251,0 0,0 10.70834,18.916687 10.70834,18.916687 z"
   id="path1259"
   style="font-weight:bold;font-size:11.2889px;line-height:1.25;font-family:'RC Font';-inkscape-font-specification:'RC Font Bold';letter-spacing:0px;word-spacing:0px;fill:#ffffff;stroke-width:0.999999" /><path
   fill="#141414"
   d="m 171.86901,-7.5550474e-6 c 13.09999,0 23.70501,10.6140095550474 23.70501,23.6900035550474 0,13.077014 -10.60502,23.681991 -23.70501,23.681991 -13.08201,0 -23.688,-10.604977 -23.688,-23.681991 0,-13.075994 10.60599,-23.6900035550474 23.688,-23.6900035550474 z"
   id="path34157"
   style="fill:#ff1652;fill-opacity:1;stroke-width:0.999999" /><path
   d="m 168.23174,27.686015 c 0,0 0,10.916674 0,10.916674 0,0 7.29169,0 7.29169,0 0,0 0,-10.916674 0,-10.916674 0,0 10.70835,-18.916687 10.70835,-18.916687 0,0 -7.79169,0 -7.79169,0 0,0 -6.54168,11.56252 -6.54168,11.56252 0,0 -6.5625,-11.56252 -6.5625,-11.56252 0,0 -7.81251,0 -7.81251,0 0,0 10.70834,18.916687 10.70834,18.916687 z"
   id="path1256"
   style="font-weight:bold;font-size:11.2889px;line-height:1.25;font-family:'RC Font';-inkscape-font-specification:'RC Font Bold';letter-spacing:0px;word-spacing:0px;fill:#ffffff;stroke-width:0.999999" /><path
   d="m 18.498612,87.097581 c 0,0 5.208341,-21.500032 5.208341,-21.500032 0,0 3.375004,14.250029 3.375004,14.250029 0,0 -4.687521,0 -4.687521,0 0,0 -1.541669,7.250003 -1.541669,7.250003 0,0 15.541682,0 15.541682,0 0,0 -7.270829,-29.833361 -7.270829,-29.833361 0,0 -10.875023,0 -10.875023,0 0,0 -7.250003,29.833361 -7.250003,29.833361 0,0 7.500018,0 7.500018,0 z"
   id="path1295"
   style="font-weight:bold;font-size:11.2889px;line-height:1.25;font-family:'RC Font';-inkscape-font-specification:'RC Font Bold';letter-spacing:0px;word-spacing:0px;fill:#ff1652;stroke-width:0.999999" /><path
   d="m 70.507104,88.850072 c 0,0 0,-22.520844 0,-22.520844 0,0 4.520845,0 4.520845,0 0,0 0,0 0,0 0.520818,0 0.979162,0.187464 1.354166,0.562507 0.37493,0.374929 0.562508,0.83331 0.562508,1.354167 0,0 0,0 0,0 0,0.604157 -0.187465,1.083326 -0.541682,1.395817 -0.354142,0.312567 -0.812485,0.479169 -1.374992,0.479169 0,0 -3.062514,0 -3.062514,0 0,0 0,6.145852 0,6.145852 0,0 6.312529,0 6.312529,0 0,0 0,0 0,0 0.729147,0 1.354167,0.249827 1.874986,0.770834 0.520857,0.520819 0.770835,1.14584 0.770835,1.874986 0,0 0,0 0,0 0,0.75001 -0.249827,1.374992 -0.770835,1.875024 -0.520819,0.520819 -1.145839,0.770835 -1.874986,0.770835 0,0 -6.312529,0 -6.312529,0 0,0 0,7.291653 0,7.291653 0,0 5.791673,0 5.791673,0 0,0 0,0 0,0 1.437505,0 2.729197,-0.208252 3.916686,-0.645846 1.18749,-0.416655 2.145827,-0.958337 2.916662,-1.645833 0.750009,-0.66667 1.395855,-1.437505 1.916674,-2.291641 0.520819,-0.854173 0.895823,-1.708346 1.125014,-2.562519 0.229039,-0.854174 0.333354,-1.687484 0.333354,-2.500007 0,0 0,0 0,0 0,-1.833335 -0.479168,-3.479168 -1.41668,-4.958324 -0.937474,-1.458331 -2.187477,-2.458356 -3.749972,-3.020863 0,0 0,0 0,0 0.854136,-1.312479 1.270829,-2.645821 1.270829,-3.999988 0,0 0,0 0,0 0,-1.562494 -0.499994,-2.979174 -1.500019,-4.250003 -1.020813,-1.270828 -2.291679,-2.24999 -3.854174,-2.937486 -1.562494,-0.687534 -3.187502,-1.020851 -4.874985,-1.020851 0,0 -10.625008,0 -10.625008,0 0,0 0,29.833361 0,29.833361 0,0 7.291653,0 7.291653,0 z"
   id="path1292"
   style="font-weight:bold;font-size:11.2889px;line-height:1.25;font-family:'RC Font';-inkscape-font-specification:'RC Font Bold';letter-spacing:0px;word-spacing:0px;fill:#ff1652;stroke-width:0.999999" /><path
   d="m 117.96308,88.850526 c 0,0 4.52084,-8.020838 4.52084,-8.020838 0,0 4.52085,8.020838 4.52085,8.020838 0,0 7.81251,0 7.81251,0 0,0 -8.45836,-14.937487 -8.45836,-14.937487 0,0 8.45836,-14.895874 8.45836,-14.895874 0,0 -7.81251,0 -7.81251,0 0,0 -4.52085,7.979187 -4.52085,7.979187 0,0 -4.52084,-7.979187 -4.52084,-7.979187 0,0 -7.81251,0 -7.81251,0 0,0 8.39584,14.895874 8.39584,14.895874 0,0 -8.39584,14.937487 -8.39584,14.937487 0,0 7.81251,0 7.81251,0 z"
   id="path1289"
   style="font-weight:bold;font-size:11.2889px;line-height:1.25;font-family:'RC Font';-inkscape-font-specification:'RC Font Bold';letter-spacing:0px;word-spacing:0px;fill:#ff1652;stroke-width:0.999999" /><path
   d="m 168.23174,77.935023 c 0,0 0,10.916674 0,10.916674 0,0 7.29169,0 7.29169,0 0,0 0,-10.916674 0,-10.916674 0,0 10.70835,-18.916687 10.70835,-18.916687 0,0 -7.79169,0 -7.79169,0 0,0 -6.54168,11.562482 -6.54168,11.562482 0,0 -6.5625,-11.562482 -6.5625,-11.562482 0,0 -7.81251,0 -7.81251,0 0,0 10.70834,18.916687 10.70834,18.916687 z"
   id="path1286"
   style="font-weight:bold;font-size:11.2889px;line-height:1.25;font-family:'RC Font';-inkscape-font-specification:'RC Font Bold';letter-spacing:0px;word-spacing:0px;fill:#ff1652;stroke-width:0.999999" /><path
   d="m 18.498612,87.097581 c 0,0 5.208341,-21.500032 5.208341,-21.500032 0,0 3.375004,14.250029 3.375004,14.250029 0,0 -4.687521,0 -4.687521,0 0,0 -1.541669,7.250003 -1.541669,7.250003 0,0 15.541682,0 15.541682,0 0,0 -7.270829,-29.833361 -7.270829,-29.833361 0,0 -10.875023,0 -10.875023,0 0,0 -7.250003,29.833361 -7.250003,29.833361 0,0 7.500018,0 7.500018,0 z"
   id="path1283"
   style="font-weight:bold;font-size:11.2889px;line-height:1.25;font-family:'RC Font';-inkscape-font-specification:'RC Font Bold';letter-spacing:0px;word-spacing:0px;fill:#ff1652;stroke-width:0.999999" /><path
   d="m 70.507104,88.850072 c 0,0 0,-22.520844 0,-22.520844 0,0 4.520845,0 4.520845,0 0,0 0,0 0,0 0.520818,0 0.979162,0.187464 1.354166,0.562507 0.37493,0.374929 0.562508,0.83331 0.562508,1.354167 0,0 0,0 0,0 0,0.604157 -0.187465,1.083326 -0.541682,1.395817 -0.354142,0.312567 -0.812485,0.479169 -1.374992,0.479169 0,0 -3.062514,0 -3.062514,0 0,0 0,6.145852 0,6.145852 0,0 6.312529,0 6.312529,0 0,0 0,0 0,0 0.729147,0 1.354167,0.249827 1.874986,0.770834 0.520857,0.520819 0.770835,1.14584 0.770835,1.874986 0,0 0,0 0,0 0,0.75001 -0.249827,1.374992 -0.770835,1.875024 -0.520819,0.520819 -1.145839,0.770835 -1.874986,0.770835 0,0 -6.312529,0 -6.312529,0 0,0 0,7.291653 0,7.291653 0,0 5.791673,0 5.791673,0 0,0 0,0 0,0 1.437505,0 2.729197,-0.208252 3.916686,-0.645846 1.18749,-0.416655 2.145827,-0.958337 2.916662,-1.645833 0.750009,-0.66667 1.395855,-1.437505 1.916674,-2.291641 0.520819,-0.854173 0.895823,-1.708346 1.125014,-2.562519 0.229039,-0.854174 0.333354,-1.687484 0.333354,-2.500007 0,0 0,0 0,0 0,-1.833335 -0.479168,-3.479168 -1.41668,-4.958324 -0.937474,-1.458331 -2.187477,-2.458356 -3.749972,-3.020863 0,0 0,0 0,0 0.854136,-1.312479 1.270829,-2.645821 1.270829,-3.999988 0,0 0,0 0,0 0,-1.562494 -0.499994,-2.979174 -1.500019,-4.250003 -1.020813,-1.270828 -2.291679,-2.24999 -3.854174,-2.937486 -1.562494,-0.687534 -3.187502,-1.020851 -4.874985,-1.020851 0,0 -10.625008,0 -10.625008,0 0,0 0,29.833361 0,29.833361 0,0 7.291653,0 7.291653,0 z"
   id="path1280"
   style="font-weight:bold;font-size:11.2889px;line-height:1.25;font-family:'RC Font';-inkscape-font-specification:'RC Font Bold';letter-spacing:0px;word-spacing:0px;fill:#ff1652;stroke-width:0.999999" /><path
   d="m 117.96308,88.850526 c 0,0 4.52084,-8.020838 4.52084,-8.020838 0,0 4.52085,8.020838 4.52085,8.020838 0,0 7.81251,0 7.81251,0 0,0 -8.45836,-14.937487 -8.45836,-14.937487 0,0 8.45836,-14.895874 8.45836,-14.895874 0,0 -7.81251,0 -7.81251,0 0,0 -4.52085,7.979187 -4.52085,7.979187 0,0 -4.52084,-7.979187 -4.52084,-7.979187 0,0 -7.81251,0 -7.81251,0 0,0 8.39584,14.895874 8.39584,14.895874 0,0 -8.39584,14.937487 -8.39584,14.937487 0,0 7.81251,0 7.81251,0 z"
   id="path1277"
   style="font-weight:bold;font-size:11.2889px;line-height:1.25;font-family:'RC Font';-inkscape-font-specification:'RC Font Bold';letter-spacing:0px;word-spacing:0px;fill:#ff1652;stroke-width:0.999999" /><path
   d="m 168.23174,77.935023 c 0,0 0,10.916674 0,10.916674 0,0 7.29169,0 7.29169,0 0,0 0,-10.916674 0,-10.916674 0,0 10.70835,-18.916687 10.70835,-18.916687 0,0 -7.79169,0 -7.79169,0 0,0 -6.54168,11.562482 -6.54168,11.562482 0,0 -6.5625,-11.562482 -6.5625,-11.562482 0,0 -7.81251,0 -7.81251,0 0,0 10.70834,18.916687 10.70834,18.916687 z"
   id="path1274"
   style="font-weight:bold;font-size:11.2889px;line-height:1.25;font-family:'RC Font';-inkscape-font-specification:'RC Font Bold';letter-spacing:0px;word-spacing:0px;fill:#ff1652;stroke-width:0.999999" /><path
   fill="#141414"
   d="m 23.688017,-7.5550474e-6 c 13.099994,0 23.705008,10.6059965550474 23.705008,23.6819905550474 0,13.077015 -10.605014,23.681991 -23.705008,23.681991 C 10.606014,47.363974 1.7015088e-5,36.758998 1.7015088e-5,23.681983 1.7015088e-5,10.605989 10.606014,-7.5550474e-6 23.688017,-7.5550474e-6 Z"
   id="path207520"
   style="fill:#ff1652;fill-opacity:1;stroke-width:0.999999" /><path
   d="m 18.498612,36.848572 c 0,0 5.208341,-21.499994 5.208341,-21.499994 0,0 3.375004,14.249991 3.375004,14.249991 0,0 -4.687521,0 -4.687521,0 0,0 -1.541669,7.250003 -1.541669,7.250003 0,0 15.541682,0 15.541682,0 0,0 -7.270829,-29.8333606 -7.270829,-29.8333606 0,0 -10.875023,0 -10.875023,0 0,0 -7.250003,29.8333606 -7.250003,29.8333606 0,0 7.500018,0 7.500018,0 z"
   id="path1301"
   style="font-weight:bold;font-size:11.2889px;line-height:1.25;font-family:'RC Font';-inkscape-font-specification:'RC Font Bold';letter-spacing:0px;word-spacing:0px;fill:#ffffff;stroke-width:0.999999" /><path
   fill="#141414"
   d="m 23.688017,-7.5550474e-6 c 13.099994,0 23.705008,10.6059965550474 23.705008,23.6819905550474 0,13.077015 -10.605014,23.681991 -23.705008,23.681991 C 10.606014,47.363974 1.7015088e-5,36.758998 1.7015088e-5,23.681983 1.7015088e-5,10.605989 10.606014,-7.5550474e-6 23.688017,-7.5550474e-6 Z"
   id="path207528"
   style="fill:#ff1652;fill-opacity:1;stroke-width:0.999999" /><path
   d="m 18.498612,36.848572 c 0,0 5.208341,-21.499994 5.208341,-21.499994 0,0 3.375004,14.249991 3.375004,14.249991 0,0 -4.687521,0 -4.687521,0 0,0 -1.541669,7.250003 -1.541669,7.250003 0,0 15.541682,0 15.541682,0 0,0 -7.270829,-29.8333606 -7.270829,-29.8333606 0,0 -10.875023,0 -10.875023,0 0,0 -7.250003,29.8333606 -7.250003,29.8333606 0,0 7.500018,0 7.500018,0 z"
   id="path1298"
   style="font-weight:bold;font-size:11.2889px;line-height:1.25;font-family:'RC Font';-inkscape-font-specification:'RC Font Bold';letter-spacing:0px;word-spacing:0px;fill:#ffffff;stroke-width:0.999999" /></svg>
