<?xml version="1.0" encoding="UTF-8" standalone="no"?>
<svg
   inkscape:version="1.1 (c68e22c387, 2021-05-23)"
   sodipodi:docname="base-white-fix.svg"
   id="svg323"
   xml:space="preserve"
   enable-background="new 0 0 750 630.455"
   viewBox="0 0 750.00079 630.45506"
   height="630.45508"
   width="750.00079"
   y="0px"
   x="0px"
   version="1.1"
   xmlns:inkscape="http://www.inkscape.org/namespaces/inkscape"
   xmlns:sodipodi="http://sodipodi.sourceforge.net/DTD/sodipodi-0.dtd"
   xmlns="http://www.w3.org/2000/svg"
   xmlns:svg="http://www.w3.org/2000/svg"
   xmlns:rdf="http://www.w3.org/1999/02/22-rdf-syntax-ns#"
   xmlns:cc="http://creativecommons.org/ns#"
   xmlns:dc="http://purl.org/dc/elements/1.1/"><metadata
   id="metadata329"><rdf:RDF><cc:Work
       rdf:about=""><dc:format>image/svg+xml</dc:format><dc:type
         rdf:resource="http://purl.org/dc/dcmitype/StillImage" /></cc:Work></rdf:RDF></metadata><defs
   id="defs327"><clipPath
     clipPathUnits="userSpaceOnUse"
     id="clipPath39559"><circle
       style="fill:#ff1652;fill-opacity:1;stroke:none;stroke-width:22.8859;stroke-linecap:round;stroke-linejoin:round;paint-order:stroke fill markers;stop-color:#000000"
       id="circle39561"
       cx="1312"
       cy="1238.4142"
       r="264.89444" /></clipPath><filter
     inkscape:collect="always"
     style="color-interpolation-filters:sRGB"
     id="filter159727"
     x="-0.30251168"
     y="-0.30250816"
     width="1.6050234"
     height="1.6050163"><feGaussianBlur
       inkscape:collect="always"
       stdDeviation="6.1701451"
       id="feGaussianBlur159729" /></filter></defs><sodipodi:namedview
   inkscape:current-layer="svg323"
   inkscape:window-maximized="1"
   inkscape:window-y="-8"
   inkscape:window-x="-8"
   inkscape:cy="171.5"
   inkscape:cx="257.5"
   inkscape:zoom="1"
   showgrid="false"
   id="namedview325"
   inkscape:window-height="1017"
   inkscape:window-width="1920"
   inkscape:pageshadow="2"
   inkscape:pageopacity="0"
   guidetolerance="10"
   gridtolerance="10"
   objecttolerance="10"
   borderopacity="1"
   bordercolor="#666666"
   pagecolor="#ffffff"
   inkscape:document-rotation="0"
   inkscape:pagecheckerboard="0"
   inkscape:snap-smooth-nodes="true"
   inkscape:snap-center="true"
   showguides="false" />

<g
   id="Layer_2"
   transform="translate(-954.59411,9.4932367e-5)">
	<g
   id="g292">
	</g>
	<g
   id="g294">
	</g>
	<g
   id="g296">
	</g>
	<g
   id="g298">
	</g>
	<g
   id="g300">
	</g>
	<g
   id="g302">
	</g>
	<g
   id="g304">
	</g>
	<g
   id="g306">
	</g>
	<g
   id="g308">
	</g>
	<g
   id="g310">
	</g>
	<g
   id="g312">
	</g>
	<g
   id="g314">
	</g>
	<g
   id="g316">
	</g>
	<g
   id="g318">
	</g>
	<g
   id="g320">
	</g>
</g>
<path
   fill="#e6e6e6"
   d="m 664.36809,213.96009 c -6.72,-16.682 -20.542,-20.877 -21.818,-22.003 -11.701,-10.336 -2.474,-21.214 -19.946,-30.695 -18.281,-9.914 -71.979,-36.997 -114.22,-31.375 -9.225,1.235 -27.837,17.608 -41.214,17.608 -21.865,0 -92.165,0 -92.165,0 0,0 -70.3,0 -92.165,0 -13.377,0 -31.99,-16.374 -41.215,-17.608 -42.248,-5.622 -95.939,21.461 -114.22,31.375 -17.4721,9.481 -8.243,20.359 -19.941,30.695 -1.2811,1.125 -15.103996,5.321 -21.822996,22.003 -62.75205,156.024 -87.3820497,255.154 -85.54604966,315.169 2.89099996,94.416 76.57804966,101.326 76.57804966,101.326 37.032996,-8.617 111.549896,-129.135 168.534996,-129.135 31.16,0 129.797,0 129.797,0 0,0 98.637,0 129.797,0 56.985,0 131.502,120.518 168.538,129.135 0,0 73.678,-6.91 76.563,-101.326 1.864,-60.015 -22.81,-159.145 -85.535,-315.169 z"
   id="path1583"
   style="fill:#f4f4f4;fill-opacity:1" /><path
   fill="none"
   d="m 106.24909,192.64209 c 0.541,-0.289 0.941,-0.487 1.1549,-0.65 -0.3899,0.223 -0.7709,0.423 -1.1549,0.65 z"
   id="path1585" /><path
   fill="none"
   d="m 642.55909,191.96609 c 0.214,0.177 0.754,0.435 1.527,0.819 -0.491,-0.271 -1.0171,-0.542 -1.527,-0.819 z"
   id="path1587" /><line
   fill="none"
   x1="107.464"
   y1="191.95709"
   x2="107.464"
   y2="193.51909"
   id="line1591" /><line
   fill="none"
   x1="642.55005"
   y1="191.47209"
   x2="642.55005"
   y2="192.42209"
   id="line1593" /><path
   fill="#ebebeb"
   d="m 277.67109,462.11409 c -33.437,0 -60.64,-27.197 -60.64,-60.627 0,-33.427 27.203,-60.623 60.64,-60.623 33.428,0 60.624,27.195 60.624,60.623 0,33.43 -27.196,60.627 -60.624,60.627 z"
   id="path1595"
   style="fill:#f4f4f4;fill-opacity:1" /><path
   fill="#dedede"
   d="m 277.67109,341.86509 c 32.876,0 59.624,26.747 59.624,59.623 0,32.878 -26.747,59.627 -59.624,59.627 -32.885,0 -59.64,-26.749 -59.64,-59.627 0.001,-32.877 26.755,-59.623 59.64,-59.623 m 0,-2 c -34.036,0 -61.64,27.578 -61.64,61.623 0,34.05 27.604,61.627 61.64,61.627 34.037,0 61.624,-27.577 61.624,-61.627 0,-34.046 -27.587,-61.623 -61.624,-61.623 z"
   id="path1597"
   style="fill:#e7e7e7;fill-opacity:1" /><g
   id="g241449"><path
     fill="#141414"
     d="m 291.23409,353.51009 v 0 c 0,-4.986 -27.126,-4.986 -27.126,-10e-4 0,23.849 0,95.963 0,95.963 v 0 0 c 0,4.982 27.127,4.982 27.127,0 0,-23.852 0,-95.962 -0.001,-95.962 z"
     id="path1603" /><path
     fill="#141414"
     d="m 229.68809,387.93609 v 0 c -4.996,0 -4.996,27.113 0,27.113 23.866,0 95.9669,0 95.9669,0 v 0 0 c 4.9671,0 4.9671,-27.113 0,-27.113 -23.8649,0 -95.9659,0 -95.9659,0 z"
     id="path1607" /><path
     fill="#ff0000"
     d="m 277.67109,349.78109 c 6.768,0 13.563,1.227 13.563,3.729 v 0.001 h 0.001 c 0,0 0,15.442 0,34.425 13.806,0 26.6599,0 34.4189,0 4.9671,0 4.9671,27.113 0,27.113 v 0 0 c 0,0 -15.461,0 -34.4189,0 0,13.826 0,26.679 0,34.424 0,2.498 -6.796,3.726 -13.564,3.726 -6.796,0 -13.563,-1.228 -13.563,-3.726 v 0 0 c 0,0 0,-15.446 0,-34.424 -13.822,0 -26.6641,0 -34.42,0 -4.9951,0 -4.9951,-27.113 0,-27.113 h 0.001 c 0,0 15.454,0 34.419,0 0,-13.83 0,-26.684 0,-34.426 0,-2.502 6.767,-3.729 13.563,-3.729 m 0,-3.604 c -3.846,0 -7.4591,0.362 -10.1801,1.036 -5.7919,1.409 -6.9849,4.192 -6.9849,6.297 v 30.802 h -30.817 c -2.106,0 -4.9001,1.221 -6.309,6.989 -0.664,2.746 -1.0321,6.358 -1.0321,10.188 0,3.835 0.368,7.447 1.0321,10.193 1.4089,5.767 4.203,6.989 6.308,6.989 h 30.818 v 30.804 0.846 l 0.093,0.236 c 0.41,1.883 2.061,4.041 6.8919,5.212 2.721,0.672 6.3331,1.041 10.1801,1.041 3.818,0 7.432,-0.369 10.175,-1.041 5.768,-1.408 6.989,-4.191 6.989,-6.294 v -30.804 h 30.8189 1.4961 l 0.34,-0.345 c 1.6749,-0.683 3.4239,-2.467 4.4729,-6.645 0.664,-2.746 1.032,-6.357 1.032,-10.192 0,-3.831 -0.368,-7.442 -1.032,-10.188 -1.4379,-5.768 -4.221,-6.989 -6.308,-6.989 h -30.8189 v -30.802 c 0,-2.106 -1.222,-4.889 -6.989,-6.298 -2.743,-0.673 -6.358,-1.035 -10.176,-1.035 z"
     id="path1613" /><line
     display="inline"
     fill="none"
     x1="287.63"
     y1="357.12109"
     x2="294.83606"
     y2="349.89108"
     id="line1617" /><line
     display="inline"
     fill="none"
     x1="267.77209"
     y1="356.1521"
     x2="260.91309"
     y2="349.3111"
     id="line1619" /><line
     display="inline"
     fill="none"
     x1="322.3031"
     y1="391.26511"
     x2="329.00806"
     y2="384.5881"
     id="line1621" /><line
     display="inline"
     fill="none"
     x1="322.80603"
     y1="412.20709"
     x2="328.48608"
     y2="417.8981"
     id="line1623" /><line
     display="inline"
     fill="none"
     x1="286.6731"
     y1="392.47409"
     x2="295.76709"
     y2="383.37909"
     id="line1625" /><line
     display="inline"
     fill="none"
     x1="286.13"
     y1="409.9371"
     x2="296.34009"
     y2="420.1651"
     id="line1627" /><line
     display="inline"
     fill="none"
     x1="287.54199"
     y1="445.79108"
     x2="294.9281"
     y2="453.1571"
     id="line1629" /><line
     display="inline"
     fill="none"
     x1="268.53101"
     y1="445.0611"
     x2="259.68604"
     y2="453.8851"
     id="line1631" /><line
     display="inline"
     fill="none"
     x1="269.578"
     y1="409.56808"
     x2="258.63806"
     y2="420.52811"
     id="line1633" /><line
     display="inline"
     fill="none"
     x1="270.33203"
     y1="394.15311"
     x2="257.88501"
     y2="381.70609"
     id="line1635" /><line
     display="inline"
     fill="none"
     x1="233.76308"
     y1="410.99109"
     x2="225.61208"
     y2="419.11411"
     id="line1637" /><line
     display="inline"
     fill="none"
     x1="233.40004"
     y1="391.62808"
     x2="225.97401"
     y2="384.22809"
     id="line1639" /><path
     fill="#141414"
     d="m 277.67109,452.69809 c -7.132,0 -12.742,-1.323 -13.049,-3.078 -0.01,-0.049 -0.014,-0.103 -0.014,-0.148 0,-0.138 0,-15.531 0,-34.424 0,-0.276 -0.224,-0.5 -0.5,-0.5 h -34.42 c -1.82,0 -3.246,-5.735 -3.246,-13.057 0,-7.322 1.426,-13.057 3.246,-13.057 h 34.42 c 0.276,0 0.5,-0.224 0.5,-0.5 v -34.426 c 0,-0.043 0.01,-0.093 0.014,-0.142 l 0.06,-0.227 c 0.029,-0.041 0.066,-0.107 0.082,-0.133 0.495,-0.809 2.105,-1.517 4.535,-1.992 0.305,-0.068 0.594,-0.126 0.889,-0.182 0.351,-0.063 0.658,-0.112 0.958,-0.135 0.035,-0.003 0.128,-0.016 0.162,-0.026 0.255,-0.029 0.579,-0.072 0.907,-0.111 0.335,-0.04 0.674,-0.076 1.018,-0.109 0.364,-0.034 0.693,-0.06 1.023,-0.083 l 2.369,-0.077 c 0.353,-0.008 0.701,-0.012 1.047,-0.012 7.325,0 13.063,1.418 13.063,3.229 0,0.173 0,16.047 0,34.426 0,0.276 0.224,0.5 0.5,0.5 h 34.419 c 1.809,0 3.226,5.735 3.226,13.057 0,7.322 -1.417,13.057 -3.226,13.057 h -34.419 c -0.276,0 -0.5,0.224 -0.5,0.5 v 34.424 c 0,0.045 -0.01,0.099 -0.015,0.152 -0.306,1.751 -5.917,3.074 -13.05,3.074 z"
     id="path1643"
     style="fill:#ff1652;fill-opacity:1" /><path
     fill="#120B0B"
     d="m 277.67109,350.78109 c 8.089,0 12.563,1.613 12.563,2.729 0,0.015 0,0.029 0.001,0.044 v 34.382 c 0,0.552 0.4479,1 1,1 h 34.4189 c 1.138,0 2.7261,4.777 2.7261,12.556 0,7.78 -1.5881,12.557 -2.7261,12.557 h -34.4189 c -0.5521,0 -1,0.448 -1,1 v 34.423 c 0,0.021 0,0.046 -0.01,0.063 -0.195,1.117 -4.668,2.664 -12.558,2.664 -7.889,0 -12.361,-1.547 -12.556,-2.656 0,-0.027 -0.01,-0.054 -0.01,-0.07 v -34.424 c 0,-0.552 -0.448,-1 -1,-1 h -34.42 c -1.146,0 -2.746,-4.776 -2.746,-12.556 0,-7.78 1.6,-12.558 2.747,-12.558 h 34.4189 c 0.5521,0 1,-0.448 1,-1 v -34.422 c 0,-0.021 0,-0.043 0,-0.043 v 0 c 0,-0.003 10e-4,-0.007 0,-0.011 l 10e-4,-0.003 c 0.013,-0.035 0.029,-0.094 0.04,-0.134 0.012,-0.018 0.024,-0.036 0.036,-0.055 0.153,-0.25 0.906,-1.114 4.186,-1.759 0.021,-0.003 0.041,-0.007 0.061,-0.012 0.272,-0.062 0.555,-0.119 0.832,-0.171 l 0.082,-0.014 c 0.333,-0.061 0.599,-0.098 0.795,-0.114 0.048,-10e-4 0.113,-0.006 0.188,-0.02 0.309,-0.042 0.612,-0.082 0.919,-0.119 l 0.024,-0.003 c 0.328,-0.04 0.663,-0.075 1.0019,-0.107 v 0 c 0.017,-10e-4 0.031,-0.002 0.04,-0.003 0.3191,-0.03 0.645,-0.056 0.9651,-0.078 l 0.117,-0.006 c 0.19,-0.008 0.382,-0.013 0.575,-0.017 l 0.395,-0.01 c 0.068,-0.002 0.135,-0.005 0.1689,-0.008 0.3251,-0.012 0.6511,-0.024 0.9791,-0.032 l 0.124,-10e-4 c 0.3409,-0.008 0.6849,-0.012 1.028,-0.012 m 0.7943,-2.44665 c -0.35,0 -0.702,0.004 -1.052,0.012 -0.041,0 -0.768,-0.0211 -0.81,-0.0201 -0.333,0.008 -0.664,0.02 -0.994,0.033 -0.055,0.004 -0.11,0.006 -0.166,0.008 -0.327,0.01 -0.654,0.014 -0.977,0.028 -0.046,0.002 -0.092,0.004 -0.138,0.007 -0.335,0.023 -0.668,0.05 -0.996,0.081 -0.014,10e-4 -0.027,0.003 -0.041,0.003 -0.348,0.033 -0.691,0.07 -1.027,0.11 v 0 c -0.331,0.04 -0.656,0.083 -0.989,0.128 -0.013,0.004 -0.034,0.006 -0.059,0.007 -0.317,0.024 -0.643,0.076 -0.938,0.13 -0.025,0.004 -0.049,0.008 -0.074,0.012 -0.301,0.057 -0.596,0.116 -0.88,0.181 0,0 -0.01,10e-4 -0.013,0.002 -2.427,0.475 -4.8984,1.78141 -5.5134,2.78841 -0.3772,0.27316 -0.4127,1.28745 -0.273,1.55697 -4.1215,11.839 -1.0768,22.66504 0.1133,34.03537 -11.3365,-0.95534 -22.3302,-1.18136 -34.0167,0.3125 l -0.1064,-0.3125 c -2.9662,-8.7066 -8.5061,27.00783 -0.038,27.90026 11.2466,1.18526 22.3891,2.57604 34.3205,0.13258 -5.1331,11.47467 -0.015,22.77949 0.028,34.25416 v 0 c 0,0 -0.4305,0.4645 0.021,0.234 0.408,2.329 7.1679,4.7436 13.7349,4.7436 6.568,0 13.6543,-2.47677 14.0613,-4.80577 0.014,-0.082 0.018,-0.16508 0.021,-0.234 0.5574,-11.37332 2.947,-21.29572 1.0691,-33.11183 11.473,1.25111 21.446,-0.0438 32.919,-1.5 v 0 c 6.738,0.3542 6.9241,-26.88445 0.2541,-27.79249 -11.281,-1.53575 -21.5864,-4.36332 -33.5462,-0.46956 0.753,-11.475 2.5199,-21.77885 -0.4419,-33.25385 h -10e-4 l 0.8839,-0.0231 c 3.1738,-0.0829 -7.5665,-5.17665 -14.3335,-5.17665 z"
     id="path1645"
     sodipodi:nodetypes="cscsssssssscscssssssssscscccccccccccssscccccccccscsccscccccccccccccccssccscscsccsscccsss"
     style="fill:#ffffff" /><path
     fill="#242424"
     d="m 264.10809,387.93609 c -0.8618,-1.48211 -1.2334,-3.36003 -3.602,-3.625 h -30.817 c -0.863,0 -1.822,0.226 -2.784,0.846 -0.021,1.53714 0.9821,2.41482 2.784,2.778 -0.001,10e-4 15.454,10e-4 34.419,10e-4 z"
     id="path1649"
     sodipodi:nodetypes="ccsccc"
     style="fill:#ff2961;fill-opacity:1" /><path
     fill="#292929"
     d="m 229.68809,387.93609 v 0 l -2.783,-2.778 c -1.367,0.93 -2.679,2.74 -3.525,6.143 -0.664,2.746 -1.032,6.358 -1.032,10.188 0,3.835 0.368,7.447 1.032,10.193 0.845,3.402 2.158,5.212 3.525,6.143 1.5817,-0.54841 2.375,-1.55038 2.783,-2.774 -4.996,-0.002 -4.996,-27.115 0,-27.115 z"
     id="path1651"
     sodipodi:nodetypes="scccscccs"
     style="fill:#ff1652;fill-opacity:1" /><path
     fill="#242424"
     d="m 269.20209,350.52409 c 0,0 0.01,-10e-4 0.013,-0.002 0.284,-0.064 0.579,-0.124 0.88,-0.181 0.025,-0.004 0.049,-0.008 0.074,-0.012 0.295,-0.054 0.62,-0.105 0.9379,-0.13 0.025,-0.001 0.046,-0.003 0.059,-0.007 0.333,-0.045 0.658,-0.088 0.989,-0.128 v 0 c 0.336,-0.041 0.679,-0.077 1.027,-0.11 0.014,0 0.027,-0.002 0.041,-0.003 0.328,-0.031 0.6609,-0.057 0.996,-0.081 0.046,-0.003 0.092,-0.005 0.1379,-0.007 0.3231,-0.014 0.6491,-0.018 0.9771,-0.028 0.056,-0.002 0.111,-0.004 0.1659,-0.008 0.33,-0.013 0.6611,-0.025 0.9941,-0.033 0.042,-10e-4 0.083,-10e-4 0.125,-0.002 0.35,-0.008 0.702,-0.012 1.052,-0.012 6.768,0 13.563,1.227 13.563,3.729 1.5,-0.23658 2.1546,-1.47214 2.7549,-2.772 -0.9009,-1.367 -2.7129,-2.708 -6.144,-3.524 -2.7429,-0.673 -6.3569,-1.036 -10.1749,-1.036 -3.846,0 -7.4591,0.362 -10.1801,1.036 -2.939,0.718 -4.7149,1.796 -5.7249,2.963 0.1772,1.30093 0.7765,2.32585 2.5699,2.57 0.616,-1.007 2.4381,-1.747 4.8651,-2.222 z"
     id="path1653"
     sodipodi:nodetypes="cccccccccccsccscscccscccc"
     style="fill:#ff2961;fill-opacity:1" /><path
     fill="#191919"
     d="m 325.65509,387.93609 c 2.7558,-0.40727 2.6277,-0.71476 2.755,-2.778 -0.933,-0.621 -1.92,-0.846 -2.755,-0.846 h -30.819 c -2.1909,0.39789 -3.2409,1.72923 -3.601,3.625 13.807,-0.001 26.661,-0.001 34.42,-0.001 z"
     id="path1655"
     sodipodi:nodetypes="ccsccc"
     style="fill:#ff2961;fill-opacity:1" /><path
     fill="#1C1C1C"
     d="m 291.23409,353.51009 v 0 c 0.001,0 0.001,15.442 0.001,34.425 l 3.601,-3.625 v 0 -30.8 c 0,-0.852 -0.222,-1.835 -0.846,-2.773 z"
     id="path1657"
     style="fill:#ff2961;fill-opacity:1" /><path
     fill="#292929"
     d="m 264.10809,353.50909 c 0,-0.066 0.01,-0.142 0.02,-0.216 0.01,-0.1104 0.049,-0.2744 0.095,-0.366 0,-0.005 0.01,-0.011 0.01,-0.017 0.03,-0.065 0.066,-0.124 0.106,-0.165 l -2.57,-2.57 c -0.969,1.121 -1.261,2.293 -1.261,3.333 v 30.802 l 3.602,3.625 c -0.001,-13.83 -0.001,-26.684 -0.001,-34.426 z"
     id="path1659"
     sodipodi:nodetypes="ccccccsccc"
     style="fill:#ff1652;fill-opacity:1" /><path
     fill="#171717"
     d="m 325.65399,415.04909 v 0 h -34.4189 c 0.7436,1.41634 0.8133,3.14236 3.6,3.62 h 30.819 c 0.8177,0.0135 1.2432,-0.0366 1.836,-0.345 0.308,-0.128 0.617,-0.303 0.925,-0.498 -0.284,-2.03349 -0.8989,-3.49083 -2.7611,-2.777 z"
     id="path1661"
     sodipodi:nodetypes="cccccccc"
     style="fill:#ff1652;fill-opacity:1" /><path
     fill="#0F0F0F"
     d="m 291.23509,449.47309 c 0.4573,1.23356 0.8899,2.48378 2.754,2.77 0.624,-0.945 0.846,-1.92 0.846,-2.77 v -30.804 l -3.6,-3.62 z"
     id="path1663"
     style="fill:#f5154f;fill-opacity:1"
     sodipodi:nodetypes="ccsccc" /><path
     fill="#0F0F0F"
     d="m 331.96309,391.30009 c -0.845,-3.402 -2.181,-5.213 -3.553,-6.143 l -2.755,2.778 c 4.967,0 4.967,27.113 0,27.113 l 2.76,2.777 c 1.369,-0.93 2.705,-2.747 3.548,-6.147 0.664,-2.746 1.032,-6.357 1.032,-10.192 0,-3.829 -0.368,-7.441 -1.032,-10.186 z"
     id="path1665"
     style="fill:#ff2961;fill-opacity:1" /><path
     fill="#171717"
     d="m 291.21409,449.70709 c -0.407,2.329 -6.975,3.491 -13.542,3.491 -6.567,0 -13.134,-1.162 -13.542,-3.491 -0.014,-0.082 -0.021,-0.165 -0.021,-0.234 -2.4038,-0.70983 -2.673,0.94357 -2.785,2.771 0.929,1.367 2.743,2.702 6.168,3.522 2.721,0.672 6.333,1.041 10.18,1.041 3.818,0 7.432,-0.369 10.175,-1.041 3.43,-0.82 5.243,-2.157 6.143,-3.524 l -2.754,-2.77 c 0,0.07 -0.01,0.153 -0.022,0.235 z"
     id="path1667"
     sodipodi:nodetypes="csccccscccc"
     style="fill:#f5154f;fill-opacity:1" /><path
     fill="#1c1c1c"
     d="m 264.10809,449.47309 v 0 -34.424 c -1.6905,0.78983 -3.2729,1.67163 -3.602,3.62 v 30.804 0.846 l 0.093,0.236 c 0.128,0.545 0.345,1.119 0.724,1.689 z"
     id="path1669"
     sodipodi:nodetypes="ccccccccc"
     style="fill:#f5154f;fill-opacity:1" /><path
     fill="#1A1A1A"
     d="m 229.68809,415.04909 -2.783,2.774 c 0.961,0.62 1.92,0.846 2.783,0.846 h 30.818 l 3.602,-3.62 c -13.822,0 -26.6641,0 -34.42,0 z"
     id="path1671"
     style="fill:#f5154f;fill-opacity:1" /><polygon
     display="inline"
     fill="#242424"
     points="264.108,387.936 260.506,384.311 "
     id="polygon1675"
     transform="translate(4.4343652e-5,9.4932367e-5)" /><polygon
     display="inline"
     fill="#1c1c1c"
     points="294.835,384.311 291.235,387.936 294.836,384.311 "
     id="polygon1677"
     transform="translate(4.4343652e-5,9.4932367e-5)" /></g><rect
   x="-504.79398"
   y="-86.122192"
   transform="rotate(-134.83794)"
   display="inline"
   fill="#0f0f0f"
   width="5.1049714"
   height="0"
   id="rect1693"
   style="stroke-width:0.999994" /><path
   fill="#1A1615"
   d="m 448.91509,280.36609 c 0,10.397 -8.42,18.817 -18.789,18.817 -10.398,0 -18.819,-8.42 -18.819,-18.817 0,-10.371 8.421,-18.805 18.819,-18.805 10.369,0.001 18.789,8.434 18.789,18.805 z"
   id="path1741"
   style="fill:#f5154f;fill-opacity:1" /><path
   style="fill:#ff1652;fill-opacity:1;stroke:#f5154f;stroke-opacity:1"
   fill="#0a0a0a"
   stroke="#000000"
   stroke-miterlimit="10"
   d="m 446.22809,280.36609 c 0,8.902 -7.229,16.103 -16.102,16.103 -8.902,0 -16.103,-7.201 -16.103,-16.103 0,-8.896 7.201,-16.103 16.103,-16.103 8.873,0.001 16.102,7.208 16.102,16.103 z"
   id="path1745" /><rect
   x="422.93103"
   y="275.74109"
   fill="#6d6b6c"
   width="14.361"
   height="1.552"
   id="rect1747" /><rect
   x="422.93103"
   y="279.6601"
   fill="#6d6b6c"
   width="14.361"
   height="1.552"
   id="rect1749" /><rect
   x="422.93103"
   y="283.46909"
   fill="#6d6b6c"
   width="14.361"
   height="1.533"
   id="rect1751" /><rect
   x="422.93103"
   y="275.74109"
   fill="#929493"
   width="14.361"
   height="1.552"
   id="rect1759"
   style="fill:#ffffff" /><rect
   x="422.93103"
   y="279.6601"
   fill="#929493"
   width="14.361"
   height="1.552"
   id="rect1761"
   style="fill:#ffffff" /><rect
   x="422.93103"
   y="283.46909"
   fill="#929493"
   width="14.361"
   height="1.533"
   id="rect1763"
   style="fill:#ffffff" /><path
   fill="#1A1615"
   d="m 340.93709,280.36609 c 0,10.397 -8.421,18.817 -18.819,18.817 -10.368,0 -18.789,-8.42 -18.789,-18.817 0,-10.371 8.42,-18.805 18.789,-18.805 10.398,0.001 18.819,8.434 18.819,18.805 z"
   id="path1771"
   style="fill:#f5154f;fill-opacity:1" /><path
   style="fill:#ff1652;fill-opacity:1;stroke:#f5154f;stroke-opacity:1"
   fill="#0a0a0a"
   stroke="#000000"
   stroke-miterlimit="10"
   d="m 338.22109,280.36609 c 0,8.902 -7.2011,16.103 -16.103,16.103 -8.872,0 -16.103,-7.201 -16.103,-16.103 0,-8.896 7.231,-16.103 16.103,-16.103 8.9019,0.001 16.103,7.208 16.103,16.103 z"
   id="path1775" /><polygon
   fill="#6d6b6c"
   points="319.602,280.266 316.571,280.266 316.571,276.481 322.043,276.481 322.043,277.802 323.843,277.802 323.843,274.743 314.952,274.743 314.952,282.132 319.602,282.132 "
   id="polygon1777"
   transform="translate(4.4343652e-5,9.4932367e-5)"
   style="fill:#ffffff" /><path
   fill="#6d6b6c"
   d="m 320.35309,278.42709 v 7.584 h 8.96 v -7.584 z m 7.16,5.783 h -5.47 v -3.945 h 5.47 z"
   id="path1779"
   style="fill:#ffffff" /><path
   fill="#e6e6e6"
   stroke="#dedede"
   stroke-width="2"
   stroke-miterlimit="10"
   d="m 185.46759,347.54109 c -37.328,0 -67.695,-30.365 -67.695,-67.688 0,-37.323 30.366,-67.686 67.695,-67.686 37.3359,0 67.707,30.363 67.707,67.686 0,37.323 -30.37,67.688 -67.707,67.688 z"
   id="path1787"
   style="fill:#f4f4f4;fill-opacity:1;stroke:#e7e7e7;stroke-opacity:1" /><path
   stroke="#120B0B"
   stroke-width="2"
   stroke-miterlimit="10"
   d="m 241.57109,279.86509 c 0,30.977 -25.106,56.084 -56.103,56.084 -30.981,0 -56.092,-25.107 -56.092,-56.084 0,-31 25.111,-56.106 56.092,-56.106 30.997,0 56.103,25.106 56.103,56.106 z"
   id="path1791"
   style="fill:#f5154f;fill-opacity:1;stroke:#ff1652;stroke-opacity:1" /><path
   fill="#e6e6e6"
   stroke="#dedede"
   stroke-width="2"
   stroke-miterlimit="10"
   d="m 473.04559,461.52059 c -37.324,0 -67.688,-30.364 -67.688,-67.686 0,-37.326 30.363,-67.705 67.688,-67.705 37.322,0 67.707,30.378 67.707,67.705 0,37.323 -30.385,67.686 -67.707,67.686 z"
   id="path1795"
   style="fill:#f4f4f4;fill-opacity:1;stroke:#e7e7e7;stroke-opacity:1" /><path
   stroke="#120B0B"
   stroke-width="2"
   stroke-miterlimit="10"
   d="m 529.15109,393.81509 c 0,30.999 -25.106,56.105 -56.109,56.105 -30.975,0 -56.083,-25.106 -56.083,-56.105 0,-30.979 25.108,-56.085 56.0829,-56.085 31.0031,0 56.1091,25.106 56.1091,56.085 z"
   id="path1799"
   style="fill:#f5154f;fill-opacity:1;stroke:#ff1652;stroke-opacity:1" /><path
   fill="#0a0a0a"
   d="m 566.76009,355.27009 c -13.889,0 -25.188,-11.304 -25.188,-25.199 0,-13.892 11.299,-25.194 25.188,-25.194 13.898,0 25.205,11.302 25.205,25.194 0,13.894 -11.307,25.199 -25.205,25.199 z"
   id="path1803"
   style="fill:#ffffff" /><path
   fill="#1A1615"
   d="m 566.76009,306.37709 c 13.1,0 23.705,10.605 23.705,23.694 0,13.093 -10.605,23.699 -23.705,23.699 -13.082,0 -23.688,-10.605 -23.688,-23.699 -10e-4,-13.089 10.606,-23.694 23.688,-23.694 m 0,-3 c -14.716,0 -26.688,11.975 -26.688,26.694 0,14.722 11.973,26.699 26.688,26.699 14.725,0 26.705,-11.977 26.705,-26.699 0,-14.719 -11.98,-26.694 -26.705,-26.694 z"
   id="path1805"
   style="fill:#ff1652;fill-opacity:1" /><path
   fill="#0a0a0a"
   d="m 566.76009,254.19609 c -13.889,0 -25.188,-11.308 -25.188,-25.207 0,-13.888 11.299,-25.187 25.188,-25.187 13.898,0 25.205,11.299 25.205,25.187 0,13.9 -11.307,25.207 -25.205,25.207 z"
   id="path1809"
   style="fill:#ffffff" /><path
   fill="#1A1615"
   d="m 566.76009,205.30309 c 13.1,0 23.705,10.605 23.705,23.687 0,13.101 -10.605,23.707 -23.705,23.707 -13.082,0 -23.688,-10.606 -23.688,-23.707 -10e-4,-13.082 10.606,-23.687 23.688,-23.687 m 0,-3 c -14.716,0 -26.688,11.972 -26.688,26.687 0,14.726 11.973,26.707 26.688,26.707 14.725,0 26.705,-11.981 26.705,-26.707 0,-14.716 -11.98,-26.687 -26.705,-26.687 z"
   id="path1811"
   style="fill:#ff1652;fill-opacity:1" /><path
   fill="#0a0a0a"
   d="m 617.30009,304.73209 c -13.89,0 -25.19,-11.307 -25.19,-25.204 0,-13.89 11.2999,-25.189 25.19,-25.189 13.897,0 25.203,11.3 25.203,25.189 0,13.898 -11.306,25.204 -25.203,25.204 z"
   id="path1815"
   style="fill:#ffffff" /><path
   fill="#1A1615"
   d="m 617.30009,255.83909 c 13.0969,0 23.703,10.605 23.703,23.689 0,13.099 -10.6061,23.704 -23.703,23.704 -13.085,0 -23.69,-10.605 -23.69,-23.704 0,-13.084 10.605,-23.689 23.69,-23.689 m 0,-3 c -14.717,0 -26.69,11.973 -26.69,26.689 0,14.725 11.973,26.704 26.69,26.704 14.724,0 26.703,-11.979 26.703,-26.704 0,-14.716 -11.9791,-26.689 -26.703,-26.689 z"
   id="path1817"
   style="fill:#ff1652;fill-opacity:1" /><path
   fill="#0a0a0a"
   d="m 516.21709,304.73209 c -13.886,0 -25.183,-11.307 -25.183,-25.204 0,-13.89 11.297,-25.189 25.183,-25.189 13.9009,0 25.211,11.3 25.211,25.189 0,13.898 -11.31,25.204 -25.211,25.204 z"
   id="path1821"
   style="fill:#ffffff" /><path
   fill="#1A1615"
   d="m 516.21709,255.83909 c 13.105,0 23.711,10.605 23.711,23.689 0,13.099 -10.605,23.704 -23.711,23.704 -13.076,0 -23.683,-10.605 -23.683,-23.704 0,-13.084 10.607,-23.689 23.683,-23.689 m 0,-3 c -14.713,0 -26.683,11.973 -26.683,26.689 0,14.725 11.97,26.704 26.683,26.704 14.729,0 26.711,-11.979 26.711,-26.704 0,-14.716 -11.983,-26.689 -26.711,-26.689 z"
   id="path1823"
   style="fill:#ff1652;fill-opacity:1" /><path
   fill="#1a1a1a"
   d="m 375.09059,150.99216 c 0,0 -90.4552,1.0474 -100.0727,1.96029 -9.4319,6.84915 -11.9642,20.01756 -16.3349,31.11164 20.2381,23.271 41.5831,53.312 56.4411,53.312 h 60.49 60.496 c 14.872,0 36.197,-30.041 56.463,-53.312 -4.3443,-10.64145 -8.3217,-21.68646 -16.1513,-30.88568 -12.6789,-1.01236 -101.3312,-2.18625 -101.3312,-2.18625 z"
   id="path1829"
   sodipodi:nodetypes="cccscsccc"
   style="fill:#ff1652;fill-opacity:1" /><path
   fill="#0D0D0D"
   d="m 476.19109,153.52609 c -0.6269,-2.61083 -1.703,-4.95207 -3.638,-6.778 -1.856,0.48 -3.653,0.748 -5.384,0.748 h -92.165 -92.1651 c -1.3919,0 -2.8179,-0.189 -4.2819,-0.501 -2.4601,1.44759 -2.9569,3.99952 -3.49,6.531 11.631,1.905 100.548,2.973 100.548,2.973 0,0 88.9449,-1.068 100.576,-2.973 z"
   id="path1831"
   sodipodi:nodetypes="ccscscccc"
   style="fill:#f5154f;fill-opacity:1" /><path
   fill="#1a1a1a"
   d="m 642.55009,191.95709 c -8.98,-7.938 -5.636,-16.16 -11.469,-23.844 0.2399,0.326 0.486,0.652 0.6979,0.979 -0.016,-0.0597 -95.1947,-48.54586 -120.9622,-34.87203 -17.387,2.28558 -27.6683,15.08683 -32.9469,18.42101 4.3787,10.15685 7.6652,20.95466 16.1541,29.78002 11.169,-12.678 21.942,-23.005 31.0571,-24.761 20.02,-3.848 83.9139,16.298 117.4789,34.305 0,-0.001 -0.01,-0.005 -0.01,-0.008 z"
   id="path1835"
   sodipodi:nodetypes="ccccccccc"
   style="fill:#ff1652;fill-opacity:1" /><path
   fill="#0d0d0d"
   d="m 510.97909,134.61509 c 24.2729,-7.582 120.772,34.465 120.7999,34.478 -0.2119,-0.328 -0.4579,-0.654 -0.6979,-0.979 -0.029,-0.039 -0.062,-0.078 -0.091,-0.117 -0.101,-0.136 -0.1821,-0.242 -0.292,-0.375 -0.044,-0.055 -0.09,-0.109 -0.135,-0.161 -0.085,-0.093 -0.17,-0.212 -0.274,-0.332 -0.055,-0.051 -0.108,-0.097 -0.155,-0.159 -0.083,-0.11 -0.1811,-0.22 -0.282,-0.301 -0.064,-0.067 -0.113,-0.136 -0.166,-0.204 -0.1,-0.104 -0.201,-0.18 -0.2891,-0.286 -0.057,-0.07 -0.1279,-0.141 -0.1999,-0.199 -0.1041,-0.083 -0.19,-0.185 -0.286,-0.287 -0.077,-0.069 -0.155,-0.117 -0.23,-0.188 -0.083,-0.1 -0.191,-0.199 -0.3041,-0.279 -0.076,-0.063 -0.1419,-0.137 -0.223,-0.21 -0.1129,-0.097 -0.2169,-0.168 -0.3159,-0.263 -0.089,-0.075 -0.179,-0.148 -0.2671,-0.219 -0.094,-0.071 -0.214,-0.167 -0.3329,-0.263 -0.074,-0.074 -0.165,-0.133 -0.264,-0.195 -0.1241,-0.096 -0.227,-0.19 -0.3541,-0.28 -0.097,-0.05 -0.177,-0.125 -0.272,-0.199 -0.134,-0.096 -0.26,-0.181 -0.3809,-0.258 -0.1061,-0.074 -0.2061,-0.147 -0.2891,-0.22 -0.143,-0.082 -0.29,-0.165 -0.4099,-0.262 -0.107,-0.071 -0.211,-0.142 -0.298,-0.192 -0.154,-0.092 -0.3161,-0.193 -0.451,-0.293 -0.108,-0.055 -0.2091,-0.104 -0.295,-0.171 -0.1821,-0.111 -0.351,-0.22 -0.532,-0.303 -0.095,-0.056 -0.167,-0.112 -0.256,-0.167 -0.277,-0.151 -0.5571,-0.302 -0.833,-0.467 -18.281,-9.914 -71.979,-36.997 -114.22,-31.375 -7.609,1.005 -21.634,12.342 -33.82,16.281 -0.9973,3.67096 1.4065,5.09588 3.583,6.671 5.59,-2.895 17.263,-13.357 32.833,-18.226 z"
   id="path1837"
   sodipodi:nodetypes="cccsccccccccccccccccccccccccccccccc"
   style="fill:#f5154f;fill-opacity:1" /><path
   fill="#0d0d0d"
   d="m 241.62509,129.88709 c -42.248,-5.622 -95.939,21.461 -114.22,31.375 -0.274,0.164 -0.557,0.313 -0.828,0.464 -0.083,0.054 -0.157,0.11 -0.25,0.164 -0.183,0.083 -0.351,0.192 -0.533,0.303 -0.084,0.065 -0.184,0.117 -0.29,0.168 -0.142,0.101 -0.297,0.202 -0.452,0.297 -0.084,0.046 -0.183,0.113 -0.288,0.182 -0.131,0.099 -0.273,0.188 -0.419,0.268 -0.082,0.068 -0.17,0.137 -0.269,0.206 -0.134,0.087 -0.259,0.171 -0.397,0.27 -0.091,0.068 -0.163,0.137 -0.251,0.19 -0.137,0.087 -0.257,0.188 -0.377,0.29 -0.088,0.061 -0.173,0.106 -0.244,0.172 -0.119,0.103 -0.25,0.207 -0.362,0.287 -0.067,0.059 -0.147,0.125 -0.226,0.191 -0.116,0.105 -0.224,0.184 -0.348,0.288 -0.072,0.064 -0.134,0.127 -0.193,0.19 -0.118,0.081 -0.24,0.189 -0.341,0.299 -0.056,0.061 -0.121,0.109 -0.186,0.154 -0.12,0.112 -0.214,0.226 -0.326,0.325 -0.057,0.042 -0.114,0.098 -0.167,0.155 -0.095,0.119 -0.209,0.221 -0.323,0.328 -0.045,0.052 -0.087,0.104 -0.125,0.156 -0.113,0.107 -0.227,0.222 -0.325,0.348 -0.031,0.045 -0.068,0.088 -0.107,0.121 -0.118,0.121 -0.225,0.255 -0.315,0.37 -0.032,0.029 -0.064,0.066 -0.095,0.104 -0.118,0.144 -0.219,0.266 -0.315,0.403 -0.022,0.029 -0.045,0.058 -0.068,0.087 -0.119,0.138 -0.216,0.285 -0.321,0.442 -0.012,0.016 -0.023,0.03 -0.036,0.042 -0.124,0.152 -0.227,0.328 -0.333,0.473 0.5571,3.9199 99.3071,-30.00433 121.9839,-34.379 9.2067,9.48331 21.4039,20.33513 32.884,18.92876 1.9835,-1.61841 3.4425,-4.20189 3.3411,-7.04676 -12.411,-3.594 -27.031,-15.578 -34.879,-16.615 z"
   id="path1841"
   sodipodi:nodetypes="ccccccccccccccccccscccccccccccccccccc"
   style="fill:#f5154f;fill-opacity:1" /><path
   fill="#1a1a1a"
   d="m 273.57009,153.09609 c 0.156,0.063 0.306,0.123 0.464,0.187 -0.158,-0.064 -0.307,-0.126 -0.464,-0.187 z"
   id="path1843" /><path
   fill="#1A1A1A"
   d="m 273.09709,152.84709 c -5.579,-2.882 -17.262,-13.358 -32.815,-18.231 -24.208,-7.554 -121.307,34.092 -121.977,34.376 -4.971,7.435 -2.211,15.331 -10.841,22.966 -0.016,0.013 -0.042,0.023 -0.06,0.034 33.1591,-17.875 99.1651,-38.11 118.7491,-34.331 9.123,1.756 19.9049,12.083 31.08,24.761 5.4286,-9.74242 11.3007,-19.12191 15.851,-29.583 0,0.003 0.01,0.006 0.013,0.008 z"
   id="path1845"
   sodipodi:nodetypes="ccccccccc"
   style="fill:#ff1652;fill-opacity:1" /><path
   d="m 273.09709,152.84709 c 0.172,0.088 0.313,0.173 0.473,0.249 -0.161,-0.077 -0.301,-0.161 -0.473,-0.249 z"
   id="path1847" /><path
   d="m 257.95909,183.22809 c 0.234,0.296 0.466,0.565 0.725,0.835 l 16.384,-30.538 3.49,-6.531 c -0.344,-0.066 -0.688,-0.131 -1.038,-0.226 -0.335,-0.092 -0.673,-0.19 -1.013,-0.271 l -3.423,6.342 -15.851,29.583 c 0.235,0.268 0.467,0.535 0.726,0.806 v 0"
   id="path1851"
   style="fill:#f5154f;fill-opacity:1" /><path
   d="m 478.14709,152.83909 -3.583,-6.671 c -0.3331,0.093 -0.666,0.207 -0.996,0.311 -0.339,0.089 -0.678,0.176 -1.015,0.27 l 3.638,6.778 16.383,30.538 c 0.232,-0.27 0.492,-0.539 0.723,-0.836 0.2319,-0.27 0.494,-0.537 0.726,-0.805 z"
   id="path1855"
   style="fill:#f5154f;fill-opacity:1" /><polygon
   fill="#1a1a1a"
   points="356.946,169.294 356.943,169.296 "
   id="polygon1857"
   transform="translate(4.4343652e-5,9.4932367e-5)" /><path
   fill="#1a1a1a"
   d="m 549.08009,5.4660949 c -0.402,-0.319 -0.805,-0.618 -1.211,-0.899 l -2.347,109.9949951 53.273,7.234 C 586.72809,4.9740949 555.82209,10.762095 549.08009,5.4660949 Z"
   id="path1873"
   style="fill:#ff1652;fill-opacity:1" /><path
   fill="#141414"
   d="m 522.04309,0.14209493 c -10.823,0.403 -12.063,11.43900007 -12.182,15.19000007 v 1.227 c 0,0 2.8999,40.716 0,93.093995 9.926,2.289 38.535,5.298 38.535,5.298 0,0 0.035,-20.913995 0.685,-50.595995 0.802,-37.501 -1.211,-59.7880001 -1.211,-59.7880001 -6.4171,-4.47599997 -13.568,-4.87399997 -25.827,-4.42499997 z"
   id="path1875"
   style="fill:#f5154f;fill-opacity:1" /><path
   fill="#1a1a1a"
   d="m 200.99609,5.4660949 c 0.401,-0.319 0.805,-0.618 1.211,-0.899 l 2.322,109.9949951 -53.248,7.234 c 12.067,-116.8219951 42.959,-111.033995 49.715,-116.3299951 z"
   id="path1879"
   style="fill:#ff1652;fill-opacity:1" /><path
   fill="#141414"
   d="m 228.02209,0.14209493 c 10.833,0.403 12.069,11.43900007 12.193,15.19000007 v 1.227 c 0,0 -2.901,40.716 0,93.093995 -9.926,2.289 -38.539,5.298 -38.539,5.298 0,0 -0.051,-20.913995 -0.68,-50.595995 -0.811,-37.501 1.211,-59.7880001 1.211,-59.7880001 6.417,-4.47599997 13.566,-4.87399997 25.815,-4.42499997 z"
   id="path1881"
   style="fill:#f5154f;fill-opacity:1" /><g
   enable-background="new    "
   id="g34"
   transform="translate(778.33919,93.456255)" /><path
   id="path158940"
   style="mix-blend-mode:normal;fill:none;fill-opacity:1;stroke:#f6f8ea;stroke-width:8;stroke-linecap:round;stroke-linejoin:round;stroke-miterlimit:4;stroke-dasharray:none;stroke-opacity:1;paint-order:stroke fill markers;filter:url(#filter159727);stop-color:#000000"
   d="m 365.37339,225.97038 a 31.086768,31.086768 0 0 0 39.1886,-19.92632 31.086768,31.086768 0 0 0 -19.9253,-39.18828 31.086768,31.086768 0 0 0 -39.1882,19.92527 31.086768,31.086768 0 0 0 19.9249,39.18933 z m 5.0857,-15.60668 a 14.672615,14.672615 0 0 1 -9.4051,-18.49733 14.672615,14.672615 0 0 1 18.4971,-9.40391 14.672615,14.672615 0 0 1 9.4042,18.49594 14.672615,14.672615 0 0 1 -18.4962,9.4053 z" /><path
   id="path158654"
   style="fill:none;fill-opacity:1;stroke:#e7e7e7;stroke-width:3.61093;stroke-linecap:round;stroke-linejoin:round;stroke-miterlimit:4;stroke-dasharray:none;stroke-opacity:1;paint-order:stroke fill markers;stop-color:#000000"
   d="m 365.37339,225.97038 a 31.086768,31.086768 0 0 0 39.1886,-19.92632 31.086768,31.086768 0 0 0 -19.9253,-39.18828 31.086768,31.086768 0 0 0 -39.1882,19.92527 31.086768,31.086768 0 0 0 19.9249,39.18933 z m 5.0857,-15.60668 a 14.672615,14.672615 0 0 1 -9.4051,-18.49733 14.672615,14.672615 0 0 1 18.4971,-9.40391 14.672615,14.672615 0 0 1 9.4042,18.49594 14.672615,14.672615 0 0 1 -18.4962,9.4053 z" /><path
   id="path158656"
   style="fill:#ffffff;fill-opacity:1;stroke:none;stroke-width:3.61093;stroke-linecap:round;stroke-linejoin:round;stroke-miterlimit:4;stroke-dasharray:none;stroke-opacity:1;paint-order:stroke fill markers;stop-color:#000000"
   d="m 365.37339,225.97038 a 31.086768,31.086768 0 0 0 39.1882,-19.92528 31.086768,31.086768 0 0 0 1.4625,-11.60504 l -16.4791,0.008 a 14.672615,14.672615 0 0 1 -0.5897,6.51085 14.672615,14.672615 0 0 1 -18.4962,9.4053 14.672615,14.672615 0 0 1 -9.9965,-15.90432 l -16.4825,0.008 a 31.086768,31.086768 0 0 0 21.3933,31.50348 z" /><path
   id="path158658"
   style="fill:#21201e;fill-opacity:1;stroke:none;stroke-width:3.61093;stroke-linecap:round;stroke-linejoin:round;stroke-miterlimit:4;stroke-dasharray:none;stroke-opacity:1;paint-order:stroke fill markers;stop-color:#000000"
   d="m 365.37199,225.97198 a 31.086768,31.086768 0 0 1 -1.9467,-0.70946 31.086768,31.086768 0 0 0 1.9467,0.70946 z m -2.0827,-0.76394 a 31.086768,31.086768 0 0 1 -1.8537,-0.82611 31.086768,31.086768 0 0 0 1.8537,0.82611 z m 4.233,1.37503 a 31.086768,31.086768 0 0 0 0.6841,0.14784 31.086768,31.086768 0 0 1 -0.6841,-0.14784 z m -6.2132,-2.26356 a 31.086768,31.086768 0 0 1 -1.8369,-0.97765 31.086768,31.086768 0 0 0 1.8369,0.97765 z m -1.8369,-0.97765 a 31.086768,31.086768 0 0 1 -1.7757,-1.10685 31.086768,31.086768 0 0 0 1.7757,1.10685 z m 10.2257,3.69555 a 31.086768,31.086768 0 0 0 0.8695,0.12643 31.086768,31.086768 0 0 1 -0.8695,-0.12643 z m 2.2094,0.2994 a 31.086768,31.086768 0 0 0 0.9355,0.0716 31.086768,31.086768 0 0 1 -0.9355,-0.0716 z m -14.3019,-5.1629 a 31.086768,31.086768 0 0 1 -1.653,-1.19804 31.086768,31.086768 0 0 0 1.653,1.19804 z m 16.5337,5.30357 a 31.086768,31.086768 0 0 0 0.9533,0.007 31.086768,31.086768 0 0 1 -0.9533,-0.007 z m -18.2985,-6.5886 a 31.086768,31.086768 0 0 1 -1.5816,-1.32397 31.086768,31.086768 0 0 0 1.5816,1.32397 z m 20.5302,6.56789 a 31.086768,31.086768 0 0 0 0.9816,-0.0592 31.086768,31.086768 0 0 1 -0.9816,0.0592 z m -22.1532,-7.92998 a 31.086768,31.086768 0 0 1 -1.5062,-1.44857 31.086768,31.086768 0 0 0 1.5062,1.44857 z m 24.3681,7.75125 a 31.086768,31.086768 0 0 0 0.9928,-0.12841 31.086768,31.086768 0 0 1 -0.9928,0.12841 z m -25.9121,-9.23891 a 31.086768,31.086768 0 0 1 -1.3741,-1.51659 31.086768,31.086768 0 0 0 1.3741,1.51659 z m 28.1542,8.89407 a 31.086768,31.086768 0 0 0 0.9284,-0.18531 31.086768,31.086768 0 0 1 -0.9284,0.18531 z m -29.6382,-10.54177 a 31.086768,31.086768 0 0 1 -1.257,-1.60061 31.086768,31.086768 0 0 0 1.257,1.60061 z m 31.8737,10.02762 a 31.086768,31.086768 0 0 0 0.8502,-0.23099 31.086768,31.086768 0 0 1 -0.8502,0.23099 z m -33.1862,-11.70575 a 31.086768,31.086768 0 0 1 -1.1641,-1.71387 31.086768,31.086768 0 0 0 1.1641,1.71387 z m 35.3932,11.02427 a 31.086768,31.086768 0 0 0 0.7637,-0.26483 31.086768,31.086768 0 0 1 -0.7637,0.26483 z m -36.5804,-12.77377 a 31.086768,31.086768 0 0 1 -1.0447,-1.79494 31.086768,31.086768 0 0 0 1.0447,1.79494 z m 38.9147,11.85331 a 31.086768,31.086768 0 0 0 0.4832,-0.2059 31.086768,31.086768 0 0 1 -0.4832,0.2059 z m -40.016,-13.75307 a 31.086768,31.086768 0 0 1 -0.9114,-1.8491 31.086768,31.086768 0 0 0 0.9114,1.8491 z m 42.4899,12.53497 a 31.086768,31.086768 0 0 0 0.4665,-0.27864 31.086768,31.086768 0 0 1 -0.4665,0.27864 z m -43.4397,-14.46944 a 31.086768,31.086768 0 0 1 -0.7944,-1.94332 31.086768,31.086768 0 0 0 0.7944,1.94332 z m 45.3432,13.3189 a 31.086768,31.086768 0 0 0 0.6827,-0.47393 31.086768,31.086768 0 0 1 -0.6827,0.47393 z m -46.1441,-15.28007 a 31.086768,31.086768 0 0 1 -0.652,-1.97425 31.086768,31.086768 0 0 0 0.652,1.97425 z m 47.9744,13.98576 a 31.086768,31.086768 0 0 0 0.6752,-0.54033 31.086768,31.086768 0 0 1 -0.6752,0.54033 z m -48.6591,-16.06593 a 31.086768,31.086768 0 0 1 -0.5064,-1.99073 31.086768,31.086768 0 0 0 0.5064,1.99073 z m 50.3905,14.64519 a 31.086768,31.086768 0 0 0 0.674,-0.61923 31.086768,31.086768 0 0 1 -0.674,0.61923 z m -50.9209,-16.74807 a 31.086768,31.086768 0 0 1 -0.3747,-2.05776 31.086768,31.086768 0 0 0 0.3747,2.05776 z m 25.8351,7.37918 a 14.672615,14.672615 0 0 0 1.5073,0.39914 14.672615,14.672615 0 0 1 -1.5073,-0.39914 z m -1.3286,-0.50696 a 14.672615,14.672615 0 0 1 -0.054,-0.0241 14.672615,14.672615 0 0 0 0.054,0.0241 z m 3.292,0.9829 a 14.672615,14.672615 0 0 0 1.075,0.15977 14.672615,14.672615 0 0 1 -1.075,-0.15977 z m -4.5871,-1.62714 a 14.672615,14.672615 0 0 1 -0.085,-0.0493 14.672615,14.672615 0 0 0 0.085,0.0493 z m 6.2589,1.82753 a 14.672615,14.672615 0 0 0 0.9404,0.0327 14.672615,14.672615 0 0 1 -0.9404,-0.0327 z m 23.0572,7.16926 a 31.086768,31.086768 0 0 0 0.6717,-0.70858 31.086768,31.086768 0 0 1 -0.6717,0.70858 z m -52.9046,-17.29922 a 31.086768,31.086768 0 0 1 -0.2316,-2.08065 31.086768,31.086768 0 0 0 0.2316,2.08065 z m 31.4401,10.14321 a 14.672615,14.672615 0 0 0 0.9228,-0.0716 14.672615,14.672615 0 0 1 -0.9228,0.0716 z m -10.2319,-3.50457 a 14.672615,14.672615 0 0 1 -0.064,-0.0545 14.672615,14.672615 0 0 0 0.064,0.0545 z m 11.7725,3.35399 a 14.672615,14.672615 0 0 0 0.9486,-0.18205 14.672615,14.672615 0 0 1 -0.9486,0.18205 z m -12.831,-4.3561 a 14.672615,14.672615 0 0 1 -0.066,-0.0709 14.672615,14.672615 0 0 0 0.066,0.0709 z m 14.3601,4.04136 a 14.672615,14.672615 0 0 0 1.0034,-0.31227 14.672615,14.672615 0 0 1 -1.0034,0.31227 z m 19.9072,5.96777 a 31.086768,31.086768 0 0 0 0.613,-0.74223 31.086768,31.086768 0 0 1 -0.613,0.74223 z m -54.6566,-17.81497 a 31.086768,31.086768 0 0 1 -0.084,-2.07084 31.086768,31.086768 0 0 0 0.084,2.07084 z m 36.2278,11.37471 a 14.672615,14.672615 0 0 0 1.4205,-0.62498 14.672615,14.672615 0 0 1 -1.4205,0.62498 z m 1.4205,-0.62498 a 14.672615,14.672615 0 0 0 1.3421,-0.78056 14.672615,14.672615 0 0 1 -1.3421,0.78056 z m -19.0469,-5.23209 a 14.672615,14.672615 0 0 1 -0.047,-0.0759 14.672615,14.672615 0 0 0 0.047,0.0759 z m -0.7254,-1.28384 a 14.672615,14.672615 0 0 1 -0.031,-0.0616 14.672615,14.672615 0 0 0 0.031,0.0616 z m -17.9611,-6.40246 a 31.086768,31.086768 0 0 1 0.058,-2.08725 31.086768,31.086768 0 0 0 -0.058,2.08725 z m 56.1435,18.2077 a 31.086768,31.086768 0 0 0 0.5449,-0.75998 31.086768,31.086768 0 0 1 -0.5449,0.75998 z m -16.6625,-6.35718 a 14.672615,14.672615 0 0 0 0.8448,-0.62749 14.672615,14.672615 0 0 1 -0.8448,0.62749 z m -22.549,-8.14078 a 14.672615,14.672615 0 0 1 -0.027,-0.0972 14.672615,14.672615 0 0 0 0.027,0.0972 z m -16.8727,-5.81558 16.4814,-0.008 a 14.672615,14.672615 0 0 0 0,0.0241 14.672615,14.672615 0 0 1 0.5937,-2.61692 14.672615,14.672615 0 0 1 18.4969,-9.40393 14.672615,14.672615 0 0 1 9.9947,11.99321 14.672615,14.672615 0 0 0 0,-0.009 l 16.4791,-0.007 a 31.086768,31.086768 0 0 0 -21.3874,-27.58429 31.086768,31.086768 0 0 0 -39.1882,19.92529 31.086768,31.086768 0 0 0 -1.4674,7.68617 z m 62.043,-0.0271 a 31.086768,31.086768 0 0 1 0.032,0.99045 31.086768,31.086768 0 0 0 -0.032,-0.99045 z m -16.4783,0.0156 a 14.672615,14.672615 0 0 1 0.1166,1.4903 14.672615,14.672615 0 0 0 -0.1166,-1.4903 z m 11.7815,18.46205 a 31.086768,31.086768 0 0 0 0.4874,-0.7866 31.086768,31.086768 0 0 1 -0.4874,0.7866 z m -16.6225,-5.51998 a 14.672615,14.672615 0 0 0 0.688,-0.64157 14.672615,14.672615 0 0 1 -0.688,0.64157 z m -24.1688,-8.5554 a 14.672615,14.672615 0 0 1 -0.013,-0.0816 14.672615,14.672615 0 0 0 0.013,0.0816 z m 25.3014,7.4441 a 14.672615,14.672615 0 0 0 0.6053,-0.70776 14.672615,14.672615 0 0 1 -0.6053,0.70776 z m -25.4703,-8.88077 a 14.672615,14.672615 0 0 1 -0.01,-0.0645 14.672615,14.672615 0 0 0 0.01,0.0645 z m 42.0825,13.56865 a 31.086768,31.086768 0 0 0 0.4332,-0.81998 31.086768,31.086768 0 0 1 -0.4332,0.81998 z m -15.6256,-5.88807 a 14.672615,14.672615 0 0 0 0.5455,-0.8069 14.672615,14.672615 0 0 1 -0.5455,0.8069 z m -26.4829,-9.13226 a 14.672615,14.672615 0 0 1 0,-0.0886 14.672615,14.672615 0 0 0 0,0.0886 z m 27.3378,7.83404 a 14.672615,14.672615 0 0 0 0.4876,-0.92897 14.672615,14.672615 0 0 1 -0.4876,0.92897 z m 15.7864,5.08476 a 31.086768,31.086768 0 0 0 0.3308,-0.74339 31.086768,31.086768 0 0 1 -0.3308,0.74339 z m -15.0708,-6.4721 a 14.672615,14.672615 0 0 0 0.5609,-1.44223 14.672615,14.672615 0 0 1 -0.5609,1.44223 z m 0.5609,-1.44223 a 14.672615,14.672615 0 0 0 0.3844,-1.45484 14.672615,14.672615 0 0 1 -0.3844,1.45484 z m 0.4697,-1.91945 a 14.672615,14.672615 0 0 0 0.1536,-1.03551 14.672615,14.672615 0 0 1 -0.1536,1.03551 z m 15.725,4.93912 a 31.086768,31.086768 0 0 0 0.1651,-0.73689 31.086768,31.086768 0 0 1 -0.1651,0.73689 z m -15.5232,-6.50517 a 14.672615,14.672615 0 0 0 0.035,-1.03709 14.672615,14.672615 0 0 1 -0.035,1.03709 z m 15.9706,4.39566 a 31.086768,31.086768 0 0 0 0.1411,-0.89042 31.086768,31.086768 0 0 1 -0.1411,0.89042 z m 0.299,-2.11857 a 31.086768,31.086768 0 0 0 0.092,-0.96603 31.086768,31.086768 0 0 1 -0.092,0.96603 z m 0.1541,-2.15238 a 31.086768,31.086768 0 0 0 0.031,-0.99695 31.086768,31.086768 0 0 1 -0.031,0.99695 z" /><path
   d="m 359.86189,185.59522 c 0,0 -3.9228,-3.18922 -3.9228,-3.18922 0,0 5.5766,1.15502 5.5766,1.15502 0,0 1.3453,-1.65471 1.3453,-1.65471 0,0 -3.6479,-0.7597 -3.6479,-0.7597 0,0 0,0 0,0 0.1969,-0.52152 0.2248,-1.03382 0.08,-1.53234 -0.1436,-0.49051 -0.4386,-0.92093 -0.8843,-1.28325 0,0 0,0 0,0 -0.3706,-0.30127 -0.7769,-0.47771 -1.2269,-0.52827 -0.4454,-0.047 -0.875,0.0215 -1.2841,0.20927 -0.4092,0.18773 -0.764,0.47093 -1.0689,0.846 0,0 -2.5507,3.13734 -2.5507,3.13734 0,0 6.3276,5.14434 6.3276,5.14434 0,0 1.2557,-1.54439 1.2557,-1.54439 z m -4.7789,-3.88518 c 0,0 1.4315,-1.76061 1.4315,-1.76061 0,0 0,0 0,0 0.09,-0.1103 0.2083,-0.17511 0.3559,-0.19438 0.144,-0.0149 0.2733,0.0243 0.3836,0.11413 0.1103,0.0896 0.1751,0.2083 0.1899,0.35232 0.011,0.14835 -0.028,0.27773 -0.1176,0.38806 0,0 -1.4314,1.76061 -1.4314,1.76061 0,0 -0.8119,-0.66002 -0.8119,-0.66002 z"
   id="path158660"
   style="font-weight:bold;font-size:5.64444px;line-height:1.25;font-family:'RC Font';-inkscape-font-specification:'RC Font Bold';letter-spacing:0.132292px;word-spacing:0px;fill:#ff1652;stroke-width:0.308549" /><path
   d="m 362.32019,179.38579 c 0.4053,0.37537 0.8459,0.64398 1.3168,0.80812 0.4709,0.16412 0.9644,0.22141 1.4908,0.17942 0.5213,-0.0395 1.0372,-0.19077 1.5503,-0.4489 0,0 0,0 0,0 0.6858,-0.34502 1.2187,-0.80413 1.6014,-1.37222 0.3825,-0.56811 0.5794,-1.21454 0.5954,-1.92925 0.016,-0.7147 -0.1613,-1.44671 -0.5344,-2.18842 -0.3731,-0.7417 -0.8553,-1.32036 -1.4387,-1.73348 -0.5834,-0.41318 -1.2198,-0.64045 -1.904,-0.67179 -0.6842,-0.0314 -1.3705,0.12291 -2.0564,0.46796 0,0 0,0 0,0 -0.513,0.25814 -0.942,0.58219 -1.2844,0.97724 -0.3474,0.3976 -0.5956,0.82801 -0.7445,1.30398 -0.1488,0.476 -0.1959,0.98982 -0.136,1.53901 0.054,0.55177 0.2265,1.1083 0.5077,1.66711 0.2811,0.55883 0.6256,1.02848 1.036,1.40132 z m 0.4532,-3.92026 c 0.1614,-0.52686 0.5147,-0.92664 1.0576,-1.20047 0.5435,-0.27349 1.08,-0.32059 1.5993,-0.13621 0.5193,0.1843 0.9297,0.56986 1.2236,1.15414 0.2939,0.58423 0.3589,1.14359 0.1974,1.67043 -0.1615,0.52686 -0.519,0.92957 -1.0626,1.20303 -0.5436,0.27349 -1.075,0.31804 -1.5943,0.13366 -0.5193,-0.18431 -0.9297,-0.56987 -1.2236,-1.15415 -0.2939,-0.58423 -0.3589,-1.14358 -0.1974,-1.67043 z"
   id="path158662"
   style="font-weight:bold;font-size:5.64444px;line-height:1.25;font-family:'RC Font';-inkscape-font-specification:'RC Font Bold';letter-spacing:0.132292px;word-spacing:0px;fill:#ff1652;stroke-width:0.308549" /><path
   d="m 375.31189,177.70231 c 0,0 -0.2228,-1.97789 -0.2228,-1.97789 0,0 -2.3169,0.26091 -2.3169,0.26091 0,0 -0.6885,-6.11452 -0.6885,-6.11452 0,0 -1.9666,0.22146 -1.9666,0.22146 0,0 0.9113,8.09243 0.9113,8.09243 0,0 4.2835,-0.48239 4.2835,-0.48239 z"
   id="path158664"
   style="font-weight:bold;font-size:5.64444px;line-height:1.25;font-family:'RC Font';-inkscape-font-specification:'RC Font Bold';letter-spacing:0.132292px;word-spacing:0px;fill:#ff1652;stroke-width:0.308549" /><path
   d="m 380.32379,178.47012 c 0,0 0.3173,-1.96496 0.3173,-1.96496 0,0 -2.3018,-0.37167 -2.3018,-0.37167 0,0 0.9808,-6.07448 0.9808,-6.07448 0,0 -1.9537,-0.31548 -1.9537,-0.31548 0,0 -1.2982,8.03944 -1.2982,8.03944 0,0 4.2556,0.68715 4.2556,0.68715 z"
   id="path158666"
   style="font-weight:bold;font-size:5.64444px;line-height:1.25;font-family:'RC Font';-inkscape-font-specification:'RC Font Bold';letter-spacing:0.132292px;word-spacing:0px;fill:#ff1652;stroke-width:0.308549" /><path
   d="m 382.57019,174.82537 c -0.3653,0.69456 -0.5564,1.38458 -0.5686,2.06604 -0.02,0.68386 0.1471,1.31833 0.4984,1.89572 0.3436,0.57979 0.855,1.04868 1.5241,1.40147 0,0 2.5404,1.33932 2.5404,1.33932 0,0 0.9232,-1.75052 0.9232,-1.75052 0,0 -2.5404,-1.33932 -2.5404,-1.33932 0,0 0,0 0,0 -0.3371,-0.17771 -0.5935,-0.43516 -0.7768,-0.78245 -0.186,-0.34234 -0.2336,-0.72748 -0.1353,-1.1578 0,0 3.0884,1.62895 3.0884,1.62895 0,0 0.7834,-1.48352 0.7834,-1.48352 0,0 -3.0584,-1.6129 -3.0584,-1.6129 0,0 0,0 0,0 0.2677,-0.26386 0.5992,-0.41698 0.9893,-0.46198 0.3902,-0.0451 0.7474,0.0212 1.0744,0.1936 0,0 2.5204,1.32863 2.5204,1.32863 0,0 0.9312,-1.76555 0.9312,-1.76555 0,0 -2.5304,-1.33398 -2.5304,-1.33398 0,0 0,0 0,0 -0.4778,-0.25218 -0.9784,-0.40011 -1.494,-0.43414 -0.5157,-0.034 -1.0054,0.0292 -1.4644,0.19228 -0.4638,0.16042 -0.8968,0.42073 -1.2989,0.78092 -0.402,0.36019 -0.7368,0.78797 -1.0048,1.29604 0,0 0,0 0,0 z"
   id="path158668"
   style="font-weight:bold;font-size:5.64444px;line-height:1.25;font-family:'RC Font';-inkscape-font-specification:'RC Font Bold';letter-spacing:0.132292px;word-spacing:0px;fill:#ff1652;stroke-width:0.308549" /><path
   d="m 388.54769,183.65802 c 0,0 3.8838,-3.23654 3.8838,-3.23654 0,0 -2.2054,5.25053 -2.2054,5.25053 0,0 1.3652,1.63828 1.3652,1.63828 0,0 1.4468,-3.43386 1.4468,-3.43386 0,0 0,0 0,0 0.474,0.29343 0.9712,0.41947 1.4883,0.3735 0.509,-0.0466 0.9881,-0.25339 1.4293,-0.6211 0,0 0,0 0,0 0.367,-0.30578 0.6182,-0.6706 0.7544,-1.10234 0.1318,-0.42815 0.1471,-0.86283 0.042,-1.30044 -0.1056,-0.4376 -0.3153,-0.84025 -0.6247,-1.2116 0,0 -2.5885,-3.10616 -2.5885,-3.10616 0,0 -6.2649,5.22072 -6.2649,5.22072 0,0 1.2743,1.52905 1.2743,1.52905 z m 4.7314,-3.94285 c 0,0 1.4526,1.74313 1.4526,1.74313 0,0 0,0 0,0 0.091,0.10925 0.1318,0.23808 0.1224,0.38664 -0.014,0.14421 -0.077,0.26363 -0.1865,0.35422 -0.1092,0.091 -0.238,0.13181 -0.3822,0.11869 -0.1478,-0.0175 -0.2672,-0.0809 -0.3583,-0.19003 0,0 -1.4526,-1.74312 -1.4526,-1.74312 0,0 0.8039,-0.6699 0.8039,-0.6699 z"
   id="path158670"
   style="font-weight:bold;font-size:5.64444px;line-height:1.25;font-family:'RC Font';-inkscape-font-specification:'RC Font Bold';letter-spacing:0.132292px;word-spacing:0px;fill:#ff1652;stroke-width:0.308549" /><path
   d="m 352.62699,205.44633 c -0.5486,0.31575 -0.9751,0.70499 -1.2832,1.17012 -0.3081,0.46514 -0.4687,0.9734 -0.482,1.52476 -0.016,0.54738 0.1299,1.08739 0.4364,1.62005 0,0 0.023,0.0403 0.023,0.0403 0,0 1.1407,1.98244 1.1407,1.98244 0,0 1.3937,-0.80199 1.3937,-0.80199 0,0 -1.1499,-1.99846 -1.1499,-1.99846 0,0 0,0 0,0 -0.2373,-0.41254 -0.2913,-0.80263 -0.1599,-1.1767 0.1312,-0.37406 0.4271,-0.69361 0.8877,-0.95861 0,0 0,0 0,0 0.4285,-0.2465 0.8478,-0.33323 1.2555,-0.26393 0.4036,0.0716 0.7196,0.30561 0.9477,0.7021 0,0 1.1545,2.00646 1.1545,2.00646 0,0 1.4057,-0.80876 1.4057,-0.80876 0,0 -1.1591,-2.01447 -1.1591,-2.01447 0,0 0,0 0,0 -0.2187,-0.3805 -0.4984,-0.6994 -0.8377,-0.94657 -0.3395,-0.24716 -0.7034,-0.41627 -1.0893,-0.50338 -0.3884,-0.0911 -0.7987,-0.10021 -1.2312,-0.0273 -0.4325,0.073 -0.8481,0.22145 -1.2526,0.45422 0,0 0,0 0,0 z"
   id="path158672"
   style="font-weight:bold;font-size:4.58611px;line-height:1.25;font-family:'RC Font';-inkscape-font-specification:'RC Font Bold';letter-spacing:0.648229px;word-spacing:0px;stroke-width:0.526591" /><path
   d="m 354.71219,214.37924 c 0,0 1.8828,-1.89412 1.8828,-1.89412 0,0 1.5828,1.57333 1.5828,1.57333 0,0 -1.8827,1.89411 -1.8827,1.89411 0,0 1.1436,1.13685 1.1436,1.13685 0,0 4.6646,-4.69273 4.6646,-4.69273 0,0 -1.1437,-1.13684 -1.1437,-1.13684 0,0 -1.8306,1.84171 -1.8306,1.84171 0,0 -1.5828,-1.57334 -1.5828,-1.57334 0,0 1.8306,-1.84168 1.8306,-1.84168 0,0 -1.1404,-1.13358 -1.1404,-1.13358 0,0 -4.6646,4.69273 -4.6646,4.69273 0,0 1.1404,1.13356 1.1404,1.13356 z"
   id="path158674"
   style="font-weight:bold;font-size:4.58611px;line-height:1.25;font-family:'RC Font';-inkscape-font-specification:'RC Font Bold';letter-spacing:0.648229px;word-spacing:0px;stroke-width:0.526591" /><path
   d="m 360.26809,218.96581 c 0,0 3.3517,-3.58307 3.3517,-3.58307 0,0 -0.9033,3.11976 -0.9033,3.11976 0,0 -0.9051,-0.51147 -0.9051,-0.51147 0,0 -1.0887,1.23166 -1.0887,1.23166 0,0 3.0009,1.69587 3.0009,1.69587 0,0 1.8514,-6.55384 1.8514,-6.55384 0,0 -2.0999,-1.18665 -2.0999,-1.18665 0,0 -4.6552,4.96936 -4.6552,4.96936 0,0 1.4482,0.81838 1.4482,0.81838 z"
   id="path158676"
   style="font-weight:bold;font-size:4.58611px;line-height:1.25;font-family:'RC Font';-inkscape-font-specification:'RC Font Bold';letter-spacing:0.648229px;word-spacing:0px;stroke-width:0.526591" /><path
   d="m 366.79719,221.99073 c 0,0 1.3202,-3.42244 1.3202,-3.42244 0,0 0.3066,3.76931 0.3066,3.76931 0,0 1.1298,0.24089 1.1298,0.24089 0,0 1.8761,-3.30395 1.8761,-3.30395 0,0 -0.2403,3.65273 -0.2403,3.65273 0,0 1.5772,0.33628 1.5772,0.33628 0,0 0.3042,-6.70053 0.3042,-6.70053 0,0 -1.4642,-0.31217 -1.4642,-0.31217 0,0 -2.0658,3.6178 -2.0658,3.6178 0,0 -0.4015,-4.14389 -0.4015,-4.14389 0,0 -1.4642,-0.31217 -1.4642,-0.31217 0,0 -2.4553,6.24188 -2.4553,6.24188 0,0 1.5772,0.33626 1.5772,0.33626 z"
   id="path158678"
   style="font-weight:bold;font-size:4.58611px;line-height:1.25;font-family:'RC Font';-inkscape-font-specification:'RC Font Bold';letter-spacing:0.648229px;word-spacing:0px;stroke-width:0.526591" /><path
   d="m 376.42539,223.01314 c 0,0 -0.5001,-4.97902 -0.5001,-4.97902 0,0 1.8343,-0.18426 1.8343,-0.18426 0,0 0,0 0,0 0.115,-0.0115 0.2158,0.0201 0.3068,0.0946 0.091,0.0745 0.1424,0.17147 0.1541,0.28633 0.012,0.11491 -0.02,0.22028 -0.094,0.3113 -0.075,0.0911 -0.1669,0.14221 -0.2818,0.15375 0,0 -1.5217,0.15283 -1.5217,0.15283 0,0 0.1615,1.60911 0.1615,1.60911 0,0 1.3563,-0.13622 1.3563,-0.13622 0,0 0,0 0,0 0.6483,-0.0651 1.1539,-0.30162 1.5077,-0.70864 0.3539,-0.40705 0.4953,-0.94134 0.4292,-1.59878 0,0 0,0 0,0 -0.067,-0.66663 -0.3099,-1.14374 -0.7243,-1.43183 -0.4144,-0.28809 -0.9547,-0.39635 -1.6213,-0.32941 0,0 -3.2779,0.32924 -3.2779,0.32924 0,0 0.6621,6.59273 0.6621,6.59273 0,0 1.6091,-0.16161 1.6091,-0.16161 z"
   id="path158680"
   style="font-weight:bold;font-size:4.58611px;line-height:1.25;font-family:'RC Font';-inkscape-font-specification:'RC Font Bold';letter-spacing:0.648229px;word-spacing:0px;stroke-width:0.526591" /><path
   d="m 383.42099,221.60004 c 0,0 -1.9647,-6.31821 -1.9647,-6.31821 0,0 -1.5355,0.4775 -1.5355,0.4775 0,0 1.9647,6.31823 1.9647,6.31823 0,0 1.5355,-0.4775 1.5355,-0.4775 z"
   id="path158682"
   style="font-weight:bold;font-size:4.58611px;line-height:1.25;font-family:'RC Font';-inkscape-font-specification:'RC Font Bold';letter-spacing:0.648229px;word-spacing:0px;stroke-width:0.526591" /><path
   d="m 384.38529,219.36521 c 0.3425,0.2901 0.71,0.49207 1.0981,0.60828 0.3882,0.11622 0.7909,0.14487 1.2166,0.0918 0.4216,-0.051 0.835,-0.19227 1.2421,-0.42035 0,0 0,0 0,0 0.5442,-0.30492 0.9602,-0.69676 1.2502,-1.1717 0.2901,-0.47495 0.4264,-1.00678 0.4136,-1.58748 -0.013,-0.58069 -0.1831,-1.16847 -0.5128,-1.75703 -0.3297,-0.58858 -0.742,-1.04081 -1.2305,-1.35506 -0.4885,-0.31423 -1.0132,-0.47573 -1.5697,-0.47648 -0.5565,-7.2e-4 -1.108,0.14932 -1.6522,0.45417 0,0 0,0 0,0 -0.4071,0.22808 -0.7437,0.50657 -1.0073,0.83964 -0.2677,0.33533 -0.4535,0.69363 -0.5572,1.08535 -0.1036,0.3917 -0.1232,0.8105 -0.055,1.2541 0.065,0.44591 0.224,0.89143 0.4723,1.33485 0.2485,0.44342 0.545,0.81218 0.8916,1.1 z m 0.2262,-3.19844 c 0.112,-0.43348 0.3836,-0.77103 0.815,-1.01264 0.4314,-0.24164 0.8651,-0.29919 1.2933,-0.16836 0.4281,0.13088 0.7752,0.42901 1.0349,0.89259 0.2597,0.46357 0.3327,0.91522 0.2206,1.34874 -0.112,0.43347 -0.3878,0.7733 -0.8191,1.0149 -0.4313,0.24164 -0.8611,0.29693 -1.2892,0.1661 -0.4282,-0.13089 -0.7752,-0.42902 -1.0349,-0.8926 -0.2597,-0.46356 -0.3326,-0.9153 -0.2206,-1.34873 z"
   id="path158684"
   style="font-weight:bold;font-size:4.58611px;line-height:1.25;font-family:'RC Font';-inkscape-font-specification:'RC Font Bold';letter-spacing:0.648229px;word-spacing:0px;stroke-width:0.526591" /><path
   d="m 393.18949,215.74709 c 0,0 -2.3756,-2.33555 -2.3756,-2.33555 0,0 3.7879,0.89899 3.7879,0.89899 0,0 1.2893,-1.31138 1.2893,-1.31138 0,0 -4.7249,-4.64522 -4.7249,-4.64522 0,0 -1.1273,1.14664 -1.1273,1.14664 0,0 2.8204,2.77288 2.8204,2.77288 0,0 -4.4789,-1.08588 -4.4789,-1.08588 0,0 -1.0496,1.06755 -1.0496,1.06755 0,0 4.7249,4.6452 4.7249,4.6452 0,0 1.1338,-1.15323 1.1338,-1.15323 z"
   id="path158686"
   style="font-weight:bold;font-size:4.58611px;line-height:1.25;font-family:'RC Font';-inkscape-font-specification:'RC Font Bold';letter-spacing:0.648229px;word-spacing:0px;stroke-width:0.526591" /><path
   d="m 398.63329,208.57673 c 0,0 0,0 0,0 0.088,-0.15728 0.1581,-0.32983 0.2081,-0.51368 0.054,-0.18161 0.08,-0.37897 0.077,-0.59217 0,-0.21327 -0.036,-0.41748 -0.1,-0.61698 -0.063,-0.19942 -0.1761,-0.39502 -0.3389,-0.58668 -0.1629,-0.19164 -0.3723,-0.35659 -0.6264,-0.49868 0,0 0,0 0,0 -0.5645,-0.31589 -1.0983,-0.40276 -1.5951,-0.26244 -0.4968,0.1403 -0.9165,0.49322 -1.2548,1.05041 0,0 -0.7039,1.25809 -0.7039,1.25809 0,0 0,0 0,0 -0.056,0.10079 -0.1424,0.16922 -0.2556,0.20121 -0.1129,0.0326 -0.2221,0.0187 -0.323,-0.0378 -0.1008,-0.0563 -0.1692,-0.14233 -0.2012,-0.25552 -0.032,-0.11294 -0.019,-0.22217 0.038,-0.32303 0,0 1.4981,-2.67745 1.4981,-2.67745 0,0 -1.4073,-0.78738 -1.4073,-0.78738 0,0 -1.383,2.47179 -1.383,2.47179 0,0 0,0 0,0 -0.1895,0.33871 -0.2946,0.68755 -0.3218,1.0483 -0.023,0.363 0.05,0.70565 0.219,1.02795 0.1668,0.32639 0.4237,0.58651 0.7705,0.78052 0,0 0,0 0,0 0.4718,0.26397 0.9608,0.33637 1.4652,0.21088 0.502,-0.12144 0.8885,-0.42411 1.1569,-0.90395 0,0 0.7017,-1.25406 0.7017,-1.25406 0,0 0,0 0,0 0.1016,-0.18146 0.2227,-0.29365 0.3591,-0.33908 0.1341,-0.042 0.2722,-0.0225 0.4092,0.0542 0,0 0,0 0,0 0.1654,0.0925 0.2616,0.2045 0.2821,0.33793 0.024,0.1357 -0.018,0.29708 -0.1285,0.49462 0,0 -1.6086,2.87503 -1.6086,2.87503 0,0 1.4113,0.78966 1.4113,0.78966 0,0 1.6515,-2.95165 1.6515,-2.95165 z"
   id="path158688"
   style="font-weight:bold;font-size:4.58611px;line-height:1.25;font-family:'RC Font';-inkscape-font-specification:'RC Font Bold';letter-spacing:0.648229px;word-spacing:0px;stroke-width:0.526591" /><path
   id="path158690"
   style="fill:#ff1652;fill-opacity:1;stroke:none;stroke-width:3.61093;stroke-linecap:round;stroke-linejoin:round;stroke-miterlimit:4;stroke-dasharray:none;stroke-opacity:1;paint-order:stroke fill markers;stop-color:#000000"
   d="m 345.63539,201.5132 2.3489,-0.002 -3e-4,-2.34959 -2.3499,0.002 z m 0,-2.34993 -6e-4,-2.34854 -1.6375,1.9e-4 a 31.086768,31.086768 0 0 0 0.012,1.85889 31.086768,31.086768 0 0 0 0.012,0.16762 31.086768,31.086768 0 0 0 0.047,0.3227 z m -6e-4,-2.34854 2.3489,-0.002 -4e-4,-2.34958 -2.35,0.002 z m 2.3489,-0.002 v 2.34894 l 2.3485,-6.7e-4 -3e-4,-2.34959 z m 2.3498,-0.002 2.3486,-6.4e-4 -3e-4,-2.34959 -2.3499,0.002 z m 2.3486,-6.4e-4 v 2.34888 l 2.3496,-2.9e-4 v -2.3499 z m 2.35,-0.002 2.3495,-3.3e-4 v -2.34993 l -2.3499,0.002 z m 2.3495,-3.3e-4 6e-4,2.34854 2.3497,-3.4e-4 v -2.3499 z m 2.3489,-0.002 0.6552,-7.2e-4 a 14.672615,14.672615 0 0 1 0.077,-2.3255 14.672615,14.672615 0 0 1 0.01,-0.0228 l -0.7382,5.8e-4 z m 0,2.34989 7e-4,2.34861 1.5905,-7.8e-4 a 14.672615,14.672615 0 0 1 -0.6602,-2.34822 z m -2.3496,3.4e-4 -2.3488,0.002 6e-4,2.34854 2.3495,-3.1e-4 z m -4.6985,0.002 -2.3499,0.002 v 2.34891 l 2.3485,-6.8e-4 z m 36.0507,2.33399 1.5399,-6e-4 v -2.3499 l -0.8626,3.7e-4 a 14.672615,14.672615 0 0 1 -0.4533,1.81486 14.672615,14.672615 0 0 1 -0.2226,0.5353 z m 1.5386,-2.3505 2.3499,-0.002 v -2.34894 l -2.3486,6.5e-4 v -2.34652 l -0.7246,5e-4 a 14.672615,14.672615 0 0 1 0.062,2.34745 l 0.6629,-3.5e-4 z m 2.3482,-2.35026 2.35,-0.002 -3e-4,-2.34619 -2.3497,2.7e-4 z m 2.35,-0.002 v 2.34992 l 2.3488,-0.002 -6e-4,-2.3486 z m 2.3495,-3.3e-4 2.3489,-0.002 v -2.34757 l -2.3489,0.002 z m 2.348,-2.3492 3e-4,-7.9e-4 -2.3496,3.4e-4 -3e-4,7.9e-4 z m 0,2.34756 v 2.34991 l 2.3489,-0.002 -6e-4,-2.34854 z m 2.3496,-3.1e-4 2.3488,-0.002 v -2.34756 l -2.3489,0.002 z m 2.3479,-2.34922 3e-4,-7.9e-4 -2.3495,3.4e-4 -4e-4,7.9e-4 z m 0,2.34756 v 2.34988 l 1.5824,-2.2e-4 a 31.086768,31.086768 0 0 0 0.02,-0.18055 31.086768,31.086768 0 0 0 0.016,-0.17316 31.086768,31.086768 0 0 0 0.016,-1.99629 z m 0,2.34988 -2.3496,3.2e-4 v 2.3499 l 2.3488,-0.002 z m -4.6985,0.002 -2.3497,3.4e-4 v 2.34987 l 2.3489,-0.002 z m -4.6985,0.002 -2.3496,3.3e-4 v 2.3499 l 2.3489,-0.002 z m -5.4265,-4.69536 0.7247,-4.9e-4 3e-4,-7.9e-4 -0.7247,4.9e-4 a 14.672615,14.672615 0 0 1 -3e-4,7.9e-4 z m 3.0746,-0.002 2.3496,-3.3e-4 3e-4,-7.9e-4 -2.3496,2.7e-4 z" /><path
   style="color:#000000;fill:#e7e7e7;fill-opacity:1;stroke-width:2.06339;stroke-linecap:round;stroke-linejoin:round;-inkscape-stroke:none;paint-order:stroke fill markers"
   d="m 371.93309,205.84206 c 5.1857,1.68919 10.8086,-1.17293 12.4989,-6.3583 1.6901,-5.18599 -1.1687,-10.80722 -6.3544,-12.49773 -5.1865,-1.69018 -10.8116,1.16672 -12.5016,6.35323 -1.6893,5.1862 1.171,10.81294 6.3571,12.5028 z m 1.1188,-3.43325 c -3.3308,-1.08531 -5.1276,-4.62001 -4.0427,-7.95078 1.0855,-3.33099 4.6187,-5.12425 7.9496,-4.03875 3.3306,1.08572 5.1254,4.61505 4.04,7.94571 -1.0856,3.33025 -4.6165,5.12869 -7.9469,4.04382 z"
   id="path158692"
   sodipodi:nodetypes="ccccccsssc" /><path
   style="color:#000000;fill:#f5154f;fill-opacity:1;stroke:#cb1342;stroke-width:0.0412678;stroke-linecap:round;stroke-linejoin:round;stroke-miterlimit:4;stroke-dasharray:none;stroke-opacity:1;paint-order:stroke fill markers"
   d="m 370.45909,210.3637 a 14.672615,14.672615 0 0 0 18.4959,-9.40426 14.672615,14.672615 0 0 0 -9.4039,-18.49694 14.672615,14.672615 0 0 0 -18.4973,9.40493 14.672615,14.672615 0 0 0 9.4053,18.49627 z m 2.0333,-6.24 a 8.109994,8.109994 0 0 1 -5.1985,-10.22286 8.109994,8.109994 0 0 1 10.2237,-5.19829 8.109994,8.109994 0 0 1 5.1973,10.22348 8.109994,8.109994 0 0 1 -10.2225,5.19767 z"
   id="path158694" /></svg>
