<?xml version="1.0" encoding="UTF-8" standalone="no"?>
<svg
   inkscape:version="1.1 (c68e22c387, 2021-05-23)"
   sodipodi:docname="disconnected.svg"
   xml:space="preserve"
   enable-background="new 0 0 750 630.455"
   viewBox="0 0 750 630.455"
   height="630.455px"
   width="750px"
   y="0px"
   x="0px"
   id="Layer_1"
   version="1.1"
   xmlns:inkscape="http://www.inkscape.org/namespaces/inkscape"
   xmlns:sodipodi="http://sodipodi.sourceforge.net/DTD/sodipodi-0.dtd"
   xmlns="http://www.w3.org/2000/svg"
   xmlns:svg="http://www.w3.org/2000/svg"
   xmlns:rdf="http://www.w3.org/1999/02/22-rdf-syntax-ns#"
   xmlns:cc="http://creativecommons.org/ns#"
   xmlns:dc="http://purl.org/dc/elements/1.1/"><metadata
   id="metadata71"><rdf:RDF><cc:Work
       rdf:about=""><dc:format>image/svg+xml</dc:format><dc:type
         rdf:resource="http://purl.org/dc/dcmitype/StillImage" /><dc:title /></cc:Work></rdf:RDF></metadata><defs
   id="defs69">
	
	
	
</defs><sodipodi:namedview
   inkscape:current-layer="Layer_1"
   inkscape:window-maximized="1"
   inkscape:window-y="-8"
   inkscape:window-x="-8"
   inkscape:cy="294.80258"
   inkscape:cx="510.51178"
   inkscape:zoom="0.48676644"
   showgrid="false"
   id="namedview67"
   inkscape:window-height="1017"
   inkscape:window-width="1920"
   inkscape:pageshadow="2"
   inkscape:pageopacity="0"
   guidetolerance="10"
   gridtolerance="10"
   objecttolerance="10"
   borderopacity="1"
   bordercolor="#666666"
   pagecolor="#ffffff"
   inkscape:pagecheckerboard="0" />
<path
   id="path2"
   d="M 219.72266 0.013671875 C 212.24366 0.14614063 207.01978 1.2094062 202.20703 4.5664062 C 201.80003 4.8474062 201.39609 5.1458438 200.99609 5.4648438 C 194.24009 10.760844 163.34825 4.9739219 151.28125 121.79492 L 201.67578 114.94727 L 201.67578 114.94922 C 201.67578 114.94922 230.28884 111.94134 240.21484 109.65234 C 237.31384 57.274344 240.21484 16.558594 240.21484 16.558594 L 240.21484 15.330078 C 240.09084 11.579078 238.85448 0.543625 228.02148 0.140625 C 224.95923 0.028625 222.21566 -0.030484375 219.72266 0.013671875 z M 530.34766 0.015625 C 527.85303 -0.02853125 525.10797 0.030578125 522.04297 0.14257812 C 511.21997 0.54557813 509.98033 11.581031 509.86133 15.332031 L 509.86133 16.558594 C 509.86133 16.558594 512.76133 57.274344 509.86133 109.65234 C 519.64833 111.90834 547.57842 114.86331 548.35742 114.94531 L 598.79492 121.79492 C 586.72892 4.9739219 555.82208 10.762797 549.08008 5.4667969 C 548.67808 5.1477969 548.27514 4.8474063 547.86914 4.5664062 C 543.05714 1.2094062 537.83153 0.14809375 530.34766 0.015625 z M 233.58008 129.20312 C 192.80318 127.58247 144.54273 151.96734 127.4043 161.26172 C 109.9323 170.74272 119.16284 181.62103 107.46484 191.95703 C 106.18384 193.08203 92.359625 197.27894 85.640625 213.96094 C 22.888625 369.98494 -1.7402969 469.11391 0.095703125 529.12891 C 2.9867031 623.54491 76.673828 630.45508 76.673828 630.45508 C 113.70683 621.83808 188.22203 501.32031 245.20703 501.32031 L 375.00586 501.32031 L 504.80273 501.32031 C 561.78773 501.32031 636.30384 621.83808 673.33984 630.45508 C 673.33984 630.45508 747.01734 623.54491 749.90234 529.12891 C 751.76634 469.11391 727.09219 369.98494 664.36719 213.96094 C 657.64719 197.27894 643.82678 193.08303 642.55078 191.95703 C 630.84978 181.62103 640.07552 170.74272 622.60352 161.26172 C 604.32252 151.34772 550.62577 124.26472 508.38477 129.88672 C 499.15977 131.12172 480.54692 147.49414 467.16992 147.49414 L 375.00586 147.49414 L 282.83984 147.49414 C 269.46284 147.49414 250.85 131.12072 241.625 129.88672 C 238.9845 129.53534 236.29854 129.31117 233.58008 129.20312 z "
   style="fill:#ff1652;fill-opacity:1" />

<g
   id="g36">
</g>
<g
   id="g38">
</g>
<g
   id="g40">
</g>
<g
   id="g42">
</g>
<g
   id="g44">
</g>
<g
   id="g46">
</g>
<g
   id="g48">
</g>
<g
   id="g50">
</g>
<g
   id="g52">
</g>
<g
   id="g54">
</g>
<g
   id="g56">
</g>
<g
   id="g58">
</g>
<g
   id="g60">
</g>
<g
   id="g62">
</g>
<g
   id="g64">
</g>
<path
   id="path12647"
   style="font-weight:bold;font-size:55.8279px;line-height:1.25;font-family:'RC Font';-inkscape-font-specification:'RC Font Bold';letter-spacing:0px;word-spacing:0px;fill:#ffffff;stroke-width:1.3957"
   d="M 312.28516 310.17188 C 309.53193 310.17188 306.99677 310.63575 304.67969 311.58984 C 302.33536 312.54393 300.34449 313.85099 298.68164 315.56836 C 297.0188 317.28572 295.71003 319.3846 294.7832 321.86523 C 293.82911 324.34587 293.36719 327.09909 293.36719 330.09766 C 293.36719 333.09622 293.82911 335.84945 294.7832 338.33008 C 295.71003 340.81071 297.0188 342.91155 298.68164 344.62891 C 300.34449 346.34628 302.33536 347.65333 304.67969 348.60742 C 306.99677 349.56151 309.53193 350.02539 312.28516 350.02539 C 315.96522 350.02539 319.23539 349.20794 322.09766 347.59961 C 324.95993 345.99129 327.19637 343.64692 328.80469 340.62109 C 330.41301 337.59526 331.23047 334.07757 331.23047 330.09766 C 331.23047 326.11774 330.41301 322.60199 328.80469 319.57617 C 327.19637 316.55034 324.95993 314.20598 322.09766 312.59766 C 319.23539 310.98933 315.96522 310.17187 312.28516 310.17188 z M 333.4375 310.49805 L 333.4375 349.58984 L 342.97852 349.58984 L 342.97852 329.93555 L 354.86523 349.58984 L 365.71289 349.58984 L 365.71289 310.49805 L 356.22656 310.49805 L 356.22656 333.83398 L 342.26953 310.49805 L 333.4375 310.49805 z M 370.15625 310.49805 L 370.15625 349.58984 L 379.69727 349.58984 L 379.69727 329.93555 L 391.58398 349.58984 L 402.43164 349.58984 L 402.43164 310.49805 L 392.94531 310.49805 L 392.94531 333.83398 L 378.98828 310.49805 L 370.15625 310.49805 z M 182.0918 310.55273 L 182.0918 349.58984 L 191.63281 349.58984 L 191.63281 320.12109 L 195.99414 320.12109 C 198.66559 320.12109 200.7919 321.02126 202.3457 322.84766 C 203.89951 324.67406 204.69141 327.07361 204.69141 330.04492 C 204.69141 333.12526 203.98188 335.57773 202.53711 337.34961 C 201.09235 339.14875 198.9111 340.04883 196.04883 340.04883 L 193.54102 340.04883 L 193.54102 349.58984 L 195.83203 349.58984 C 196.13189 349.61714 196.45796 349.61719 196.75781 349.61719 C 199.07489 349.61719 201.22897 349.18099 203.27344 348.33594 C 205.59052 347.35459 207.52645 345.99063 209.13477 344.21875 C 210.7431 342.44687 211.99691 340.34791 212.89648 337.89453 C 213.79606 335.44116 214.25781 332.82541 214.25781 330.04492 C 214.25781 324.1023 212.48704 319.35831 208.91602 315.8418 C 205.34499 312.3253 200.57356 310.55273 194.6582 310.55273 L 182.0918 310.55273 z M 216.4668 310.55273 L 216.4668 349.58984 L 225.95312 349.58984 L 225.95312 310.55273 L 216.4668 310.55273 z M 241.51758 310.55273 C 239.22776 310.55273 237.1288 311.01645 235.19336 311.91602 C 233.25792 312.84286 231.70537 314.20672 230.5332 316.00586 C 229.33377 317.805 228.73438 319.87636 228.73438 322.2207 C 228.73438 325.41008 229.77014 328.1358 231.86914 330.37109 C 233.94088 332.60639 236.61157 333.72461 239.85547 333.72461 L 248.33398 333.72461 C 249.56066 333.72461 250.4863 334.02325 251.11328 334.5957 C 251.71299 335.16815 252.01367 335.93255 252.01367 336.85938 C 252.01367 337.97701 251.71291 338.79449 251.08594 339.28516 C 250.45896 339.8031 249.50564 340.04883 248.16992 340.04883 L 228.73438 340.04883 L 228.73438 349.58984 L 248.6875 349.58984 C 249.75063 349.58984 250.84125 349.45228 251.93164 349.17969 C 253.02203 348.93435 254.11274 348.49806 255.20312 347.87109 C 256.2935 347.24412 257.24674 346.4816 258.0918 345.58203 C 258.93685 344.68245 259.61879 343.53673 260.13672 342.14648 C 260.65466 340.75624 260.90039 339.20369 260.90039 337.48633 C 260.90039 333.66997 259.80977 330.6711 257.65625 328.51758 C 255.50273 326.36406 252.47643 325.21833 248.63281 325.08203 L 240.12891 325.08203 C 239.44742 325.08203 238.84615 324.83833 238.35547 324.34766 C 237.8648 323.85698 237.62109 323.25572 237.62109 322.57422 C 237.62109 321.89273 237.8648 321.29341 238.35547 320.80273 C 238.84615 320.31206 239.44742 320.06641 240.12891 320.06641 L 258.22852 320.06641 L 258.22852 310.55273 L 241.51758 310.55273 z M 279.10938 310.55273 C 276.5197 310.55273 274.06725 311.04412 271.80469 312.05273 C 269.54213 313.06134 267.60645 314.42327 266.02539 316.14062 C 264.41707 317.85798 263.16324 319.9313 262.26367 322.35742 C 261.3641 324.78353 260.90039 327.34442 260.90039 330.09766 C 260.90039 333.83224 261.6354 337.15947 263.10742 340.10352 C 264.57945 343.04757 266.70583 345.36459 269.48633 347.05469 C 272.23956 348.74479 275.42914 349.58984 279.05469 349.58984 L 279.32812 349.58984 L 292.82031 349.58984 L 292.82031 340.10352 L 279.21875 340.10352 C 276.411 340.10352 274.25702 339.23086 272.73047 337.45898 C 271.20393 335.6871 270.44141 333.23252 270.44141 330.09766 C 270.44141 327.18087 271.23136 324.78326 272.78516 322.90234 C 274.33896 321.04868 276.46535 320.12109 279.16406 320.12109 L 292.82031 320.12109 L 292.82031 310.55273 L 279.10938 310.55273 z M 422.84961 310.55273 C 420.25994 310.55273 417.80748 311.04412 415.54492 312.05273 C 413.28237 313.06134 411.34669 314.42327 409.76562 316.14062 C 408.15731 317.85798 406.90348 319.9313 406.00391 322.35742 C 405.10434 324.78353 404.64062 327.34442 404.64062 330.09766 C 404.64062 333.8595 405.37563 337.21407 406.84766 340.13086 C 408.29242 343.07491 410.41873 345.39185 413.19922 347.05469 C 415.95245 348.74479 419.16938 349.58984 422.79492 349.58984 L 436.5625 349.58984 L 436.5625 340.10352 L 422.79492 340.10352 C 420.96852 340.10352 419.30576 339.58461 417.75195 338.52148 C 416.19815 337.48561 415.13504 335.95854 414.58984 333.91406 L 431.32812 333.91406 L 431.32812 325.87305 L 414.75391 325.87305 C 415.29911 324.15569 416.36222 322.76626 417.91602 321.70312 C 419.46982 320.63999 421.13242 320.12109 422.9043 320.12109 L 436.5625 320.12109 L 436.5625 310.55273 L 422.84961 310.55273 z M 455.31641 310.55273 C 452.72673 310.55273 450.27233 311.04412 448.00977 312.05273 C 445.74722 313.06134 443.81349 314.42327 442.23242 316.14062 C 440.6241 317.85798 439.37027 319.9313 438.4707 322.35742 C 437.57113 324.78353 437.10742 327.34442 437.10742 330.09766 C 437.10742 333.83224 437.84243 337.15947 439.31445 340.10352 C 440.78648 343.04757 442.91287 345.36459 445.69336 347.05469 C 448.44659 348.74479 451.63618 349.58984 455.26172 349.58984 L 455.53516 349.58984 L 469.02734 349.58984 L 469.02734 340.10352 L 455.42578 340.10352 C 452.61803 340.10352 450.46405 339.23086 448.9375 337.45898 C 447.41096 335.6871 446.64844 333.23252 446.64844 330.09766 C 446.64844 327.18087 447.43839 324.78326 448.99219 322.90234 C 450.546 321.04868 452.67238 320.12109 455.37109 320.12109 L 469.02734 320.12109 L 469.02734 310.55273 L 455.31641 310.55273 z M 469.57227 310.55273 L 469.57227 320.06641 L 480.91406 320.06641 L 480.91406 349.58984 L 490.45508 349.58984 L 490.45508 320.06641 L 501.84961 320.06641 L 501.84961 310.55273 L 469.57227 310.55273 z M 520.03125 310.55273 C 517.44157 310.55273 514.98717 311.04412 512.72461 312.05273 C 510.46206 313.06134 508.52638 314.42327 506.94531 316.14062 C 505.33699 317.85798 504.08316 319.9313 503.18359 322.35742 C 502.28402 324.78353 501.82227 327.34442 501.82227 330.09766 C 501.82227 333.8595 502.55728 337.21407 504.0293 340.13086 C 505.47407 343.07491 507.60037 345.39185 510.38086 347.05469 C 513.13409 348.74479 516.35101 349.58984 519.97656 349.58984 L 533.74219 349.58984 L 533.74219 340.10352 L 519.97656 340.10352 C 518.15016 340.10352 516.48739 339.58461 514.93359 338.52148 C 513.37979 337.48561 512.31668 335.95854 511.77148 333.91406 L 528.50781 333.91406 L 528.50781 325.87305 L 511.93555 325.87305 C 512.48075 324.15569 513.54385 322.76626 515.09766 321.70312 C 516.65146 320.63999 518.31405 320.12109 520.08594 320.12109 L 533.74219 320.12109 L 533.74219 310.55273 L 520.03125 310.55273 z M 536.52344 310.55273 L 536.52344 349.58984 L 546.06445 349.58984 L 546.06445 320.12109 L 550.42578 320.12109 C 553.09723 320.12109 555.22354 321.02126 556.77734 322.84766 C 558.33115 324.67406 559.12109 327.07361 559.12109 330.04492 C 559.12109 333.12526 558.41351 335.57773 556.96875 337.34961 C 555.52398 339.14875 553.34274 340.04883 550.48047 340.04883 L 547.97266 340.04883 L 547.97266 349.58984 L 550.26172 349.58984 C 550.56158 349.61714 550.88959 349.61719 551.18945 349.61719 C 553.50653 349.61719 555.65865 349.18099 557.70312 348.33594 C 560.02021 347.35459 561.95613 345.99063 563.56445 344.21875 C 565.17277 342.44687 566.4266 340.34791 567.32617 337.89453 C 568.22574 335.44116 568.68945 332.82541 568.68945 330.04492 C 568.68945 324.1023 566.91673 319.35831 563.3457 315.8418 C 559.77468 312.3253 555.0052 310.55273 549.08984 310.55273 L 536.52344 310.55273 z M 312.28516 319.6582 C 315.20195 319.6582 317.59938 320.61135 319.42578 322.51953 C 321.25218 324.42771 322.17969 326.96279 322.17969 330.09766 C 322.17969 333.23252 321.25218 335.7676 319.42578 337.67578 C 317.59938 339.58396 315.20195 340.53906 312.28516 340.53906 C 309.36837 340.53906 306.99632 339.58396 305.16992 337.67578 C 303.34351 335.7676 302.41602 333.23252 302.41602 330.09766 C 302.41602 326.96279 303.34351 324.42771 305.16992 322.51953 C 306.99632 320.61135 309.36837 319.6582 312.28516 319.6582 z " /></svg>
