<?xml version="1.0" encoding="UTF-8" standalone="no"?>
<svg
   inkscape:version="1.1 (c68e22c387, 2021-05-23)"
   sodipodi:docname="dpad.svg"
   xml:space="preserve"
   enable-background="new 0 0 70.659 128.036"
   viewBox="0 0 70.659 128.036"
   height="128.036px"
   width="70.659px"
   y="0px"
   x="0px"
   id="Layer_1"
   version="1.1"
   xmlns:inkscape="http://www.inkscape.org/namespaces/inkscape"
   xmlns:sodipodi="http://sodipodi.sourceforge.net/DTD/sodipodi-0.dtd"
   xmlns="http://www.w3.org/2000/svg"
   xmlns:svg="http://www.w3.org/2000/svg"
   xmlns:rdf="http://www.w3.org/1999/02/22-rdf-syntax-ns#"
   xmlns:cc="http://creativecommons.org/ns#"
   xmlns:dc="http://purl.org/dc/elements/1.1/"><metadata
   id="metadata93"><rdf:RDF><cc:Work
       rdf:about=""><dc:format>image/svg+xml</dc:format><dc:type
         rdf:resource="http://purl.org/dc/dcmitype/StillImage" /><dc:title /></cc:Work></rdf:RDF></metadata><defs
   id="defs91">
	
	

		
		
		
		
	
		
		
		
		
	
			
			
		
			
			
		
	
	

		
		
		
		
	
		
		
		
		
	
			
			
		
			
			
		</defs><sodipodi:namedview
   inkscape:current-layer="Layer_1"
   inkscape:window-maximized="1"
   inkscape:window-y="-8"
   inkscape:window-x="-8"
   inkscape:cy="62.837943"
   inkscape:cx="123.61079"
   inkscape:zoom="1.6948359"
   showgrid="false"
   id="namedview89"
   inkscape:window-height="1017"
   inkscape:window-width="1920"
   inkscape:pageshadow="2"
   inkscape:pageopacity="0"
   guidetolerance="10"
   gridtolerance="10"
   objecttolerance="10"
   borderopacity="1"
   bordercolor="#666666"
   pagecolor="#ffffff"
   inkscape:pagecheckerboard="0" />
<path
   id="path2"
   d="M 40.432,41.552 V 7.333 c 0,-0.043 0.007,-0.093 0.014,-0.142 l 0.06,-0.227 C 40.535,6.923 40.572,6.857 40.588,6.831 41.083,6.022 42.693,5.314 45.123,4.839 45.428,4.771 45.717,4.713 46.012,4.657 46.363,4.594 46.67,4.545 46.97,4.522 47.005,4.519 47.098,4.506 47.133,4.496 47.388,4.467 47.711,4.424 48.039,4.385 48.374,4.345 48.713,4.309 49.057,4.276 49.421,4.242 49.75,4.216 50.08,4.193 l 2.369,-0.077 c 0.353,-0.008 0.701,-0.012 1.047,-0.012 7.325,0 13.063,1.418 13.063,3.229 0.001,0.172 0.001,15.928 0.001,34.219 L 53.495,54.604 Z"
   fill="#ebebeb"
   style="fill:#f4f4f4;fill-opacity:1" /><path
   id="path4"
   d="m 53.495,4.604 c 8.089,0 12.563,1.613 12.563,2.729 0,0.015 0,0.029 10e-4,0.044 V 41.345 L 53.495,53.897 40.932,41.344 V 7.336 c 0,-0.021 0.004,-0.043 0.004,-0.043 0,0 0,0 0,0 0,-0.003 10e-4,-0.007 0.002,-0.011 L 40.939,7.279 C 40.952,7.244 40.968,7.185 40.978,7.145 40.99,7.127 41.002,7.109 41.014,7.09 41.167,6.84 41.92,5.976 45.2,5.331 45.22,5.328 45.241,5.324 45.261,5.319 45.533,5.257 45.816,5.2 46.094,5.148 L 46.175,5.134 C 46.508,5.073 46.774,5.036 46.97,5.02 47.018,5.018 47.083,5.014 47.158,5 47.467,4.958 47.77,4.918 48.077,4.881 48.085,4.88 48.093,4.879 48.101,4.878 48.429,4.838 48.764,4.803 49.103,4.771 v 0 c 0.016,-0.001 0.031,-0.002 0.039,-0.003 0.32,-0.03 0.645,-0.056 0.966,-0.078 l 0.117,-0.006 c 0.19,-0.008 0.382,-0.013 0.574,-0.017 l 0.395,-0.01 c 0.068,-0.002 0.135,-0.005 0.169,-0.008 0.325,-0.013 0.651,-0.025 0.979,-0.033 l 0.124,-10e-4 c 0.342,-0.007 0.686,-0.011 1.029,-0.011 m 0,-1 c -0.35,0 -0.702,0.004 -1.052,0.012 -0.041,0 -0.083,10e-4 -0.125,0.002 -0.333,0.008 -0.664,0.02 -0.994,0.033 -0.055,0.004 -0.11,0.006 -0.166,0.008 -0.327,0.01 -0.654,0.014 -0.977,0.028 -0.046,0.002 -0.092,0.004 -0.138,0.007 -0.335,0.023 -0.668,0.05 -0.996,0.081 -0.014,10e-4 -0.027,0.003 -0.041,0.003 -0.348,0.033 -0.691,0.07 -1.027,0.11 0,0 -0.002,0 -0.002,0 -0.331,0.04 -0.656,0.083 -0.989,0.128 -0.013,0.004 -0.034,0.006 -0.059,0.007 -0.317,0.024 -0.643,0.076 -0.938,0.13 -0.025,0.004 -0.049,0.008 -0.074,0.012 -0.301,0.057 -0.596,0.116 -0.88,0.181 -0.004,0 -0.008,0.001 -0.013,0.002 -2.427,0.475 -4.25,1.215 -4.865,2.222 -0.041,0.041 -0.076,0.1 -0.106,0.165 C 40.05,6.741 40.047,6.746 40.044,6.752 40.029,6.812 40.015,6.872 40,6.934 39.993,6.953 39.988,6.961 39.983,6.975 39.971,7.02 39.959,7.068 39.95,7.117 c -0.011,0.075 -0.02,0.15 -0.02,0.216 0,7.742 0,20.596 0,34.426 L 53.493,55.311 67.057,41.759 c 0,-18.983 0,-34.425 0,-34.425 H 67.056 V 7.333 C 67.058,4.831 60.262,3.604 53.495,3.604 Z"
   fill="#edf4f4"
   style="fill:#ff1652;fill-opacity:1" /><path
   id="path8"
   d="m 45.026,4.347 c 0.004,0 0.008,-0.001 0.013,-0.002 0.284,-0.064 0.579,-0.124 0.88,-0.181 0.025,-0.004 0.049,-0.008 0.074,-0.012 0.295,-0.054 0.62,-0.105 0.938,-0.13 0.025,-0.001 0.046,-0.003 0.059,-0.007 0.333,-0.045 0.658,-0.088 0.989,-0.128 0,0 0.002,0 0.002,0 0.336,-0.041 0.679,-0.077 1.027,-0.11 0.014,0 0.027,-0.002 0.041,-0.003 0.328,-0.031 0.661,-0.057 0.996,-0.081 0.046,-0.003 0.092,-0.005 0.138,-0.007 0.323,-0.014 0.649,-0.018 0.977,-0.028 0.056,-0.002 0.111,-0.004 0.166,-0.008 0.33,-0.013 0.661,-0.025 0.994,-0.033 0.042,-10e-4 0.083,-10e-4 0.125,-0.002 0.35,-0.008 0.702,-0.012 1.052,-0.012 6.768,0 13.563,1.227 13.563,3.729 L 69.815,4.56 C 68.913,3.193 67.1,1.853 63.67,1.036 60.927,0.362 57.313,0 53.495,0 49.649,0 46.036,0.362 43.315,1.036 40.375,1.753 38.6,2.832 37.59,3.999 l 2.57,2.57 c 0.616,-1.006 2.439,-1.747 4.866,-2.222 z"
   fill="#dbdbdb"
   style="fill:#efefef;fill-opacity:1" /><path
   id="path10"
   d="m 67.058,7.333 v 0 c 10e-4,0 10e-4,15.442 10e-4,34.425 l 3.6,-3.625 v -30.8 c 0,-0.852 -0.222,-1.835 -0.846,-2.773 z"
   fill="#e3e3e3"
   style="fill:#efefef;fill-opacity:1" /><path
   id="path12"
   d="m 39.932,7.333 c 0,-0.066 0.008,-0.142 0.02,-0.216 C 39.961,7.068 39.973,7.021 39.985,6.975 39.99,6.961 39.995,6.953 40.002,6.934 40.017,6.872 40.03,6.812 40.047,6.751 40.05,6.746 40.053,6.74 40.056,6.734 40.086,6.669 40.122,6.61 40.162,6.569 l -2.57,-2.57 C 36.621,5.12 36.33,6.292 36.33,7.333 v 30.802 l 3.602,3.625 c 0,-13.831 0,-26.685 0,-34.427 z"
   fill="#d6d6d6"
   style="fill:#efefef;fill-opacity:1" /><path
   id="path15"
   d="M 17.166,51.211 C 10.034,51.211 4.424,49.888 4.117,48.133 4.109,48.084 4.103,48.03 4.103,47.985 c 0,-0.138 0,-15.419 0,-34.217 L 17.166,0.707 30.23,13.769 v 34.217 c 0,0.045 -0.006,0.099 -0.015,0.152 -0.306,1.75 -5.917,3.073 -13.049,3.073 z"
   fill="#ebebeb"
   style="fill:#f4f4f4;fill-opacity:1" /><path
   id="path17"
   d="M 17.166,1.414 29.73,13.976 v 34.009 c 0,0.021 -0.004,0.046 -0.006,0.063 -0.195,1.117 -4.668,2.664 -12.558,2.664 C 9.277,50.712 4.805,49.165 4.61,48.056 4.606,48.029 4.602,48.002 4.602,47.986 V 13.976 L 17.166,1.414 M 17.166,0 3.602,13.562 c 0,18.978 0,34.424 0,34.424 v 0 c 0,0.07 0.007,0.152 0.021,0.234 0.408,2.329 6.975,3.491 13.542,3.491 6.568,0 13.135,-1.162 13.542,-3.491 0.014,-0.082 0.021,-0.165 0.021,-0.234 0,-7.745 0,-20.598 0,-34.424 z"
   fill="#edf4f4"
   style="fill:#ff1652;fill-opacity:1" /><path
   id="path21"
   d="m 30.729,47.985 2.754,2.77 c 0.624,-0.945 0.846,-1.92 0.846,-2.77 V 17.182 l -3.6,-3.62 c 0,13.825 0,26.678 0,34.423 z"
   fill="#f0f0f0"
   style="fill:#efefef;fill-opacity:1" /><path
   id="path23"
   d="M 30.708,48.22 C 30.301,50.549 23.733,51.711 17.166,51.711 10.599,51.711 4.032,50.549 3.624,48.22 3.61,48.138 3.603,48.055 3.603,47.986 l -2.785,2.771 c 0.929,1.367 2.743,2.702 6.168,3.522 2.721,0.672 6.333,1.041 10.18,1.041 3.818,0 7.432,-0.369 10.175,-1.041 3.43,-0.82 5.243,-2.157 6.143,-3.524 l -2.754,-2.77 c -0.001,0.07 -0.008,0.153 -0.022,0.235 z"
   fill="#e8e8e8"
   style="fill:#efefef;fill-opacity:1" /><path
   id="path25"
   d="m 3.603,47.985 v 0 c 0,0 0,-15.446 0,-34.424 L 0,17.182 v 30.804 0.846 l 0.093,0.236 c 0.128,0.545 0.345,1.119 0.724,1.689 z"
   fill="#e3e3e3"
   style="fill:#efefef;fill-opacity:1" />
<path
   id="path30"
   d="M 13.771,87.558 0.708,74.497 13.771,61.445 h 34.212 c 1.809,0 3.226,5.735 3.226,13.057 0,7.322 -1.417,13.057 -3.226,13.057 H 13.771 Z"
   fill="#ebebeb"
   style="fill:#f4f4f4;fill-opacity:1" /><path
   id="path32"
   d="m 47.983,61.945 c 1.138,0 2.726,4.777 2.726,12.556 0,7.78 -1.588,12.557 -2.726,12.557 H 13.978 L 1.415,74.497 13.978,61.945 h 34.005 m 0,-1 c -7.759,0 -20.613,0 -34.419,0 L 0,74.497 13.564,88.059 c 18.958,0 34.419,0 34.419,0 v 0 c 4.968,-10e-4 4.968,-27.114 0,-27.114 z"
   fill="#edf4f4"
   style="fill:#ff1652;fill-opacity:1" /><path
   id="path36"
   d="m 47.983,60.945 2.755,-2.778 c -0.933,-0.621 -1.92,-0.846 -2.755,-0.846 H 17.165 l -3.601,3.625 c 13.806,-10e-4 26.66,-10e-4 34.419,-10e-4 z"
   fill="#e6e6e6"
   style="fill:#efefef;fill-opacity:1" /><path
   id="path38"
   d="m 47.983,88.058 v 0 c 0,0 -15.461,0 -34.419,0 l 3.6,3.62 h 30.819 1.496 l 0.34,-0.345 c 0.308,-0.128 0.617,-0.303 0.925,-0.498 z"
   fill="#e8e8e8"
   style="fill:#efefef;fill-opacity:1" /><path
   id="path40"
   d="m 50.738,58.167 -2.755,2.778 c 4.967,0 4.967,27.113 0,27.113 l 2.76,2.777 c 1.369,-0.93 2.705,-2.747 3.548,-6.147 0.664,-2.746 1.032,-6.357 1.032,-10.192 0,-3.831 -0.368,-7.442 -1.032,-10.188 -0.844,-3.401 -2.18,-5.212 -3.553,-6.141 z"
   fill="#f0f0f0"
   style="fill:#efefef;fill-opacity:1" /><path
   id="path43"
   d="m 7.34,123.916 c -1.82,0 -3.247,-5.735 -3.247,-13.057 0,-7.322 1.427,-13.056 3.247,-13.056 h 34.213 l 13.063,13.052 -13.063,13.062 H 7.34 Z"
   fill="#ebebeb"
   style="fill:#f4f4f4;fill-opacity:1" /><path
   id="path45"
   d="m 41.346,98.303 12.563,12.552 -12.563,12.561 H 7.34 c -1.147,0 -2.746,-4.776 -2.746,-12.556 0,-7.78 1.6,-12.558 2.747,-12.558 h 34.005 m 0.414,-0.999 c -18.965,0 -34.419,0 -34.419,0 H 7.34 c -4.995,0 -4.995,27.113 0,27.113 7.757,0 20.599,0 34.42,0 l 13.563,-13.562 z"
   fill="#edf4f4"
   style="fill:#ff1652;fill-opacity:1" /><path
   id="path49"
   d="M 41.76,97.303 38.158,93.678 H 7.341 c -0.863,0 -1.822,0.226 -2.784,0.846 l 2.784,2.778 c 0,10e-4 15.454,10e-4 34.419,10e-4 z"
   fill="#dbdbdb"
   style="fill:#efefef;fill-opacity:1" /><path
   id="path51"
   d="m 7.34,97.303 v 0 L 4.557,94.525 C 3.19,95.455 1.878,97.265 1.032,100.668 0.368,103.413 0,107.025 0,110.854 c 0,3.835 0.368,7.447 1.032,10.193 0.845,3.402 2.158,5.212 3.525,6.143 l 2.783,-2.774 c -4.995,0 -4.995,-27.113 0,-27.113 z"
   fill="#d6d6d6"
   style="fill:#efefef;fill-opacity:1" /><path
   id="path53"
   d="m 7.34,124.416 -2.783,2.774 c 0.961,0.62 1.92,0.846 2.783,0.846 h 30.817 l 3.603,-3.62 c -13.822,0 -26.663,0 -34.42,0 z"
   fill="#e5e5e5"
   style="fill:#efefef;fill-opacity:1" />
<g
   id="g58">
</g>
<g
   id="g60">
</g>
<g
   id="g62">
</g>
<g
   id="g64">
</g>
<g
   id="g66">
</g>
<g
   id="g68">
</g>
<g
   id="g70">
</g>
<g
   id="g72">
</g>
<g
   id="g74">
</g>
<g
   id="g76">
</g>
<g
   id="g78">
</g>
<g
   id="g80">
</g>
<g
   id="g82">
</g>
<g
   id="g84">
</g>
<g
   id="g86">
</g>
</svg>
