<?xml version="1.0" encoding="UTF-8" standalone="no"?>
<svg
   inkscape:version="1.1 (c68e22c387, 2021-05-23)"
   sodipodi:docname="start-select.svg"
   xml:space="preserve"
   enable-background="new 0 0 67.409 33.206"
   viewBox="0 0 67.409 33.206"
   height="33.206px"
   width="67.409px"
   y="0px"
   x="0px"
   id="Layer_1"
   version="1.1"
   xmlns:inkscape="http://www.inkscape.org/namespaces/inkscape"
   xmlns:sodipodi="http://sodipodi.sourceforge.net/DTD/sodipodi-0.dtd"
   xmlns="http://www.w3.org/2000/svg"
   xmlns:svg="http://www.w3.org/2000/svg"
   xmlns:rdf="http://www.w3.org/1999/02/22-rdf-syntax-ns#"
   xmlns:cc="http://creativecommons.org/ns#"
   xmlns:dc="http://purl.org/dc/elements/1.1/"><metadata
   id="metadata57"><rdf:RDF><cc:Work
       rdf:about=""><dc:format>image/svg+xml</dc:format><dc:type
         rdf:resource="http://purl.org/dc/dcmitype/StillImage" /><dc:title /></cc:Work></rdf:RDF></metadata><defs
   id="defs55">
	
	

	
	

		
		
	
		
		
		
	</defs><sodipodi:namedview
   inkscape:current-layer="Layer_1"
   inkscape:window-maximized="1"
   inkscape:window-y="-8"
   inkscape:window-x="-8"
   inkscape:cy="-19.07921"
   inkscape:cx="66.587705"
   inkscape:zoom="3.957187"
   showgrid="false"
   id="namedview53"
   inkscape:window-height="1017"
   inkscape:window-width="1920"
   inkscape:pageshadow="2"
   inkscape:pageopacity="0"
   guidetolerance="10"
   gridtolerance="10"
   objecttolerance="10"
   borderopacity="1"
   bordercolor="#666666"
   pagecolor="#ffffff"
   inkscape:pagecheckerboard="0" />
<path
   id="path2"
   d="m 66.909,16.603 c 0,8.903 -7.229,16.103 -16.102,16.103 -8.901,0 -16.102,-7.2 -16.102,-16.103 0,-8.896 7.2,-16.103 16.102,-16.103 8.874,0 16.102,7.207 16.102,16.103 z"
   stroke-miterlimit="10"
   stroke="#ffffff"
   fill="#f5f5f5"
   style="fill:#f4f4f4;fill-opacity:1;stroke:#ff1652;stroke-opacity:1" /><rect
   id="rect4"
   height="1.552"
   width="14.361"
   fill="#929493"
   y="11.978"
   x="43.612"
   style="fill:#ff1652;fill-opacity:1" /><rect
   id="rect6"
   height="1.552"
   width="14.361"
   fill="#929493"
   y="15.896"
   x="43.612"
   style="fill:#ff1652;fill-opacity:1" /><rect
   id="rect8"
   height="1.5319999"
   width="14.361"
   fill="#929493"
   y="19.705999"
   x="43.612"
   style="fill:#ff1652;fill-opacity:1" />
<path
   id="path13"
   d="m 32.706,16.603 c 0,8.903 -7.201,16.103 -16.103,16.103 C 7.731,32.706 0.5,25.506 0.5,16.603 0.5,7.707 7.731,0.5 16.603,0.5 c 8.902,0 16.103,7.207 16.103,16.103 z"
   stroke-miterlimit="10"
   stroke="#ffffff"
   fill="#f5f5f5"
   style="fill:#f4f4f4;fill-opacity:1;stroke:#ff1652;stroke-opacity:1" /><polygon
   id="polygon15"
   points="16.528,14.039 18.328,14.039 18.328,10.979 9.437,10.979 9.437,18.369 14.087,18.369 14.087,16.502 11.056,16.502 11.056,12.718 16.528,12.718 "
   fill="#929493"
   style="fill:#ff1652;fill-opacity:1" /><path
   id="path17"
   d="m 14.837,14.663 v 7.584 h 8.96 v -7.584 z m 7.161,5.784 h -5.47 v -3.945 h 5.47 z"
   fill="#929493"
   style="fill:#ff1652;fill-opacity:1" />
<g
   id="g22">
</g>
<g
   id="g24">
</g>
<g
   id="g26">
</g>
<g
   id="g28">
</g>
<g
   id="g30">
</g>
<g
   id="g32">
</g>
<g
   id="g34">
</g>
<g
   id="g36">
</g>
<g
   id="g38">
</g>
<g
   id="g40">
</g>
<g
   id="g42">
</g>
<g
   id="g44">
</g>
<g
   id="g46">
</g>
<g
   id="g48">
</g>
<g
   id="g50">
</g>
</svg>
