<?xml version="1.0" encoding="UTF-8" standalone="no"?>
<svg
   inkscape:version="1.1 (c68e22c387, 2021-05-23)"
   sodipodi:docname="stick.svg"
   xml:space="preserve"
   enable-background="new 0 0 168.77 83.384"
   viewBox="0 0 168.77 83.384"
   height="83.384px"
   width="168.77px"
   y="0px"
   x="0px"
   id="Layer_1"
   version="1.1"
   xmlns:inkscape="http://www.inkscape.org/namespaces/inkscape"
   xmlns:sodipodi="http://sodipodi.sourceforge.net/DTD/sodipodi-0.dtd"
   xmlns="http://www.w3.org/2000/svg"
   xmlns:svg="http://www.w3.org/2000/svg"
   xmlns:rdf="http://www.w3.org/1999/02/22-rdf-syntax-ns#"
   xmlns:cc="http://creativecommons.org/ns#"
   xmlns:dc="http://purl.org/dc/elements/1.1/"><metadata
   id="metadata80"><rdf:RDF><cc:Work
       rdf:about=""><dc:format>image/svg+xml</dc:format><dc:type
         rdf:resource="http://purl.org/dc/dcmitype/StillImage" /><dc:title /></cc:Work></rdf:RDF></metadata><defs
   id="defs78" /><sodipodi:namedview
   inkscape:current-layer="Layer_1"
   inkscape:window-maximized="1"
   inkscape:window-y="-8"
   inkscape:window-x="-8"
   inkscape:cy="47.310355"
   inkscape:cx="35.231115"
   inkscape:zoom="4.4704801"
   showgrid="false"
   id="namedview76"
   inkscape:window-height="1017"
   inkscape:window-width="1920"
   inkscape:pageshadow="2"
   inkscape:pageopacity="0"
   guidetolerance="10"
   gridtolerance="10"
   objecttolerance="10"
   borderopacity="1"
   bordercolor="#666666"
   pagecolor="#ffffff"
   inkscape:pagecheckerboard="0"
   inkscape:snap-center="true" />


<g
   id="g45">
</g>
<g
   id="g47">
</g>
<g
   id="g49">
</g>
<g
   id="g51">
</g>
<g
   id="g53">
</g>
<g
   id="g55">
</g>
<g
   id="g57">
</g>
<g
   id="g59">
</g>
<g
   id="g61">
</g>
<g
   id="g63">
</g>
<g
   id="g65">
</g>
<g
   id="g67">
</g>
<g
   id="g69">
</g>
<g
   id="g71">
</g>
<g
   id="g73">
</g>
<g
   id="g217542"
   transform="translate(-1012.9897,-238.16195)"><circle
     style="fill:#f4f4f4;fill-opacity:1;stroke:none;stroke-width:3.60251;stroke-linecap:round;stroke-linejoin:round;paint-order:stroke fill markers;stop-color:#000000"
     id="circle217512"
     cx="1140.0677"
     cy="279.854"
     r="41.697498" /><g
     id="g217530"
     transform="matrix(0.15741176,0,0,0.15741176,1063.55,84.913032)"><g
       id="g217520"
       transform="translate(-825.90072)"><path
         style="color:#000000;fill:#ff1652;-inkscape-stroke:none"
         d="m 1313.252,997.9453 c -27.1146,-0.307 -52.7636,4.6988 -75.7286,13.8359 -77.4167,30.8022 -129.6055,105.9035 -133.0722,173.9512 -1.1883,23.3249 -1.3726,38.5325 -0.5508,52.9007 2.4029,-16.6678 0.8409,-29.467 10.1074,-50.7581 53.6006,-123.155 188.1263,-176.8857 305.0723,-107.2734 l 2.8789,1.7129 38.791,-29.0938 -5.3672,-3.9961 c -47.6802,-35.4985 -96.94,-50.7676 -142.1308,-51.2793 z m -0.125,9.9336 c 41.3042,0.4346 86.3857,14.0149 130.7558,45.4922 l -22.6426,16.9824 c -112.572,-64.9255 -240.0612,-19.936 -303.1054,87.8496 12.9887,-55.2382 60.0451,-112.0485 123.0859,-137.1308 21.7604,-8.6579 46.0945,-13.465 71.9063,-13.1934 z"
         id="path217514"
         sodipodi:nodetypes="scscscccssscccss" /><path
         d="m 1444.4984,1108.7453 c 0,0 30.0817,-21.3582 30.0817,-21.3582 0,0 -19.0061,36.9574 -19.0061,36.9574 0,0 9.0093,12.6891 9.0093,12.6891 0,0 12.4621,-24.1676 12.4621,-24.1676 0,0 0,0 0,0 3.2832,2.4021 6.8304,3.5988 10.6176,3.5566 3.7293,-0.052 7.3316,-1.2866 10.7492,-3.7132 0,0 0,0 0,0 2.8423,-2.0181 4.8757,-4.5305 6.1097,-7.5952 1.2002,-3.0407 1.5565,-6.1947 1.035,-9.4381 -0.5214,-3.2433 -1.8201,-6.2911 -3.8622,-9.1672 0,0 -17.0819,-24.0586 -17.0819,-24.0586 0,0 -48.5232,34.4519 -48.5232,34.4519 0,0 8.4088,11.8431 8.4088,11.8431 z m 36.6462,-26.0191 c 0,0 9.586,13.5013 9.586,13.5013 0,0 0,0 0,0 0.6006,0.8459 0.8246,1.8065 0.672,2.8819 -0.1766,1.0416 -0.7048,1.8746 -1.5507,2.4753 -0.846,0.6006 -1.8066,0.8246 -2.8482,0.648 -1.0655,-0.2105 -1.8986,-0.7387 -2.4992,-1.5846 0,0 -9.5861,-13.5013 -9.5861,-13.5013 0,0 6.2262,-4.4206 6.2262,-4.4206 z"
         id="path217516"
         style="font-weight:bold;font-size:84.9905px;line-height:1.25;font-family:'RC Font';-inkscape-font-specification:'RC Font Bold';letter-spacing:0px;word-spacing:0px;fill:#ff1652;stroke-width:2.12476" /><path
         d="m 1488.0204,1120.2467 c -4.7432,3.1344 -8.3495,6.8605 -10.8532,11.2012 -2.5039,4.3404 -3.6622,8.9857 -3.4752,13.9358 0.1642,4.9154 1.7678,9.6754 4.8107,14.2803 0,0 0.2287,0.3462 0.2287,0.3462 0,0 11.3253,17.1383 11.3253,17.1383 0,0 12.0487,-7.9619 12.0487,-7.9619 0,0 -11.4168,-17.2768 -11.4168,-17.2768 0,0 0,0 0,0 -2.3565,-3.5661 -3.056,-7.0335 -2.0868,-10.4595 0.9693,-3.4259 3.4448,-6.4545 7.4263,-9.0856 0,0 0,0 0,0 3.7048,-2.4481 7.415,-3.4574 11.1081,-3.0625 3.6584,0.4177 6.6201,2.3403 8.8852,5.768 0,0 11.4625,17.346 11.4625,17.346 0,0 12.1526,-8.0306 12.1526,-8.0306 0,0 -11.5083,-17.4153 -11.5083,-17.4153 0,0 0,0 0,0 -2.1735,-3.2891 -4.8558,-5.9933 -8.0358,-8.0205 -3.18,-2.0271 -6.5355,-3.3413 -10.0438,-3.9082 -3.5311,-0.6013 -7.2148,-0.4551 -11.0513,0.4386 -3.8365,0.8936 -7.48,2.4557 -10.9769,4.7665 0,0 0,0 0,0 z"
         id="path217518"
         style="font-weight:bold;font-size:84.9905px;line-height:1.25;font-family:'RC Font';-inkscape-font-specification:'RC Font Bold';letter-spacing:0px;word-spacing:0px;fill:#ff1652;stroke-width:2.12476" /></g><g
       id="g217528"
       transform="rotate(180,899.04963,1238.4142)"><path
         style="color:#000000;fill:#ff1652;-inkscape-stroke:none"
         d="m 1313.252,997.9453 c -27.1146,-0.307 -52.7636,4.6988 -75.7286,13.8359 -77.4167,30.8022 -129.6055,105.9035 -133.0722,173.9512 -1.1883,23.3249 -1.3726,38.5325 -0.5508,52.9007 2.4029,-16.6678 0.8409,-29.467 10.1074,-50.7581 53.6006,-123.155 188.1263,-176.8857 305.0723,-107.2734 l 2.8789,1.7129 38.791,-29.0938 -5.3672,-3.9961 c -47.6802,-35.4985 -96.94,-50.7676 -142.1308,-51.2793 z m -0.125,9.9336 c 41.3042,0.4346 86.3857,14.0149 130.7558,45.4922 l -22.6426,16.9824 c -112.572,-64.9255 -240.0612,-19.936 -303.1054,87.8496 12.9887,-55.2382 60.0451,-112.0485 123.0859,-137.1308 21.7604,-8.6579 46.0945,-13.465 71.9063,-13.1934 z"
         id="path217522"
         sodipodi:nodetypes="scscscccssscccss" /><path
         d="m 1444.4984,1108.7453 c 0,0 30.0817,-21.3582 30.0817,-21.3582 0,0 -19.0061,36.9574 -19.0061,36.9574 0,0 9.0093,12.6891 9.0093,12.6891 0,0 12.4621,-24.1676 12.4621,-24.1676 0,0 0,0 0,0 3.2832,2.4021 6.8304,3.5988 10.6176,3.5566 3.7293,-0.052 7.3316,-1.2866 10.7492,-3.7132 0,0 0,0 0,0 2.8423,-2.0181 4.8757,-4.5305 6.1097,-7.5952 1.2002,-3.0407 1.5565,-6.1947 1.035,-9.4381 -0.5214,-3.2433 -1.8201,-6.2911 -3.8622,-9.1672 0,0 -17.0819,-24.0586 -17.0819,-24.0586 0,0 -48.5232,34.4519 -48.5232,34.4519 0,0 8.4088,11.8431 8.4088,11.8431 z m 36.6462,-26.0191 c 0,0 9.586,13.5013 9.586,13.5013 0,0 0,0 0,0 0.6006,0.8459 0.8246,1.8065 0.672,2.8819 -0.1766,1.0416 -0.7048,1.8746 -1.5507,2.4753 -0.846,0.6006 -1.8066,0.8246 -2.8482,0.648 -1.0655,-0.2105 -1.8986,-0.7387 -2.4992,-1.5846 0,0 -9.5861,-13.5013 -9.5861,-13.5013 0,0 6.2262,-4.4206 6.2262,-4.4206 z"
         id="path217524"
         style="font-weight:bold;font-size:84.9905px;line-height:1.25;font-family:'RC Font';-inkscape-font-specification:'RC Font Bold';letter-spacing:0px;word-spacing:0px;fill:#ff1652;stroke-width:2.12476" /><path
         d="m 1488.0204,1120.2467 c -4.7432,3.1344 -8.3495,6.8605 -10.8532,11.2012 -2.5039,4.3404 -3.6622,8.9857 -3.4752,13.9358 0.1642,4.9154 1.7678,9.6754 4.8107,14.2803 0,0 0.2287,0.3462 0.2287,0.3462 0,0 11.3253,17.1383 11.3253,17.1383 0,0 12.0487,-7.9619 12.0487,-7.9619 0,0 -11.4168,-17.2768 -11.4168,-17.2768 0,0 0,0 0,0 -2.3565,-3.5661 -3.056,-7.0335 -2.0868,-10.4595 0.9693,-3.4259 3.4448,-6.4545 7.4263,-9.0856 0,0 0,0 0,0 3.7048,-2.4481 7.415,-3.4574 11.1081,-3.0625 3.6584,0.4177 6.6201,2.3403 8.8852,5.768 0,0 11.4625,17.346 11.4625,17.346 0,0 12.1526,-8.0306 12.1526,-8.0306 0,0 -11.5083,-17.4153 -11.5083,-17.4153 0,0 0,0 0,0 -2.1735,-3.2891 -4.8558,-5.9933 -8.0358,-8.0205 -3.18,-2.0271 -6.5355,-3.3413 -10.0438,-3.9082 -3.5311,-0.6013 -7.2148,-0.4551 -11.0513,0.4386 -3.8365,0.8936 -7.48,2.4557 -10.9769,4.7665 0,0 0,0 0,0 z"
         id="path217526"
         style="font-weight:bold;font-size:84.9905px;line-height:1.25;font-family:'RC Font';-inkscape-font-specification:'RC Font Bold';letter-spacing:0px;word-spacing:0px;fill:#ff1652;stroke-width:2.12476" /></g></g><circle
     style="fill:#efefef;fill-opacity:1;stroke:none;stroke-width:2.19851;stroke-linecap:round;stroke-linejoin:round;paint-order:stroke fill markers;stop-color:#000000"
     id="circle217532"
     cx="1140.0677"
     cy="279.854"
     r="25.446688" /><circle
     style="fill:#ffffff;fill-opacity:1;stroke:none;stroke-width:1.46765;stroke-linecap:round;stroke-linejoin:round;paint-order:stroke fill markers;stop-color:#000000"
     id="circle217534"
     cx="1140.0677"
     cy="279.854"
     r="16.987362" /><circle
     style="fill:#efefef;fill-opacity:1;stroke:none;stroke-width:0.93689;stroke-linecap:round;stroke-linejoin:round;paint-order:stroke fill markers;stop-color:#000000"
     id="circle217536"
     cx="1140.0677"
     cy="279.854"
     r="10.844074" /><circle
     style="fill:#ffffff;fill-opacity:1;stroke:none;stroke-width:0.371364;stroke-linecap:round;stroke-linejoin:round;paint-order:stroke fill markers;stop-color:#000000"
     id="circle217538"
     cx="1140.0677"
     cy="279.854"
     r="4.2983737" /><path
     id="path217540"
     style="opacity:0.301282;fill:#cccccc;fill-opacity:1;stroke:none;stroke-width:2.19851;stroke-linecap:round;stroke-linejoin:round;paint-order:stroke fill markers;stop-color:#000000"
     d="m 1121.2319,262.79447 a 25.446689,25.446689 0 0 0 -6.6107,17.0595 25.446689,25.446689 0 0 0 25.4466,25.44659 25.446689,25.446689 0 0 0 19.4656,-9.09544 25.446689,25.446689 0 0 1 -18.836,8.38709 25.446689,25.446689 0 0 1 -25.4466,-25.44659 25.446689,25.446689 0 0 1 5.9811,-16.35115 z" /></g><circle
   style="fill:#ff1652;fill-opacity:1;stroke:none;stroke-width:3.60251;stroke-linecap:round;stroke-linejoin:round;paint-order:stroke fill markers;stop-color:#000000"
   id="circle1010"
   cx="41.69305"
   cy="41.692005"
   r="41.697498" /><g
   id="g1028"
   transform="matrix(0.15741176,0,0,0.15741176,-34.8247,-153.24897)"
   style="fill:#ffffff"><g
     id="g1018"
     transform="translate(-825.90072)"
     style="fill:#ffffff"><path
       style="color:#000000;fill:#ffffff;-inkscape-stroke:none"
       d="m 1313.252,997.9453 c -27.1146,-0.307 -52.7636,4.6988 -75.7286,13.8359 -77.4167,30.8022 -129.6055,105.9035 -133.0722,173.9512 -1.1883,23.3249 -1.3726,38.5325 -0.5508,52.9007 2.4029,-16.6678 0.8409,-29.467 10.1074,-50.7581 53.6006,-123.155 188.1263,-176.8857 305.0723,-107.2734 l 2.8789,1.7129 38.791,-29.0938 -5.3672,-3.9961 c -47.6802,-35.4985 -96.94,-50.7676 -142.1308,-51.2793 z m -0.125,9.9336 c 41.3042,0.4346 86.3857,14.0149 130.7558,45.4922 l -22.6426,16.9824 c -112.572,-64.9255 -240.0612,-19.936 -303.1054,87.8496 12.9887,-55.2382 60.0451,-112.0485 123.0859,-137.1308 21.7604,-8.6579 46.0945,-13.465 71.9063,-13.1934 z"
       id="path1012"
       sodipodi:nodetypes="scscscccssscccss" /><path
       d="m 1444.4984,1108.7453 c 0,0 30.0817,-21.3582 30.0817,-21.3582 0,0 -19.0061,36.9574 -19.0061,36.9574 0,0 9.0093,12.6891 9.0093,12.6891 0,0 12.4621,-24.1676 12.4621,-24.1676 0,0 0,0 0,0 3.2832,2.4021 6.8304,3.5988 10.6176,3.5566 3.7293,-0.052 7.3316,-1.2866 10.7492,-3.7132 0,0 0,0 0,0 2.8423,-2.0181 4.8757,-4.5305 6.1097,-7.5952 1.2002,-3.0407 1.5565,-6.1947 1.035,-9.4381 -0.5214,-3.2433 -1.8201,-6.2911 -3.8622,-9.1672 0,0 -17.0819,-24.0586 -17.0819,-24.0586 0,0 -48.5232,34.4519 -48.5232,34.4519 0,0 8.4088,11.8431 8.4088,11.8431 z m 36.6462,-26.0191 c 0,0 9.586,13.5013 9.586,13.5013 0,0 0,0 0,0 0.6006,0.8459 0.8246,1.8065 0.672,2.8819 -0.1766,1.0416 -0.7048,1.8746 -1.5507,2.4753 -0.846,0.6006 -1.8066,0.8246 -2.8482,0.648 -1.0655,-0.2105 -1.8986,-0.7387 -2.4992,-1.5846 0,0 -9.5861,-13.5013 -9.5861,-13.5013 0,0 6.2262,-4.4206 6.2262,-4.4206 z"
       id="path1014"
       style="font-weight:bold;font-size:84.9905px;line-height:1.25;font-family:'RC Font';-inkscape-font-specification:'RC Font Bold';letter-spacing:0px;word-spacing:0px;fill:#ffffff;stroke-width:2.12476" /><path
       d="m 1488.0204,1120.2467 c -4.7432,3.1344 -8.3495,6.8605 -10.8532,11.2012 -2.5039,4.3404 -3.6622,8.9857 -3.4752,13.9358 0.1642,4.9154 1.7678,9.6754 4.8107,14.2803 0,0 0.2287,0.3462 0.2287,0.3462 0,0 11.3253,17.1383 11.3253,17.1383 0,0 12.0487,-7.9619 12.0487,-7.9619 0,0 -11.4168,-17.2768 -11.4168,-17.2768 0,0 0,0 0,0 -2.3565,-3.5661 -3.056,-7.0335 -2.0868,-10.4595 0.9693,-3.4259 3.4448,-6.4545 7.4263,-9.0856 0,0 0,0 0,0 3.7048,-2.4481 7.415,-3.4574 11.1081,-3.0625 3.6584,0.4177 6.6201,2.3403 8.8852,5.768 0,0 11.4625,17.346 11.4625,17.346 0,0 12.1526,-8.0306 12.1526,-8.0306 0,0 -11.5083,-17.4153 -11.5083,-17.4153 0,0 0,0 0,0 -2.1735,-3.2891 -4.8558,-5.9933 -8.0358,-8.0205 -3.18,-2.0271 -6.5355,-3.3413 -10.0438,-3.9082 -3.5311,-0.6013 -7.2148,-0.4551 -11.0513,0.4386 -3.8365,0.8936 -7.48,2.4557 -10.9769,4.7665 0,0 0,0 0,0 z"
       id="path1016"
       style="font-weight:bold;font-size:84.9905px;line-height:1.25;font-family:'RC Font';-inkscape-font-specification:'RC Font Bold';letter-spacing:0px;word-spacing:0px;fill:#ffffff;stroke-width:2.12476" /></g><g
     id="g1026"
     transform="rotate(180,899.04963,1238.4142)"
     style="fill:#ffffff"><path
       style="color:#000000;fill:#ffffff;-inkscape-stroke:none"
       d="m 1313.252,997.9453 c -27.1146,-0.307 -52.7636,4.6988 -75.7286,13.8359 -77.4167,30.8022 -129.6055,105.9035 -133.0722,173.9512 -1.1883,23.3249 -1.3726,38.5325 -0.5508,52.9007 2.4029,-16.6678 0.8409,-29.467 10.1074,-50.7581 53.6006,-123.155 188.1263,-176.8857 305.0723,-107.2734 l 2.8789,1.7129 38.791,-29.0938 -5.3672,-3.9961 c -47.6802,-35.4985 -96.94,-50.7676 -142.1308,-51.2793 z m -0.125,9.9336 c 41.3042,0.4346 86.3857,14.0149 130.7558,45.4922 l -22.6426,16.9824 c -112.572,-64.9255 -240.0612,-19.936 -303.1054,87.8496 12.9887,-55.2382 60.0451,-112.0485 123.0859,-137.1308 21.7604,-8.6579 46.0945,-13.465 71.9063,-13.1934 z"
       id="path1020"
       sodipodi:nodetypes="scscscccssscccss" /><path
       d="m 1444.4984,1108.7453 c 0,0 30.0817,-21.3582 30.0817,-21.3582 0,0 -19.0061,36.9574 -19.0061,36.9574 0,0 9.0093,12.6891 9.0093,12.6891 0,0 12.4621,-24.1676 12.4621,-24.1676 0,0 0,0 0,0 3.2832,2.4021 6.8304,3.5988 10.6176,3.5566 3.7293,-0.052 7.3316,-1.2866 10.7492,-3.7132 0,0 0,0 0,0 2.8423,-2.0181 4.8757,-4.5305 6.1097,-7.5952 1.2002,-3.0407 1.5565,-6.1947 1.035,-9.4381 -0.5214,-3.2433 -1.8201,-6.2911 -3.8622,-9.1672 0,0 -17.0819,-24.0586 -17.0819,-24.0586 0,0 -48.5232,34.4519 -48.5232,34.4519 0,0 8.4088,11.8431 8.4088,11.8431 z m 36.6462,-26.0191 c 0,0 9.586,13.5013 9.586,13.5013 0,0 0,0 0,0 0.6006,0.8459 0.8246,1.8065 0.672,2.8819 -0.1766,1.0416 -0.7048,1.8746 -1.5507,2.4753 -0.846,0.6006 -1.8066,0.8246 -2.8482,0.648 -1.0655,-0.2105 -1.8986,-0.7387 -2.4992,-1.5846 0,0 -9.5861,-13.5013 -9.5861,-13.5013 0,0 6.2262,-4.4206 6.2262,-4.4206 z"
       id="path1022"
       style="font-weight:bold;font-size:84.9905px;line-height:1.25;font-family:'RC Font';-inkscape-font-specification:'RC Font Bold';letter-spacing:0px;word-spacing:0px;fill:#ffffff;stroke-width:2.12476" /><path
       d="m 1488.0204,1120.2467 c -4.7432,3.1344 -8.3495,6.8605 -10.8532,11.2012 -2.5039,4.3404 -3.6622,8.9857 -3.4752,13.9358 0.1642,4.9154 1.7678,9.6754 4.8107,14.2803 0,0 0.2287,0.3462 0.2287,0.3462 0,0 11.3253,17.1383 11.3253,17.1383 0,0 12.0487,-7.9619 12.0487,-7.9619 0,0 -11.4168,-17.2768 -11.4168,-17.2768 0,0 0,0 0,0 -2.3565,-3.5661 -3.056,-7.0335 -2.0868,-10.4595 0.9693,-3.4259 3.4448,-6.4545 7.4263,-9.0856 0,0 0,0 0,0 3.7048,-2.4481 7.415,-3.4574 11.1081,-3.0625 3.6584,0.4177 6.6201,2.3403 8.8852,5.768 0,0 11.4625,17.346 11.4625,17.346 0,0 12.1526,-8.0306 12.1526,-8.0306 0,0 -11.5083,-17.4153 -11.5083,-17.4153 0,0 0,0 0,0 -2.1735,-3.2891 -4.8558,-5.9933 -8.0358,-8.0205 -3.18,-2.0271 -6.5355,-3.3413 -10.0438,-3.9082 -3.5311,-0.6013 -7.2148,-0.4551 -11.0513,0.4386 -3.8365,0.8936 -7.48,2.4557 -10.9769,4.7665 0,0 0,0 0,0 z"
       id="path1024"
       style="font-weight:bold;font-size:84.9905px;line-height:1.25;font-family:'RC Font';-inkscape-font-specification:'RC Font Bold';letter-spacing:0px;word-spacing:0px;fill:#ffffff;stroke-width:2.12476" /></g></g><circle
   style="fill:#f5154f;fill-opacity:1;stroke:none;stroke-width:2.19851;stroke-linecap:round;stroke-linejoin:round;paint-order:stroke fill markers;stop-color:#000000"
   id="circle1030"
   cx="41.69305"
   cy="41.692005"
   r="25.446688" /><circle
   style="fill:#fc2059;fill-opacity:1;stroke:none;stroke-width:1.46765;stroke-linecap:round;stroke-linejoin:round;paint-order:stroke fill markers;stop-color:#000000"
   id="circle1032"
   cx="41.69305"
   cy="41.692005"
   r="16.987362" /><circle
   style="fill:#f5154f;fill-opacity:1;stroke:none;stroke-width:0.93689;stroke-linecap:round;stroke-linejoin:round;paint-order:stroke fill markers;stop-color:#000000"
   id="circle1034"
   cx="41.69305"
   cy="41.692005"
   r="10.844074" /><circle
   style="fill:#fc2059;fill-opacity:1;stroke:none;stroke-width:0.371364;stroke-linecap:round;stroke-linejoin:round;paint-order:stroke fill markers;stop-color:#000000"
   id="circle1036"
   cx="41.69305"
   cy="41.692005"
   r="4.2983737" /><path
   id="path1038"
   style="opacity:1;fill:#ff3469;fill-opacity:1;stroke:none;stroke-width:2.19851;stroke-linecap:round;stroke-linejoin:round;paint-order:stroke fill markers;stop-color:#000000"
   d="M 22.8572,24.63247 A 25.446689,25.446689 0 0 0 16.2465,41.69197 25.446689,25.446689 0 0 0 41.6931,67.13856 25.446689,25.446689 0 0 0 61.1587,58.04312 25.446689,25.446689 0 0 1 42.3227,66.43021 25.446689,25.446689 0 0 1 16.8761,40.98362 25.446689,25.446689 0 0 1 22.8572,24.63247 Z" /></svg>
