<?xml version="1.0" encoding="UTF-8" standalone="no"?>
<svg
   inkscape:version="1.1 (c68e22c387, 2021-05-23)"
   sodipodi:docname="base.svg"
   xml:space="preserve"
   enable-background="new 97 97.1 806 598.9"
   viewBox="97 97.1 806 598.9"
   height="598.9px"
   width="806px"
   y="0px"
   x="0px"
   id="Layer_1"
   version="1.1"
   xmlns:inkscape="http://www.inkscape.org/namespaces/inkscape"
   xmlns:sodipodi="http://sodipodi.sourceforge.net/DTD/sodipodi-0.dtd"
   xmlns:xlink="http://www.w3.org/1999/xlink"
   xmlns="http://www.w3.org/2000/svg"
   xmlns:svg="http://www.w3.org/2000/svg"
   xmlns:rdf="http://www.w3.org/1999/02/22-rdf-syntax-ns#"
   xmlns:cc="http://creativecommons.org/ns#"
   xmlns:dc="http://purl.org/dc/elements/1.1/"><metadata
   id="metadata413"><rdf:RDF><cc:Work
       rdf:about=""><dc:format>image/svg+xml</dc:format><dc:type
         rdf:resource="http://purl.org/dc/dcmitype/StillImage" /><dc:title /></cc:Work></rdf:RDF></metadata><defs
   id="defs411"><linearGradient
   inkscape:collect="always"
   id="linearGradient35136"><stop
     style="stop-color:#b7b7b7;stop-opacity:1;"
     offset="0"
     id="stop35132" /><stop
     style="stop-color:#ffffff;stop-opacity:1"
     offset="1"
     id="stop35134" /></linearGradient><linearGradient
   inkscape:collect="always"
   id="linearGradient4740"><stop
     style="stop-color:#e3e3e3;stop-opacity:1;"
     offset="0"
     id="stop4736" /><stop
     style="stop-color:#e3e3e3;stop-opacity:0;"
     offset="1"
     id="stop4738" /></linearGradient>
	

	
	
	
	
	

		
	
		
		
			<pattern
   patternTransform="matrix(-0.3298,0.09457588,-0.09457588,-0.3298,-21159.977,-7429.6616)"
   xlink:href="#SVGID_2_"
   id="SVGID_5_">
		</pattern>
		
		
	
		
	
		
		
		
		
	
		
		
			<pattern
   patternTransform="matrix(0.3298,0.09457588,0.09457588,-0.3298,-10180.451,-7431.5161)"
   xlink:href="#SVGID_1_"
   id="SVGID_4_">
		</pattern>
		
		
	
			
			
		
			
			
		
			
			
		
			
			
		
			
			
		
			
			
		
		
	
			
			
			
			
			
			
			
			
			
			
			
		
				
			
				
				
				
				
				
			<linearGradient
   inkscape:collect="always"
   xlink:href="#linearGradient4740"
   id="linearGradient4742"
   x1="251.57899"
   y1="413.46951"
   x2="250.89999"
   y2="353"
   gradientUnits="userSpaceOnUse"
   gradientTransform="translate(0,2)" /><filter
   inkscape:collect="always"
   style="color-interpolation-filters:sRGB"
   id="filter4763"
   x="-0.022793393"
   y="-0.022793393"
   width="1.0455868"
   height="1.0455868"><feGaussianBlur
     inkscape:collect="always"
     stdDeviation="1.7911808"
     id="feGaussianBlur4765" /></filter><linearGradient
   inkscape:collect="always"
   xlink:href="#linearGradient4740"
   id="linearGradient4977"
   gradientUnits="userSpaceOnUse"
   gradientTransform="translate(498.60006,2.0000081)"
   x1="251.57899"
   y1="413.46951"
   x2="250.89999"
   y2="353" />
	
	

		
	
		
	
			
			
		
			
			
		
				
				
			
				
				
			
				
				
			
				
				
			
					
				
					
				
	
	

		
	
		
	
	
	

		
		
		
	<linearGradient
   inkscape:collect="always"
   xlink:href="#linearGradient35136"
   id="linearGradient35138"
   x1="402.0332"
   y1="378.00391"
   x2="402.0332"
   y2="345.95898"
   gradientUnits="userSpaceOnUse" />
	

		
		
		
		
	
			
			
		
			
			
		
			
			
		
			
			
		
				
				
			
				
				
			
				
				
			
				
				
			
	

		
		
	
			
				<pattern
   opacity="0.12"
   patternTransform="matrix(0.1017,0,0,-0.1017,-13979.89,-2289.7598)"
   xlink:href="#SVGID_3_"
   id="SVGID_6_">
			</pattern>
			
		</defs><sodipodi:namedview
   inkscape:current-layer="Layer_1"
   inkscape:window-maximized="1"
   inkscape:window-y="-8"
   inkscape:window-x="-8"
   inkscape:cy="144.27929"
   inkscape:cx="604.31115"
   inkscape:zoom="0.66191067"
   showgrid="false"
   id="namedview409"
   inkscape:window-height="1017"
   inkscape:window-width="1920"
   inkscape:pageshadow="2"
   inkscape:pageopacity="0"
   guidetolerance="10"
   gridtolerance="10"
   objecttolerance="10"
   borderopacity="1"
   bordercolor="#666666"
   pagecolor="#ffffff"
   inkscape:pagecheckerboard="0"
   inkscape:snap-smooth-nodes="true"
   inkscape:snap-center="true" />
<pattern
   overflow="visible"
   viewBox="0 -231.7 40 103"
   id="SVGID_1_"
   patternUnits="userSpaceOnUse"
   height="103"
   width="40"
   y="696"
   x="97">
	<g
   id="g38">
		<polygon
   id="polygon2"
   points="0,-128.7 40,-128.7 40,-231.7 0,-231.7   "
   fill="none" />
		<g
   id="g36">
			<polygon
   id="polygon4"
   points="0,-128.7 40,-128.7 40,-231.7 0,-231.7    "
   fill="none" />
			<polygon
   id="polygon6"
   points="34.5,-360.5 37.5,-360.5 37.5,-206 34.5,-206    " />
			<polygon
   id="polygon8"
   points="26.5,-360.5 29.5,-360.5 29.5,-206 26.5,-206    " />
			<polygon
   id="polygon10"
   points="18.5,-360.5 21.5,-360.5 21.5,-206 18.5,-206    " />
			<polygon
   id="polygon12"
   points="10.5,-360.5 13.5,-360.5 13.5,-206 10.5,-206    " />
			<polygon
   id="polygon14"
   points="2.5,-360.5 5.5,-360.5 5.5,-206 2.5,-206    " />
			<polygon
   id="polygon16"
   points="34.5,-257.5 37.5,-257.5 37.5,-103 34.5,-103    " />
			<polygon
   id="polygon18"
   points="26.5,-257.5 29.5,-257.5 29.5,-103 26.5,-103    " />
			<polygon
   id="polygon20"
   points="18.5,-257.5 21.5,-257.5 21.5,-103 18.5,-103    " />
			<polygon
   id="polygon22"
   points="10.5,-257.5 13.5,-257.5 13.5,-103 10.5,-103    " />
			<polygon
   id="polygon24"
   points="2.5,-257.5 5.5,-257.5 5.5,-103 2.5,-103    " />
			<polygon
   id="polygon26"
   points="34.5,-154.5 37.5,-154.5 37.5,0 34.5,0    " />
			<polygon
   id="polygon28"
   points="26.5,-154.5 29.5,-154.5 29.5,0 26.5,0    " />
			<polygon
   id="polygon30"
   points="18.5,-154.5 21.5,-154.5 21.5,0 18.5,0    " />
			<polygon
   id="polygon32"
   points="10.5,-154.5 13.5,-154.5 13.5,0 10.5,0    " />
			<polygon
   id="polygon34"
   points="2.5,-154.5 5.5,-154.5 5.5,0 2.5,0    " />
		</g>
	</g>
</pattern>
<pattern
   overflow="visible"
   viewBox="0 -231.7 40 103"
   id="SVGID_2_"
   patternUnits="userSpaceOnUse"
   height="103"
   width="40"
   y="696"
   x="97">
	<g
   id="g77">
		<polygon
   id="polygon41"
   points="0,-128.7 40,-128.7 40,-231.7 0,-231.7   "
   fill="none" />
		<g
   id="g75">
			<polygon
   id="polygon43"
   points="0,-128.7 40,-128.7 40,-231.7 0,-231.7    "
   fill="none" />
			<polygon
   id="polygon45"
   points="34.5,-360.5 37.5,-360.5 37.5,-206 34.5,-206    " />
			<polygon
   id="polygon47"
   points="26.5,-360.5 29.5,-360.5 29.5,-206 26.5,-206    " />
			<polygon
   id="polygon49"
   points="18.5,-360.5 21.5,-360.5 21.5,-206 18.5,-206    " />
			<polygon
   id="polygon51"
   points="10.5,-360.5 13.5,-360.5 13.5,-206 10.5,-206    " />
			<polygon
   id="polygon53"
   points="2.5,-360.5 5.5,-360.5 5.5,-206 2.5,-206    " />
			<polygon
   id="polygon55"
   points="34.5,-257.5 37.5,-257.5 37.5,-103 34.5,-103    " />
			<polygon
   id="polygon57"
   points="26.5,-257.5 29.5,-257.5 29.5,-103 26.5,-103    " />
			<polygon
   id="polygon59"
   points="18.5,-257.5 21.5,-257.5 21.5,-103 18.5,-103    " />
			<polygon
   id="polygon61"
   points="10.5,-257.5 13.5,-257.5 13.5,-103 10.5,-103    " />
			<polygon
   id="polygon63"
   points="2.5,-257.5 5.5,-257.5 5.5,-103 2.5,-103    " />
			<polygon
   id="polygon65"
   points="34.5,-154.5 37.5,-154.5 37.5,0 34.5,0    " />
			<polygon
   id="polygon67"
   points="26.5,-154.5 29.5,-154.5 29.5,0 26.5,0    " />
			<polygon
   id="polygon69"
   points="18.5,-154.5 21.5,-154.5 21.5,0 18.5,0    " />
			<polygon
   id="polygon71"
   points="10.5,-154.5 13.5,-154.5 13.5,0 10.5,0    " />
			<polygon
   id="polygon73"
   points="2.5,-154.5 5.5,-154.5 5.5,0 2.5,0    " />
		</g>
	</g>
</pattern>
<pattern
   overflow="visible"
   viewBox="0 -71 71 71"
   id="SVGID_3_"
   patternUnits="userSpaceOnUse"
   height="71"
   width="71"
   y="696"
   x="97">
	<g
   id="g88">
		<polygon
   id="polygon80"
   points="0,0 71,0 71,-71 0,-71   "
   fill="none" />
		<g
   id="g86">
			<polygon
   id="polygon82"
   points="0,0 71,0 71,-71 0,-71    "
   fill="none" />
			<path
   id="path84"
   d="M41.8-35.5c0-3.5-2.8-6.3-6.3-6.3s-6.3,2.8-6.3,6.3s2.8,6.3,6.3,6.3S41.8-32,41.8-35.5z"
   fill="#B3B3B3" />
		</g>
	</g>
</pattern>
<path
   id="path91"
   d="m 898.3,515.7 c -2.9,-15.5 -17.7,-102.5 -32,-144.6 -9.4,-27.7 -13.1,-53 -17,-64.9 -12,-35.7 -33,-65.7 -33,-65.7 0,0 -9.5,-13.1 -10.1,-16.3 -0.6,-3.3 -4.7,-8.6 -4.7,-8.6 0,0 -17.4,-5.7 -62.3,-5.7 -44.9,0 -53.7,5 -53.7,5 0,0 -2.4,2.9 -5.9,4.8 -3.5,1.8 -11.7,1.7 -11.7,1.7 h -33.4 c 0,0 -0.6,-0.1 -0.9,0.3 -0.4,0.4 -0.6,2 -0.6,2 H 500 366.9 c 0,0 -0.3,-1.7 -0.6,-2 -0.4,-0.4 -0.9,-0.3 -0.9,-0.3 H 332 c 0,0 -8.2,0.2 -11.7,-1.7 -3.5,-1.8 -5.9,-4.8 -5.9,-4.8 0,0 -8.8,-5 -53.7,-5 -44.8,0 -62.3,5.7 -62.3,5.7 0,0 -4.1,5.3 -4.7,8.6 -0.6,3.3 -10.1,16.3 -10.1,16.3 0,0 -21,30 -33,65.7 -4,11.9 -7.7,37.2 -17,64.9 -14.3,42.1 -29.1,129.1 -32,144.6 -4.3,23.2 -4.6,90.2 -4.6,90.2 0,0 4.5,53.4 36.2,74.9 31.7,21.5 56.7,14 56.7,14 0,0 33.1,-8.2 57.8,-41.9 24.7,-33.7 56.6,-129.2 56.6,-129.2 0,0 2.2,-3 5.7,-5.3 3.5,-2.3 6.3,-2.6 6.3,-2.6 l 183.7,0.1 183.7,-0.1 c 0,0 2.8,0.3 6.3,2.6 3.5,2.3 5.7,5.3 5.7,5.3 0,0 31.9,95.4 56.6,129.2 24.7,33.8 57.8,41.9 57.8,41.9 0,0 25,7.5 56.7,-14 31.7,-21.5 36.2,-74.9 36.2,-74.9 0,0 -0.3,-67 -4.7,-90.2 z"
   fill="#0d0e13"
   style="fill:#ffffff" /><g
   id="g5079"><circle
     id="circle4973"
     r="94.300003"
     cy="348.2399"
     cx="749.29999"
     fill="#080808"
     style="opacity:0.705128;mix-blend-mode:normal;fill:url(#linearGradient4977);fill-opacity:1;filter:url(#filter4763)" /><circle
     id="circle4975"
     r="94.300003"
     cy="341.89999"
     cx="749.29999"
     fill="#080808"
     style="fill:#ffffff" /></g><path
   id="path93"
   d="m 133.6,373.1 c 9.4,-27.7 13.1,-53 17,-64.9 12,-35.7 33,-65.7 33,-65.7 0,0 9.5,-13.1 10.1,-16.3 0.6,-3.3 4.7,-8.6 4.7,-8.6 0,0 17.4,-5.7 62.3,-5.7 44.8,0 53.7,5 53.7,5 0,0 2.4,2.9 5.9,4.8 3.5,1.8 11.7,1.7 11.7,1.7 h 33.4 c 0,0 0.6,-0.1 0.9,0.3 0.4,0.4 0.6,2 0.6,2 H 500 633.1 c 0,0 0.3,-1.7 0.6,-2 0.4,-0.4 0.9,-0.3 0.9,-0.3 H 668 c 0,0 8.2,0.2 11.7,-1.7 3.5,-1.8 5.9,-4.8 5.9,-4.8 0,0 8.8,-5 53.7,-5 44.9,0 62.3,5.7 62.3,5.7 0,0 4.1,5.3 4.7,8.6 0.6,3.3 10.1,16.3 10.1,16.3 0,0 21,30 33,65.7 4,11.9 7.7,37.2 17,64.9 14.3,42.1 29.1,129.1 32,144.6 3.9,20.9 4.6,77.3 4.7,88.3 0,-0.1 0,-0.1 0,-0.1 0,0 -0.3,-66.9 -4.7,-90.1 -2.9,-15.5 -17.7,-102.5 -32,-144.6 -9.4,-27.7 -13.1,-53 -17,-64.9 -12,-35.7 -33,-65.7 -33,-65.7 0,0 -9.5,-13.1 -10.1,-16.3 -0.6,-3.3 -4.7,-8.6 -4.7,-8.6 0,0 -17.4,-5.7 -62.3,-5.7 -44.9,0 -53.7,5 -53.7,5 0,0 -2.4,2.9 -5.9,4.8 -3.5,1.8 -11.7,1.7 -11.7,1.7 h -33.4 c 0,0 -0.6,-0.1 -0.9,0.3 -0.4,0.4 -0.6,2 -0.6,2 H 500 366.9 c 0,0 -0.3,-1.7 -0.6,-2 -0.4,-0.4 -0.9,-0.3 -0.9,-0.3 H 332 c 0,0 -8.2,0.2 -11.7,-1.7 -3.5,-1.8 -5.9,-4.8 -5.9,-4.8 0,0 -8.8,-5 -53.7,-5 -44.8,0 -62.3,5.7 -62.3,5.7 0,0 -4.1,5.3 -4.7,8.6 -0.6,3.3 -10.1,16.3 -10.1,16.3 0,0 -21,30 -33,65.7 -4,11.9 -7.7,37.2 -17,64.9 -14.3,42.1 -29.1,129.1 -32,144.6 -4.3,23.1 -4.6,90.1 -4.6,90.1 v 0.1 c 0.1,-10.9 0.7,-67.4 4.7,-88.3 2.9,-15.4 17.6,-102.5 31.9,-144.6 z"
   fill="#ffffff"
   style="opacity:0.06;fill:#ffffff" /><path
   id="path103"
   d="m 704.79999,451.10001 c 0,-42.2 -34.3,-76.5 -76.5,-76.5 -42.2,0 -76.5,34.3 -76.5,76.5 0,0.7 0,1.3 0.1,2 0,0.7 -0.1,1.3 -0.1,2 0,42.2 34.3,76.5 76.5,76.5 42.2,0 76.5,-34.3 76.5,-76.5 0,-0.7 0,-1.3 -0.1,-2 0.1,-0.7 0.1,-1.4 0.1,-2 z"
   fill="#13161f"
   style="fill:#ffffff;fill-opacity:1" /><path
   id="path109"
   d="m 631.8,225.1 c -0.4,-3.2 -3.3,-5.6 -6.5,-5.6 v 0 H 500 v 0 H 374.7 v 0 c -3.2,0 -6.1,2.3 -6.5,5.6 -0.1,0.7 -0.1,1.4 -0.1,2.1 v 127.4 c 0,8.9 7.2,16.1 16.1,16.1 H 500 v 0 h 115.8 c 8.9,0 16.1,-7.2 16.1,-16.1 V 227.2 c 0.1,-0.7 0,-1.4 -0.1,-2.1 z"
   fill="#121212"
   style="fill:#000000" /><circle
   id="circle2851"
   r="94.300003"
   cy="348.2399"
   cx="250.7"
   fill="#080808"
   style="mix-blend-mode:normal;fill:url(#linearGradient4742);fill-opacity:1;filter:url(#filter4763);opacity:0.70512821" /><circle
   id="circle113"
   r="94.300003"
   cy="341.89999"
   cx="250.7"
   fill="#080808"
   style="fill:#ffffff" /><path
   id="path115"
   d="m 327.4,351.2 9.5,-8.9 c 0.5,-0.5 0.5,-1.2 0,-1.7 l -9.5,-8.9 c -0.7,-0.7 -1.9,-0.2 -1.9,0.8 v 8.9 8.9 c -0.1,1 1.1,1.5 1.9,0.9 z"
   fill="#1f1f1f"
   style="fill:#ffffff" /><path
   id="path117"
   d="m 242,266.9 h 8.9 8.9 c 1,0 1.5,-1.2 0.8,-1.9 l -8.9,-9.5 c -0.5,-0.5 -1.2,-0.5 -1.7,0 l -8.9,9.5 c -0.6,0.7 -0.1,1.9 0.9,1.9 z"
   fill="#1f1f1f"
   style="fill:#ffffff" /><path
   id="path119"
   d="m 174.5,331.7 -9.5,8.9 c -0.5,0.5 -0.5,1.2 0,1.7 l 9.5,8.9 c 0.7,0.7 1.9,0.2 1.9,-0.8 v -8.9 -8.9 c 0,-1.1 -1.2,-1.6 -1.9,-0.9 z"
   fill="#1f1f1f"
   style="fill:#ffffff" /><path
   id="path121"
   d="m 259.8,415.9 h -8.9 -8.9 c -1,0 -1.5,1.2 -0.8,1.9 l 8.9,9.5 c 0.5,0.5 1.2,0.5 1.7,0 l 8.9,-9.5 c 0.6,-0.7 0.1,-1.9 -0.9,-1.9 z"
   fill="#1f1f1f"
   style="fill:#ffffff" />
<path
   id="path131"
   d="m 202.2,641.6 c -40.5,-2.8 -75.8,-20.3 -87.3,-30.5 -11.5,-10.3 -17.5,-31.6 -17.5,-31.6 -0.4,15 -0.4,26.3 -0.4,26.3 0,0 4.5,53.4 36.2,74.9 31.7,21.5 56.7,14 56.7,14 0,0 33.1,-8.2 57.8,-41.9 4.5,-6.2 9.3,-14.5 14.1,-23.8 -0.1,0 -19.2,15.3 -59.6,12.6 z"
   enable-background="new    "
   fill="#e6e6e6"
   opacity="0.1" /><path
   id="path134"
   d="m 202.2,641.6 c -40.5,-2.8 -75.8,-20.3 -87.3,-30.5 -11.5,-10.3 -17.5,-31.6 -17.5,-31.6 -0.4,15 -0.4,26.3 -0.4,26.3 0,0 4.5,53.4 36.2,74.9 31.7,21.5 56.7,14 56.7,14 0,0 33.1,-8.2 57.8,-41.9 4.5,-6.2 9.3,-14.5 14.1,-23.8 -0.1,0 -19.2,15.3 -59.6,12.6 z"
   enable-background="new    "
   fill="url(#SVGID_4_)"
   opacity="0.08"
   style="opacity:1;fill:#000000" /><path
   id="path140"
   d="m 797.8,641.6 c 40.5,-2.8 75.8,-20.3 87.3,-30.5 11.5,-10.2 17.5,-31.5 17.5,-31.5 0.4,15 0.4,26.3 0.4,26.3 0,0 -4.5,53.4 -36.2,74.9 -31.7,21.5 -56.7,14 -56.7,14 0,0 -33.1,-8.2 -57.8,-41.9 -4.5,-6.2 -9.3,-14.5 -14.1,-23.8 0.1,-0.1 19.2,15.2 59.6,12.5 z"
   enable-background="new    "
   fill="#e6e6e6"
   opacity="0.1" /><path
   id="path143"
   d="m 797.8,641.6 c 40.5,-2.8 75.8,-20.3 87.3,-30.5 11.5,-10.2 17.5,-31.5 17.5,-31.5 0.4,15 0.4,26.3 0.4,26.3 0,0 -4.5,53.4 -36.2,74.9 -31.7,21.5 -56.7,14 -56.7,14 0,0 -33.1,-8.2 -57.8,-41.9 -4.5,-6.2 -9.3,-14.5 -14.1,-23.8 0.1,-0.1 19.2,15.2 59.6,12.5 z"
   enable-background="new    "
   fill="url(#SVGID_5_)"
   opacity="0.08"
   style="opacity:1;fill:#000000" /><path
   id="path149"
   d="m 337.5,240.6 c 6.9,0 12.5,5.6 12.5,12.5 v 18.3 c 0,6.9 -5.6,12.5 -12.5,12.5 -6.9,0 -12.5,-5.6 -12.5,-12.5 v -18.3 c 0,-6.9 5.6,-12.5 12.5,-12.5 m 0,-1.7 c -7.8,0 -14.2,6.4 -14.2,14.2 v 18.3 c 0,7.8 6.4,14.2 14.2,14.2 7.8,0 14.2,-6.4 14.2,-14.2 v -18.3 c 0,-7.9 -6.4,-14.2 -14.2,-14.2 z"
   style="fill:#080808;fill-opacity:1" /><path
   id="path151"
   d="m 337.5,240.6 c -6.9,0 -12.5,5.6 -12.5,12.5 v 18.3 c 0,6.9 5.6,12.5 12.5,12.5 6.9,0 12.5,-5.6 12.5,-12.5 v -18.3 c 0,-6.9 -5.6,-12.5 -12.5,-12.5 z"
   fill="#10111a"
   style="fill:#000000" /><path
   id="path157"
   d="m 662.5,240.6 c 6.9,0 12.5,5.6 12.5,12.5 v 18.3 c 0,6.9 -5.6,12.5 -12.5,12.5 v 0 c -6.9,0 -12.5,-5.6 -12.5,-12.5 v -18.3 c 0,-6.9 5.6,-12.5 12.5,-12.5 v 0 m 0,-1.7 c -7.8,0 -14.2,6.4 -14.2,14.2 v 18.3 c 0,7.8 6.4,14.2 14.2,14.2 7.8,0 14.2,-6.4 14.2,-14.2 v -18.3 c 0,-7.9 -6.4,-14.2 -14.2,-14.2 z"
   style="fill:#080808;fill-opacity:1" /><path
   id="path159"
   d="m 662.5,240.6 c -6.9,0 -12.5,5.6 -12.5,12.5 v 18.3 c 0,6.9 5.6,12.5 12.5,12.5 6.9,0 12.5,-5.6 12.5,-12.5 v -18.3 c 0,-6.9 -5.6,-12.5 -12.5,-12.5 z"
   fill="#10111a"
   style="fill:#000000" />
<g
   id="g221">
	<g
   id="g207">
		<circle
   id="circle193"
   r="4.1"
   cy="413.5"
   cx="500" />
		<circle
   id="circle195"
   r="4.1"
   cy="392.6"
   cx="500" />
		<circle
   id="circle197"
   r="4.1"
   cy="402.8"
   cx="493.1" />
		<circle
   id="circle199"
   r="4.1"
   cy="402.8"
   cx="478.4" />
		<circle
   id="circle201"
   r="4.1"
   cy="413.5"
   cx="485.7" />
		<circle
   id="circle203"
   r="4.1"
   cy="392.6"
   cx="485.7" />
		<circle
   id="circle205"
   r="4.1"
   cy="392.6"
   cx="471.4" />
	</g>
	<g
   id="g219">
		<circle
   id="circle209"
   r="4.1"
   cy="402.8"
   cx="506.9" />
		<circle
   id="circle211"
   r="4.1"
   cy="402.8"
   cx="521.6" />
		<circle
   id="circle213"
   r="4.1"
   cy="413.5"
   cx="514.2" />
		<circle
   id="circle215"
   r="4.1"
   cy="392.6"
   cx="514.2" />
		<circle
   id="circle217"
   r="4.1"
   cy="392.6"
   cx="528.6" />
	</g>
</g>
<g
   id="g247"
   opacity="0.12">
	<path
   id="path223"
   d="M500,416.6c-2.1,0-3.8-1.6-4.1-3.6c0,0.2-0.1,0.3-0.1,0.5c0,2.3,1.8,4.1,4.1,4.1c2.3,0,4.1-1.8,4.1-4.1   c0-0.2,0-0.3-0.1-0.5C503.8,415,502.1,416.6,500,416.6z"
   fill="#FFFFFF" />
	<path
   id="path225"
   d="M500,396.7c2.3,0,4.1-1.8,4.1-4.1c0-0.2,0-0.3-0.1-0.5c-0.2,2-2,3.6-4.1,3.6s-3.8-1.6-4.1-3.6   c0,0.2-0.1,0.3-0.1,0.5C495.9,394.8,497.7,396.7,500,396.7z"
   fill="#FFFFFF" />
	<path
   id="path227"
   d="M497.2,402.8c0-0.2,0-0.3-0.1-0.5c-0.2,2-2,3.6-4.1,3.6s-3.8-1.6-4.1-3.6c0,0.2-0.1,0.3-0.1,0.5   c0,2.3,1.8,4.1,4.1,4.1C495.3,406.9,497.2,405.1,497.2,402.8z"
   fill="#FFFFFF" />
	<path
   id="path229"
   d="M482.4,402.3c-0.2,2-2,3.6-4.1,3.6s-3.8-1.6-4.1-3.6c0,0.2-0.1,0.3-0.1,0.5c0,2.3,1.8,4.1,4.1,4.1   c2.3,0,4.1-1.8,4.1-4.1C482.5,402.6,482.5,402.5,482.4,402.3z"
   fill="#FFFFFF" />
	<path
   id="path231"
   d="M485.8,416.6c-2.1,0-3.8-1.6-4.1-3.6c0,0.2-0.1,0.3-0.1,0.5c0,2.3,1.8,4.1,4.1,4.1c2.3,0,4.1-1.8,4.1-4.1   c0-0.2,0-0.3-0.1-0.5C489.6,415,487.9,416.6,485.8,416.6z"
   fill="#FFFFFF" />
	<path
   id="path233"
   d="M485.8,396.7c2.3,0,4.1-1.8,4.1-4.1c0-0.2,0-0.3-0.1-0.5c-0.2,2-2,3.6-4.1,3.6s-3.8-1.6-4.1-3.6   c0,0.2-0.1,0.3-0.1,0.5C481.6,394.8,483.5,396.7,485.8,396.7z"
   fill="#FFFFFF" />
	<path
   id="path235"
   d="M475.6,392.6c0-0.2,0-0.3-0.1-0.5c-0.2,2-2,3.6-4.1,3.6s-3.8-1.6-4.1-3.6c0,0.2-0.1,0.3-0.1,0.5   c0,2.3,1.8,4.1,4.1,4.1C473.7,396.7,475.6,394.8,475.6,392.6z"
   fill="#FFFFFF" />
	<path
   id="path237"
   d="M511,402.3c-0.2,2-2,3.6-4.1,3.6s-3.8-1.6-4.1-3.6c0,0.2-0.1,0.3-0.1,0.5c0,2.3,1.8,4.1,4.1,4.1   c2.3,0,4.1-1.8,4.1-4.1C511.1,402.6,511,402.5,511,402.3z"
   fill="#FFFFFF" />
	<path
   id="path239"
   d="M521.6,405.9c-2.1,0-3.8-1.6-4.1-3.6c0,0.2-0.1,0.3-0.1,0.5c0,2.3,1.8,4.1,4.1,4.1c2.3,0,4.1-1.8,4.1-4.1   c0-0.2,0-0.3-0.1-0.5C525.5,404.4,523.7,405.9,521.6,405.9z"
   fill="#FFFFFF" />
	<path
   id="path241"
   d="M514.3,416.6c-2.1,0-3.8-1.6-4.1-3.6c0,0.2-0.1,0.3-0.1,0.5c0,2.3,1.8,4.1,4.1,4.1c2.3,0,4.1-1.8,4.1-4.1   c0-0.2,0-0.3-0.1-0.5C518.1,415,516.4,416.6,514.3,416.6z"
   fill="#FFFFFF" />
	<path
   id="path243"
   d="M514.3,396.7c2.3,0,4.1-1.8,4.1-4.1c0-0.2,0-0.3-0.1-0.5c-0.2,2-2,3.6-4.1,3.6c-2.1,0-3.8-1.6-4.1-3.6   c0,0.2-0.1,0.3-0.1,0.5C510.1,394.8,512,396.7,514.3,396.7z"
   fill="#FFFFFF" />
	<path
   id="path245"
   d="M528.6,395.7c-2.1,0-3.8-1.6-4.1-3.6c0,0.2-0.1,0.3-0.1,0.5c0,2.3,1.8,4.1,4.1,4.1c2.3,0,4.1-1.8,4.1-4.1   c0-0.2,0-0.3-0.1-0.5C532.4,394.1,530.7,395.7,528.6,395.7z"
   fill="#FFFFFF" />
</g>
<path
   id="path249"
   d="M533.6,518.1h-67.9c-2.8,0-4.6,0.6-4.6-2.2l0,0c0-2.8,2.3-5,5-5H534c2.8,0,5,2.3,5,5l0,0  C539.1,518.6,536.4,518.1,533.6,518.1z"
   fill="#0B0B0F" />
<path
   id="path251"
   d="M505.3,515.9h-36.5c-0.5,0-0.9-0.4-0.9-0.9l0,0c0-1.1,0.9-2,2-2h34.2c1.1,0,2,0.9,2,2l0,0  C506.2,515.5,505.8,515.9,505.3,515.9z" />
<path
   id="path253"
   d="M527.5,516.7h-4.2c-0.9,0-1.7-0.8-1.7-1.7l0,0c0-1.6,1.3-2.8,2.8-2.8h1.9c1.6,0,2.8,1.3,2.8,2.8l0,0  C529.2,516,528.5,516.7,527.5,516.7z" />
<path
   id="path255"
   d="m 627.4,221.4 c 0,-1 -0.8,-1.9 -1.9,-1.9 H 500 v 0 H 374.4 c -1,0 -1.9,0.8 -1.9,1.9 v 6 123.2 c 0,8.6 7,15.6 15.6,15.6 H 500 v 0 h 111.9 c 8.6,0 15.6,-7 15.6,-15.6 V 227.5 Z"
   fill="#080808"
   style="fill:#000000" /><path
   id="path258"
   d="m 372.5,350.6 c 0,8.6 7,15.6 15.6,15.6 H 500 v 0 h 111.9 c 8.6,0 15.6,-7 15.6,-15.6 V 244.1 h -255 z"
   fill="url(#SVGID_6_)"
   style="opacity:0.12" />

<circle
   id="circle310"
   r="20.200001"
   cy="459.10001"
   cx="500"
   stroke-miterlimit="10"
   stroke-width="2"
   stroke="#000000"
   fill="#050505"
   style="fill:#000000;stroke:#080808;stroke-opacity:1" />
<g
   id="g326"
   style="fill:#000000;fill-opacity:1">
			<path
   id="path322"
   d="m 794.2,207 c 0,-0.8 -0.4,-1.5 -1.1,-1.9 -4.5,-2.9 -23.4,-13.6 -51.5,-13.6 -26.9,0 -41.1,5.9 -45.1,8 -0.8,0.4 -1.2,1.2 -1.2,2 0,0 9.8,-2.9 47.5,-2.9 37.7,0 51.4,8.4 51.4,8.4 z"
   fill="#0a0a0a"
   style="fill:#080808;fill-opacity:1" />
			<path
   id="path324"
   d="m 794.1,213.9 v 0 -6.9 c 0,0 -13.7,-8.4 -51.4,-8.4 -37.8,0 -47.5,2.9 -47.5,2.9 v 11 0 c 7.7,-1.3 21.2,-2.6 44.1,-2.6 28.5,0.1 45.9,2.4 54.8,4 z"
   fill="#121212"
   style="fill:#000000;fill-opacity:1" />
		</g><g
   id="g334"
   style="fill:#000000;fill-opacity:1">
			<path
   id="path330"
   d="m 205.8,207 c 0,-0.8 0.4,-1.5 1.1,-1.9 4.5,-2.9 23.4,-13.6 51.5,-13.6 26.9,0 41.1,5.9 45.1,8 0.8,0.4 1.2,1.2 1.2,2 0,0 -9.8,-2.9 -47.5,-2.9 -37.7,0 -51.4,8.4 -51.4,8.4 z"
   fill="#0A0A0A"
   style="fill:#080808;fill-opacity:1" />
			<path
   id="path332"
   d="m 205.9,213.9 v 0 -6.9 c 0,0 13.7,-8.4 51.4,-8.4 37.8,0 47.5,2.9 47.5,2.9 v 11 0 c -7.7,-1.3 -21.2,-2.6 -44.1,-2.6 -28.5,0.1 -45.9,2.4 -54.8,4 z"
   fill="#121212"
   style="fill:#000000;fill-opacity:1" />
		</g>
<path
   id="path340"
   d="m 794.2,187.9 c 0,0 -32.7,-3.2 -50.6,-3.2 -17.9,0 -48.4,2.4 -48.4,2.4 0,0 3.1,-44.7 4.8,-52 1.6,-7.3 7.7,-21.3 16.9,-27.9 9.2,-6.6 11.9,-10.1 22.7,-10.1 10.8,0 25.4,6.4 34.6,21.4 9.3,15 20,69.4 20,69.4 z"
   fill="#121212"
   style="fill:#000000;fill-opacity:1" /><path
   id="path342"
   d="m 695.7,180.3 c 0,0 26.1,-4.4 49,-4.4 22.8,0 47.9,4.4 47.9,4.4 1,4.7 1.6,7.6 1.6,7.6 0,0 -32.7,-3.2 -50.6,-3.2 -17.9,0 -48.4,2.4 -48.4,2.4 0,0 0.2,-2.7 0.5,-6.8 z"
   fill="#0a0a0a"
   style="fill:#080808;fill-opacity:1" /><path
   id="path346"
   d="m 745.7,162.8 c -2.1,1.7 -3.2,2.6 -3.2,2.6 -1.2,1.2 -1.9,2.7 -2,4.5 h 9.8 v -2.6 H 744 c 0.3,-0.5 1,-1.2 2.1,-1.9 1.4,-0.9 2.3,-1.6 2.7,-2.1 0.9,-1 1.3,-2.1 1.3,-3.3 0,-1.4 -0.5,-2.5 -1.4,-3.3 -0.9,-0.8 -2.1,-1.2 -3.5,-1.2 -3.1,0 -4.7,1.7 -4.7,5 h 2.7 c 0,-1.8 0.7,-2.7 2.1,-2.7 1.3,0 2,0.7 2,2.1 0.2,1.1 -0.4,2 -1.6,2.9 z"
   fill="#ffffff"
   style="opacity:1" /><path
   id="path350"
   d="m 728.1,164.3 h 3 c 1.5,0 2.3,0.6 2.4,1.9 0.1,1.2 0.2,2.5 0.3,3.8 h 3.3 v -0.4 c -0.5,-0.2 -0.7,-0.7 -0.7,-1.5 0,-0.2 0,-0.4 0.1,-0.8 v -0.7 c 0,-1.7 -0.6,-2.9 -1.8,-3.5 1.4,-0.5 2.2,-1.6 2.2,-3.4 0,-1.3 -0.4,-2.3 -1.3,-3 -0.8,-0.7 -1.9,-1 -3.2,-1 h -7.3 V 170 h 3 z m 0,-6.2 h 3.7 c 1.4,0 2.1,0.6 2.1,1.9 0,1.3 -0.8,1.9 -2.3,1.9 h -3.5 z"
   fill="#ffffff"
   style="opacity:1" /><path
   id="path358"
   d="m 205.8,187.9 c 0,0 32.7,-3.2 50.6,-3.2 17.9,0 48.3,2.4 48.3,2.4 0,0 -3.1,-44.7 -4.8,-52 -1.6,-7.3 -7.7,-21.3 -16.9,-27.9 -9.1,-6.7 -11.8,-10.1 -22.6,-10.1 -10.8,0 -25.4,6.4 -34.6,21.4 -9.2,15 -20,69.4 -20,69.4 z"
   fill="#121212"
   style="fill:#000000" /><path
   id="path360"
   d="m 304.3,180.3 c 0,0 -26.1,-4.4 -49,-4.4 -22.8,0 -47.9,4.4 -47.9,4.4 -1,4.7 -1.6,7.6 -1.6,7.6 0,0 32.7,-3.2 50.6,-3.2 17.9,0 48.3,2.4 48.3,2.4 0,0 -0.1,-2.7 -0.4,-6.8 z"
   fill="#0a0a0a"
   style="fill:#080808;fill-opacity:1" /><path
   id="path364"
   d="m 270.3,162.8 c -2.1,1.7 -3.2,2.6 -3.2,2.6 -1.2,1.2 -1.9,2.7 -2,4.5 h 9.8 v -2.6 h -6.2 c 0.3,-0.5 1,-1.2 2.1,-1.9 1.4,-0.9 2.3,-1.6 2.7,-2.1 0.9,-1 1.3,-2.1 1.3,-3.3 0,-1.4 -0.5,-2.5 -1.4,-3.3 -0.9,-0.8 -2.1,-1.2 -3.5,-1.2 -3.1,0 -4.7,1.7 -4.7,5 h 2.7 c 0,-1.8 0.7,-2.7 2.1,-2.7 1.3,0 2,0.7 2,2.1 0.1,1.1 -0.5,2 -1.7,2.9 z"
   fill="#ffffff"
   style="opacity:1" /><polygon
   id="polygon368"
   points="254.8,155.6 251.7,155.6 251.7,169.9 261.8,169.9 261.8,167.3 254.8,167.3 "
   fill="#ffffff"
   style="opacity:1" />

<path
   id="circle5485"
   style="fill:#000000"
   d="m 623.06711,380.31753 a 73,73 0 0 0 -37.32422,13.59375 l 5.86524,7.63477 -14.91993,14.91992 -7.63476,-5.86524 a 73,73 0 0 0 7.60156,94.14844 73,73 0 0 0 94.15234,7.60352 l -5.86718,-7.63477 14.91992,-14.91992 7.6914,5.9082 a 73,73 0 0 0 -7.6582,-94.19336 73,73 0 0 0 -56.82617,-21.19531 z m 0.71875,21.50977 a 51.5,51.5 0 0 1 40.9043,14.88867 51.5,51.5 0 0 1 0,72.83203 51.5,51.5 0 0 1 -72.83203,0 51.5,51.5 0 0 1 0,-72.83203 51.5,51.5 0 0 1 31.92773,-14.88867 z" /><circle
   id="circle107"
   r="51.5"
   cy="453.10001"
   cx="628.29999"
   style="fill:#000000;fill-opacity:1;stroke:#000000" /><path
   id="path97"
   d="m 448.2,457.1 c 0,-42.2 -34.3,-76.5 -76.5,-76.5 -42.2,0 -76.5,34.3 -76.5,76.5 0,0.7 0,1.3 0.1,2 0,0.7 -0.1,1.3 -0.1,2 0,42.2 34.3,76.5 76.5,76.5 42.2,0 76.5,-34.3 76.5,-76.5 0,-0.7 0,-1.3 -0.1,-2 0,-0.7 0.1,-1.4 0.1,-2 z"
   fill="#13161f"
   style="fill:#ffffff" /><path
   id="path6480"
   style="fill:#000000"
   d="m 366.46712,386.31752 a 73,73 0 0 0 -37.32422,13.59375 l 5.86524,7.63477 -14.91993,14.91992 -7.63476,-5.86524 a 73,73 0 0 0 7.60156,94.14844 73,73 0 0 0 94.15234,7.60352 l -5.86718,-7.63477 14.91992,-14.91992 7.6914,5.9082 a 73,73 0 0 0 -7.6582,-94.19336 73,73 0 0 0 -56.82617,-21.19531 z m 0.71875,21.50977 a 51.5,51.5 0 0 1 40.9043,14.88867 51.5,51.5 0 0 1 0,72.83203 51.5,51.5 0 0 1 -72.83203,0 51.5,51.5 0 0 1 0,-72.83203 51.5,51.5 0 0 1 31.92773,-14.88867 z" /><circle
   id="circle6482"
   r="51.5"
   cy="459.10001"
   cx="371.70001"
   style="fill:#000000;fill-opacity:1;stroke:#000000" /><path
   id="path28958"
   style="fill:url(#linearGradient35138);fill-opacity:1;stroke-width:0.11385"
   d="M 402.0332 345.95898 A 16.091914 16.091914 0 0 0 386.9082 361.98242 A 16.091914 16.091914 0 0 0 402.0332 378.00391 L 402.0332 374.08789 A 12.183306 12.183306 0 0 1 390.81641 361.98242 A 12.183306 12.183306 0 0 1 402.0332 349.875 L 402.0332 345.95898 z M 403.96875 345.95898 L 403.96875 349.8418 A 12.183306 12.183306 0 0 1 415.18359 361.98242 A 12.183306 12.183306 0 0 1 403.96875 374.12109 L 403.96875 378.04102 A 16.091914 16.091914 0 0 0 419.0918 361.98242 A 16.091914 16.091914 0 0 0 403.96875 345.95898 z M 403 351.4668 C 397.19681 351.4668 392.48438 356.17924 392.48438 361.98242 C 392.48438 367.78561 397.19681 372.49609 403 372.49609 C 408.80319 372.49609 413.51564 367.78561 413.51562 361.98242 C 413.51562 356.17924 408.80319 351.4668 403 351.4668 z M 403 352.15039 C 408.43401 352.15039 412.83203 356.54841 412.83203 361.98242 C 412.83203 367.41643 408.43401 371.81445 403 371.81445 C 397.56599 371.81445 393.16797 367.41643 393.16797 361.98242 C 393.16797 356.54841 397.56599 352.15039 403 352.15039 z M 402.99805 354 C 402.12727 354.00001 401.24382 354.06226 400.67188 354.18945 C 398.83366 354.59823 397.44941 355.58138 396.83203 356.91797 C 396.53725 357.55614 396.50548 357.74538 396.50586 358.82227 C 396.50614 359.8323 396.54752 360.11096 396.77344 360.61133 C 397.13378 361.40939 398.0648 362.26677 399.09375 362.75 C 399.90713 363.13201 400.2777 363.24862 402.98438 363.9668 C 404.50912 364.37134 405.10156 364.74548 405.10156 365.30469 C 405.10156 365.93391 404.36224 366.33594 403.21094 366.33594 C 402.04918 366.33594 401.25223 365.90112 400.99609 365.125 L 400.87109 364.74219 L 398.54297 364.74219 C 395.86009 364.74219 395.96661 364.6925 396.26953 365.80273 C 396.92833 368.21722 399.397 369.81165 402.71094 369.96289 C 402.86748 369.96989 403.47813 369.92541 404.06836 369.86328 C 406.50532 369.60663 408.16598 368.79834 409.10547 367.41211 C 409.64199 366.62045 409.88281 365.78154 409.88281 364.70117 C 409.88281 363.6085 409.57827 362.76553 408.93555 362.07227 C 408.04141 361.10782 406.91186 360.61611 403.56445 359.73438 C 402.05806 359.33758 401.3875 358.98373 401.27148 358.52148 C 401.11411 357.89445 401.6182 357.57444 402.76758 357.57227 C 403.75437 357.57027 404.2729 357.8063 404.58789 358.39648 L 404.81641 358.82227 L 407.11523 358.82227 C 408.37954 358.82227 409.44068 358.77756 409.47461 358.72266 C 409.57131 358.56614 409.21368 357.46653 408.82812 356.73828 C 408.19506 355.54253 406.84902 354.58444 405.24414 354.18945 C 404.72743 354.06228 403.86882 353.99999 402.99805 354 z "
   transform="translate(97,97.1)" /></svg>
