<?xml version="1.0" encoding="UTF-8" standalone="no"?>
<svg
   inkscape:version="1.1 (c68e22c387, 2021-05-23)"
   sodipodi:docname="buttons.svg"
   xml:space="preserve"
   enable-background="new -193 340.7 224 112.3"
   viewBox="-193 340.7 224 112.3"
   height="112.3px"
   width="224px"
   y="0px"
   x="0px"
   id="Layer_1"
   version="1.1"
   xmlns:inkscape="http://www.inkscape.org/namespaces/inkscape"
   xmlns:sodipodi="http://sodipodi.sourceforge.net/DTD/sodipodi-0.dtd"
   xmlns:xlink="http://www.w3.org/1999/xlink"
   xmlns="http://www.w3.org/2000/svg"
   xmlns:svg="http://www.w3.org/2000/svg"
   xmlns:rdf="http://www.w3.org/1999/02/22-rdf-syntax-ns#"
   xmlns:cc="http://creativecommons.org/ns#"
   xmlns:dc="http://purl.org/dc/elements/1.1/"><metadata
   id="metadata3530"><rdf:RDF><cc:Work
       rdf:about=""><dc:format>image/svg+xml</dc:format><dc:type
         rdf:resource="http://purl.org/dc/dcmitype/StillImage" /><dc:title /></cc:Work></rdf:RDF></metadata><defs
   id="defs3528"><pattern
   opacity="0.12"
   patternTransform="matrix(0.1017,0,0,-0.1017,-14019.476,-2029.6002)"
   xlink:href="#SVGID_3_"
   id="SVGID_6_" /><pattern
   overflow="visible"
   viewBox="0 -71 71 71"
   id="SVGID_3_"
   patternUnits="userSpaceOnUse"
   height="71"
   width="71"
   y="696"
   x="97"><g
     id="g88"><polygon
       id="polygon80"
       points="0,0 71,0 71,-71 0,-71   "
       fill="none" /><g
       id="g86"><polygon
         id="polygon82"
         points="0,0 71,0 71,-71 0,-71    "
         fill="none" /><path
         id="path84"
         d="M41.8-35.5c0-3.5-2.8-6.3-6.3-6.3s-6.3,2.8-6.3,6.3s2.8,6.3,6.3,6.3S41.8-32,41.8-35.5z"
         fill="#B3B3B3" /></g></g></pattern>
	
	
	
	

		
		
	
		
		
	
		
		
	
		
		
	
			
			
		
			
			
		
			
			
		
			
			
		
	
	
	
	

		
		
	
		
		
	
		
		
	
		
		
	
			
			
		
			
			
		
			
			
		
			
			
		</defs><sodipodi:namedview
   inkscape:current-layer="Layer_1"
   inkscape:window-maximized="1"
   inkscape:window-y="-8"
   inkscape:window-x="-8"
   inkscape:cy="380.94947"
   inkscape:cx="1252.1792"
   inkscape:zoom="0.29268973"
   showgrid="false"
   id="namedview3526"
   inkscape:window-height="1017"
   inkscape:window-width="1920"
   inkscape:pageshadow="2"
   inkscape:pageopacity="0"
   guidetolerance="10"
   gridtolerance="10"
   objecttolerance="10"
   borderopacity="1"
   bordercolor="#666666"
   pagecolor="#ffffff"
   inkscape:pagecheckerboard="0" />
<path
   id="path3441"
   d="m -109.2,452 c -14.5,0 -26.3,-11.8 -26.3,-26.3 0,-14.5 11.8,-26.2 26.3,-26.2 14.5,0 26.2,11.8 26.2,26.3 0,14.5 -11.8,26.2 -26.2,26.2 z"
   fill="#e6e6e6"
   style="fill:#ffffff" /><path
   id="path3443"
   d="m -109.2,400.5 c 13.9,0 25.3,11.3 25.3,25.2 0,13.9 -11.3,25.3 -25.3,25.3 -14,0 -25.3,-11.3 -25.3,-25.2 0,-13.9 11.3,-25.3 25.3,-25.3 m 0,-2 c -15,0 -27.3,12.2 -27.3,27.2 0,15 12.2,27.3 27.3,27.3 15.1,0 27.2,-12.2 27.2,-27.2 0,-15 -12.2,-27.3 -27.2,-27.3 z"
   fill="#f0f0f0"
   style="fill:#f9f9f9" /><path
   id="path3451"
   d="m -165.8,452 c -14.4,0 -26.2,-11.7 -26.2,-26.2 0,-14.5 11.8,-26.2 26.3,-26.2 14.5,0 26.3,11.8 26.3,26.2 0,14.4 -11.9,26.2 -26.4,26.2 z"
   fill="#e6e6e6"
   style="fill:#ffffff" /><path
   id="path3453"
   d="m -165.7,400.5 c 13.9,0 25.3,11.3 25.3,25.2 0,13.9 -11.3,25.3 -25.3,25.3 -14,0 -25.3,-11.3 -25.3,-25.2 0,-13.9 11.3,-25.3 25.3,-25.3 m 0,-2 c -15.1,0 -27.3,12.3 -27.3,27.3 0,15 12.2,27.3 27.3,27.3 15.1,0 27.3,-12.2 27.3,-27.3 -0.1,-15 -12.3,-27.3 -27.3,-27.3 z"
   fill="#f0f0f0"
   style="fill:#f9f9f9" /><path
   id="path3461"
   d="m -52.7,452 c -14.5,0 -26.2,-11.8 -26.2,-26.3 0,-14.5 11.8,-26.2 26.2,-26.2 14.4,0 26.3,11.8 26.3,26.2 0,14.4 -11.9,26.3 -26.3,26.3 z"
   fill="#e6e6e6"
   style="fill:#ffffff" /><path
   id="path3463"
   d="m -52.7,400.5 c 13.9,0 25.3,11.3 25.3,25.2 0,13.9 -11.3,25.3 -25.3,25.3 -14,0 -25.3,-11.3 -25.3,-25.2 0,-13.9 11.3,-25.3 25.3,-25.3 m 0,-2 c -15,0 -27.3,12.2 -27.3,27.2 0,15 12.2,27.3 27.3,27.3 15.1,0 27.3,-12.2 27.3,-27.3 0,-15.1 -12.3,-27.2 -27.3,-27.2 z"
   fill="#f0f0f0"
   style="fill:#f9f9f9" /><path
   id="path3471"
   d="m 3.7,452 c -14.5,0 -26.3,-11.8 -26.3,-26.3 0,-14.5 11.8,-26.2 26.3,-26.2 14.5,0 26.3,11.8 26.3,26.3 C 30,440.3 18.2,452 3.7,452 Z"
   fill="#e6e6e6"
   style="fill:#ffffff" /><path
   id="path3473"
   d="m 3.8,400.5 c 13.9,0 25.3,11.3 25.3,25.2 0,13.9 -11.3,25.3 -25.3,25.3 -14,0 -25.3,-11.3 -25.3,-25.2 0,-13.9 11.3,-25.3 25.3,-25.3 m 0,-2 c -15,0 -27.3,12.2 -27.3,27.2 0,15 12.2,27.3 27.3,27.3 15.1,0 27.2,-12.2 27.2,-27.2 0,-15 -12.2,-27.3 -27.2,-27.3 z"
   fill="#f0f0f0"
   style="fill:#f9f9f9" />
<path
   id="path3483"
   d="m -109.2,394.2 c -14.5,0 -26.3,-11.8 -26.3,-26.3 0,-14.5 11.8,-26.2 26.3,-26.2 14.5,0 26.2,11.8 26.2,26.2 0,14.4 -11.8,26.3 -26.2,26.3 z"
   fill="#1a1a1a"
   style="fill:#000000" /><path
   id="path3485"
   d="m -109.2,342.7 c 13.9,0 25.2,11.3 25.2,25.3 0,14 -11.3,25.2 -25.2,25.2 -13.9,0 -25.3,-11.3 -25.3,-25.2 0,-13.9 11.3,-25.3 25.3,-25.3 m 0,-2 c -15,0 -27.3,12.2 -27.3,27.3 0,15.1 12.2,27.3 27.3,27.3 15.1,0 27.2,-12.3 27.2,-27.3 0,-15 -12.2,-27.3 -27.2,-27.3 z"
   fill="#0f0f0f"
   style="fill:#080808;fill-opacity:1" /><path
   id="path3493"
   d="m -165.8,394.2 c -14.4,0 -26.2,-11.8 -26.2,-26.2 0,-14.4 11.8,-26.3 26.2,-26.3 14.4,0 26.3,11.8 26.3,26.3 0,14.5 -11.8,26.2 -26.3,26.2 z"
   fill="#1a1a1a"
   style="fill:#000000" /><path
   id="path3495"
   d="m -165.7,342.7 c 13.9,0 25.3,11.3 25.3,25.3 0,14 -11.4,25.2 -25.3,25.2 -13.9,0 -25.3,-11.3 -25.3,-25.2 0,-13.9 11.3,-25.3 25.3,-25.3 m 0,-2 c -15.1,0 -27.3,12.2 -27.3,27.3 0,15 12.2,27.3 27.3,27.3 15.1,0 27.3,-12.2 27.3,-27.3 -0.1,-15.1 -12.3,-27.3 -27.3,-27.3 z"
   fill="#0f0f0f"
   style="fill:#080808;fill-opacity:1" /><path
   id="path3503"
   d="m -52.7,394.9 c -14.5,0 -26.2,-11.8 -26.2,-26.2 0,-14.4 11.8,-26.3 26.2,-26.3 14.4,0 26.3,11.8 26.3,26.3 0,14.5 -11.9,26.2 -26.3,26.2 z"
   fill="#1a1a1a"
   style="fill:#000000" /><path
   id="path3505"
   d="m -52.7,343.4 c 13.9,0 25.3,11.3 25.3,25.3 0,14 -11.3,25.2 -25.3,25.2 -14,0 -25.3,-11.3 -25.3,-25.3 0,-14 11.3,-25.2 25.3,-25.2 m 0,-2 c -15,0 -27.3,12.2 -27.3,27.3 0,15.1 12.2,27.2 27.3,27.2 15.1,0 27.3,-12.2 27.3,-27.2 0,-15 -12.3,-27.3 -27.3,-27.3 z"
   fill="#0f0f0f"
   style="fill:#080808;fill-opacity:1" /><path
   id="path3513"
   d="m 3.7,395.5 c -14.5,0 -26.3,-11.8 -26.3,-26.3 0,-14.5 11.8,-26.3 26.3,-26.3 14.5,0 26.3,11.9 26.3,26.4 0,14.5 -11.8,26.2 -26.3,26.2 z"
   fill="#1a1a1a"
   style="fill:#000000" /><path
   id="path3515"
   d="m 3.8,344 c 13.9,0 25.3,11.3 25.3,25.3 0,14 -11.3,25.3 -25.3,25.3 -14,0 -25.3,-11.3 -25.3,-25.3 0,-14 11.3,-25.3 25.3,-25.3 m 0,-2 c -15,0 -27.3,12.2 -27.3,27.3 0,15.1 12.2,27.3 27.3,27.3 C 18.9,396.6 31,384.3 31,369.3 31,354.3 18.8,342 3.8,342 Z"
   fill="#0f0f0f"
   style="fill:#080808;fill-opacity:1" />
</svg>
