<?xml version="1.0" encoding="UTF-8" standalone="no"?>
<svg
   inkscape:version="1.1 (c68e22c387, 2021-05-23)"
   sodipodi:docname="dpad.svg"
   xml:space="preserve"
   enable-background="new -432 743.3 178.5 104"
   viewBox="-432 743.3 178.5 104"
   height="104px"
   width="178.5px"
   y="0px"
   x="0px"
   id="Layer_1"
   version="1.1"
   xmlns:inkscape="http://www.inkscape.org/namespaces/inkscape"
   xmlns:sodipodi="http://sodipodi.sourceforge.net/DTD/sodipodi-0.dtd"
   xmlns:xlink="http://www.w3.org/1999/xlink"
   xmlns="http://www.w3.org/2000/svg"
   xmlns:svg="http://www.w3.org/2000/svg"
   xmlns:rdf="http://www.w3.org/1999/02/22-rdf-syntax-ns#"
   xmlns:cc="http://creativecommons.org/ns#"
   xmlns:dc="http://purl.org/dc/elements/1.1/"><metadata
   id="metadata59"><rdf:RDF><cc:Work
       rdf:about=""><dc:format>image/svg+xml</dc:format><dc:type
         rdf:resource="http://purl.org/dc/dcmitype/StillImage" /><dc:title /></cc:Work></rdf:RDF></metadata><defs
   id="defs57">
	
	
	
	

		
		
	
		
		
	
		
		
	
		
		
	<pattern
   opacity="0.12"
   patternTransform="matrix(0.1017,0,0,-0.1017,-14243.733,-1821.824)"
   xlink:href="#SVGID_3_"
   id="SVGID_6_" /><pattern
   overflow="visible"
   viewBox="0 -71 71 71"
   id="SVGID_3_"
   patternUnits="userSpaceOnUse"
   height="71"
   width="71"
   y="696"
   x="97"><g
     id="g88"><polygon
       id="polygon80"
       points="0,0 71,0 71,-71 0,-71   "
       fill="none" /><g
       id="g86"><polygon
         id="polygon82"
         points="0,0 71,0 71,-71 0,-71    "
         fill="none" /><path
         id="path84"
         d="M41.8-35.5c0-3.5-2.8-6.3-6.3-6.3s-6.3,2.8-6.3,6.3s2.8,6.3,6.3,6.3S41.8-32,41.8-35.5z"
         fill="#B3B3B3" /></g></g></pattern>
	
	
	
	

		
		
	
		
		
	
		
		
	
		
		
	</defs><sodipodi:namedview
   inkscape:current-layer="Layer_1"
   inkscape:window-maximized="1"
   inkscape:window-y="-8"
   inkscape:window-x="-8"
   inkscape:cy="-464.40113"
   inkscape:cx="378.74789"
   inkscape:zoom="0.37359944"
   showgrid="false"
   id="namedview55"
   inkscape:window-height="1017"
   inkscape:window-width="1920"
   inkscape:pageshadow="2"
   inkscape:pageopacity="0"
   guidetolerance="10"
   gridtolerance="10"
   objecttolerance="10"
   borderopacity="1"
   bordercolor="#666666"
   pagecolor="#ffffff"
   inkscape:pagecheckerboard="0" />
<path
   id="path2"
   d="m -307.5,763.9 c 1.4,-2 1.2,-2.9 1.2,-2.9 0,0 0.2,-0.9 -1.2,-2.9 -1.4,-2 -15,-13.6 -15.7,-14 -0.7,-0.4 -28.5,-2.2 -31.4,1.3 -2.9,3.5 -2.6,15.6 -2.6,15.6 0,0 -0.3,12.1 2.6,15.6 2.9,3.5 30.7,1.7 31.4,1.3 0.7,-0.4 14.3,-12 15.7,-14 z"
   fill="#1a1a1a"
   style="fill:#000000" /><path
   id="path4"
   d="m -307.5,763.9 c 1.4,-2 1.2,-2.9 1.2,-2.9 0,0 0.2,-0.9 -1.2,-2.9 -0.9,-1.3 -6.9,-6.6 -11.2,-10.3 -2.1,3.9 -3.4,8.4 -3.4,13.2 0,4.8 1.2,9.3 3.4,13.2 4.3,-3.7 10.3,-9 11.2,-10.3 z"
   enable-background="new    "
   opacity="0.25"
   style="opacity:1;fill:#020202;fill-opacity:1" /><path
   id="path8"
   d="m -379.8,793 c 2,1.4 2.9,1.2 2.9,1.2 0,0 0.9,0.2 2.9,-1.2 2,-1.4 13.6,-15 14,-15.7 0.4,-0.7 2.2,-28.5 -1.3,-31.4 -3.5,-2.9 -15.6,-2.6 -15.6,-2.6 0,0 -12.1,-0.2 -15.6,2.6 -3.5,2.8 -1.7,30.7 -1.3,31.4 0.4,0.7 12,14.3 14,15.7 z"
   fill="#1a1a1a"
   style="fill:#000000" /><path
   id="path10"
   d="m -379.8,793 c 2,1.4 2.9,1.2 2.9,1.2 0,0 0.9,0.2 2.9,-1.2 1.3,-0.9 6.6,-6.9 10.3,-11.2 -3.9,-2.1 -8.4,-3.4 -13.2,-3.4 -4.8,0 -9.3,1.2 -13.2,3.4 3.7,4.3 9,10.3 10.3,11.2 z"
   enable-background="new    "
   opacity="0.25"
   style="opacity:1;fill:#020202;fill-opacity:1" /><path
   id="path14"
   d="m -256.1,745.5 c -2.9,-3.5 -30.7,-1.7 -31.4,-1.3 -0.7,0.4 -14.3,12 -15.7,14 -1.4,2 -1.2,2.9 -1.2,2.9 0,0 -0.2,0.9 1.2,2.9 1.4,2 15,13.6 15.7,14 0.7,0.4 28.5,2.2 31.4,-1.3 2.9,-3.5 2.6,-15.6 2.6,-15.6 0,0 0.3,-12.1 -2.6,-15.6 z"
   fill="#1a1a1a"
   style="fill:#000000" /><path
   id="path16"
   d="m -291.9,747.9 c -4.3,3.7 -10.3,9 -11.2,10.3 -1.4,2 -1.2,2.9 -1.2,2.9 0,0 -0.2,0.9 1.2,2.9 0.9,1.3 6.9,6.6 11.2,10.3 2.1,-3.9 3.4,-8.4 3.4,-13.2 0,-4.8 -1.3,-9.3 -3.4,-13.2 z"
   enable-background="new    "
   opacity="0.25"
   style="opacity:1;fill:#020202;fill-opacity:1" /><path
   id="path20"
   d="m -411.4,744.5 c -2,-1.4 -2.9,-1.2 -2.9,-1.2 0,0 -0.9,-0.2 -2.9,1.2 -2,1.4 -13.6,15 -14,15.7 -0.4,0.7 -2.2,28.5 1.3,31.4 3.5,2.9 15.6,2.6 15.6,2.6 0,0 12.1,0.3 15.6,-2.6 3.5,-2.9 1.7,-30.7 1.3,-31.4 -0.4,-0.7 -12,-14.3 -14,-15.7 z"
   fill="#1a1a1a"
   style="fill:#000000" /><path
   id="path22"
   d="m -411.4,744.5 c -2,-1.4 -2.9,-1.2 -2.9,-1.2 0,0 -0.9,-0.2 -2.9,1.2 -1.3,0.9 -6.6,6.9 -10.3,11.2 3.9,2.1 8.4,3.4 13.2,3.4 4.8,0 9.3,-1.2 13.2,-3.4 -3.7,-4.3 -9,-10.3 -10.3,-11.2 z"
   enable-background="new    "
   opacity="0.25"
   style="opacity:1;fill:#020202;fill-opacity:1" />
<path
   id="path28"
   d="m -307.5,816.9 c 1.4,-2 1.2,-2.9 1.2,-2.9 0,0 0.2,-0.9 -1.2,-2.9 -1.4,-2 -15,-13.6 -15.7,-14 -0.7,-0.4 -28.5,-2.2 -31.4,1.3 -2.9,3.5 -2.6,15.6 -2.6,15.6 0,0 -0.3,12.1 2.6,15.6 2.9,3.5 30.7,1.7 31.4,1.3 0.7,-0.4 14.3,-12 15.7,-14 z"
   fill="#e6e6e6"
   style="fill:#ffffff" /><path
   id="path30"
   d="m -307.5,816.9 c 1.4,-2 1.2,-2.9 1.2,-2.9 0,0 0.2,-0.9 -1.2,-2.9 -0.9,-1.3 -6.9,-6.6 -11.2,-10.3 -2.1,3.9 -3.4,8.4 -3.4,13.2 0,4.8 1.2,9.3 3.4,13.2 4.3,-3.7 10.3,-9 11.2,-10.3 z"
   enable-background="new    "
   fill="#ffffff"
   opacity="0.25"
   style="opacity:1;fill:#f9f9f9" /><path
   id="path34"
   d="m -379.8,846 c 2,1.4 2.9,1.2 2.9,1.2 0,0 0.9,0.2 2.9,-1.2 2,-1.4 13.6,-15 14,-15.7 0.4,-0.7 2.2,-28.5 -1.3,-31.4 -3.5,-2.9 -15.6,-2.6 -15.6,-2.6 0,0 -12.1,-0.2 -15.6,2.6 -3.5,2.8 -1.7,30.7 -1.3,31.4 0.4,0.7 12,14.3 14,15.7 z"
   fill="#e6e6e6"
   style="fill:#ffffff" /><path
   id="path36"
   d="m -379.8,846 c 2,1.4 2.9,1.2 2.9,1.2 0,0 0.9,0.2 2.9,-1.2 1.3,-0.9 6.6,-6.9 10.3,-11.2 -3.9,-2.1 -8.4,-3.4 -13.2,-3.4 -4.8,0 -9.3,1.2 -13.2,3.4 3.7,4.3 9,10.3 10.3,11.2 z"
   enable-background="new    "
   fill="#ffffff"
   opacity="0.25"
   style="opacity:1;fill:#f9f9f9" /><path
   id="path40"
   d="m -256.1,798.4 c -2.9,-3.5 -30.7,-1.7 -31.4,-1.3 -0.7,0.4 -14.3,12 -15.7,14 -1.4,2 -1.2,2.9 -1.2,2.9 0,0 -0.2,0.9 1.2,2.9 1.4,2 15,13.6 15.7,14 0.7,0.4 28.5,2.2 31.4,-1.3 2.9,-3.5 2.6,-15.6 2.6,-15.6 0,0 0.3,-12.1 -2.6,-15.6 z"
   fill="#e6e6e6"
   style="fill:#ffffff" /><path
   id="path42"
   d="m -291.9,800.9 c -4.3,3.7 -10.3,9 -11.2,10.3 -1.4,2 -1.2,2.9 -1.2,2.9 0,0 -0.2,0.9 1.2,2.9 0.9,1.3 6.9,6.6 11.2,10.3 2.1,-3.9 3.4,-8.4 3.4,-13.2 0,-4.8 -1.3,-9.3 -3.4,-13.2 z"
   enable-background="new    "
   fill="#ffffff"
   opacity="0.25"
   style="opacity:1;fill:#f9f9f9" /><path
   id="path46"
   d="m -411.4,797.5 c -2,-1.4 -2.9,-1.2 -2.9,-1.2 0,0 -0.9,-0.2 -2.9,1.2 -2,1.4 -13.6,15 -14,15.7 -0.4,0.7 -2.2,28.5 1.3,31.4 3.5,2.9 15.6,2.6 15.6,2.6 0,0 12.1,0.3 15.6,-2.6 3.5,-2.9 1.7,-30.7 1.3,-31.4 -0.4,-0.7 -12,-14.3 -14,-15.7 z"
   fill="#e6e6e6"
   style="fill:#ffffff" /><path
   id="path48"
   d="m -411.4,797.5 c -2,-1.4 -2.9,-1.2 -2.9,-1.2 0,0 -0.9,-0.2 -2.9,1.2 -1.3,0.9 -6.6,6.9 -10.3,11.2 3.9,2.1 8.4,3.4 13.2,3.4 4.8,0 9.3,-1.2 13.2,-3.4 -3.7,-4.3 -9,-10.3 -10.3,-11.2 z"
   enable-background="new    "
   fill="#ffffff"
   opacity="0.25"
   style="opacity:1;fill:#f9f9f9" />
</svg>
