<?xml version="1.0" encoding="UTF-8" standalone="no"?>
<svg
   inkscape:version="1.1 (c68e22c387, 2021-05-23)"
   sodipodi:docname="meta.svg"
   xml:space="preserve"
   style="enable-background:new -689.8 522.1 42.3 42.3;"
   viewBox="-689.8 522.1 42.3 42.3"
   height="42.3px"
   width="42.3px"
   y="0px"
   x="0px"
   id="Layer_1"
   version="1.1"
   xmlns:inkscape="http://www.inkscape.org/namespaces/inkscape"
   xmlns:sodipodi="http://sodipodi.sourceforge.net/DTD/sodipodi-0.dtd"
   xmlns:xlink="http://www.w3.org/1999/xlink"
   xmlns="http://www.w3.org/2000/svg"
   xmlns:svg="http://www.w3.org/2000/svg"
   xmlns:rdf="http://www.w3.org/1999/02/22-rdf-syntax-ns#"
   xmlns:cc="http://creativecommons.org/ns#"
   xmlns:dc="http://purl.org/dc/elements/1.1/"><metadata
   id="metadata31"><rdf:RDF><cc:Work
       rdf:about=""><dc:format>image/svg+xml</dc:format><dc:type
         rdf:resource="http://purl.org/dc/dcmitype/StillImage" /><dc:title /></cc:Work></rdf:RDF></metadata><defs
   id="defs29"><pattern
   opacity="0.12"
   patternTransform="matrix(0.1017,0,0,-0.1017,-14648.677,-1841.7197)"
   xlink:href="#SVGID_3_"
   id="SVGID_6_" /><pattern
   overflow="visible"
   viewBox="0 -71 71 71"
   id="SVGID_3_"
   patternUnits="userSpaceOnUse"
   height="71"
   width="71"
   y="696"
   x="97"><g
     id="g88"><polygon
       id="polygon80"
       points="0,0 71,0 71,-71 0,-71   "
       fill="none" /><g
       id="g86"><polygon
         id="polygon82"
         points="0,0 71,0 71,-71 0,-71    "
         fill="none" /><path
         id="path84"
         d="M41.8-35.5c0-3.5-2.8-6.3-6.3-6.3s-6.3,2.8-6.3,6.3s2.8,6.3,6.3,6.3S41.8-32,41.8-35.5z"
         fill="#B3B3B3" /></g></g></pattern>
	
	

		
		
	
		
		
		
	
			
		
			
		
			
		</defs><sodipodi:namedview
   inkscape:current-layer="Layer_1"
   inkscape:window-maximized="1"
   inkscape:window-y="-8"
   inkscape:window-x="-8"
   inkscape:cy="47.415908"
   inkscape:cx="-229.36067"
   inkscape:zoom="0.45343432"
   showgrid="false"
   id="namedview27"
   inkscape:window-height="1017"
   inkscape:window-width="1920"
   inkscape:pageshadow="2"
   inkscape:pageopacity="0"
   guidetolerance="10"
   gridtolerance="10"
   objecttolerance="10"
   borderopacity="1"
   bordercolor="#666666"
   pagecolor="#ffffff"
   inkscape:pagecheckerboard="0" />
<style
   id="style2"
   type="text/css">
	.st0{fill:#FAFAFA;}
	.st1{fill:#FFFFFF;}
	.st2{fill:#0D0D0D;}
</style>
<circle
   id="circle4"
   r="20.200001"
   cy="543.29999"
   cx="-668.70001"
   class="st0"
   style="fill:#ffffff" /><path
   id="path6"
   d="m -668.7,564.5 c -11.7,0 -21.2,-9.5 -21.2,-21.2 0,-11.7 9.5,-21.2 21.2,-21.2 11.7,0 21.2,9.5 21.2,21.2 0,11.7 -9.5,21.2 -21.2,21.2 z m 0,-40.4 c -10.6,0 -19.2,8.6 -19.2,19.2 0,10.6 8.6,19.2 19.2,19.2 10.6,0 19.2,-8.6 19.2,-19.2 0,-10.6 -8.6,-19.2 -19.2,-19.2 z"
   class="st1"
   style="fill:#f9f9f9" />
<path
   id="path28958-9"
   style="fill:#000000;fill-opacity:1;stroke-width:0.11385;opacity:0.05714286"
   d="m -669.6668,527.25898 a 16.091914,16.091914 0 0 0 -15.125,16.02344 16.091914,16.091914 0 0 0 15.125,16.02149 v -3.91602 a 12.183306,12.183306 0 0 1 -11.21679,-12.10547 12.183306,12.183306 0 0 1 11.21679,-12.10742 z m 1.93555,0 v 3.88282 a 12.183306,12.183306 0 0 1 11.21484,12.14062 12.183306,12.183306 0 0 1 -11.21484,12.13867 v 3.91993 a 16.091914,16.091914 0 0 0 15.12305,-16.0586 16.091914,16.091914 0 0 0 -15.12305,-16.02344 z M -668.7,532.7668 c -5.80319,0 -10.51562,4.71244 -10.51562,10.51562 0,5.80319 4.71243,10.51367 10.51562,10.51367 5.80319,0 10.51564,-4.71048 10.51562,-10.51367 0,-5.80318 -4.71243,-10.51562 -10.51562,-10.51562 z m 0,0.68359 c 5.43401,0 9.83203,4.39802 9.83203,9.83203 0,5.43401 -4.39802,9.83203 -9.83203,9.83203 -5.43401,0 -9.83203,-4.39802 -9.83203,-9.83203 0,-5.43401 4.39802,-9.83203 9.83203,-9.83203 z m -0.002,1.84961 c -0.87078,1e-5 -1.75423,0.0623 -2.32617,0.18945 -1.83822,0.40878 -3.22247,1.39193 -3.83985,2.72852 -0.29478,0.63817 -0.32655,0.82741 -0.32617,1.9043 2.8e-4,1.01003 0.0417,1.28869 0.26758,1.78906 0.36034,0.79806 1.29136,1.65544 2.32031,2.13867 0.81338,0.38201 1.18395,0.49862 3.89063,1.2168 1.52474,0.40454 2.11718,0.77868 2.11718,1.33789 0,0.62922 -0.73932,1.03125 -1.89062,1.03125 -1.16176,0 -1.95871,-0.43482 -2.21485,-1.21094 l -0.125,-0.38281 h -2.32812 c -2.68288,0 -2.57636,-0.0497 -2.27344,1.06054 0.6588,2.41449 3.12747,4.00892 6.44141,4.16016 0.15654,0.007 0.76719,-0.0375 1.35742,-0.0996 2.43696,-0.25665 4.09762,-1.06494 5.03711,-2.45117 0.53652,-0.79166 0.77734,-1.63057 0.77734,-2.71094 0,-1.09267 -0.30454,-1.93564 -0.94726,-2.6289 -0.89414,-0.96445 -2.02369,-1.45616 -5.3711,-2.33789 -1.50639,-0.3968 -2.17695,-0.75065 -2.29297,-1.2129 -0.15737,-0.62703 0.34672,-0.94704 1.4961,-0.94921 0.98679,-0.002 1.50532,0.23403 1.82031,0.82421 l 0.22852,0.42579 h 2.29882 c 1.26431,0 2.32545,-0.0447 2.35938,-0.0996 0.0967,-0.15652 -0.26093,-1.25613 -0.64649,-1.98438 -0.63306,-1.19575 -1.9791,-2.15384 -3.58398,-2.54883 -0.51671,-0.12717 -1.37532,-0.18946 -2.24609,-0.18945 z" /></svg>
