<?xml version="1.0" encoding="UTF-8" standalone="no"?>
<svg
   inkscape:version="1.1 (c68e22c387, 2021-05-23)"
   sodipodi:docname="start.svg"
   xml:space="preserve"
   enable-background="new -291 373.3 28.4 46.7"
   viewBox="-291 373.3 28.4 46.7"
   height="46.7px"
   width="28.4px"
   y="0px"
   x="0px"
   id="Layer_1"
   version="1.1"
   xmlns:inkscape="http://www.inkscape.org/namespaces/inkscape"
   xmlns:sodipodi="http://sodipodi.sourceforge.net/DTD/sodipodi-0.dtd"
   xmlns="http://www.w3.org/2000/svg"
   xmlns:svg="http://www.w3.org/2000/svg"
   xmlns:rdf="http://www.w3.org/1999/02/22-rdf-syntax-ns#"
   xmlns:cc="http://creativecommons.org/ns#"
   xmlns:dc="http://purl.org/dc/elements/1.1/"><metadata
   id="metadata13"><rdf:RDF><cc:Work
       rdf:about=""><dc:format>image/svg+xml</dc:format><dc:type
         rdf:resource="http://purl.org/dc/dcmitype/StillImage" /><dc:title /></cc:Work></rdf:RDF></metadata><defs
   id="defs11">
	
	
</defs><sodipodi:namedview
   inkscape:current-layer="Layer_1"
   inkscape:window-maximized="1"
   inkscape:window-y="-8"
   inkscape:window-x="-8"
   inkscape:cy="34.809794"
   inkscape:cx="5.6491938"
   inkscape:zoom="9.2933615"
   showgrid="false"
   id="namedview9"
   inkscape:window-height="1017"
   inkscape:window-width="1920"
   inkscape:pageshadow="2"
   inkscape:pageopacity="0"
   guidetolerance="10"
   gridtolerance="10"
   objecttolerance="10"
   borderopacity="1"
   bordercolor="#666666"
   pagecolor="#ffffff"
   inkscape:pagecheckerboard="0" />
<path
   id="path2"
   d="m -276.8,375 c 6.9,0 12.5,5.6 12.5,12.5 v 18.3 c 0,6.9 -5.6,12.5 -12.5,12.5 -6.9,0 -12.5,-5.6 -12.5,-12.5 v -18.3 c 0,-6.9 5.6,-12.5 12.5,-12.5 m 0,-1.7 c -7.8,0 -14.2,6.4 -14.2,14.2 v 18.3 c 0,7.8 6.4,14.2 14.2,14.2 7.8,0 14.2,-6.4 14.2,-14.2 v -18.3 c 0,-7.8 -6.4,-14.2 -14.2,-14.2 z"
   fill="#ffffff"
   style="fill:#f2f2f2" /><path
   id="path4"
   d="m -276.8,375 c -6.9,0 -12.5,5.6 -12.5,12.5 v 18.3 c 0,6.9 5.6,12.5 12.5,12.5 6.9,0 12.5,-5.6 12.5,-12.5 v -18.3 c 0,-6.9 -5.6,-12.5 -12.5,-12.5 z"
   fill="#efeee5"
   style="fill:#ffffff" />
</svg>
