<?xml version="1.0" encoding="UTF-8" standalone="no"?>
<svg
   inkscape:version="1.1 (c68e22c387, 2021-05-23)"
   sodipodi:docname="sticks.svg"
   xml:space="preserve"
   style="enable-background:new -816 494 286 94;"
   viewBox="-816 494 286 94"
   height="94px"
   width="286px"
   y="0px"
   x="0px"
   id="Layer_1"
   version="1.1"
   xmlns:inkscape="http://www.inkscape.org/namespaces/inkscape"
   xmlns:sodipodi="http://sodipodi.sourceforge.net/DTD/sodipodi-0.dtd"
   xmlns:xlink="http://www.w3.org/1999/xlink"
   xmlns="http://www.w3.org/2000/svg"
   xmlns:svg="http://www.w3.org/2000/svg"
   xmlns:rdf="http://www.w3.org/1999/02/22-rdf-syntax-ns#"
   xmlns:cc="http://creativecommons.org/ns#"
   xmlns:dc="http://purl.org/dc/elements/1.1/"><metadata
   id="metadata51"><rdf:RDF><cc:Work
       rdf:about=""><dc:format>image/svg+xml</dc:format><dc:type
         rdf:resource="http://purl.org/dc/dcmitype/StillImage" /><dc:title /></cc:Work></rdf:RDF></metadata><defs
   id="defs49"><linearGradient
   inkscape:collect="always"
   id="linearGradient23812"><stop
     style="stop-color:#f6f6f6;stop-opacity:1"
     offset="0"
     id="stop23808" /><stop
     style="stop-color:#f3f3f3;stop-opacity:0;"
     offset="1"
     id="stop23810" /></linearGradient><pattern
   opacity="0.12"
   patternTransform="matrix(0.1017,0,0,-0.1017,-14550.577,-1827.8094)"
   xlink:href="#SVGID_3_"
   id="SVGID_6_" /><pattern
   overflow="visible"
   viewBox="0 -71 71 71"
   id="SVGID_3_"
   patternUnits="userSpaceOnUse"
   height="71"
   width="71"
   y="696"
   x="97"><g
     id="g88"><polygon
       id="polygon80"
       points="0,0 71,0 71,-71 0,-71   "
       fill="none" /><g
       id="g86"><polygon
         id="polygon82"
         points="0,0 71,0 71,-71 0,-71    "
         fill="none" /><path
         id="path84"
         d="M41.8-35.5c0-3.5-2.8-6.3-6.3-6.3s-6.3,2.8-6.3,6.3s2.8,6.3,6.3,6.3S41.8-32,41.8-35.5z"
         fill="#B3B3B3" /></g></g></pattern>
	
	

		
		
	
	
	
	

		
		
	
		
		
	
	
	
	

		
		
	
		
		
	<linearGradient
   inkscape:collect="always"
   xlink:href="#linearGradient23812"
   id="linearGradient23814"
   x1="-768.69171"
   y1="514.06183"
   x2="-768.50415"
   y2="567.6701"
   gradientUnits="userSpaceOnUse" /></defs><sodipodi:namedview
   inkscape:current-layer="Layer_1"
   inkscape:window-maximized="1"
   inkscape:window-y="-8"
   inkscape:window-x="-8"
   inkscape:cy="128.12483"
   inkscape:cx="711.13073"
   inkscape:zoom="0.65951305"
   showgrid="false"
   id="namedview47"
   inkscape:window-height="1017"
   inkscape:window-width="1920"
   inkscape:pageshadow="2"
   inkscape:pageopacity="0"
   guidetolerance="10"
   gridtolerance="10"
   objecttolerance="10"
   borderopacity="1"
   bordercolor="#666666"
   pagecolor="#ffffff"
   inkscape:pagecheckerboard="0" />
<style
   id="style2"
   type="text/css">
	.st0{fill:#0F0F0F;}
	.st1{fill:#121212;}
	.st2{fill:#141414;}
	.st3{fill:#F0F0F0;}
	.st4{fill:#EDEDED;}
	.st5{fill:#EBEBEB;}
</style>
<path
   id="path4"
   d="m -769,586.5 c -25.1,0 -45.5,-20.4 -45.5,-45.5 0,-25.1 20.4,-45.5 45.5,-45.5 25.1,0 45.5,20.4 45.5,45.5 0,25.1 -20.4,45.5 -45.5,45.5 z"
   class="st0"
   style="fill:#ffffff" /><path
   id="path6"
   d="m -769,497 c 24.3,0 44,19.7 44,44 0,24.3 -19.7,44 -44,44 -24.3,0 -44,-19.7 -44,-44 0,-24.3 19.7,-44 44,-44 m 0,-3 c -26,0 -47,21 -47,47 0,26 21,47 47,47 26,0 47,-21 47,-47 0,-26 -21,-47 -47,-47 z"
   class="st1"
   style="fill:#fefefe;fill-opacity:1" /><circle
   id="circle10"
   r="27.299999"
   cy="541"
   cx="-769"
   class="st2"
   style="fill:url(#linearGradient23814);fill-opacity:1;opacity:0.55128205" />
<path
   id="path14"
   d="m -577,586.5 c -25.1,0 -45.5,-20.4 -45.5,-45.5 0,-25.1 20.4,-45.5 45.5,-45.5 25.1,0 45.5,20.4 45.5,45.5 0,25.1 -20.4,45.5 -45.5,45.5 z"
   class="st3"
   style="fill:#000000;fill-opacity:1" /><path
   id="path16"
   d="m -577,497 c 24.3,0 44,19.7 44,44 0,24.3 -19.7,44 -44,44 -24.3,0 -44,-19.7 -44,-44 0,-24.3 19.7,-44 44,-44 m 0,-3 c -26,0 -47,21 -47,47 0,26 21,47 47,47 26,0 47,-21 47,-47 0,-26 -21,-47 -47,-47 z"
   class="st4"
   style="fill:#080808;fill-opacity:1" /><circle
   id="circle20"
   r="27.299999"
   cy="541"
   cx="-577"
   class="st5"
   style="fill:#080808;fill-opacity:1" /><path
   id="path22"
   d="m -597.3,527.5 h 12.6 c 5.8,0 8.7,2.7 8.7,7.1 0,5.1 -3.5,6.4 -4.4,6.7 v 0.1 c 1.6,0.2 3.9,1.4 3.9,5.6 0,3.1 0.4,5.9 1.4,7 h -5 c -0.7,-1.1 -0.7,-2.6 -0.7,-3.9 0,-4.8 -1,-7 -5.3,-7 h -6.8 V 554 h -4.6 v -26.5 z m 4.6,12.1 h 7.6 c 3,0 4.5,-1.4 4.5,-4.2 0,-3.4 -2.2,-4 -4.6,-4 h -7.5 z"
   style="fill:#ffffff" /><path
   id="path24"
   d="m -565.7,538.8 c 2.8,0.1 5.7,-0.9 5.7,-4.1 0,-2.2 -1.7,-3.7 -4,-3.7 -2.9,0 -4.4,2.6 -4.3,5.3 h -4.2 c 0.2,-5 3.4,-8.8 8.6,-8.8 4,0 8.2,2.3 8.2,6.9 0,2.6 -1.1,4.7 -3.7,5.5 v 0.1 c 3,0.6 4.7,3.1 4.7,6.5 0,4.9 -4.3,7.9 -9.2,7.9 -6,0 -9,-3.6 -9.1,-9 h 4.2 c -0.1,3.1 1.6,5.5 4.9,5.5 2.8,0 5,-1.7 5,-4.6 0,-4 -3.4,-4.5 -6.8,-4.4 z"
   style="fill:#ffffff" />
<path
   id="path30"
   d="m -673,586.5 c -25.1,0 -45.5,-20.4 -45.5,-45.5 0,-25.1 20.4,-45.5 45.5,-45.5 25.1,0 45.5,20.4 45.5,45.5 0,25.1 -20.4,45.5 -45.5,45.5 z"
   class="st3"
   style="fill:#000000;fill-opacity:1" /><path
   id="path32"
   d="m -673,497 c 24.3,0 44,19.7 44,44 0,24.3 -19.7,44 -44,44 -24.3,0 -44,-19.7 -44,-44 0,-24.3 19.7,-44 44,-44 m 0,-3 c -26,0 -47,21 -47,47 0,26 21,47 47,47 26,0 47,-21 47,-47 0,-26 -21,-47 -47,-47 z"
   class="st4"
   style="fill:#080808;fill-opacity:1" /><circle
   id="circle36"
   r="27.299999"
   cy="541"
   cx="-673"
   class="st5"
   style="fill:#080808;fill-opacity:1" /><path
   id="path38"
   d="m -690.9,527.5 h 4.6 v 22.4 h 13.4 v 4 h -18 c 0,0 0,-26.4 0,-26.4 z"
   style="fill:#ffffff" /><path
   id="path40"
   d="m -664.1,538.8 c 2.8,0.1 5.7,-0.9 5.7,-4.1 0,-2.2 -1.7,-3.7 -4,-3.7 -2.9,0 -4.4,2.6 -4.3,5.3 h -4.2 c 0.2,-5 3.4,-8.8 8.6,-8.8 4,0 8.2,2.3 8.2,6.9 0,2.6 -1.1,4.7 -3.7,5.5 v 0.1 c 3,0.6 4.7,3.1 4.7,6.5 0,4.9 -4.3,7.9 -9.2,7.9 -6,0 -9,-3.6 -9.1,-9 h 4.2 c -0.1,3.1 1.6,5.5 4.9,5.5 2.8,0 5,-1.7 5,-4.6 0,-4 -3.4,-4.5 -6.8,-4.4 z"
   style="fill:#ffffff" />
<path
   id="path28958-0"
   style="fill:#ffffff;fill-opacity:1;stroke:#f2f2f2;stroke-width:0.5;stroke-miterlimit:4;stroke-dasharray:none;paint-order:stroke fill markers"
   d="m -769.9668,524.95898 a 16.091914,16.091914 0 0 0 -15.125,16.02344 16.091914,16.091914 0 0 0 15.125,16.02149 v -3.91602 a 12.183306,12.183306 0 0 1 -11.21679,-12.10547 12.183306,12.183306 0 0 1 11.21679,-12.10742 z m 1.93555,0 v 3.88282 a 12.183306,12.183306 0 0 1 11.21484,12.14062 12.183306,12.183306 0 0 1 -11.21484,12.13867 v 3.91993 a 16.091914,16.091914 0 0 0 15.12305,-16.0586 16.091914,16.091914 0 0 0 -15.12305,-16.02344 z M -769,530.4668 c -5.80319,0 -10.51562,4.71244 -10.51562,10.51562 0,5.80319 4.71243,10.51367 10.51562,10.51367 5.80319,0 10.51564,-4.71048 10.51562,-10.51367 0,-5.80318 -4.71243,-10.51562 -10.51562,-10.51562 z m 0,0.68359 c 5.43401,0 9.83203,4.39802 9.83203,9.83203 0,5.43401 -4.39802,9.83203 -9.83203,9.83203 -5.43401,0 -9.83203,-4.39802 -9.83203,-9.83203 0,-5.43401 4.39802,-9.83203 9.83203,-9.83203 z M -769.002,533 c -0.87078,10e-6 -1.75423,0.0623 -2.32617,0.18945 -1.83822,0.40878 -3.22247,1.39193 -3.83985,2.72852 -0.29478,0.63817 -0.32655,0.82741 -0.32617,1.9043 2.8e-4,1.01003 0.0417,1.28869 0.26758,1.78906 0.36034,0.79806 1.29136,1.65544 2.32031,2.13867 0.81338,0.38201 1.18395,0.49862 3.89063,1.2168 1.52474,0.40454 2.11718,0.77868 2.11718,1.33789 0,0.62922 -0.73932,1.03125 -1.89062,1.03125 -1.16176,0 -1.95871,-0.43482 -2.21485,-1.21094 l -0.125,-0.38281 h -2.32812 c -2.68288,0 -2.57636,-0.0497 -2.27344,1.06054 0.6588,2.41449 3.12747,4.00892 6.44141,4.16016 0.15654,0.007 0.76719,-0.0375 1.35742,-0.0996 2.43696,-0.25665 4.09762,-1.06494 5.03711,-2.45117 0.53652,-0.79166 0.77734,-1.63057 0.77734,-2.71094 0,-1.09267 -0.30454,-1.93564 -0.94726,-2.6289 -0.89414,-0.96445 -2.02369,-1.45616 -5.3711,-2.33789 -1.50639,-0.3968 -2.17695,-0.75065 -2.29297,-1.2129 -0.15737,-0.62703 0.34672,-0.94704 1.4961,-0.94921 0.98679,-0.002 1.50532,0.23403 1.82031,0.82421 l 0.22852,0.42579 h 2.29882 c 1.26431,0 2.32545,-0.0447 2.35938,-0.0996 0.0967,-0.15652 -0.26093,-1.25613 -0.64649,-1.98438 -0.63306,-1.19575 -1.9791,-2.15384 -3.58398,-2.54883 -0.51671,-0.12717 -1.37532,-0.18946 -2.24609,-0.18945 z" /></svg>
