<?xml version="1.0" encoding="UTF-8" standalone="no"?>
<svg
   inkscape:version="1.1 (c68e22c387, 2021-05-23)"
   sodipodi:docname="touchpad.svg"
   xml:space="preserve"
   style="enable-background:new -827 465.8 263.9 151.2;"
   viewBox="-827 465.8 263.9 151.2"
   height="151.2px"
   width="263.9px"
   y="0px"
   x="0px"
   id="Layer_1"
   version="1.1"
   xmlns:inkscape="http://www.inkscape.org/namespaces/inkscape"
   xmlns:sodipodi="http://sodipodi.sourceforge.net/DTD/sodipodi-0.dtd"
   xmlns:xlink="http://www.w3.org/1999/xlink"
   xmlns="http://www.w3.org/2000/svg"
   xmlns:svg="http://www.w3.org/2000/svg"
   xmlns:rdf="http://www.w3.org/1999/02/22-rdf-syntax-ns#"
   xmlns:cc="http://creativecommons.org/ns#"
   xmlns:dc="http://purl.org/dc/elements/1.1/"><metadata
   id="metadata29"><rdf:RDF><cc:Work
       rdf:about=""><dc:format>image/svg+xml</dc:format><dc:type
         rdf:resource="http://purl.org/dc/dcmitype/StillImage" /><dc:title /></cc:Work></rdf:RDF></metadata><defs
   id="defs27"><pattern
   opacity="0.12"
   patternTransform="matrix(0.1017,0,0,-0.1017,-14604.747,-2024.9451)"
   xlink:href="#SVGID_3_"
   id="SVGID_6_" /><pattern
   overflow="visible"
   viewBox="0 -71 71 71"
   id="SVGID_3_"
   patternUnits="userSpaceOnUse"
   height="71"
   width="71"
   y="696"
   x="97"><g
     id="g88"><polygon
       id="polygon80"
       points="0,0 71,0 71,-71 0,-71   "
       fill="none" /><g
       id="g86"><polygon
         id="polygon82"
         points="0,0 71,0 71,-71 0,-71    "
         fill="none" /><path
         id="path84"
         d="M41.8-35.5c0-3.5-2.8-6.3-6.3-6.3s-6.3,2.8-6.3,6.3s2.8,6.3,6.3,6.3S41.8-32,41.8-35.5z"
         fill="#B3B3B3" /></g></g></pattern>
	
	

		
		
	
			
				<pattern
   class="st4"
   patternTransform="matrix(0.1017,0,0,0.1017,-7106.0005,-7406.6733)"
   xlink:href="#New_Pattern_Swatch_5"
   id="SVGID_1_">
			</pattern>
			
		</defs><sodipodi:namedview
   inkscape:current-layer="Layer_1"
   inkscape:window-maximized="1"
   inkscape:window-y="-8"
   inkscape:window-x="-8"
   inkscape:cy="-230.51058"
   inkscape:cx="634.15143"
   inkscape:zoom="0.50539979"
   showgrid="false"
   id="namedview25"
   inkscape:window-height="1017"
   inkscape:window-width="1920"
   inkscape:pageshadow="2"
   inkscape:pageopacity="0"
   guidetolerance="10"
   gridtolerance="10"
   objecttolerance="10"
   borderopacity="1"
   bordercolor="#666666"
   pagecolor="#ffffff"
   inkscape:pagecheckerboard="0" />
<style
   id="style2"
   type="text/css">
	.st0{fill:none;}
	.st1{fill:#4C4C4C;}
	.st2{fill:#EDEDED;}
	.st3{fill:#F7F7F7;}
	.st4{opacity:0.12;}
	.st5{fill:url(#SVGID_1_);}
</style>
<pattern
   style="overflow:visible;"
   viewBox="0 -71 71 71"
   id="New_Pattern_Swatch_5"
   patternUnits="userSpaceOnUse"
   height="71"
   width="71"
   y="617"
   x="-827">
	<g
   id="g8">
		<polygon
   id="polygon4"
   points="0,-71 71,-71 71,0 0,0   "
   class="st0" />
		<path
   id="path6"
   d="M41.8-35.5c0,3.5-2.8,6.3-6.3,6.3c-3.5,0-6.3-2.8-6.3-6.3s2.8-6.3,6.3-6.3C39-41.8,41.8-39,41.8-35.5z"
   class="st1" />
	</g>
</pattern>
<path
   id="path11"
   d="m -563.2,471.4 c -0.4,-3.2 -3.3,-5.6 -6.5,-5.6 v 0 H -695 v 0 h -125.3 v 0 c -3.2,0 -6.1,2.3 -6.5,5.6 -0.1,0.7 -0.1,1.4 -0.1,2.1 v 127.4 c 0,8.9 7.2,16.1 16.1,16.1 H -695 v 0 h 115.8 c 8.9,0 16.1,-7.2 16.1,-16.1 V 473.5 c 0,-0.8 0,-1.5 -0.1,-2.1 z"
   class="st2"
   style="fill:#f2f2f2" /><path
   id="path13"
   d="m -567.6,467.7 c 0,-1 -0.8,-1.9 -1.9,-1.9 H -695 v 0 h -125.6 c -1,0 -1.9,0.8 -1.9,1.9 v 6 123.2 c 0,8.6 7,15.6 15.6,15.6 H -695 v 0 h 111.9 c 8.6,0 15.6,-7 15.6,-15.6 V 473.7 Z"
   class="st3"
   style="fill:#ffffff" /><path
   id="path16"
   d="m -822.5,596.9 c 0,8.6 7,15.6 15.6,15.6 H -695 v 0 h 111.9 c 8.6,0 15.6,-7 15.6,-15.6 V 490.3 h -254.9 v 106.6 z"
   class="st5"
   style="opacity:0.12" />
</svg>
