<?xml version="1.0" encoding="UTF-8" standalone="no"?>
<svg
   inkscape:version="1.1 (c68e22c387, 2021-05-23)"
   sodipodi:docname="triggers.svg"
   xml:space="preserve"
   enable-background="new -205 351.2 199.9 90.8"
   viewBox="-205 351.2 199.9 90.8"
   height="90.8px"
   width="199.9px"
   y="0px"
   x="0px"
   id="Layer_1"
   version="1.1"
   xmlns:inkscape="http://www.inkscape.org/namespaces/inkscape"
   xmlns:sodipodi="http://sodipodi.sourceforge.net/DTD/sodipodi-0.dtd"
   xmlns:xlink="http://www.w3.org/1999/xlink"
   xmlns="http://www.w3.org/2000/svg"
   xmlns:svg="http://www.w3.org/2000/svg"
   xmlns:rdf="http://www.w3.org/1999/02/22-rdf-syntax-ns#"
   xmlns:cc="http://creativecommons.org/ns#"
   xmlns:dc="http://purl.org/dc/elements/1.1/"><metadata
   id="metadata39"><rdf:RDF><cc:Work
       rdf:about=""><dc:format>image/svg+xml</dc:format><dc:type
         rdf:resource="http://purl.org/dc/dcmitype/StillImage" /><dc:title /></cc:Work></rdf:RDF></metadata><defs
   id="defs37"><pattern
   opacity="0.12"
   patternTransform="matrix(0.1017,0,0,-0.1017,-15168.008,-1983.5541)"
   xlink:href="#SVGID_3_"
   id="SVGID_6_" /><pattern
   overflow="visible"
   viewBox="0 -71 71 71"
   id="SVGID_3_"
   patternUnits="userSpaceOnUse"
   height="71"
   width="71"
   y="696"
   x="97"><g
     id="g88"><polygon
       id="polygon80"
       points="0,0 71,0 71,-71 0,-71   "
       fill="none" /><g
       id="g86"><polygon
         id="polygon82"
         points="0,0 71,0 71,-71 0,-71    "
         fill="none" /><path
         id="path84"
         d="M41.8-35.5c0-3.5-2.8-6.3-6.3-6.3s-6.3,2.8-6.3,6.3s2.8,6.3,6.3,6.3S41.8-32,41.8-35.5z"
         fill="#B3B3B3" /></g></g></pattern>
	
	

		
		
	
		
		
	
			
		
	
	

		
		
	
		
		
	
			
		</defs><sodipodi:namedview
   inkscape:current-layer="Layer_1"
   inkscape:window-maximized="1"
   inkscape:window-y="-8"
   inkscape:window-x="-8"
   inkscape:cy="-25.104592"
   inkscape:cx="-136.01443"
   inkscape:zoom="1.3344173"
   showgrid="false"
   id="namedview35"
   inkscape:window-height="1017"
   inkscape:window-width="1920"
   inkscape:pageshadow="2"
   inkscape:pageopacity="0"
   guidetolerance="10"
   gridtolerance="10"
   objecttolerance="10"
   borderopacity="1"
   bordercolor="#666666"
   pagecolor="#ffffff"
   inkscape:pagecheckerboard="0" />
<path
   id="path2"
   d="m -5.1,442 c 0,0 -32.7,-3.2 -50.6,-3.2 -17.9,0 -48.4,2.4 -48.4,2.4 0,0 3.1,-44.7 4.8,-52 1.7,-7.3 7.7,-21.3 16.9,-27.9 9.2,-6.6 12,-10.1 22.8,-10.1 10.8,0 25.4,6.4 34.6,21.4 9.2,15 19.9,69.4 19.9,69.4 z"
   fill="#ededed"
   style="fill:#ffffff" /><path
   id="path4"
   d="m -103.6,434.4 c 0,0 26.1,-4.4 49,-4.4 22.8,0 47.9,4.4 47.9,4.4 1,4.7 1.6,7.6 1.6,7.6 0,0 -32.7,-3.2 -50.6,-3.2 -17.9,0 -48.4,2.4 -48.4,2.4 0,0 0.2,-2.7 0.5,-6.8 z"
   fill="#f5f5f5"
   style="opacity:1;fill:#f9f9f9" /><path
   id="path8"
   d="m -53.6,416.9 c -2.1,1.7 -3.2,2.6 -3.2,2.6 -1.2,1.2 -1.9,2.7 -2,4.5 h 9.8 v -2.6 h -6.2 c 0.3,-0.5 1,-1.2 2.1,-1.9 1.4,-0.9 2.3,-1.6 2.7,-2.1 0.9,-1 1.3,-2.1 1.3,-3.3 0,-1.4 -0.5,-2.5 -1.4,-3.3 -0.9,-0.8 -2.1,-1.2 -3.5,-1.2 -3.1,0 -4.7,1.7 -4.7,5 h 2.7 c 0,-1.8 0.7,-2.7 2.1,-2.7 1.3,0 2,0.7 2,2.1 0.1,1.1 -0.5,2 -1.7,2.9 z"
   style="opacity:1;fill:#f2f2f2;fill-opacity:1" /><path
   id="path12"
   d="m -71.1,418.4 h 3 c 1.5,0 2.3,0.6 2.4,1.9 0.1,1.2 0.2,2.5 0.3,3.8 h 3.3 v -0.4 c -0.5,-0.2 -0.7,-0.7 -0.7,-1.5 0,-0.2 0,-0.4 0.1,-0.8 v -0.7 c 0,-1.7 -0.6,-2.9 -1.8,-3.5 1.4,-0.5 2.2,-1.6 2.2,-3.4 0,-1.3 -0.4,-2.3 -1.3,-3 -0.8,-0.7 -1.9,-1 -3.2,-1 h -7.3 v 14.3 h 3 z m 0,-6.2 h 3.7 c 1.4,0 2.1,0.6 2.1,1.9 0,1.3 -0.8,1.9 -2.3,1.9 h -3.5 z"
   style="opacity:1;fill:#f2f2f2" />
<path
   id="path18"
   d="m -205,442 c 0,0 32.7,-3.2 50.6,-3.2 17.9,0 48.3,2.4 48.3,2.4 0,0 -3.1,-44.7 -4.8,-52 -1.7,-7.3 -7.7,-21.3 -16.9,-27.9 -9.2,-6.6 -11.9,-10.1 -22.7,-10.1 -10.8,0 -25.4,6.4 -34.6,21.4 -9.2,15 -19.9,69.4 -19.9,69.4 z"
   fill="#ededed"
   style="fill:#ffffff" /><path
   id="path20"
   d="m -106.6,434.4 c 0,0 -26.1,-4.4 -49,-4.4 -22.8,0 -47.9,4.4 -47.9,4.4 -1,4.7 -1.6,7.6 -1.6,7.6 0,0 32.7,-3.2 50.6,-3.2 17.9,0 48.4,2.4 48.4,2.4 0,0 -0.1,-2.7 -0.5,-6.8 z"
   fill="#f5f5f5"
   style="opacity:1;fill:#f9f9f9" /><path
   id="path24"
   d="m -140.5,416.9 c -2.1,1.7 -3.2,2.6 -3.2,2.6 -1.2,1.2 -1.9,2.7 -2,4.5 h 9.7 v -2.6 h -6.2 c 0.3,-0.5 1,-1.2 2.1,-1.9 1.4,-0.9 2.3,-1.6 2.7,-2.1 0.9,-1 1.3,-2.1 1.3,-3.3 0,-1.4 -0.5,-2.5 -1.4,-3.3 -0.9,-0.8 -2.1,-1.2 -3.5,-1.2 -3.1,0 -4.7,1.7 -4.7,5 h 2.7 c 0,-1.8 0.7,-2.7 2.1,-2.7 1.3,0 2,0.7 2,2.1 0.1,1.1 -0.4,2 -1.6,2.9 z"
   style="opacity:1;fill:#f2f2f2;fill-opacity:1" /><polygon
   id="polygon28"
   points="-159.1,424 -149,424 -149,421.4 -156.1,421.4 -156.1,409.7 -159.1,409.7 "
   style="opacity:1;fill:#f2f2f2" />
</svg>
