<?xml version="1.0" encoding="UTF-8" standalone="no"?>
<svg
   xmlns:dc="http://purl.org/dc/elements/1.1/"
   xmlns:cc="http://creativecommons.org/ns#"
   xmlns:rdf="http://www.w3.org/1999/02/22-rdf-syntax-ns#"
   xmlns:svg="http://www.w3.org/2000/svg"
   xmlns="http://www.w3.org/2000/svg"
   xmlns:xlink="http://www.w3.org/1999/xlink"
   xmlns:sodipodi="http://sodipodi.sourceforge.net/DTD/sodipodi-0.dtd"
   xmlns:inkscape="http://www.inkscape.org/namespaces/inkscape"
   version="1.1"
   id="Layer_1"
   x="0px"
   y="0px"
   width="216.839"
   height="107.41535"
   viewBox="0 0 216.839 107.41535"
   enable-background="new 0 0 195.574 96.744"
   xml:space="preserve"
   sodipodi:docname="abxy.svg"
   inkscape:version="1.0 (4035a4fb49, 2020-05-01)"><metadata
   id="metadata113"><rdf:RDF><cc:Work
       rdf:about=""><dc:format>image/svg+xml</dc:format><dc:type
         rdf:resource="http://purl.org/dc/dcmitype/StillImage" /><dc:title /></cc:Work></rdf:RDF></metadata><defs
   id="defs111"><pattern
     patternUnits="userSpaceOnUse"
     width="25.2936"
     height="12.30291"
     patternTransform="translate(3272.0118,65.93)"
     id="pattern2697"><path
       sodipodi:nodetypes="cccc"
       id="path2687"
       d="M 18.9702,12.30291 12.6468,0 6.3234,12.30291 Z"
       style="fill:#2a292b;fill-opacity:1;stroke:none;stroke-width:1.03091px;stroke-linecap:butt;stroke-linejoin:miter;stroke-opacity:1" /><path
       style="fill:#040505;fill-opacity:1;stroke:none;stroke-width:1.03091px;stroke-linecap:butt;stroke-linejoin:miter;stroke-opacity:1"
       d="M 12.6468,0 6.3234,12.30291 0,0 Z"
       id="path2689"
       sodipodi:nodetypes="cccc" /><path
       sodipodi:nodetypes="cccc"
       id="path2691"
       d="M 25.2936,0 18.9702,12.30291 12.6468,0 Z"
       style="fill:#040505;fill-opacity:1;stroke:none;stroke-width:1.03091px;stroke-linecap:butt;stroke-linejoin:miter;stroke-opacity:1" /><path
       style="fill:#2a292b;fill-opacity:1;stroke:none;stroke-width:1.03091px;stroke-linecap:butt;stroke-linejoin:miter;stroke-opacity:1"
       d="M 6.3234,12.30291 0,0 v 12.30291 z"
       id="path2693"
       sodipodi:nodetypes="cccc" /><path
       sodipodi:nodetypes="cccc"
       id="path2695"
       d="M 18.9702,12.30291 25.2936,0 v 12.30291 z"
       style="fill:#2a292b;fill-opacity:1;stroke:none;stroke-width:1.03091px;stroke-linecap:butt;stroke-linejoin:miter;stroke-opacity:1" /></pattern><pattern
     inkscape:collect="always"
     xlink:href="#pattern2697"
     id="pattern1307"
     patternTransform="rotate(-42.250669,-4821.4012,1872.7253)" /><pattern
     patternUnits="userSpaceOnUse"
     width="25.2936"
     height="12.30291"
     patternTransform="translate(3272.0118,65.93)"
     id="pattern1319"><path
       sodipodi:nodetypes="cccc"
       id="path1309"
       d="M 18.9702,12.30291 12.6468,0 6.3234,12.30291 Z"
       style="fill:#2a292b;fill-opacity:1;stroke:none;stroke-width:1.03091px;stroke-linecap:butt;stroke-linejoin:miter;stroke-opacity:1" /><path
       style="fill:#040505;fill-opacity:1;stroke:none;stroke-width:1.03091px;stroke-linecap:butt;stroke-linejoin:miter;stroke-opacity:1"
       d="M 12.6468,0 6.3234,12.30291 0,0 Z"
       id="path1311"
       sodipodi:nodetypes="cccc" /><path
       sodipodi:nodetypes="cccc"
       id="path1313"
       d="M 25.2936,0 18.9702,12.30291 12.6468,0 Z"
       style="fill:#040505;fill-opacity:1;stroke:none;stroke-width:1.03091px;stroke-linecap:butt;stroke-linejoin:miter;stroke-opacity:1" /><path
       style="fill:#2a292b;fill-opacity:1;stroke:none;stroke-width:1.03091px;stroke-linecap:butt;stroke-linejoin:miter;stroke-opacity:1"
       d="M 6.3234,12.30291 0,0 v 12.30291 z"
       id="path1315"
       sodipodi:nodetypes="cccc" /><path
       sodipodi:nodetypes="cccc"
       id="path1317"
       d="M 18.9702,12.30291 25.2936,0 v 12.30291 z"
       style="fill:#2a292b;fill-opacity:1;stroke:none;stroke-width:1.03091px;stroke-linecap:butt;stroke-linejoin:miter;stroke-opacity:1" /></pattern><pattern
     inkscape:collect="always"
     xlink:href="#pattern2697"
     id="pattern1419"
     patternTransform="rotate(-42.250669,-4821.4012,1872.7253)" /><pattern
     patternUnits="userSpaceOnUse"
     width="25.2936"
     height="12.30291"
     patternTransform="translate(3272.0118,65.93)"
     id="pattern1431"><path
       sodipodi:nodetypes="cccc"
       id="path1421"
       d="M 18.9702,12.30291 12.6468,0 6.3234,12.30291 Z"
       style="fill:#2a292b;fill-opacity:1;stroke:none;stroke-width:1.03091px;stroke-linecap:butt;stroke-linejoin:miter;stroke-opacity:1" /><path
       style="fill:#040505;fill-opacity:1;stroke:none;stroke-width:1.03091px;stroke-linecap:butt;stroke-linejoin:miter;stroke-opacity:1"
       d="M 12.6468,0 6.3234,12.30291 0,0 Z"
       id="path1423"
       sodipodi:nodetypes="cccc" /><path
       sodipodi:nodetypes="cccc"
       id="path1425"
       d="M 25.2936,0 18.9702,12.30291 12.6468,0 Z"
       style="fill:#040505;fill-opacity:1;stroke:none;stroke-width:1.03091px;stroke-linecap:butt;stroke-linejoin:miter;stroke-opacity:1" /><path
       style="fill:#2a292b;fill-opacity:1;stroke:none;stroke-width:1.03091px;stroke-linecap:butt;stroke-linejoin:miter;stroke-opacity:1"
       d="M 6.3234,12.30291 0,0 v 12.30291 z"
       id="path1427"
       sodipodi:nodetypes="cccc" /><path
       sodipodi:nodetypes="cccc"
       id="path1429"
       d="M 18.9702,12.30291 25.2936,0 v 12.30291 z"
       style="fill:#2a292b;fill-opacity:1;stroke:none;stroke-width:1.03091px;stroke-linecap:butt;stroke-linejoin:miter;stroke-opacity:1" /></pattern><pattern
     inkscape:collect="always"
     xlink:href="#pattern2697"
     id="pattern1456"
     patternTransform="rotate(-42.250669,-4821.4012,1872.7253)" /><pattern
     patternUnits="userSpaceOnUse"
     width="25.2936"
     height="12.30291"
     patternTransform="translate(3272.0118,65.93)"
     id="pattern1468"><path
       sodipodi:nodetypes="cccc"
       id="path1458"
       d="M 18.9702,12.30291 12.6468,0 6.3234,12.30291 Z"
       style="fill:#2a292b;fill-opacity:1;stroke:none;stroke-width:1.03091px;stroke-linecap:butt;stroke-linejoin:miter;stroke-opacity:1" /><path
       style="fill:#040505;fill-opacity:1;stroke:none;stroke-width:1.03091px;stroke-linecap:butt;stroke-linejoin:miter;stroke-opacity:1"
       d="M 12.6468,0 6.3234,12.30291 0,0 Z"
       id="path1460"
       sodipodi:nodetypes="cccc" /><path
       sodipodi:nodetypes="cccc"
       id="path1462"
       d="M 25.2936,0 18.9702,12.30291 12.6468,0 Z"
       style="fill:#040505;fill-opacity:1;stroke:none;stroke-width:1.03091px;stroke-linecap:butt;stroke-linejoin:miter;stroke-opacity:1" /><path
       style="fill:#2a292b;fill-opacity:1;stroke:none;stroke-width:1.03091px;stroke-linecap:butt;stroke-linejoin:miter;stroke-opacity:1"
       d="M 6.3234,12.30291 0,0 v 12.30291 z"
       id="path1464"
       sodipodi:nodetypes="cccc" /><path
       sodipodi:nodetypes="cccc"
       id="path1466"
       d="M 18.9702,12.30291 25.2936,0 v 12.30291 z"
       style="fill:#2a292b;fill-opacity:1;stroke:none;stroke-width:1.03091px;stroke-linecap:butt;stroke-linejoin:miter;stroke-opacity:1" /></pattern><clipPath
     id="clipPath1485-8-4"
     clipPathUnits="userSpaceOnUse"><circle
       r="110.30865"
       cy="-2342.2361"
       cx="1606.5132"
       id="circle1487-3-4"
       style="opacity:1;fill:#ff0000;fill-opacity:1;stroke:none;stroke-width:2.5;stroke-linecap:round;stroke-linejoin:round;paint-order:stroke fill markers" /></clipPath><linearGradient
     id="linearGradient2361"
     inkscape:collect="always"><stop
       id="stop2357"
       offset="0"
       style="stop-color:#0c0d0d;stop-opacity:1" /><stop
       id="stop2359"
       offset="1"
       style="stop-color:#020202;stop-opacity:1" /></linearGradient><linearGradient
     id="linearGradient2204"
     inkscape:collect="always"><stop
       id="stop2200"
       offset="0"
       style="stop-color:#3a3c3d;stop-opacity:1;" /><stop
       id="stop2202"
       offset="1"
       style="stop-color:#1b1b1c;stop-opacity:1" /></linearGradient><radialGradient
     inkscape:collect="always"
     xlink:href="#linearGradient2361"
     id="radialGradient3925-5"
     gradientUnits="userSpaceOnUse"
     gradientTransform="matrix(0.37745878,0,0,0.37745776,-2049.1681,850.72819)"
     cx="4739.4629"
     cy="-2646.259"
     fx="4739.4629"
     fy="-2646.259"
     r="69.81414" /><linearGradient
     inkscape:collect="always"
     xlink:href="#linearGradient2204"
     id="linearGradient3927-7"
     gradientUnits="userSpaceOnUse"
     gradientTransform="matrix(0.37745878,0,0,0.37745776,-1995.9603,849.30929)"
     x1="4546.436"
     y1="-2584.75"
     x2="4646.814"
     y2="-2698.75" /><filter
     height="1.0484692"
     y="-0.024234617"
     width="1.1711688"
     x="-0.085584417"
     id="filter2259-7-2"
     style="color-interpolation-filters:sRGB"
     inkscape:collect="always"><feGaussianBlur
       id="feGaussianBlur2261-8-5"
       stdDeviation="1.0601948"
       inkscape:collect="always" /></filter><filter
     height="1.116907"
     y="-0.058453485"
     width="1.2018878"
     x="-0.10094391"
     id="filter2353-2-3"
     style="color-interpolation-filters:sRGB"
     inkscape:collect="always"><feGaussianBlur
       id="feGaussianBlur2355-3-7"
       stdDeviation="1.7342722"
       inkscape:collect="always" /></filter><radialGradient
     inkscape:collect="always"
     xlink:href="#linearGradient2361"
     id="radialGradient3921-7"
     gradientUnits="userSpaceOnUse"
     gradientTransform="matrix(0.37745878,0,0,0.37745776,-1996.4183,799.48839)"
     cx="4739.4629"
     cy="-2646.259"
     fx="4739.4629"
     fy="-2646.259"
     r="69.81414" /><linearGradient
     inkscape:collect="always"
     xlink:href="#linearGradient2204"
     id="linearGradient3923-2"
     gradientUnits="userSpaceOnUse"
     gradientTransform="matrix(0.37745878,0,0,0.37745776,-1943.2106,798.06949)"
     x1="4546.436"
     y1="-2584.75"
     x2="4646.814"
     y2="-2698.75" /><radialGradient
     inkscape:collect="always"
     xlink:href="#linearGradient2361"
     id="radialGradient3917-1"
     gradientUnits="userSpaceOnUse"
     gradientTransform="matrix(0.37745878,0,0,0.37745776,-1945.1783,852.23809)"
     cx="4739.4629"
     cy="-2646.259"
     fx="4739.4629"
     fy="-2646.259"
     r="69.81414" /><linearGradient
     inkscape:collect="always"
     xlink:href="#linearGradient2204"
     id="linearGradient3919-7"
     gradientUnits="userSpaceOnUse"
     gradientTransform="matrix(0.37745878,0,0,0.37745776,-1891.9706,850.81919)"
     x1="4546.436"
     y1="-2584.75"
     x2="4646.814"
     y2="-2698.75" /><radialGradient
     inkscape:collect="always"
     xlink:href="#linearGradient2361"
     id="radialGradient3913-5"
     gradientUnits="userSpaceOnUse"
     gradientTransform="matrix(0.37745878,0,0,0.37745776,-1762.6001,1025.203)"
     cx="4739.4629"
     cy="-2646.259"
     fx="4739.4629"
     fy="-2646.259"
     r="69.81414" /><linearGradient
     inkscape:collect="always"
     xlink:href="#linearGradient2204"
     id="linearGradient3915-9"
     gradientUnits="userSpaceOnUse"
     gradientTransform="matrix(0.37745878,0,0,0.37745776,-1709.3924,1023.7841)"
     x1="4546.436"
     y1="-2584.75"
     x2="4646.814"
     y2="-2698.75" /></defs><sodipodi:namedview
   inkscape:snap-smooth-nodes="true"
   inkscape:document-rotation="0"
   pagecolor="#ffffff"
   bordercolor="#666666"
   borderopacity="1"
   objecttolerance="10"
   gridtolerance="10"
   guidetolerance="10"
   inkscape:pageopacity="0"
   inkscape:pageshadow="2"
   inkscape:window-width="1920"
   inkscape:window-height="1017"
   id="namedview109"
   showgrid="false"
   inkscape:zoom="1"
   inkscape:cx="702.24353"
   inkscape:cy="61.149649"
   inkscape:window-x="-8"
   inkscape:window-y="-8"
   inkscape:window-maximized="1"
   inkscape:current-layer="Layer_1" />
<ellipse
   inkscape:export-ydpi="96.06395"
   inkscape:export-xdpi="96.06395"
   ry="25.35578"
   rx="25.355848"
   style="fill:#cccccc;fill-opacity:1;stroke:#999999;stroke-width:1.99223;stroke-linecap:square;stroke-linejoin:round;stroke-miterlimit:4;stroke-dasharray:none;stroke-opacity:1;paint-order:stroke fill markers"
   id="ellipse2078"
   cx="26.351963"
   cy="81.063454" /><path
   inkscape:export-ydpi="96.06395"
   inkscape:export-xdpi="96.06395"
   transform="matrix(0.37745877,0,0,0.37745775,-600.15836,-492.90477)"
   id="path2080"
   style="opacity:0.835484;fill:#ffffff;fill-opacity:1;stroke:none;stroke-width:5.12083;stroke-linecap:square;stroke-linejoin:round;stroke-miterlimit:4;stroke-dasharray:none;stroke-opacity:1;paint-order:stroke fill markers;filter:url(#filter2259-7-2)"
   d="m 1626.0638,1468.7666 c -4.1065,2.5956 -7.8499,5.5789 -11.1902,8.8793 -11.7733,11.633 -18.5377,27.2047 -18.5383,43.6162 4e-4,21.0688 11.1483,40.7535 29.7305,52.4976 -14.9771,-13.1046 -23.606,-32.293 -23.6055,-52.4976 4e-4,-15.9003 5.344,-31.1714 14.9204,-43.3432 2.5917,-3.2941 5.4934,-6.3612 8.6831,-9.1523 z"
   sodipodi:nodetypes="ccccscc" /><path
   inkscape:export-ydpi="96.06395"
   inkscape:export-xdpi="96.06395"
   transform="matrix(0.37745877,0,0,0.37745775,-600.15836,-492.90477)"
   style="opacity:0.670968;fill:#ffffff;fill-opacity:1;stroke:none;stroke-width:1px;stroke-linecap:butt;stroke-linejoin:miter;stroke-opacity:1;filter:url(#filter2353-2-3)"
   d="m 1687.4715,1467.9367 c -3.4066,-0.5767 -5.4429,0.7528 -2.74,4.5962 15.2691,19.6166 23.8864,41.3906 30.4939,63.8164 1.2812,3.9405 4.7995,2.9541 5.9221,0.6187 13.2277,-32.8976 -13.0929,-65.1205 -33.676,-69.0313 z"
   id="path2082"
   sodipodi:nodetypes="ccccc" /><path
   inkscape:export-ydpi="96.06395"
   inkscape:export-xdpi="96.06395"
   fill="#C64AB5"
   d="m 34.864089,93.917018 -2.70221,-7.45384 h -11.79693 l -2.57287,7.45384 h -5.33137 l 11.15407,-29.481653 h 5.43057 l 11.19776,29.481653 z m -8.55009,-25.052983 h -0.12548 c -0.10393,0.82392 -0.23168,1.53403 -0.43767,2.11469 l -4.02406,11.360213 h 9.03931 l -4.04939,-11.360213 c -0.1285,-0.35607 -0.27515,-1.06023 -0.40267,-2.11469 z"
   id="path2084"
   style="fill:#808080;fill-opacity:1;stroke-width:0.972707" /><ellipse
   inkscape:export-ydpi="96.06395"
   inkscape:export-xdpi="96.06395"
   ry="25.35578"
   rx="25.355848"
   cy="81.063454"
   cx="81.063667"
   id="ellipse2088"
   style="fill:#cccccc;fill-opacity:1;stroke:#999999;stroke-width:1.99223;stroke-linecap:square;stroke-linejoin:round;stroke-miterlimit:4;stroke-dasharray:none;stroke-opacity:1;paint-order:stroke fill markers" /><path
   inkscape:export-ydpi="96.06395"
   inkscape:export-xdpi="96.06395"
   transform="matrix(0.37745877,0,0,0.37745775,-598.19646,-441.66493)"
   sodipodi:nodetypes="ccccscc"
   d="m 1765.8138,1333.0167 c -4.1065,2.5956 -7.8499,5.5789 -11.1902,8.8793 -11.7733,11.633 -18.5377,27.2047 -18.5383,43.6162 4e-4,21.0688 11.1483,40.7535 29.7305,52.4976 -14.9771,-13.1046 -23.606,-32.293 -23.6055,-52.4976 4e-4,-15.9003 5.344,-31.1714 14.9204,-43.3432 2.5917,-3.2941 5.4934,-6.3612 8.6831,-9.1523 z"
   style="opacity:0.835484;fill:#ffffff;fill-opacity:1;stroke:none;stroke-width:5.12083;stroke-linecap:square;stroke-linejoin:round;stroke-miterlimit:4;stroke-dasharray:none;stroke-opacity:1;paint-order:stroke fill markers;filter:url(#filter2259-7-2)"
   id="path2090" /><path
   inkscape:export-ydpi="96.06395"
   inkscape:export-xdpi="96.06395"
   transform="matrix(0.37745877,0,0,0.37745775,-598.19646,-441.66493)"
   sodipodi:nodetypes="ccccc"
   id="path2092"
   d="m 1827.2215,1332.1868 c -3.4066,-0.5767 -5.4429,0.7528 -2.74,4.5962 15.2691,19.6166 23.8864,41.3906 30.4939,63.8164 1.2812,3.9405 4.7995,2.9541 5.9221,0.6187 13.2277,-32.8976 -13.0929,-65.1205 -33.676,-69.0313 z"
   style="opacity:0.670968;fill:#ffffff;fill-opacity:1;stroke:none;stroke-width:1px;stroke-linecap:butt;stroke-linejoin:miter;stroke-opacity:1;filter:url(#filter2353-2-3)" /><path
   inkscape:export-ydpi="96.06395"
   inkscape:export-xdpi="96.06395"
   fill="#3ED8D2"
   d="m 92.966489,87.219215 c 0,2.55627 -0.95811,4.65242 -2.84519,6.2107 -1.90356,1.5884 -4.34797,2.37045 -7.35942,2.37045 h -9.63769 v -29.47383 h 9.31079 c 2.81885,0 5.05221,0.6283 6.67953,1.83258 1.63812,1.23138 2.45419,2.87136 2.45419,4.95006 0,1.60106 -0.49024,3.01147 -1.45904,4.22933 -0.98635,1.24501 -2.25865,2.0913 -3.84809,2.59711 v 0.0885 c 2.10489,0.26653 3.73716,1.04568 4.93069,2.30724 1.16629,1.2898 1.77423,2.90057 1.77423,4.88787 z m -6.58424,-13.16945 c 0,-1.17211 -0.44164,-2.08543 -1.2957,-2.71869 -0.88222,-0.63127 -2.16329,-0.94647 -3.87035,-0.94647 h -3.18754 v 8.15419 h 3.14377 c 1.64678,0 2.93851,-0.38909 3.84703,-1.16823 0.90074,-0.77811 1.36279,-1.86755 1.36279,-3.3208 z m 1.39483,13.03715 c 0,-1.4095 -0.49417,-2.51445 -1.51551,-3.31595 -1.02229,-0.79181 -2.52412,-1.17308 -4.54636,-1.17308 h -3.68655 v 9.156 h 4.12328 c 1.75184,0 3.1243,-0.426 4.12134,-1.27223 1.01556,-0.83266 1.5038,-1.97167 1.5038,-3.39474 z"
   id="path2094"
   style="fill:#808080;fill-opacity:1;stroke-width:0.972707" /><ellipse
   inkscape:export-ydpi="96.06395"
   inkscape:export-xdpi="96.06395"
   ry="25.35578"
   rx="25.355848"
   style="fill:#cccccc;fill-opacity:1;stroke:#999999;stroke-width:1.99223;stroke-linecap:square;stroke-linejoin:round;stroke-miterlimit:4;stroke-dasharray:none;stroke-opacity:1;paint-order:stroke fill markers"
   id="ellipse2098"
   cx="190.48705"
   cy="81.063446" /><path
   inkscape:export-ydpi="96.06395"
   inkscape:export-xdpi="96.06395"
   transform="matrix(0.37745877,0,0,0.37745775,-437.53311,-388.91526)"
   id="path2100"
   style="opacity:0.835484;fill:#ffffff;fill-opacity:1;stroke:none;stroke-width:5.12083;stroke-linecap:square;stroke-linejoin:round;stroke-miterlimit:4;stroke-dasharray:none;stroke-opacity:1;paint-order:stroke fill markers;filter:url(#filter2259-7-2)"
   d="m 1630.0638,1193.2668 c -4.1065,2.5956 -7.8499,5.5789 -11.1902,8.8793 -11.7733,11.633 -18.5377,27.2047 -18.5383,43.6162 4e-4,21.0688 11.1483,40.7535 29.7305,52.4976 -14.9771,-13.1046 -23.606,-32.293 -23.6055,-52.4976 4e-4,-15.9003 5.344,-31.1714 14.9204,-43.3432 2.5917,-3.2941 5.4934,-6.3612 8.6831,-9.1523 z"
   sodipodi:nodetypes="ccccscc" /><path
   inkscape:export-ydpi="96.06395"
   inkscape:export-xdpi="96.06395"
   transform="matrix(0.37745877,0,0,0.37745775,-437.53311,-388.91526)"
   style="opacity:0.670968;fill:#ffffff;fill-opacity:1;stroke:none;stroke-width:1px;stroke-linecap:butt;stroke-linejoin:miter;stroke-opacity:1;filter:url(#filter2353-2-3)"
   d="m 1691.4715,1192.4369 c -3.4066,-0.5767 -5.4429,0.7528 -2.74,4.5962 15.2691,19.6166 23.8864,41.3906 30.4939,63.8164 1.2812,3.9405 4.7995,2.9541 5.9221,0.6187 13.2277,-32.8976 -13.0929,-65.1205 -33.676,-69.0313 z"
   id="path2102"
   sodipodi:nodetypes="ccccc" /><path
   inkscape:export-ydpi="96.06395"
   inkscape:export-xdpi="96.06395"
   fill="#0311DE"
   d="m 192.81954,85.112775 v 10.68712 h -4.86058 v -10.56743 l -9.57827,-18.90544 h 5.56486 l 5.92865,12.30075 c 0.20711,0.39981 0.32957,0.76168 0.42599,1.09041 0.0964,0.32685 0.17121,0.59338 0.24907,0.80247 h 0.0438 c 0.14702,-0.62448 0.36283,-1.24016 0.67601,-1.85106 l 6.15042,-12.34257 h 5.17387 z"
   id="path2104"
   style="fill:#808080;fill-opacity:1;stroke-width:0.972707" /><ellipse
   inkscape:export-ydpi="96.06395"
   inkscape:export-xdpi="96.06395"
   ry="25.35578"
   rx="25.355848"
   cy="81.063461"
   cx="135.77536"
   id="ellipse2108"
   style="fill:#cccccc;fill-opacity:1;stroke:#999999;stroke-width:1.99223;stroke-linecap:square;stroke-linejoin:round;stroke-miterlimit:4;stroke-dasharray:none;stroke-opacity:1;paint-order:stroke fill markers" /><path
   inkscape:export-ydpi="96.06395"
   inkscape:export-xdpi="96.06395"
   transform="matrix(0.37745877,0,0,0.37745775,-439.49497,-440.1551)"
   sodipodi:nodetypes="ccccscc"
   d="m 1490.314,1329.0167 c -4.1065,2.5956 -7.8499,5.5789 -11.1902,8.8793 -11.7733,11.633 -18.5377,27.2047 -18.5383,43.6162 4e-4,21.0688 11.1483,40.7535 29.7305,52.4976 -14.9771,-13.1046 -23.606,-32.293 -23.6055,-52.4976 4e-4,-15.9003 5.344,-31.1714 14.9204,-43.3432 2.5917,-3.2941 5.4934,-6.3612 8.6831,-9.1523 z"
   style="opacity:0.835484;fill:#ffffff;fill-opacity:1;stroke:none;stroke-width:5.12083;stroke-linecap:square;stroke-linejoin:round;stroke-miterlimit:4;stroke-dasharray:none;stroke-opacity:1;paint-order:stroke fill markers;filter:url(#filter2259-7-2)"
   id="path2110" /><path
   inkscape:export-ydpi="96.06395"
   inkscape:export-xdpi="96.06395"
   transform="matrix(0.37745877,0,0,0.37745775,-439.49497,-440.1551)"
   sodipodi:nodetypes="ccccc"
   id="path2112"
   d="m 1551.7217,1328.1868 c -3.4066,-0.5767 -5.4429,0.7528 -2.74,4.5962 15.2691,19.6166 23.8864,41.3906 30.4939,63.8164 1.2812,3.9405 4.7995,2.9541 5.9221,0.6187 13.2277,-32.8976 -13.0929,-65.1205 -33.676,-69.0313 z"
   style="opacity:0.670968;fill:#ffffff;fill-opacity:1;stroke:none;stroke-width:1px;stroke-linecap:butt;stroke-linejoin:miter;stroke-opacity:1;filter:url(#filter2353-2-3)" /><path
   inkscape:export-ydpi="96.06395"
   inkscape:export-xdpi="96.06395"
   fill="#FF8E43"
   d="m 142.69516,95.800352 -6.23112,-10.71822 c -0.1285,-0.2801 -0.23546,-0.51744 -0.30047,-0.74217 -0.048,-0.25096 -0.11754,-0.48824 -0.20636,-0.74211 h -0.0896 c -0.11301,0.26744 -0.18482,0.50866 -0.25966,0.75381 -0.0748,0.21593 -0.18179,0.44933 -0.32693,0.72951 l -6.34495,10.71826 h -5.9559 l 9.86034,-14.77445 -9.0073,-14.698457 h 6.0172 l 5.25358,9.682277 c 0.50483,0.86078 0.83751,1.5952 1.01938,2.20416 h 0.071 c 0.29669,-0.77139 0.52233,-1.2752 0.63908,-1.51749 0.10621,-0.23048 2.14878,-3.69329 6.09891,-10.368947 h 5.51906 l -9.2007,14.610027 9.31937,14.8638 z"
   id="path2114"
   style="fill:#808080;fill-opacity:1;stroke-width:0.972707" />

<g
   transform="translate(244.24883,172.41494)"
   id="g78">
</g>
<g
   transform="translate(244.24883,172.41494)"
   id="g80">
</g>
<g
   transform="translate(244.24883,172.41494)"
   id="g82">
</g>
<g
   transform="translate(244.24883,172.41494)"
   id="g84">
</g>
<g
   transform="translate(244.24883,172.41494)"
   id="g86">
</g>
<g
   transform="translate(244.24883,172.41494)"
   id="g88">
</g>
<g
   transform="translate(244.24883,172.41494)"
   id="g90">
</g>
<g
   transform="translate(244.24883,172.41494)"
   id="g92">
</g>
<g
   transform="translate(244.24883,172.41494)"
   id="g94">
</g>
<g
   transform="translate(244.24883,172.41494)"
   id="g96">
</g>
<g
   transform="translate(244.24883,172.41494)"
   id="g98">
</g>
<g
   transform="translate(244.24883,172.41494)"
   id="g100">
</g>
<g
   transform="translate(244.24883,172.41494)"
   id="g102">
</g>
<g
   transform="translate(244.24883,172.41494)"
   id="g104">
</g>
<g
   transform="translate(244.24883,172.41494)"
   id="g106">
</g>
<ellipse
   cy="26.351894"
   cx="26.351963"
   id="circle3899-2"
   style="fill:url(#radialGradient3913-5);fill-opacity:1;stroke:url(#linearGradient3915-9);stroke-width:1.99223;stroke-linecap:square;stroke-linejoin:round;stroke-miterlimit:4;stroke-dasharray:none;stroke-opacity:1;paint-order:stroke fill markers"
   rx="25.355848"
   ry="25.35578"
   inkscape:export-xdpi="96.06395"
   inkscape:export-ydpi="96.06395" /><path
   sodipodi:nodetypes="ccccscc"
   d="m 1626.0638,1468.7666 c -4.1065,2.5956 -7.8499,5.5789 -11.1902,8.8793 -11.7733,11.633 -18.5377,27.2047 -18.5383,43.6162 4e-4,21.0688 11.1483,40.7535 29.7305,52.4976 -14.9771,-13.1046 -23.606,-32.293 -23.6055,-52.4976 4e-4,-15.9003 5.344,-31.1714 14.9204,-43.3432 2.5917,-3.2941 5.4934,-6.3612 8.6831,-9.1523 z"
   style="opacity:0.835484;fill:#afb0b2;fill-opacity:1;stroke:none;stroke-width:5.12083;stroke-linecap:square;stroke-linejoin:round;stroke-miterlimit:4;stroke-dasharray:none;stroke-opacity:1;paint-order:stroke fill markers;filter:url(#filter2259-7-2)"
   id="path3901-8"
   transform="matrix(0.37745877,0,0,0.37745775,-600.15836,-547.61633)"
   inkscape:export-xdpi="96.06395"
   inkscape:export-ydpi="96.06395" /><path
   sodipodi:nodetypes="ccccc"
   id="path3903-3"
   d="m 1687.4715,1467.9367 c -3.4066,-0.5767 -5.4429,0.7528 -2.74,4.5962 15.2691,19.6166 23.8864,41.3906 30.4939,63.8164 1.2812,3.9405 4.7995,2.9541 5.9221,0.6187 13.2277,-32.8976 -13.0929,-65.1205 -33.676,-69.0313 z"
   style="opacity:0.670968;fill:#78797a;fill-opacity:1;stroke:none;stroke-width:1px;stroke-linecap:butt;stroke-linejoin:miter;stroke-opacity:1;filter:url(#filter2353-2-3)"
   transform="matrix(0.37745877,0,0,0.37745775,-600.15836,-547.61633)"
   inkscape:export-xdpi="96.06395"
   inkscape:export-ydpi="96.06395" /><path
   style="fill:#434546;fill-opacity:1;stroke-width:0.972707"
   id="path3905-3"
   d="m 34.864089,39.205455 -2.70221,-7.45384 h -11.79693 l -2.57287,7.45384 h -5.33137 L 23.614779,9.7238046 h 5.43057 l 11.19776,29.4816504 z m -8.55009,-25.05298 h -0.12548 c -0.10393,0.82392 -0.23168,1.53403 -0.43767,2.11469 l -4.02406,11.36021 h 9.03931 l -4.04939,-11.36021 c -0.1285,-0.35607 -0.27515,-1.06023 -0.40267,-2.11469 z"
   fill="#C64AB5"
   inkscape:export-xdpi="96.06395"
   inkscape:export-ydpi="96.06395" /><g
   transform="translate(237.29001,172.96483)"
   id="g2055"><ellipse
     inkscape:export-ydpi="96.06395"
     inkscape:export-xdpi="96.06395"
     ry="25.35578"
     rx="25.355848"
     cy="-146.61293"
     cx="-156.22635"
     id="circle3893-3"
     style="fill:url(#radialGradient3917-1);fill-opacity:1;stroke:url(#linearGradient3919-7);stroke-width:1.99223;stroke-linecap:square;stroke-linejoin:round;stroke-miterlimit:4;stroke-dasharray:none;stroke-opacity:1;paint-order:stroke fill markers" /><path
     inkscape:export-ydpi="96.06395"
     inkscape:export-xdpi="96.06395"
     transform="matrix(0.37745877,0,0,0.37745775,-835.48648,-669.34131)"
     sodipodi:nodetypes="ccccscc"
     d="m 1765.8138,1333.0167 c -4.1065,2.5956 -7.8499,5.5789 -11.1902,8.8793 -11.7733,11.633 -18.5377,27.2047 -18.5383,43.6162 4e-4,21.0688 11.1483,40.7535 29.7305,52.4976 -14.9771,-13.1046 -23.606,-32.293 -23.6055,-52.4976 4e-4,-15.9003 5.344,-31.1714 14.9204,-43.3432 2.5917,-3.2941 5.4934,-6.3612 8.6831,-9.1523 z"
     style="opacity:0.835484;fill:#afb0b2;fill-opacity:1;stroke:none;stroke-width:5.12083;stroke-linecap:square;stroke-linejoin:round;stroke-miterlimit:4;stroke-dasharray:none;stroke-opacity:1;paint-order:stroke fill markers;filter:url(#filter2259-7-2)"
     id="path3895-8" /><path
     inkscape:export-ydpi="96.06395"
     inkscape:export-xdpi="96.06395"
     transform="matrix(0.37745877,0,0,0.37745775,-835.48648,-669.34131)"
     sodipodi:nodetypes="ccccc"
     id="path3897-6"
     d="m 1827.2215,1332.1868 c -3.4066,-0.5767 -5.4429,0.7528 -2.74,4.5962 15.2691,19.6166 23.8864,41.3906 30.4939,63.8164 1.2812,3.9405 4.7995,2.9541 5.9221,0.6187 13.2277,-32.8976 -13.0929,-65.1205 -33.676,-69.0313 z"
     style="opacity:0.670968;fill:#78797a;fill-opacity:1;stroke:none;stroke-width:1px;stroke-linecap:butt;stroke-linejoin:miter;stroke-opacity:1;filter:url(#filter2353-2-3)" /><path
     inkscape:export-ydpi="96.06395"
     inkscape:export-xdpi="96.06395"
     fill="#3ED8D2"
     d="m -144.32353,-140.45717 c 0,2.55627 -0.95811,4.65242 -2.84519,6.2107 -1.90356,1.5884 -4.34797,2.37045 -7.35942,2.37045 h -9.63769 v -29.47383 h 9.31079 c 2.81885,0 5.05221,0.6283 6.67953,1.83258 1.63812,1.23138 2.45419,2.87136 2.45419,4.95006 0,1.60106 -0.49024,3.01147 -1.45904,4.22933 -0.98635,1.24501 -2.25865,2.0913 -3.84809,2.59711 v 0.0885 c 2.10489,0.26653 3.73716,1.04568 4.93069,2.30724 1.16629,1.2898 1.77423,2.90057 1.77423,4.88787 z m -6.58424,-13.16945 c 0,-1.17211 -0.44164,-2.08543 -1.2957,-2.71869 -0.88222,-0.63127 -2.16329,-0.94647 -3.87035,-0.94647 h -3.18754 v 8.15419 h 3.14377 c 1.64678,0 2.93851,-0.38909 3.84703,-1.16823 0.90074,-0.77811 1.36279,-1.86755 1.36279,-3.3208 z m 1.39483,13.03715 c 0,-1.4095 -0.49417,-2.51445 -1.51551,-3.31595 -1.02229,-0.79181 -2.52412,-1.17308 -4.54636,-1.17308 h -3.68655 v 9.156 h 4.12328 c 1.75184,0 3.1243,-0.426 4.12134,-1.27223 1.01556,-0.83266 1.5038,-1.97167 1.5038,-3.39474 z"
     id="path3907-0"
     style="fill:#434546;fill-opacity:1;stroke-width:0.972707" /></g><g
   transform="translate(397.95337,225.7145)"
   id="g2049"><ellipse
     inkscape:export-ydpi="96.06395"
     inkscape:export-xdpi="96.06395"
     ry="25.35578"
     rx="25.355848"
     style="fill:url(#radialGradient3921-7);fill-opacity:1;stroke:url(#linearGradient3923-2);stroke-width:1.99223;stroke-linecap:square;stroke-linejoin:round;stroke-miterlimit:4;stroke-dasharray:none;stroke-opacity:1;paint-order:stroke fill markers"
     id="circle3887-0"
     cx="-207.46632"
     cy="-199.36261" /><path
     inkscape:export-ydpi="96.06395"
     inkscape:export-xdpi="96.06395"
     transform="matrix(0.37745877,0,0,0.37745775,-835.48648,-669.34131)"
     id="path3889-8"
     style="opacity:0.835484;fill:#afb0b2;fill-opacity:1;stroke:none;stroke-width:5.12083;stroke-linecap:square;stroke-linejoin:round;stroke-miterlimit:4;stroke-dasharray:none;stroke-opacity:1;paint-order:stroke fill markers;filter:url(#filter2259-7-2)"
     d="m 1630.0638,1193.2668 c -4.1065,2.5956 -7.8499,5.5789 -11.1902,8.8793 -11.7733,11.633 -18.5377,27.2047 -18.5383,43.6162 4e-4,21.0688 11.1483,40.7535 29.7305,52.4976 -14.9771,-13.1046 -23.606,-32.293 -23.6055,-52.4976 4e-4,-15.9003 5.344,-31.1714 14.9204,-43.3432 2.5917,-3.2941 5.4934,-6.3612 8.6831,-9.1523 z"
     sodipodi:nodetypes="ccccscc" /><path
     inkscape:export-ydpi="96.06395"
     inkscape:export-xdpi="96.06395"
     transform="matrix(0.37745877,0,0,0.37745775,-835.48648,-669.34131)"
     style="opacity:0.670968;fill:#78797a;fill-opacity:1;stroke:none;stroke-width:1px;stroke-linecap:butt;stroke-linejoin:miter;stroke-opacity:1;filter:url(#filter2353-2-3)"
     d="m 1691.4715,1192.4369 c -3.4066,-0.5767 -5.4429,0.7528 -2.74,4.5962 15.2691,19.6166 23.8864,41.3906 30.4939,63.8164 1.2812,3.9405 4.7995,2.9541 5.9221,0.6187 13.2277,-32.8976 -13.0929,-65.1205 -33.676,-69.0313 z"
     id="path3891-3"
     sodipodi:nodetypes="ccccc" /><path
     inkscape:export-ydpi="96.06395"
     inkscape:export-xdpi="96.06395"
     fill="#0311DE"
     d="m -205.13383,-195.31328 v 10.68712 h -4.86058 v -10.56743 l -9.57827,-18.90544 h 5.56486 l 5.92865,12.30075 c 0.20711,0.39981 0.32957,0.76168 0.42599,1.09041 0.0964,0.32685 0.17121,0.59338 0.24907,0.80247 h 0.0438 c 0.14702,-0.62448 0.36283,-1.24016 0.67601,-1.85106 l 6.15042,-12.34257 h 5.17387 z"
     id="path3909-7"
     style="fill:#434546;fill-opacity:1;stroke-width:0.972707" /></g><g
   transform="translate(395.99151,174.47465)"
   id="g2043"><ellipse
     inkscape:export-ydpi="96.06395"
     inkscape:export-xdpi="96.06395"
     ry="25.35578"
     rx="25.355848"
     cy="-148.12276"
     cx="-260.21616"
     id="circle3881-0"
     style="fill:url(#radialGradient3925-5);fill-opacity:1;stroke:url(#linearGradient3927-7);stroke-width:1.99223;stroke-linecap:square;stroke-linejoin:round;stroke-miterlimit:4;stroke-dasharray:none;stroke-opacity:1;paint-order:stroke fill markers" /><path
     inkscape:export-ydpi="96.06395"
     inkscape:export-xdpi="96.06395"
     transform="matrix(0.37745877,0,0,0.37745775,-835.48648,-669.34131)"
     sodipodi:nodetypes="ccccscc"
     d="m 1490.314,1329.0167 c -4.1065,2.5956 -7.8499,5.5789 -11.1902,8.8793 -11.7733,11.633 -18.5377,27.2047 -18.5383,43.6162 4e-4,21.0688 11.1483,40.7535 29.7305,52.4976 -14.9771,-13.1046 -23.606,-32.293 -23.6055,-52.4976 4e-4,-15.9003 5.344,-31.1714 14.9204,-43.3432 2.5917,-3.2941 5.4934,-6.3612 8.6831,-9.1523 z"
     style="opacity:0.835484;fill:#afb0b2;fill-opacity:1;stroke:none;stroke-width:5.12083;stroke-linecap:square;stroke-linejoin:round;stroke-miterlimit:4;stroke-dasharray:none;stroke-opacity:1;paint-order:stroke fill markers;filter:url(#filter2259-7-2)"
     id="path3883-0" /><path
     inkscape:export-ydpi="96.06395"
     inkscape:export-xdpi="96.06395"
     transform="matrix(0.37745877,0,0,0.37745775,-835.48648,-669.34131)"
     sodipodi:nodetypes="ccccc"
     id="path3885-5"
     d="m 1551.7217,1328.1868 c -3.4066,-0.5767 -5.4429,0.7528 -2.74,4.5962 15.2691,19.6166 23.8864,41.3906 30.4939,63.8164 1.2812,3.9405 4.7995,2.9541 5.9221,0.6187 13.2277,-32.8976 -13.0929,-65.1205 -33.676,-69.0313 z"
     style="opacity:0.670968;fill:#78797a;fill-opacity:1;stroke:none;stroke-width:1px;stroke-linecap:butt;stroke-linejoin:miter;stroke-opacity:1;filter:url(#filter2353-2-3)" /><path
     inkscape:export-ydpi="96.06395"
     inkscape:export-xdpi="96.06395"
     fill="#FF8E43"
     d="m -253.29635,-133.38586 -6.23112,-10.71822 c -0.1285,-0.2801 -0.23546,-0.51744 -0.30047,-0.74217 -0.048,-0.25096 -0.11754,-0.48824 -0.20636,-0.74211 h -0.0896 c -0.11301,0.26744 -0.18482,0.50866 -0.25966,0.75381 -0.0748,0.21593 -0.18179,0.44933 -0.32693,0.72951 l -6.34495,10.71826 h -5.9559 l 9.86034,-14.77445 -9.0073,-14.69846 h 6.0172 l 5.25358,9.68228 c 0.50483,0.86078 0.83751,1.5952 1.01938,2.20416 h 0.071 c 0.29669,-0.77139 0.52233,-1.2752 0.63908,-1.51749 0.10621,-0.23048 2.14878,-3.69329 6.09891,-10.36895 h 5.51906 l -9.2007,14.61003 9.31937,14.8638 z"
     id="path3911-6"
     style="fill:#434546;fill-opacity:1;stroke-width:0.972707" /></g></svg>
